<svg xmlns="http://www.w3.org/2000/svg" xmlns:xlink="http://www.w3.org/1999/xlink" width="500" zoomAndPan="magnify" viewBox="0 0 375 374.999991" height="500" preserveAspectRatio="xMidYMid meet" version="1.0"><defs><clipPath id="458746373c"><path d="M 143 115.089844 L 232 115.089844 L 232 220 L 143 220 Z M 143 115.089844 " clip-rule="nonzero"/></clipPath><clipPath id="0fd9d64976"><path d="M 143 115.089844 L 225 115.089844 L 225 216 L 143 216 Z M 143 115.089844 " clip-rule="nonzero"/></clipPath><clipPath id="637c18d0a4"><path d="M 114 159 L 262 159 L 262 259.839844 L 114 259.839844 Z M 114 159 " clip-rule="nonzero"/></clipPath></defs><g clip-path="url(#458746373c)"><path fill="#238ed5" d="M 202.230469 115.609375 C 202.46875 115.574219 202.707031 115.535156 202.949219 115.496094 C 205.589844 115.09375 208.535156 116.992188 209.484375 119.671875 C 214.503906 133.816406 218.914062 148.1875 222.8125 162.679688 C 225.734375 173.515625 228.128906 184.445312 230.648438 195.382812 C 231.691406 199.953125 232.605469 204.296875 227.378906 206.675781 C 224.78125 207.859375 221.523438 208.375 219.242188 209.015625 C 213.945312 210.507812 208.609375 211.867188 203.238281 213.058594 C 192.65625 215.410156 182.121094 217.699219 170.8125 219.171875 C 166.996094 219.667969 160.957031 219.378906 158.472656 215.902344 C 158.46875 215.902344 158.46875 215.902344 158.464844 215.90625 C 158.105469 215.398438 157.828125 214.796875 157.644531 214.082031 C 151.339844 188.792969 146.78125 163.058594 143.988281 136.882812 C 143.714844 134.210938 145.53125 131.1875 148.042969 130.207031 C 165.65625 123.371094 183.710938 118.507812 202.222656 115.617188 " fill-opacity="1" fill-rule="nonzero"/></g><g clip-path="url(#0fd9d64976)"><path fill="#f46bbd" d="M 224.421875 197.753906 C 223.320312 201.527344 219.867188 201.871094 215.921875 203.273438 C 212.058594 204.648438 208.046875 205.53125 204.058594 206.449219 C 197.21875 208.03125 190.277344 209.105469 183.40625 210.53125 C 174.808594 212.316406 167.027344 214.261719 158.464844 215.90625 C 158.105469 215.398438 157.828125 214.796875 157.644531 214.082031 C 151.339844 188.792969 146.78125 163.058594 143.988281 136.882812 C 143.714844 134.210938 145.53125 131.1875 148.042969 130.207031 C 165.65625 123.371094 183.710938 118.507812 202.222656 115.617188 C 207.550781 129.433594 212.1875 143.507812 216.117188 157.78125 C 217.816406 163.933594 219.222656 170.15625 220.730469 176.351562 C 221.578125 179.839844 222.558594 183.296875 223.503906 186.753906 C 224.363281 189.851562 225.363281 194.523438 224.421875 197.753906 Z M 158.523438 151.5625 C 159.199219 153.113281 160.214844 154.652344 161.785156 155.292969 C 164.242188 156.292969 167.191406 155.023438 169.621094 154.503906 C 177.984375 152.714844 185.976562 149.320312 194.066406 146.605469 C 195.113281 146.253906 196.175781 145.894531 197.078125 145.261719 C 198.550781 144.222656 199.085938 142.488281 199.054688 140.753906 C 198.972656 136.457031 198.472656 128.308594 192.964844 127.410156 C 191.34375 127.144531 189.691406 127.519531 188.089844 127.890625 C 179.886719 129.796875 171.832031 132.3125 163.753906 134.675781 C 160.15625 135.726562 158.179688 138.34375 157.425781 141.460938 C 156.644531 144.683594 157.160156 148.4375 158.523438 151.5625 Z M 158.523438 151.5625 " fill-opacity="1" fill-rule="nonzero"/></g><g clip-path="url(#637c18d0a4)"><path fill="#008c53" d="M 261.589844 198.5625 C 259.257812 210.15625 256.550781 221.675781 253.492188 233.097656 C 251.960938 238.808594 250.34375 244.496094 248.632812 250.15625 C 247.605469 253.566406 246.988281 257.863281 243.265625 259.355469 C 242.027344 259.851562 240.675781 259.765625 239.335938 259.5 C 238.085938 259.253906 236.84375 258.847656 235.691406 258.605469 C 225.144531 256.382812 214.589844 254.179688 204.042969 251.976562 C 199.3125 250.984375 194.589844 249.972656 189.84375 249.078125 C 186.695312 248.488281 182.855469 247.566406 182.105469 243.925781 C 182.03125 243.5625 182.007812 243.191406 182.015625 242.820312 C 182.023438 242.105469 182.140625 241.394531 182.261719 240.6875 C 183.816406 231.445312 185.375 222.21875 187.324219 213.054688 C 189.339844 203.585938 192.132812 194.359375 194.402344 184.972656 C 195.125 182.523438 195.597656 178.765625 197.242188 176.8125 C 200.316406 173.171875 205.648438 174.382812 209.769531 174.765625 C 214.898438 175.238281 220.003906 176.007812 225.042969 177.070312 C 236.21875 179.425781 247.03125 183.269531 257.308594 188.238281 C 257.8125 188.480469 258.265625 188.75 258.675781 189.046875 C 258.675781 189.046875 258.675781 189.046875 258.675781 189.042969 C 261.761719 191.246094 262.355469 194.789062 261.589844 198.5625 Z M 178.902344 242.140625 C 178.699219 242.445312 178.46875 242.734375 178.210938 243.007812 C 176.886719 244.433594 174.972656 244.882812 173.09375 244.761719 C 172.527344 244.726562 171.957031 244.671875 171.390625 244.605469 C 169.964844 244.433594 168.554688 244.167969 167.164062 243.8125 C 165.203125 243.304688 163.324219 242.585938 161.382812 242.042969 C 156.777344 240.769531 152.121094 239.691406 147.484375 238.550781 C 142.410156 237.304688 137.328125 236.109375 132.242188 234.9375 C 127.695312 233.886719 121.632812 233.511719 117.542969 231.179688 C 112.648438 228.390625 114.804688 222.195312 115.410156 217.707031 C 116.222656 211.730469 117.152344 205.769531 118.210938 199.835938 C 120.328125 187.957031 122.957031 176.164062 126.167969 164.527344 C 126.800781 162.246094 128.570312 160.976562 130.648438 160.292969 C 132.53125 159.675781 134.660156 159.542969 136.433594 159.554688 C 146.976562 159.65625 157.519531 160.863281 167.78125 163.308594 C 172.976562 164.542969 178.097656 166.089844 183.097656 167.960938 C 187.117188 169.464844 191.953125 170.941406 192.898438 175.769531 C 194.234375 182.574219 191.191406 190.800781 189.839844 197.457031 C 188.304688 205 186.644531 212.558594 184.820312 220.03125 C 183.480469 225.5 183.167969 231.1875 181.164062 236.507812 C 180.460938 238.363281 180.019531 240.464844 178.902344 242.140625 " fill-opacity="1" fill-rule="nonzero"/></g><path fill="#f7de46" d="M 181.164062 236.507812 C 180.460938 238.363281 180.019531 240.464844 178.902344 242.140625 C 177.710938 241.824219 160.960938 237.375 151.703125 235.136719 C 149.488281 234.601562 147.273438 234.085938 145.054688 233.554688 C 137.632812 231.785156 129.527344 230.355469 122.605469 227.039062 C 121.796875 226.652344 120.988281 226.214844 120.367188 225.5625 C 119.261719 224.394531 119.328125 222.757812 119.542969 221.269531 C 122.3125 202.367188 125.933594 183.617188 129.710938 164.894531 C 130.015625 163.363281 130.332031 161.828125 130.640625 160.296875 C 132.523438 159.675781 134.65625 159.542969 136.433594 159.554688 C 146.976562 159.65625 157.519531 160.863281 167.78125 163.308594 C 172.976562 164.542969 178.097656 166.089844 183.097656 167.960938 C 187.117188 169.464844 191.953125 170.941406 192.898438 175.769531 C 194.234375 182.574219 191.191406 190.800781 189.839844 197.457031 C 188.304688 205 186.644531 212.558594 184.820312 220.03125 C 183.480469 225.5 183.167969 231.1875 181.164062 236.507812 Z M 246.816406 238.347656 C 245.984375 241.632812 245.105469 244.917969 244.167969 248.175781 C 243.332031 251.054688 242.046875 254.042969 238.765625 254.546875 C 235.722656 255.011719 232.5 253.695312 229.554688 253.101562 C 213.796875 249.914062 198.214844 245.992188 182.015625 242.824219 C 182.023438 242.109375 182.140625 241.394531 182.261719 240.6875 C 183.816406 231.445312 185.375 222.21875 187.324219 213.054688 C 189.339844 203.585938 192.132812 194.359375 194.402344 184.972656 C 195.125 182.523438 195.597656 178.765625 197.242188 176.8125 C 200.316406 173.171875 205.648438 174.382812 209.769531 174.765625 C 214.898438 175.238281 220.003906 176.007812 225.042969 177.070312 C 236.21875 179.425781 247.03125 183.269531 257.308594 188.238281 C 257.816406 188.480469 258.273438 188.753906 258.683594 189.050781 C 254.882812 205.519531 250.960938 221.964844 246.816406 238.347656 Z M 246.816406 238.347656 " fill-opacity="1" fill-rule="nonzero"/><path fill="#1d1d1b" d="M 143.96875 139.621094 C 143.941406 139.621094 143.914062 139.621094 143.890625 139.617188 C 141.460938 139.367188 139.714844 137.964844 139.648438 136.203125 C 139.566406 134.15625 141.761719 132.460938 144.648438 132.347656 C 147.535156 132.234375 149.859375 133.746094 149.945312 135.792969 C 149.964844 136.210938 149.636719 136.566406 149.222656 136.582031 C 148.808594 136.597656 148.449219 136.273438 148.433594 135.855469 C 148.386719 134.695312 146.683594 133.785156 144.710938 133.859375 C 142.742188 133.9375 141.117188 134.984375 141.160156 136.144531 C 141.199219 137.101562 142.4375 137.949219 144.046875 138.113281 C 144.460938 138.15625 144.765625 138.527344 144.71875 138.945312 C 144.679688 139.332031 144.351562 139.621094 143.96875 139.621094 Z M 145.433594 149.390625 C 145.847656 149.351562 146.160156 148.988281 146.125 148.570312 C 146.089844 148.152344 145.722656 147.84375 145.304688 147.878906 C 143.511719 148.03125 141.957031 147.328125 141.769531 146.28125 C 141.550781 145.085938 143.074219 143.761719 145.09375 143.398438 C 146.128906 143.207031 147.183594 143.292969 147.984375 143.632812 C 148.390625 143.808594 149.09375 144.203125 149.222656 144.917969 C 149.296875 145.328125 149.691406 145.605469 150.105469 145.527344 C 150.515625 145.453125 150.789062 145.058594 150.714844 144.648438 C 150.523438 143.601562 149.761719 142.746094 148.574219 142.242188 C 147.492188 141.78125 146.160156 141.664062 144.824219 141.90625 C 141.898438 142.441406 139.90625 144.480469 140.28125 146.550781 C 140.597656 148.269531 142.453125 149.414062 144.808594 149.414062 C 145.007812 149.414062 145.21875 149.40625 145.433594 149.390625 Z M 146.875 159.066406 C 147.28125 158.964844 147.527344 158.554688 147.425781 158.148438 C 147.328125 157.746094 146.914062 157.496094 146.511719 157.597656 C 144.554688 158.085938 142.734375 157.570312 142.367188 156.425781 C 141.96875 155.195312 143.390625 153.585938 145.464844 152.917969 C 146.539062 152.574219 147.625 152.523438 148.527344 152.777344 C 148.980469 152.90625 149.785156 153.234375 150.023438 153.972656 C 150.148438 154.375 150.574219 154.59375 150.972656 154.464844 C 151.375 154.339844 151.59375 153.914062 151.464844 153.511719 C 151.128906 152.460938 150.230469 151.683594 148.933594 151.320312 C 147.753906 150.992188 146.355469 151.046875 145 151.480469 C 142.046875 152.433594 140.257812 154.808594 140.925781 156.890625 C 141.410156 158.390625 143.0625 159.292969 145.082031 159.292969 C 145.65625 159.289062 146.257812 159.214844 146.875 159.066406 Z M 217.335938 153.113281 C 217.746094 153.015625 217.992188 152.605469 217.894531 152.199219 C 217.761719 151.644531 217.582031 151.09375 217.390625 150.515625 C 217.238281 150.0625 217.085938 149.597656 216.957031 149.117188 C 216.835938 148.695312 216.75 148.246094 216.65625 147.769531 C 216.542969 147.191406 216.421875 146.589844 216.242188 145.980469 C 216.078125 145.433594 215.847656 144.902344 215.621094 144.394531 C 215.410156 143.917969 215.210938 143.460938 215.0625 142.992188 C 214.921875 142.535156 214.808594 142.066406 214.691406 141.570312 C 214.5625 141.019531 214.425781 140.453125 214.242188 139.890625 C 214.058594 139.324219 213.859375 138.757812 213.664062 138.210938 C 213.503906 137.765625 213.347656 137.316406 213.195312 136.871094 C 213.035156 136.394531 212.898438 135.890625 212.765625 135.40625 C 212.617188 134.878906 212.46875 134.332031 212.285156 133.800781 C 212.09375 133.238281 211.886719 132.6875 211.683594 132.152344 C 211.511719 131.695312 211.34375 131.246094 211.1875 130.796875 C 210.964844 130.160156 210.742188 129.539062 210.523438 128.933594 C 210.382812 128.542969 210.246094 128.160156 210.113281 127.785156 C 209.902344 127.195312 209.667969 126.648438 209.441406 126.121094 C 209.246094 125.664062 209.058594 125.234375 208.910156 124.816406 C 208.703125 124.246094 208.53125 123.699219 208.367188 123.167969 C 208.210938 122.671875 208.066406 122.207031 207.910156 121.78125 C 207.550781 120.796875 207.234375 120.027344 207.03125 119.558594 C 206.613281 118.574219 206.4375 118.167969 205.789062 118.339844 C 205.449219 118.53125 205.257812 118.910156 205.300781 119.296875 L 205.3125 119.410156 C 205.316406 119.417969 205.820312 120.472656 206.492188 122.300781 C 206.636719 122.691406 206.773438 123.140625 206.921875 123.613281 C 207.085938 124.136719 207.269531 124.726562 207.488281 125.328125 C 207.652344 125.785156 207.847656 126.238281 208.050781 126.714844 C 208.269531 127.21875 208.496094 127.746094 208.6875 128.285156 C 208.824219 128.664062 208.960938 129.050781 209.101562 129.441406 C 209.316406 130.042969 209.539062 130.660156 209.761719 131.292969 C 209.921875 131.75 210.089844 132.210938 210.265625 132.675781 C 210.460938 133.203125 210.664062 133.746094 210.851562 134.289062 C 211.019531 134.773438 211.15625 135.277344 211.304688 135.804688 C 211.441406 136.3125 211.585938 136.832031 211.757812 137.34375 C 211.914062 137.804688 212.070312 138.257812 212.234375 138.714844 C 212.425781 139.253906 212.625 139.8125 212.800781 140.359375 C 212.96875 140.863281 213.089844 141.375 213.214844 141.917969 C 213.335938 142.421875 213.457031 142.9375 213.617188 143.445312 C 213.789062 143.992188 214.015625 144.507812 214.234375 145.003906 C 214.453125 145.492188 214.65625 145.957031 214.792969 146.414062 C 214.953125 146.953125 215.0625 147.515625 215.171875 148.0625 C 215.265625 148.542969 215.363281 149.039062 215.5 149.519531 C 215.640625 150.03125 215.800781 150.515625 215.957031 150.988281 C 216.136719 151.535156 216.308594 152.058594 216.425781 152.550781 C 216.507812 152.898438 216.820312 153.132812 217.164062 153.132812 C 217.21875 153.132812 217.277344 153.125 217.335938 153.113281 Z M 206.21875 119.792969 Z M 219.238281 161.371094 C 219.644531 161.277344 219.898438 160.875 219.808594 160.464844 C 219.65625 159.800781 219.554688 159.46875 219.457031 159.148438 C 219.363281 158.839844 219.277344 158.546875 219.136719 157.933594 C 218.984375 157.265625 218.882812 156.933594 218.78125 156.613281 C 218.6875 156.304688 218.597656 156.011719 218.460938 155.40625 C 218.367188 154.996094 217.964844 154.742188 217.554688 154.835938 C 217.148438 154.925781 216.894531 155.332031 216.984375 155.738281 C 217.136719 156.402344 217.238281 156.738281 217.335938 157.058594 C 217.429688 157.367188 217.523438 157.660156 217.660156 158.269531 C 217.8125 158.933594 217.914062 159.265625 218.011719 159.585938 C 218.105469 159.894531 218.195312 160.1875 218.332031 160.804688 C 218.414062 161.15625 218.726562 161.390625 219.070312 161.390625 C 219.125 161.386719 219.179688 161.382812 219.238281 161.371094 Z M 200.480469 183.082031 C 200.832031 181.632812 200.453125 180.113281 199.414062 178.804688 C 198.417969 177.546875 196.921875 176.625 195.207031 176.210938 C 191.59375 175.339844 188.078125 177 187.371094 179.914062 C 187.273438 180.320312 187.523438 180.730469 187.929688 180.828125 C 188.339844 180.925781 188.746094 180.675781 188.84375 180.269531 C 189.351562 178.167969 192.050781 177.007812 194.851562 177.679688 C 196.242188 178.015625 197.445312 178.746094 198.230469 179.738281 C 198.976562 180.679688 199.253906 181.738281 199.011719 182.71875 C 198.914062 183.125 199.164062 183.535156 199.570312 183.632812 C 199.632812 183.648438 199.691406 183.65625 199.75 183.65625 C 200.089844 183.660156 200.398438 183.425781 200.480469 183.082031 Z M 198.585938 192.664062 C 198.9375 191.300781 198.601562 189.863281 197.640625 188.609375 C 196.722656 187.410156 195.332031 186.523438 193.71875 186.105469 C 192.109375 185.691406 190.460938 185.792969 189.074219 186.394531 C 187.628906 187.027344 186.636719 188.125 186.28125 189.488281 C 186.179688 189.890625 186.421875 190.304688 186.824219 190.410156 C 187.230469 190.515625 187.644531 190.269531 187.75 189.863281 C 187.980469 188.964844 188.667969 188.226562 189.679688 187.785156 C 190.753906 187.316406 192.050781 187.242188 193.335938 187.574219 C 194.625 187.90625 195.722656 188.601562 196.4375 189.53125 C 197.109375 190.40625 197.351562 191.386719 197.117188 192.289062 C 197.011719 192.691406 197.257812 193.105469 197.664062 193.210938 C 197.726562 193.226562 197.789062 193.234375 197.851562 193.234375 C 198.191406 193.230469 198.496094 193.003906 198.585938 192.664062 Z M 194.792969 201.652344 C 195.148438 200.460938 194.90625 199.179688 194.101562 198.039062 C 193.335938 196.957031 192.148438 196.128906 190.753906 195.710938 C 187.808594 194.828125 184.832031 196.050781 184.109375 198.441406 C 183.988281 198.839844 184.214844 199.261719 184.613281 199.382812 C 185.015625 199.503906 185.4375 199.277344 185.558594 198.875 C 186.035156 197.289062 188.171875 196.519531 190.316406 197.164062 C 191.386719 197.484375 192.292969 198.105469 192.863281 198.914062 C 193.390625 199.664062 193.5625 200.480469 193.339844 201.21875 C 193.21875 201.617188 193.445312 202.039062 193.847656 202.160156 C 193.921875 202.179688 193.992188 202.191406 194.066406 202.191406 C 194.394531 202.191406 194.695312 201.980469 194.792969 201.652344 Z M 192.4375 210.945312 C 192.753906 209.59375 192.390625 208.179688 191.414062 206.96875 C 190.480469 205.804688 189.085938 204.964844 187.484375 204.589844 C 185.886719 204.214844 184.261719 204.355469 182.910156 204.980469 C 181.492188 205.636719 180.542969 206.746094 180.226562 208.09375 C 180.132812 208.503906 180.382812 208.90625 180.789062 209.003906 C 181.199219 209.101562 181.601562 208.847656 181.699219 208.441406 C 181.90625 207.550781 182.5625 206.808594 183.546875 206.355469 C 184.59375 205.871094 185.871094 205.765625 187.140625 206.0625 C 188.414062 206.359375 189.511719 207.015625 190.238281 207.914062 C 190.917969 208.761719 191.175781 209.714844 190.96875 210.605469 C 190.875 211.011719 191.125 211.417969 191.535156 211.515625 C 191.59375 211.527344 191.648438 211.535156 191.710938 211.535156 C 192.046875 211.53125 192.355469 211.296875 192.4375 210.945312 Z M 191.257812 220.46875 C 191.851562 217.582031 189.425781 214.632812 185.847656 213.894531 C 182.269531 213.15625 178.871094 214.90625 178.277344 217.792969 C 178.191406 218.203125 178.457031 218.601562 178.867188 218.683594 C 179.273438 218.769531 179.675781 218.503906 179.757812 218.097656 C 180.183594 216.027344 182.78125 214.808594 185.539062 215.375 C 188.300781 215.945312 190.199219 218.089844 189.773438 220.164062 C 189.6875 220.574219 189.953125 220.972656 190.359375 221.054688 C 190.414062 221.066406 190.464844 221.070312 190.515625 221.070312 C 190.871094 221.074219 191.1875 220.828125 191.257812 220.46875 Z M 190.078125 230.199219 C 190.355469 228.6875 189.875 227.140625 188.722656 225.847656 C 187.621094 224.605469 186.023438 223.742188 184.21875 223.414062 C 182.417969 223.082031 180.617188 223.324219 179.144531 224.09375 C 177.613281 224.898438 176.613281 226.175781 176.339844 227.6875 C 176.261719 228.097656 176.535156 228.496094 176.949219 228.570312 C 177.359375 228.644531 177.753906 228.371094 177.828125 227.960938 C 178.019531 226.914062 178.738281 226.019531 179.851562 225.4375 C 181.023438 224.820312 182.476562 224.632812 183.949219 224.902344 C 185.417969 225.171875 186.714844 225.863281 187.59375 226.855469 C 188.429688 227.792969 188.78125 228.882812 188.589844 229.929688 C 188.515625 230.339844 188.789062 230.738281 189.199219 230.8125 C 189.246094 230.820312 189.292969 230.824219 189.335938 230.824219 C 189.691406 230.820312 190.011719 230.5625 190.078125 230.199219 Z M 187.945312 237.996094 C 188.1875 236.675781 187.769531 235.324219 186.765625 234.199219 C 185.8125 233.125 184.425781 232.378906 182.867188 232.089844 C 181.308594 231.808594 179.75 232.015625 178.476562 232.683594 C 177.140625 233.382812 176.269531 234.5 176.027344 235.820312 C 175.953125 236.234375 176.226562 236.625 176.636719 236.703125 C 177.046875 236.78125 177.441406 236.503906 177.519531 236.09375 C 177.675781 235.238281 178.261719 234.503906 179.179688 234.027344 C 180.15625 233.515625 181.371094 233.355469 182.597656 233.578125 C 183.824219 233.804688 184.902344 234.378906 185.636719 235.203125 C 186.320312 235.976562 186.613281 236.871094 186.457031 237.726562 C 186.382812 238.136719 186.65625 238.53125 187.066406 238.605469 C 187.113281 238.613281 187.15625 238.617188 187.203125 238.617188 C 187.5625 238.617188 187.882812 238.359375 187.945312 237.996094 Z M 178.796875 177.765625 C 178.972656 177.386719 178.808594 176.933594 178.429688 176.761719 C 178.125 176.621094 177.828125 176.480469 177.53125 176.339844 C 176.769531 175.976562 175.984375 175.609375 175.1875 175.273438 C 174.859375 175.140625 174.535156 175 174.210938 174.859375 C 173.460938 174.535156 172.683594 174.203125 171.894531 173.910156 C 171.171875 173.640625 170.433594 173.414062 169.71875 173.191406 C 169.316406 173.066406 168.910156 172.941406 168.503906 172.808594 C 168.132812 172.683594 167.761719 172.554688 167.394531 172.429688 C 166.65625 172.175781 165.894531 171.914062 165.121094 171.691406 C 164.402344 171.484375 163.675781 171.328125 162.96875 171.179688 C 162.527344 171.085938 162.082031 170.992188 161.644531 170.882812 C 161.175781 170.769531 160.691406 170.632812 160.230469 170.496094 C 159.574219 170.308594 158.894531 170.113281 158.195312 169.96875 C 157.417969 169.8125 156.625 169.695312 155.859375 169.578125 C 155.464844 169.519531 155.070312 169.460938 154.675781 169.394531 C 154.183594 169.316406 153.699219 169.203125 153.1875 169.085938 C 152.539062 168.933594 151.863281 168.777344 151.167969 168.691406 C 150.480469 168.605469 149.796875 168.601562 149.132812 168.601562 C 148.597656 168.597656 148.09375 168.59375 147.59375 168.554688 C 147.117188 168.511719 146.628906 168.449219 146.152344 168.390625 C 145.46875 168.304688 144.757812 168.214844 144.042969 168.179688 C 143.277344 168.144531 142.511719 168.15625 141.769531 168.171875 C 141.339844 168.175781 140.902344 168.1875 140.472656 168.183594 C 139.691406 168.179688 138.914062 168.21875 138.164062 168.257812 C 137.746094 168.277344 137.328125 168.300781 136.910156 168.3125 C 136.492188 168.328125 136.164062 168.675781 136.179688 169.09375 C 136.195312 169.511719 136.542969 169.839844 136.960938 169.824219 C 137.386719 169.808594 137.8125 169.789062 138.242188 169.765625 C 138.972656 169.726562 139.726562 169.691406 140.464844 169.695312 C 140.910156 169.695312 141.351562 169.6875 141.796875 169.683594 C 142.515625 169.667969 143.257812 169.65625 143.972656 169.691406 C 144.628906 169.71875 145.273438 169.804688 145.964844 169.886719 C 146.453125 169.949219 146.957031 170.011719 147.460938 170.058594 C 148.019531 170.105469 148.582031 170.105469 149.125 170.109375 C 149.769531 170.113281 150.378906 170.117188 150.980469 170.191406 C 151.59375 170.265625 152.199219 170.40625 152.84375 170.554688 C 153.355469 170.675781 153.886719 170.796875 154.425781 170.886719 C 154.824219 170.953125 155.226562 171.015625 155.628906 171.074219 C 156.378906 171.1875 157.148438 171.300781 157.886719 171.453125 C 158.527344 171.582031 159.148438 171.761719 159.804688 171.949219 C 160.28125 172.089844 160.777344 172.230469 161.28125 172.351562 C 161.738281 172.464844 162.199219 172.5625 162.648438 172.65625 C 163.359375 172.808594 164.035156 172.949219 164.699219 173.144531 C 165.433594 173.355469 166.175781 173.613281 166.894531 173.859375 C 167.269531 173.988281 167.648438 174.121094 168.027344 174.242188 C 168.4375 174.378906 168.855469 174.507812 169.269531 174.636719 C 169.960938 174.851562 170.679688 175.074219 171.363281 175.328125 C 172.117188 175.609375 172.878906 175.933594 173.609375 176.25 C 173.941406 176.390625 174.269531 176.535156 174.601562 176.671875 C 175.363281 176.992188 176.132812 177.355469 176.875 177.707031 C 177.179688 177.847656 177.484375 177.992188 177.785156 178.132812 C 177.886719 178.179688 177.996094 178.203125 178.101562 178.203125 C 178.394531 178.203125 178.664062 178.039062 178.796875 177.765625 Z M 175.382812 188.671875 C 175.5625 188.292969 175.394531 187.84375 175.015625 187.667969 C 174.582031 187.464844 174.140625 187.238281 173.714844 187.015625 C 173.070312 186.6875 172.402344 186.347656 171.710938 186.054688 C 170.535156 185.5625 169.378906 185.109375 168.289062 184.699219 C 167.078125 184.25 165.851562 183.835938 164.8125 183.496094 C 164.019531 183.238281 163.207031 183.019531 162.429688 182.804688 C 162.039062 182.703125 161.652344 182.597656 161.269531 182.488281 C 160.464844 182.257812 159.648438 182.070312 158.859375 181.886719 C 158.46875 181.796875 158.082031 181.710938 157.695312 181.617188 C 157.191406 181.496094 156.699219 181.332031 156.175781 181.164062 C 155.527344 180.949219 154.855469 180.730469 154.15625 180.59375 C 153.457031 180.453125 152.753906 180.390625 152.074219 180.332031 C 151.527344 180.285156 151.011719 180.242188 150.5 180.160156 C 149.992188 180.078125 149.492188 179.957031 148.960938 179.832031 C 148.289062 179.675781 147.597656 179.515625 146.886719 179.429688 C 145.832031 179.300781 144.703125 179.191406 143.222656 179.074219 C 142.496094 179.015625 141.777344 179.03125 141.082031 179.042969 C 140.546875 179.050781 140.042969 179.058594 139.535156 179.039062 C 138.433594 178.996094 137.269531 178.972656 135.859375 178.972656 C 135.445312 178.972656 135.105469 179.3125 135.105469 179.730469 C 135.105469 180.148438 135.445312 180.488281 135.859375 180.488281 C 137.246094 180.488281 138.398438 180.507812 139.476562 180.550781 C 140.027344 180.574219 140.574219 180.5625 141.109375 180.550781 C 141.800781 180.539062 142.449219 180.527344 143.101562 180.582031 C 144.5625 180.695312 145.675781 180.804688 146.707031 180.929688 C 147.335938 181.007812 147.957031 181.152344 148.617188 181.308594 C 149.148438 181.433594 149.699219 181.5625 150.261719 181.652344 C 150.828125 181.746094 151.398438 181.796875 151.945312 181.84375 C 152.613281 181.902344 153.246094 181.957031 153.863281 182.078125 C 154.476562 182.203125 155.078125 182.398438 155.710938 182.605469 C 156.242188 182.777344 156.785156 182.953125 157.347656 183.089844 C 157.738281 183.183594 158.132812 183.277344 158.527344 183.363281 C 159.296875 183.542969 160.097656 183.726562 160.863281 183.945312 C 161.253906 184.054688 161.648438 184.164062 162.039062 184.265625 C 162.804688 184.472656 163.589844 184.683594 164.347656 184.933594 C 165.371094 185.269531 166.582031 185.671875 167.769531 186.117188 C 168.84375 186.515625 169.976562 186.964844 171.136719 187.449219 C 171.773438 187.714844 172.386719 188.027344 173.035156 188.359375 C 173.472656 188.585938 173.925781 188.820312 174.386719 189.035156 C 174.492188 189.082031 174.601562 189.105469 174.707031 189.105469 C 174.980469 189.109375 175.257812 188.945312 175.382812 188.671875 Z M 174.324219 199.796875 C 174.441406 199.394531 174.214844 198.972656 173.8125 198.855469 C 172.710938 198.53125 171.433594 198.152344 170.171875 197.808594 C 169.449219 197.609375 168.714844 197.4375 168.003906 197.277344 C 167.496094 197.15625 166.996094 197.042969 166.488281 196.914062 C 165.964844 196.78125 165.445312 196.636719 164.925781 196.492188 C 164.242188 196.304688 163.539062 196.105469 162.832031 195.941406 C 162.125 195.773438 161.410156 195.644531 160.714844 195.515625 C 160.1875 195.421875 159.644531 195.324219 159.113281 195.210938 C 158.613281 195.105469 158.113281 194.984375 157.609375 194.867188 C 156.894531 194.699219 156.15625 194.527344 155.417969 194.382812 C 154.722656 194.246094 154.019531 194.152344 153.34375 194.0625 C 152.792969 193.988281 152.222656 193.90625 151.675781 193.8125 C 151.1875 193.726562 150.703125 193.636719 150.21875 193.539062 C 149.476562 193.398438 148.714844 193.253906 147.949219 193.136719 C 147.195312 193.019531 146.433594 192.925781 145.695312 192.839844 C 145.195312 192.78125 144.695312 192.722656 144.195312 192.65625 C 143.632812 192.578125 143.082031 192.449219 142.496094 192.316406 C 141.84375 192.167969 141.167969 192.011719 140.472656 191.933594 C 139.757812 191.847656 139.039062 191.804688 138.339844 191.757812 C 137.796875 191.71875 137.238281 191.683594 136.695312 191.632812 C 136.277344 191.59375 135.90625 191.894531 135.867188 192.3125 C 135.824219 192.726562 136.128906 193.097656 136.546875 193.140625 C 137.113281 193.195312 137.691406 193.234375 138.246094 193.269531 C 138.921875 193.3125 139.625 193.359375 140.296875 193.4375 C 140.914062 193.511719 141.519531 193.648438 142.164062 193.792969 C 142.757812 193.929688 143.367188 194.070312 143.996094 194.15625 C 144.503906 194.222656 145.011719 194.285156 145.519531 194.34375 C 146.246094 194.429688 146.996094 194.519531 147.71875 194.632812 C 148.457031 194.75 149.210938 194.894531 149.9375 195.03125 C 150.429688 195.128906 150.921875 195.222656 151.414062 195.308594 C 151.992188 195.40625 152.578125 195.488281 153.136719 195.566406 C 153.796875 195.652344 154.476562 195.746094 155.128906 195.871094 C 155.84375 196.011719 156.5625 196.179688 157.265625 196.34375 C 157.773438 196.464844 158.285156 196.585938 158.796875 196.695312 C 159.34375 196.8125 159.902344 196.910156 160.445312 197.007812 C 161.117188 197.128906 161.816406 197.257812 162.484375 197.414062 C 163.160156 197.574219 163.851562 197.765625 164.519531 197.953125 C 165.050781 198.101562 165.582031 198.246094 166.117188 198.382812 C 166.628906 198.511719 167.144531 198.632812 167.660156 198.753906 C 168.355469 198.914062 169.074219 199.082031 169.769531 199.269531 C 171.019531 199.613281 172.285156 199.984375 173.378906 200.308594 C 173.449219 200.332031 173.523438 200.34375 173.59375 200.34375 C 173.921875 200.339844 174.226562 200.125 174.324219 199.796875 Z M 171.261719 211.042969 C 171.382812 210.640625 171.148438 210.222656 170.75 210.109375 C 170.085938 209.914062 169.414062 209.777344 168.761719 209.644531 C 168.210938 209.53125 167.695312 209.425781 167.179688 209.285156 C 166.152344 209.011719 165.058594 208.734375 163.632812 208.386719 C 163.203125 208.277344 162.769531 208.167969 162.339844 208.058594 C 161.605469 207.875 160.84375 207.679688 160.085938 207.511719 C 159.574219 207.398438 159.050781 207.257812 158.542969 207.125 C 157.886719 206.953125 157.210938 206.777344 156.523438 206.640625 C 155.84375 206.507812 155.152344 206.410156 154.484375 206.316406 C 153.960938 206.242188 153.425781 206.167969 152.90625 206.078125 C 152.425781 205.992188 151.945312 205.898438 151.460938 205.800781 C 150.761719 205.660156 150.035156 205.515625 149.308594 205.402344 C 148.785156 205.324219 148.25 205.21875 147.734375 205.117188 C 147.074219 204.988281 146.390625 204.855469 145.703125 204.765625 C 145.023438 204.675781 144.339844 204.644531 143.683594 204.613281 C 143.113281 204.585938 142.582031 204.5625 142.046875 204.503906 C 141.542969 204.445312 141.039062 204.378906 140.535156 204.3125 C 139.84375 204.222656 139.128906 204.125 138.410156 204.058594 C 137.710938 203.996094 137.007812 203.972656 136.324219 203.953125 C 135.808594 203.933594 135.269531 203.921875 134.753906 203.886719 C 134.230469 203.851562 133.695312 203.796875 133.179688 203.742188 C 132.503906 203.675781 131.808594 203.605469 131.109375 203.570312 C 130.691406 203.554688 130.335938 203.875 130.316406 204.292969 C 130.292969 204.710938 130.617188 205.0625 131.035156 205.085938 C 131.695312 205.117188 132.371094 205.183594 133.027344 205.25 C 133.558594 205.304688 134.105469 205.359375 134.652344 205.394531 C 135.199219 205.433594 135.75 205.449219 136.28125 205.464844 C 136.941406 205.488281 137.621094 205.507812 138.277344 205.566406 C 138.960938 205.628906 139.660156 205.71875 140.335938 205.8125 C 140.851562 205.878906 141.363281 205.949219 141.882812 206.007812 C 142.464844 206.070312 143.046875 206.097656 143.613281 206.125 C 144.269531 206.152344 144.890625 206.183594 145.503906 206.265625 C 146.148438 206.351562 146.808594 206.480469 147.449219 206.601562 C 147.980469 206.707031 148.53125 206.8125 149.082031 206.898438 C 149.777344 207.003906 150.488281 207.148438 151.171875 207.28125 C 151.664062 207.378906 152.15625 207.476562 152.648438 207.566406 C 153.191406 207.664062 153.742188 207.742188 154.277344 207.816406 C 154.921875 207.90625 155.59375 208 156.234375 208.125 C 156.875 208.253906 157.527344 208.421875 158.164062 208.589844 C 158.683594 208.726562 159.21875 208.867188 159.757812 208.984375 C 160.496094 209.148438 161.246094 209.339844 161.96875 209.523438 C 162.40625 209.636719 162.84375 209.746094 163.28125 209.851562 C 164.695312 210.195312 165.78125 210.472656 166.796875 210.742188 C 167.355469 210.890625 167.917969 211.003906 168.464844 211.117188 C 169.113281 211.25 169.730469 211.378906 170.332031 211.554688 C 170.402344 211.574219 170.472656 211.585938 170.546875 211.585938 C 170.863281 211.589844 171.164062 211.375 171.261719 211.042969 Z M 166.25 223.929688 C 166.371094 223.53125 166.148438 223.109375 165.746094 222.988281 L 165.359375 222.871094 C 164.332031 222.558594 163.269531 222.238281 162.214844 221.9375 C 161.726562 221.800781 161.238281 221.644531 160.753906 221.496094 C 160.085938 221.285156 159.390625 221.070312 158.691406 220.886719 C 157.90625 220.679688 157.105469 220.488281 156.332031 220.300781 C 155.929688 220.203125 155.523438 220.109375 155.121094 220.007812 C 154.339844 219.816406 153.546875 219.640625 152.777344 219.472656 C 152.363281 219.382812 151.949219 219.292969 151.535156 219.199219 C 150.601562 218.988281 149.648438 218.796875 148.730469 218.609375 L 147.941406 218.449219 C 147.460938 218.351562 146.984375 218.246094 146.503906 218.136719 C 145.800781 217.980469 145.074219 217.824219 144.347656 217.6875 C 143.671875 217.558594 142.992188 217.472656 142.332031 217.390625 C 141.796875 217.324219 141.242188 217.253906 140.707031 217.164062 C 139.632812 216.984375 138.535156 216.824219 137.476562 216.667969 L 137.078125 216.609375 C 136.539062 216.527344 135.984375 216.417969 135.449219 216.3125 C 134.804688 216.183594 134.136719 216.050781 133.460938 215.964844 C 133.042969 215.914062 132.664062 216.203125 132.613281 216.617188 C 132.558594 217.03125 132.851562 217.410156 133.265625 217.464844 C 133.890625 217.546875 134.507812 217.667969 135.15625 217.796875 C 135.710938 217.90625 136.285156 218.015625 136.859375 218.101562 L 137.257812 218.164062 C 138.3125 218.320312 139.398438 218.476562 140.460938 218.65625 C 141.023438 218.75 141.59375 218.824219 142.140625 218.890625 C 142.78125 218.972656 143.441406 219.058594 144.070312 219.171875 C 144.769531 219.300781 145.484375 219.460938 146.175781 219.617188 C 146.664062 219.722656 147.148438 219.832031 147.636719 219.933594 L 148.429688 220.09375 C 149.34375 220.28125 150.285156 220.472656 151.203125 220.675781 C 151.617188 220.769531 152.035156 220.863281 152.453125 220.953125 C 153.210938 221.121094 153.996094 221.292969 154.761719 221.480469 C 155.164062 221.582031 155.570312 221.675781 155.976562 221.773438 C 156.742188 221.957031 157.535156 222.144531 158.304688 222.347656 C 158.972656 222.527344 159.648438 222.734375 160.304688 222.941406 C 160.800781 223.09375 161.300781 223.25 161.800781 223.390625 C 162.84375 223.6875 163.898438 224.007812 164.921875 224.320312 L 165.304688 224.433594 C 165.378906 224.457031 165.453125 224.46875 165.527344 224.46875 C 165.851562 224.46875 166.148438 224.253906 166.25 223.929688 Z M 246.539062 197.496094 C 246.757812 197.140625 246.636719 196.671875 246.277344 196.460938 C 245.289062 195.867188 244.136719 195.1875 242.976562 194.582031 C 241.824219 193.976562 240.652344 193.429688 239.558594 192.925781 C 238.546875 192.460938 237.34375 191.917969 236.078125 191.417969 C 235.652344 191.246094 235.214844 191.054688 234.792969 190.871094 C 234.074219 190.554688 233.332031 190.230469 232.566406 189.96875 C 231.839844 189.722656 231.09375 189.554688 230.375 189.390625 C 229.855469 189.273438 229.367188 189.164062 228.878906 189.027344 C 227.734375 188.703125 226.566406 188.4375 225.433594 188.179688 L 225.195312 188.128906 C 224.882812 188.058594 224.574219 187.984375 224.261719 187.910156 C 223.363281 187.695312 222.433594 187.476562 221.492188 187.316406 C 220.996094 187.230469 220.507812 187.117188 219.992188 186.996094 C 219.273438 186.832031 218.527344 186.65625 217.765625 186.566406 C 216.859375 186.457031 215.9375 186.402344 215.050781 186.351562 C 214.691406 186.332031 214.332031 186.3125 213.972656 186.285156 L 213.226562 186.234375 C 212.230469 186.164062 211.199219 186.089844 210.175781 186.070312 C 210.175781 186.070312 210.167969 186.070312 210.164062 186.070312 C 209.753906 186.070312 209.414062 186.402344 209.410156 186.816406 C 209.402344 187.234375 209.734375 187.578125 210.152344 187.585938 C 211.136719 187.601562 212.144531 187.671875 213.121094 187.742188 L 213.871094 187.792969 C 214.234375 187.816406 214.601562 187.839844 214.96875 187.863281 C 215.832031 187.910156 216.726562 187.960938 217.585938 188.066406 C 218.269531 188.148438 218.941406 188.304688 219.652344 188.46875 C 220.167969 188.585938 220.699219 188.710938 221.238281 188.804688 C 222.132812 188.960938 223.042969 189.171875 223.917969 189.378906 C 224.234375 189.453125 224.550781 189.527344 224.867188 189.601562 L 225.101562 189.65625 C 226.214844 189.910156 227.363281 190.167969 228.472656 190.484375 C 228.996094 190.632812 229.53125 190.75 230.046875 190.867188 C 230.757812 191.027344 231.433594 191.175781 232.082031 191.398438 C 232.789062 191.636719 233.472656 191.9375 234.195312 192.253906 C 234.625 192.441406 235.074219 192.640625 235.527344 192.820312 C 236.761719 193.308594 237.941406 193.84375 238.933594 194.300781 C 240.007812 194.792969 241.15625 195.335938 242.28125 195.917969 C 243.40625 196.511719 244.492188 197.152344 245.507812 197.757812 C 245.628906 197.832031 245.761719 197.863281 245.894531 197.863281 C 246.148438 197.867188 246.398438 197.734375 246.539062 197.496094 Z M 242.796875 206.871094 C 242.941406 206.476562 242.742188 206.042969 242.347656 205.898438 C 241.964844 205.753906 241.582031 205.609375 241.195312 205.460938 C 240.464844 205.183594 239.710938 204.894531 238.957031 204.632812 C 238.316406 204.414062 237.667969 204.265625 237.039062 204.121094 C 236.484375 203.996094 235.960938 203.875 235.449219 203.714844 C 235.035156 203.582031 234.625 203.449219 234.21875 203.3125 C 233.5 203.074219 232.753906 202.828125 232.003906 202.613281 C 231.160156 202.367188 230.296875 202.144531 229.464844 201.929688 C 229.144531 201.847656 228.824219 201.761719 228.507812 201.679688 C 228.023438 201.554688 227.527344 201.40625 227.050781 201.265625 C 226.390625 201.070312 225.710938 200.871094 225.019531 200.707031 C 224.5 200.585938 223.996094 200.441406 223.460938 200.285156 C 222.835938 200.101562 222.183594 199.910156 221.523438 199.769531 C 220.796875 199.613281 220.054688 199.492188 219.34375 199.371094 C 218.878906 199.292969 218.414062 199.214844 217.957031 199.128906 C 216.898438 198.925781 215.648438 198.695312 214.390625 198.488281 C 213.617188 198.363281 212.835938 198.265625 212.078125 198.171875 C 211.648438 198.117188 211.222656 198.0625 210.796875 198.003906 C 210.382812 197.949219 210.003906 198.238281 209.945312 198.652344 C 209.890625 199.066406 210.179688 199.445312 210.59375 199.503906 C 211.027344 199.5625 211.460938 199.617188 211.890625 199.671875 C 212.632812 199.765625 213.402344 199.859375 214.148438 199.980469 C 215.390625 200.1875 216.628906 200.417969 217.675781 200.613281 C 218.148438 200.703125 218.621094 200.78125 219.09375 200.859375 C 219.792969 200.976562 220.515625 201.097656 221.207031 201.242188 C 221.816406 201.375 222.410156 201.546875 223.039062 201.730469 C 223.566406 201.886719 224.117188 202.046875 224.671875 202.175781 C 225.320312 202.332031 225.984375 202.527344 226.621094 202.714844 C 227.109375 202.859375 227.613281 203.007812 228.121094 203.140625 C 228.445312 203.226562 228.765625 203.308594 229.085938 203.390625 C 229.90625 203.605469 230.757812 203.824219 231.585938 204.0625 C 232.304688 204.269531 233.035156 204.511719 233.738281 204.746094 C 234.15625 204.882812 234.574219 205.019531 234.988281 205.152344 C 235.558594 205.332031 236.136719 205.464844 236.699219 205.59375 C 237.320312 205.734375 237.902344 205.867188 238.460938 206.058594 C 239.195312 206.3125 239.933594 206.59375 240.652344 206.871094 C 241.042969 207.015625 241.429688 207.167969 241.820312 207.3125 C 241.90625 207.34375 241.996094 207.359375 242.082031 207.359375 C 242.394531 207.363281 242.683594 207.171875 242.796875 206.871094 Z M 241.738281 217.296875 C 241.859375 216.898438 241.632812 216.476562 241.234375 216.351562 C 240.636719 216.167969 240.027344 216.023438 239.441406 215.882812 C 238.886719 215.75 238.363281 215.621094 237.847656 215.46875 C 237.242188 215.289062 236.625 215.125 236.027344 214.96875 C 235.515625 214.835938 234.984375 214.695312 234.476562 214.546875 C 233.960938 214.398438 233.453125 214.238281 232.945312 214.082031 C 232.351562 213.898438 231.742188 213.707031 231.125 213.535156 C 230.511719 213.363281 229.886719 213.210938 229.285156 213.058594 C 228.765625 212.933594 228.25 212.804688 227.738281 212.664062 C 227.222656 212.523438 226.714844 212.339844 226.179688 212.148438 C 225.609375 211.945312 225.023438 211.734375 224.410156 211.574219 C 223.789062 211.410156 223.15625 211.261719 222.546875 211.117188 C 222.035156 210.996094 221.523438 210.875 221.011719 210.746094 C 220.515625 210.617188 220.027344 210.488281 219.53125 210.359375 C 218.898438 210.191406 218.265625 210.023438 217.625 209.863281 C 217.109375 209.730469 216.578125 209.585938 216.070312 209.441406 C 215.476562 209.277344 214.863281 209.105469 214.246094 208.957031 C 213.613281 208.804688 212.964844 208.664062 212.339844 208.527344 C 211.835938 208.417969 211.335938 208.308594 210.835938 208.191406 C 210.226562 208.050781 209.605469 207.933594 209.003906 207.820312 C 208.476562 207.71875 207.929688 207.621094 207.40625 207.5 C 206.996094 207.410156 206.59375 207.667969 206.5 208.074219 C 206.410156 208.484375 206.664062 208.886719 207.074219 208.980469 C 207.625 209.101562 208.183594 209.207031 208.722656 209.308594 C 209.308594 209.417969 209.910156 209.535156 210.492188 209.667969 C 211 209.785156 211.507812 209.894531 212.015625 210.007812 C 212.632812 210.144531 213.273438 210.28125 213.894531 210.429688 C 214.480469 210.570312 215.082031 210.738281 215.660156 210.902344 C 216.179688 211.046875 216.722656 211.199219 217.261719 211.332031 C 217.890625 211.492188 218.519531 211.65625 219.144531 211.824219 C 219.640625 211.957031 220.140625 212.085938 220.636719 212.214844 C 221.15625 212.347656 221.675781 212.46875 222.199219 212.59375 C 222.800781 212.734375 223.417969 212.878906 224.023438 213.039062 C 224.570312 213.183594 225.105469 213.371094 225.667969 213.578125 C 226.207031 213.769531 226.765625 213.96875 227.339844 214.125 C 227.867188 214.265625 228.390625 214.398438 228.921875 214.527344 C 229.511719 214.671875 230.125 214.828125 230.714844 214.992188 C 231.304688 215.15625 231.910156 215.347656 232.492188 215.527344 C 233.011719 215.6875 233.527344 215.847656 234.050781 216 C 234.582031 216.152344 235.121094 216.292969 235.640625 216.429688 C 236.226562 216.585938 236.832031 216.742188 237.414062 216.917969 C 237.96875 217.082031 238.535156 217.21875 239.082031 217.347656 C 239.652344 217.484375 240.234375 217.628906 240.789062 217.796875 C 240.863281 217.820312 240.9375 217.828125 241.011719 217.828125 C 241.339844 217.835938 241.636719 217.621094 241.738281 217.296875 Z M 238.3125 228.5625 C 238.410156 228.15625 238.164062 227.746094 237.757812 227.648438 C 237.175781 227.5 236.609375 227.324219 236.007812 227.132812 C 235.421875 226.945312 234.816406 226.757812 234.199219 226.601562 C 233.597656 226.449219 232.992188 226.3125 232.390625 226.167969 C 231.789062 226.03125 231.191406 225.886719 230.585938 225.742188 C 230.003906 225.597656 229.414062 225.464844 228.828125 225.332031 C 228.21875 225.191406 227.589844 225.050781 226.980469 224.894531 C 226.367188 224.742188 225.742188 224.613281 225.144531 224.484375 C 224.554688 224.359375 223.945312 224.230469 223.359375 224.085938 C 222.828125 223.953125 222.296875 223.816406 221.765625 223.679688 C 221.097656 223.511719 220.433594 223.339844 219.761719 223.175781 C 219.15625 223.027344 218.535156 222.855469 217.929688 222.6875 C 217.359375 222.53125 216.769531 222.371094 216.179688 222.222656 C 215.578125 222.070312 214.976562 221.925781 214.371094 221.78125 C 213.773438 221.636719 213.175781 221.496094 212.578125 221.34375 C 211.980469 221.195312 211.386719 221.042969 210.789062 220.890625 C 210.1875 220.738281 209.585938 220.585938 208.984375 220.433594 C 208.414062 220.292969 207.855469 220.101562 207.269531 219.902344 C 206.679688 219.703125 206.066406 219.492188 205.433594 219.335938 C 205.027344 219.234375 204.617188 219.480469 204.515625 219.882812 C 204.414062 220.289062 204.660156 220.699219 205.0625 220.804688 C 205.632812 220.945312 206.191406 221.132812 206.777344 221.335938 C 207.371094 221.535156 207.980469 221.746094 208.613281 221.902344 C 209.214844 222.054688 209.8125 222.207031 210.414062 222.359375 C 211.011719 222.511719 211.609375 222.660156 212.207031 222.8125 C 212.8125 222.964844 213.414062 223.109375 214.015625 223.253906 C 214.617188 223.398438 215.214844 223.539062 215.8125 223.691406 C 216.382812 223.832031 216.964844 223.992188 217.527344 224.148438 C 218.136719 224.316406 218.765625 224.488281 219.398438 224.644531 C 220.066406 224.808594 220.726562 224.980469 221.390625 225.148438 C 221.925781 225.28125 222.457031 225.417969 222.992188 225.550781 C 223.601562 225.707031 224.226562 225.835938 224.828125 225.960938 C 225.414062 226.085938 226.023438 226.214844 226.609375 226.363281 C 227.238281 226.519531 227.875 226.664062 228.492188 226.800781 C 229.070312 226.929688 229.648438 227.066406 230.222656 227.203125 C 230.828125 227.355469 231.4375 227.496094 232.046875 227.636719 C 232.640625 227.777344 233.238281 227.914062 233.832031 228.0625 C 234.402344 228.207031 234.960938 228.382812 235.550781 228.570312 C 236.148438 228.757812 236.765625 228.953125 237.390625 229.105469 C 237.453125 229.121094 237.511719 229.128906 237.574219 229.128906 C 237.914062 229.140625 238.226562 228.910156 238.3125 228.5625 Z M 236.160156 240.503906 C 236.242188 240.089844 235.980469 239.691406 235.570312 239.609375 C 235.011719 239.496094 234.445312 239.433594 233.898438 239.375 C 233.265625 239.304688 232.664062 239.242188 232.09375 239.097656 C 231.542969 238.964844 231 238.746094 230.421875 238.515625 C 229.894531 238.308594 229.34375 238.089844 228.769531 237.929688 C 228.277344 237.792969 227.777344 237.664062 227.28125 237.539062 C 226.648438 237.378906 225.996094 237.214844 225.363281 237.027344 C 224.785156 236.855469 224.195312 236.730469 223.625 236.601562 C 223.035156 236.472656 222.480469 236.351562 221.933594 236.1875 C 221.269531 235.984375 220.605469 235.796875 219.945312 235.605469 C 219.472656 235.46875 219.003906 235.335938 218.535156 235.195312 C 217.5625 234.90625 216.574219 234.628906 215.621094 234.363281 L 215.128906 234.222656 C 214.683594 234.101562 214.234375 233.964844 213.789062 233.832031 C 213.117188 233.625 212.417969 233.417969 211.714844 233.238281 C 210.902344 233.035156 210.078125 232.871094 209.277344 232.710938 C 208.929688 232.640625 208.582031 232.570312 208.234375 232.5 C 207.789062 232.402344 207.332031 232.289062 206.894531 232.179688 C 206.203125 232.003906 205.484375 231.824219 204.75 231.707031 C 204.34375 231.640625 203.933594 231.5625 203.527344 231.484375 C 202.777344 231.34375 202 231.195312 201.214844 231.117188 C 200.800781 231.070312 200.429688 231.375 200.386719 231.792969 C 200.347656 232.207031 200.648438 232.578125 201.066406 232.621094 C 201.785156 232.691406 202.527344 232.832031 203.242188 232.96875 C 203.664062 233.046875 204.085938 233.128906 204.507812 233.195312 C 205.175781 233.304688 205.828125 233.46875 206.519531 233.640625 C 206.972656 233.757812 207.441406 233.875 207.917969 233.976562 C 208.273438 234.050781 208.625 234.121094 208.980469 234.191406 C 209.761719 234.347656 210.566406 234.507812 211.34375 234.703125 C 212.011719 234.871094 212.691406 235.078125 213.347656 235.277344 C 213.804688 235.410156 214.257812 235.550781 214.714844 235.675781 L 215.207031 235.816406 C 216.15625 236.082031 217.136719 236.355469 218.101562 236.644531 C 218.574219 236.78125 219.046875 236.917969 219.519531 237.054688 C 220.175781 237.242188 220.832031 237.429688 221.492188 237.628906 C 222.09375 237.8125 222.707031 237.945312 223.300781 238.078125 C 223.867188 238.199219 224.40625 238.320312 224.9375 238.476562 C 225.59375 238.667969 226.261719 238.839844 226.90625 239 C 227.390625 239.125 227.878906 239.25 228.363281 239.382812 C 228.859375 239.523438 229.34375 239.714844 229.859375 239.917969 C 230.453125 240.152344 231.074219 240.402344 231.730469 240.5625 C 232.398438 240.726562 233.078125 240.800781 233.730469 240.871094 C 234.265625 240.929688 234.769531 240.984375 235.261719 241.085938 C 235.3125 241.097656 235.363281 241.097656 235.414062 241.097656 C 235.769531 241.109375 236.085938 240.859375 236.160156 240.503906 Z M 124.058594 183.769531 C 124.230469 183.097656 124.378906 182.417969 124.523438 181.761719 C 124.640625 181.222656 124.761719 180.664062 124.894531 180.113281 C 125.191406 178.910156 125.488281 177.703125 125.773438 176.496094 C 125.929688 175.828125 126.054688 175.148438 126.179688 174.492188 C 126.285156 173.945312 126.390625 173.378906 126.507812 172.835938 C 126.671875 172.113281 126.820312 171.375 126.960938 170.664062 C 127.058594 170.167969 127.160156 169.671875 127.261719 169.183594 C 127.378906 168.625 127.53125 168.078125 127.691406 167.5 C 127.863281 166.867188 128.046875 166.21875 128.175781 165.558594 C 128.28125 165.023438 128.398438 164.488281 128.515625 163.953125 C 128.660156 163.285156 128.8125 162.589844 128.941406 161.902344 C 129.019531 161.492188 128.75 161.09375 128.339844 161.019531 C 127.925781 160.941406 127.53125 161.210938 127.453125 161.621094 C 127.328125 162.289062 127.179688 162.972656 127.039062 163.628906 C 126.917969 164.175781 126.800781 164.71875 126.695312 165.261719 C 126.574219 165.871094 126.40625 166.464844 126.234375 167.09375 C 126.074219 167.667969 125.910156 168.261719 125.78125 168.867188 C 125.675781 169.367188 125.574219 169.867188 125.476562 170.367188 C 125.335938 171.070312 125.191406 171.800781 125.03125 172.507812 C 124.902344 173.078125 124.792969 173.660156 124.691406 174.21875 C 124.570312 174.859375 124.445312 175.515625 124.296875 176.152344 C 124.011719 177.355469 123.71875 178.554688 123.421875 179.769531 C 123.285156 180.328125 123.164062 180.894531 123.042969 181.445312 C 122.902344 182.089844 122.757812 182.753906 122.59375 183.394531 C 122.488281 183.800781 122.730469 184.210938 123.136719 184.316406 C 123.199219 184.332031 123.261719 184.339844 123.324219 184.339844 C 123.660156 184.335938 123.96875 184.113281 124.058594 183.769531 Z M 121.59375 191.898438 C 122.011719 191.890625 122.347656 191.550781 122.34375 191.132812 C 122.332031 190.132812 122.5625 189.144531 122.808594 188.09375 L 122.90625 187.671875 C 123 187.265625 122.742188 186.859375 122.335938 186.765625 C 121.929688 186.671875 121.523438 186.929688 121.429688 187.332031 L 121.332031 187.746094 C 121.078125 188.835938 120.816406 189.96875 120.828125 191.148438 C 120.832031 191.5625 121.171875 191.894531 121.582031 191.894531 C 121.589844 191.898438 121.59375 191.898438 121.59375 191.898438 Z M 211.683594 251.292969 C 211.769531 250.886719 211.503906 250.484375 211.097656 250.398438 C 210.1875 250.207031 209.714844 250.140625 209.261719 250.074219 C 208.8125 250.011719 208.386719 249.953125 207.527344 249.773438 C 206.617188 249.582031 206.152344 249.515625 205.699219 249.445312 C 205.25 249.378906 204.824219 249.316406 203.960938 249.136719 C 203.097656 248.957031 202.683594 248.839844 202.242188 248.722656 C 201.804688 248.601562 201.347656 248.476562 200.4375 248.289062 C 199.558594 248.101562 199.109375 248 198.683594 247.898438 C 198.246094 247.792969 197.796875 247.691406 196.902344 247.503906 C 196.035156 247.320312 195.621094 247.210938 195.175781 247.09375 C 194.734375 246.980469 194.28125 246.859375 193.375 246.671875 C 192.445312 246.476562 191.957031 246.441406 191.488281 246.40625 C 191.042969 246.375 190.628906 246.339844 189.785156 246.164062 C 188.929688 245.984375 188.523438 245.863281 188.089844 245.734375 C 187.644531 245.601562 187.191406 245.464844 186.273438 245.273438 C 185.371094 245.085938 184.90625 245.007812 184.457031 244.9375 C 184.007812 244.863281 183.582031 244.796875 182.710938 244.613281 C 182.300781 244.527344 181.902344 244.789062 181.816406 245.199219 C 181.730469 245.605469 181.992188 246.007812 182.402344 246.09375 C 183.300781 246.28125 183.765625 246.359375 184.214844 246.429688 C 184.667969 246.503906 185.09375 246.570312 185.964844 246.753906 C 186.816406 246.933594 187.226562 247.054688 187.660156 247.183594 C 188.101562 247.316406 188.5625 247.453125 189.472656 247.644531 C 190.410156 247.84375 190.898438 247.878906 191.371094 247.914062 C 191.8125 247.945312 192.230469 247.976562 193.066406 248.152344 C 193.933594 248.335938 194.351562 248.445312 194.796875 248.558594 C 195.234375 248.675781 195.6875 248.792969 196.59375 248.984375 C 197.46875 249.164062 197.90625 249.269531 198.339844 249.371094 C 198.777344 249.472656 199.230469 249.578125 200.128906 249.765625 C 200.992188 249.945312 201.40625 250.0625 201.84375 250.179688 C 202.285156 250.300781 202.742188 250.425781 203.648438 250.613281 C 204.554688 250.804688 205.023438 250.875 205.476562 250.941406 C 205.925781 251.007812 206.351562 251.070312 207.210938 251.25 C 208.125 251.445312 208.59375 251.507812 209.046875 251.574219 C 209.496094 251.636719 209.921875 251.695312 210.785156 251.875 C 210.835938 251.886719 210.890625 251.894531 210.941406 251.894531 C 211.292969 251.894531 211.605469 251.648438 211.683594 251.292969 Z M 218.863281 253.191406 C 218.960938 252.78125 218.710938 252.375 218.304688 252.277344 C 217.445312 252.070312 217.035156 251.941406 216.605469 251.800781 C 216.164062 251.660156 215.707031 251.515625 214.792969 251.292969 C 214.382812 251.195312 213.976562 251.445312 213.878906 251.851562 C 213.78125 252.257812 214.03125 252.667969 214.4375 252.765625 C 215.296875 252.972656 215.707031 253.101562 216.140625 253.238281 C 216.578125 253.382812 217.035156 253.527344 217.953125 253.75 C 218.011719 253.761719 218.070312 253.769531 218.128906 253.769531 C 218.472656 253.769531 218.777344 253.535156 218.863281 253.191406 Z M 256.242188 211.8125 C 256.433594 211 256.585938 210.617188 256.742188 210.210938 C 256.914062 209.773438 257.085938 209.324219 257.304688 208.410156 C 257.511719 207.523438 257.597656 207.070312 257.675781 206.628906 C 257.753906 206.191406 257.832031 205.773438 258.03125 204.925781 C 258.226562 204.078125 258.351562 203.671875 258.480469 203.242188 C 258.609375 202.816406 258.742188 202.371094 258.953125 201.492188 L 259.351562 199.8125 C 259.457031 199.363281 259.5625 198.929688 259.773438 198.03125 C 259.984375 197.132812 260.050781 196.664062 260.109375 196.210938 C 260.171875 195.773438 260.226562 195.363281 260.421875 194.535156 C 260.621094 193.6875 260.738281 193.285156 260.863281 192.855469 C 260.992188 192.425781 261.121094 191.980469 261.328125 191.09375 C 261.421875 190.6875 261.171875 190.28125 260.765625 190.183594 C 260.355469 190.089844 259.953125 190.339844 259.855469 190.75 C 259.65625 191.59375 259.539062 192 259.410156 192.425781 C 259.285156 192.855469 259.152344 193.300781 258.945312 194.1875 C 258.738281 195.089844 258.671875 195.554688 258.609375 196.007812 C 258.550781 196.445312 258.496094 196.855469 258.300781 197.6875 C 258.085938 198.582031 257.984375 199.011719 257.878906 199.457031 L 257.480469 201.144531 C 257.28125 201.980469 257.160156 202.382812 257.03125 202.804688 C 256.902344 203.238281 256.765625 203.683594 256.554688 204.578125 C 256.34375 205.464844 256.261719 205.921875 256.183594 206.359375 C 256.101562 206.800781 256.027344 207.21875 255.828125 208.0625 C 255.636719 208.875 255.488281 209.257812 255.328125 209.664062 C 255.15625 210.097656 254.984375 210.550781 254.765625 211.46875 C 254.667969 211.878906 254.921875 212.285156 255.324219 212.378906 C 255.382812 212.394531 255.445312 212.402344 255.5 212.402344 C 255.847656 212.394531 256.160156 212.160156 256.242188 211.8125 Z M 250.414062 236.320312 C 250.558594 235.722656 250.644531 235.433594 250.734375 235.132812 C 250.828125 234.820312 250.925781 234.5 251.082031 233.859375 C 251.179688 233.457031 250.929688 233.042969 250.523438 232.949219 C 250.117188 232.851562 249.707031 233.097656 249.609375 233.503906 C 249.464844 234.105469 249.378906 234.390625 249.285156 234.695312 C 249.191406 235.007812 249.09375 235.328125 248.941406 235.96875 C 248.84375 236.378906 249.089844 236.785156 249.5 236.882812 C 249.558594 236.898438 249.617188 236.902344 249.675781 236.902344 C 250.019531 236.902344 250.332031 236.667969 250.414062 236.320312 Z M 242.578125 256.648438 C 243.289062 256.132812 243.855469 255.363281 244.453125 254.542969 C 244.546875 254.414062 244.648438 254.277344 244.75 254.140625 C 245.351562 253.328125 246.019531 251.964844 246.539062 250.496094 C 246.78125 249.804688 246.972656 249.042969 247.15625 248.304688 C 247.285156 247.789062 247.417969 247.257812 247.570312 246.742188 C 247.71875 246.242188 247.871094 245.746094 248.023438 245.257812 C 248.265625 244.480469 248.496094 243.742188 248.679688 243.035156 L 248.921875 242.148438 C 249.25 240.929688 249.269531 240.859375 249.648438 239.285156 C 249.746094 238.878906 249.492188 238.46875 249.089844 238.371094 C 248.679688 238.273438 248.273438 238.527344 248.175781 238.929688 C 247.800781 240.484375 247.789062 240.53125 247.460938 241.753906 L 247.21875 242.640625 C 247.039062 243.316406 246.816406 244.039062 246.578125 244.804688 C 246.421875 245.296875 246.265625 245.800781 246.117188 246.308594 C 245.957031 246.851562 245.820312 247.402344 245.6875 247.933594 C 245.503906 248.667969 245.328125 249.363281 245.109375 249.988281 C 244.554688 251.558594 243.929688 252.695312 243.53125 253.234375 C 243.429688 253.375 243.332031 253.507812 243.234375 253.640625 C 242.683594 254.390625 242.210938 255.042969 241.695312 255.410156 C 241.0625 255.867188 240.355469 255.976562 239.335938 255.777344 C 238.921875 255.703125 238.527344 255.96875 238.449219 256.378906 C 238.367188 256.789062 238.636719 257.183594 239.046875 257.265625 C 239.457031 257.34375 239.84375 257.382812 240.210938 257.382812 C 241.113281 257.390625 241.882812 257.144531 242.578125 256.648438 Z M 141.269531 234.898438 C 141.367188 234.492188 141.121094 234.082031 140.710938 233.984375 C 139.871094 233.785156 139.476562 233.640625 139.054688 233.488281 C 138.617188 233.328125 138.164062 233.164062 137.246094 232.945312 C 136.335938 232.722656 135.863281 232.65625 135.40625 232.585938 C 134.960938 232.523438 134.542969 232.460938 133.699219 232.257812 C 132.847656 232.050781 132.445312 231.921875 132.015625 231.785156 C 131.578125 231.644531 131.128906 231.5 130.226562 231.28125 C 129.359375 231.070312 128.921875 230.953125 128.5 230.835938 C 128.066406 230.71875 127.617188 230.597656 126.730469 230.386719 C 125.839844 230.171875 125.386719 230.074219 124.945312 229.984375 C 124.496094 229.890625 124.074219 229.804688 123.210938 229.59375 C 122.804688 229.496094 122.394531 229.746094 122.296875 230.152344 C 122.199219 230.558594 122.445312 230.96875 122.855469 231.066406 C 123.746094 231.28125 124.199219 231.375 124.640625 231.46875 C 125.089844 231.558594 125.511719 231.648438 126.375 231.855469 C 127.246094 232.066406 127.660156 232.179688 128.105469 232.300781 C 128.539062 232.417969 128.984375 232.539062 129.871094 232.753906 C 130.71875 232.960938 131.128906 233.085938 131.558594 233.226562 C 131.996094 233.363281 132.445312 233.507812 133.347656 233.726562 C 134.257812 233.945312 134.730469 234.015625 135.191406 234.085938 C 135.632812 234.148438 136.054688 234.210938 136.894531 234.414062 C 137.730469 234.617188 138.125 234.761719 138.542969 234.914062 C 138.984375 235.070312 139.441406 235.234375 140.359375 235.457031 C 140.417969 235.46875 140.476562 235.476562 140.535156 235.476562 C 140.875 235.476562 141.183594 235.242188 141.269531 234.898438 Z M 146.257812 235.847656 C 146.355469 235.441406 146.109375 235.03125 145.703125 234.933594 C 144.992188 234.757812 144.59375 234.742188 144.242188 234.722656 C 143.921875 234.707031 143.644531 234.695312 143.074219 234.558594 C 142.667969 234.460938 142.257812 234.710938 142.160156 235.117188 C 142.0625 235.523438 142.3125 235.929688 142.71875 236.027344 C 143.429688 236.199219 143.820312 236.21875 144.167969 236.234375 C 144.492188 236.25 144.769531 236.265625 145.34375 236.40625 C 145.402344 236.417969 145.464844 236.425781 145.523438 236.425781 C 145.867188 236.421875 146.175781 236.191406 146.257812 235.847656 Z M 146.257812 235.847656 " fill-opacity="1" fill-rule="nonzero"/></svg>