<svg xmlns="http://www.w3.org/2000/svg" xmlns:xlink="http://www.w3.org/1999/xlink" width="150" zoomAndPan="magnify" viewBox="0 0 112.5 112.499997" height="150" preserveAspectRatio="xMidYMid meet" version="1.0"><defs><clipPath id="cbd0fa7216"><path d="M 0 71 L 112 71 L 112 79.894531 L 0 79.894531 Z M 0 71 " clip-rule="nonzero"/></clipPath></defs><g clip-path="url(#cbd0fa7216)"><path fill="#1f1c20" d="M 111.351562 72.078125 L 110.824219 72.078125 L 110.824219 78.859375 L 1.179688 78.859375 L 1.179688 72.078125 L 0.652344 72.078125 C 0.355469 72.078125 0.121094 71.839844 0.121094 71.546875 L 0.121094 79.390625 C 0.121094 79.679688 0.355469 79.917969 0.652344 79.917969 L 111.351562 79.917969 C 111.644531 79.917969 111.882812 79.679688 111.882812 79.390625 L 111.882812 71.546875 C 111.882812 71.839844 111.644531 72.078125 111.351562 72.078125 " fill-opacity="1" fill-rule="nonzero"/></g><path fill="#1f1c20" d="M 18.300781 74.597656 C 18.300781 74.480469 18.394531 74.390625 18.507812 74.390625 L 19.671875 74.390625 L 20.503906 73.621094 C 20.738281 73.273438 20.738281 73.996094 20.738281 73.996094 L 20.738281 74.640625 C 21.082031 74.640625 21.359375 74.917969 21.359375 75.261719 C 21.359375 75.605469 21.082031 75.882812 20.738281 75.882812 L 20.738281 76.527344 C 20.738281 76.527344 20.738281 77.25 20.503906 76.902344 L 19.671875 76.136719 L 18.507812 76.136719 C 18.394531 76.136719 18.300781 76.042969 18.300781 75.925781 Z M 21.453125 76.703125 C 22.25 76.703125 22.890625 76.054688 22.890625 75.261719 C 22.890625 74.46875 22.25 73.820312 21.453125 73.820312 C 21.410156 73.820312 21.371094 73.785156 21.371094 73.738281 C 21.371094 73.695312 21.410156 73.65625 21.453125 73.65625 C 22.339844 73.65625 23.058594 74.375 23.058594 75.261719 C 23.058594 76.148438 22.339844 76.867188 21.453125 76.867188 C 21.410156 76.867188 21.371094 76.832031 21.371094 76.785156 C 21.371094 76.738281 21.410156 76.703125 21.453125 76.703125 Z M 21.453125 76.402344 C 22.085938 76.402344 22.59375 75.890625 22.59375 75.261719 C 22.59375 74.632812 22.085938 74.121094 21.453125 74.121094 C 21.410156 74.121094 21.371094 74.082031 21.371094 74.035156 C 21.371094 73.992188 21.410156 73.953125 21.453125 73.953125 C 22.175781 73.953125 22.761719 74.539062 22.761719 75.261719 C 22.761719 75.984375 22.175781 76.570312 21.453125 76.570312 C 21.410156 76.570312 21.371094 76.53125 21.371094 76.488281 C 21.371094 76.441406 21.410156 76.402344 21.453125 76.402344 Z M 21.453125 74.445312 C 21.410156 74.445312 21.371094 74.410156 21.371094 74.363281 C 21.371094 74.316406 21.410156 74.277344 21.453125 74.277344 C 21.996094 74.277344 22.4375 74.71875 22.4375 75.261719 C 22.4375 75.804688 21.996094 76.246094 21.453125 76.246094 C 21.410156 76.246094 21.371094 76.207031 21.371094 76.160156 C 21.371094 76.113281 21.410156 76.078125 21.453125 76.078125 C 21.902344 76.078125 22.269531 75.710938 22.269531 75.261719 C 22.269531 74.8125 21.902344 74.445312 21.453125 74.445312 Z M 18.484375 78.164062 L 22.875 78.164062 C 23.265625 78.164062 23.578125 77.851562 23.578125 77.460938 L 23.578125 73.0625 C 23.578125 72.671875 23.265625 72.359375 22.875 72.359375 L 18.484375 72.359375 C 18.09375 72.359375 17.78125 72.671875 17.78125 73.0625 L 17.78125 77.460938 C 17.78125 77.851562 18.09375 78.164062 18.484375 78.164062 " fill-opacity="1" fill-rule="nonzero"/><path fill="#1f1c20" d="M 110.824219 71.015625 L 1.179688 71.015625 L 1.179688 1.070312 L 110.824219 1.070312 Z M 111.351562 0.0117188 L 0.652344 0.0117188 C 0.355469 0.0117188 0.121094 0.25 0.121094 0.542969 L 0.121094 71.546875 C 0.121094 71.839844 0.355469 72.078125 0.652344 72.078125 L 111.351562 72.078125 C 111.644531 72.078125 111.882812 71.839844 111.882812 71.546875 L 111.882812 0.542969 C 111.882812 0.25 111.644531 0.0117188 111.351562 0.0117188 " fill-opacity="1" fill-rule="nonzero"/><path fill="#1f1c20" d="M 56 19.421875 C 64.09375 19.421875 70.671875 26.007812 70.671875 34.109375 C 70.671875 42.207031 64.09375 48.796875 56 48.796875 C 47.910156 48.796875 41.328125 42.207031 41.328125 34.109375 C 41.328125 26.007812 47.910156 19.421875 56 19.421875 Z M 56 49.855469 C 64.675781 49.855469 71.730469 42.792969 71.730469 34.109375 C 71.730469 25.425781 64.675781 18.359375 56 18.359375 C 47.328125 18.359375 40.269531 25.425781 40.269531 34.109375 C 40.269531 42.792969 47.328125 49.855469 56 49.855469 " fill-opacity="1" fill-rule="nonzero"/><path fill="#1f1c20" d="M 51.445312 41.164062 L 51.417969 41.113281 L 51.417969 27.105469 L 51.445312 27.054688 L 51.476562 27.042969 L 51.503906 27.054688 L 63.625 34.054688 L 63.65625 34.109375 L 63.625 34.160156 L 51.503906 41.164062 L 51.769531 41.625 Z M 50.914062 42.082031 C 51.082031 42.179688 51.277344 42.234375 51.476562 42.234375 C 51.671875 42.234375 51.863281 42.179688 52.035156 42.082031 L 64.15625 35.078125 C 64.5 34.878906 64.714844 34.507812 64.714844 34.109375 C 64.714844 33.710938 64.5 33.339844 64.152344 33.136719 L 52.03125 26.132812 C 51.691406 25.9375 51.261719 25.9375 50.914062 26.136719 C 50.570312 26.335938 50.355469 26.707031 50.355469 27.105469 L 50.355469 41.113281 C 50.355469 41.511719 50.574219 41.886719 50.914062 42.082031 " fill-opacity="1" fill-rule="nonzero"/><path fill="#1f1c20" d="M 13.175781 76.867188 L 13.21875 76.851562 L 14.363281 75.898438 L 14.363281 76.742188 C 14.363281 76.785156 14.378906 76.828125 14.40625 76.851562 L 14.449219 76.867188 L 14.492188 76.851562 L 16.265625 75.371094 C 16.292969 75.347656 16.308594 75.304688 16.308594 75.261719 C 16.308594 75.21875 16.292969 75.175781 16.265625 75.152344 L 14.492188 73.671875 L 14.40625 73.671875 C 14.378906 73.695312 14.363281 73.738281 14.363281 73.78125 L 14.363281 74.625 L 13.21875 73.671875 L 13.132812 73.671875 C 13.109375 73.695312 13.089844 73.738281 13.089844 73.78125 L 13.089844 76.742188 C 13.089844 76.785156 13.109375 76.828125 13.132812 76.851562 L 13.175781 76.867188 " fill-opacity="1" fill-rule="nonzero"/><path fill="#1f1c20" d="M 2.414062 75.371094 L 4.1875 76.851562 L 4.230469 76.867188 L 4.273438 76.851562 C 4.300781 76.828125 4.316406 76.785156 4.316406 76.742188 L 4.316406 75.898438 L 5.460938 76.851562 L 5.503906 76.867188 L 5.546875 76.851562 C 5.574219 76.828125 5.589844 76.785156 5.589844 76.742188 L 5.589844 73.78125 C 5.589844 73.738281 5.574219 73.695312 5.546875 73.671875 L 5.460938 73.671875 L 4.316406 74.625 L 4.316406 73.78125 C 4.316406 73.738281 4.300781 73.695312 4.273438 73.671875 L 4.1875 73.671875 L 2.414062 75.152344 C 2.386719 75.175781 2.371094 75.21875 2.371094 75.261719 C 2.371094 75.304688 2.386719 75.347656 2.414062 75.371094 " fill-opacity="1" fill-rule="nonzero"/><path fill="#1f1c20" d="M 9.339844 73.34375 C 10.398438 73.34375 11.257812 74.203125 11.257812 75.261719 C 11.257812 76.320312 10.398438 77.179688 9.339844 77.179688 C 8.285156 77.179688 7.421875 76.320312 7.421875 75.261719 C 7.421875 74.203125 8.285156 73.34375 9.339844 73.34375 Z M 9.339844 77.53125 C 10.589844 77.53125 11.605469 76.515625 11.605469 75.261719 C 11.605469 74.011719 10.589844 72.992188 9.339844 72.992188 C 8.089844 72.992188 7.070312 74.011719 7.070312 75.261719 C 7.070312 76.515625 8.089844 77.53125 9.339844 77.53125 " fill-opacity="1" fill-rule="nonzero"/><path fill="#1f1c20" d="M 9.90625 76.390625 C 10.003906 76.390625 10.082031 76.3125 10.082031 76.214844 L 10.082031 74.308594 C 10.082031 74.210938 10.003906 74.132812 9.90625 74.132812 C 9.8125 74.132812 9.730469 74.210938 9.730469 74.308594 L 9.730469 76.214844 C 9.730469 76.3125 9.8125 76.390625 9.90625 76.390625 " fill-opacity="1" fill-rule="nonzero"/><path fill="#1f1c20" d="M 8.769531 76.390625 C 8.867188 76.390625 8.945312 76.3125 8.945312 76.214844 L 8.945312 74.308594 C 8.945312 74.210938 8.867188 74.132812 8.769531 74.132812 C 8.675781 74.132812 8.59375 74.210938 8.59375 74.308594 L 8.59375 76.214844 C 8.59375 76.3125 8.675781 76.390625 8.769531 76.390625 " fill-opacity="1" fill-rule="nonzero"/><path fill="#1f1c20" d="M 49.433594 75.882812 L 95.460938 75.882812 C 95.804688 75.882812 96.082031 75.605469 96.082031 75.261719 C 96.082031 74.917969 95.804688 74.640625 95.460938 74.640625 L 49.433594 74.640625 C 49.5 74.835938 49.535156 75.042969 49.535156 75.261719 C 49.535156 75.480469 49.5 75.6875 49.433594 75.882812 " fill-opacity="1" fill-rule="nonzero"/><path fill="#1f1c20" d="M 25.695312 75.882812 L 45.792969 75.882812 C 45.726562 75.6875 45.6875 75.480469 45.6875 75.261719 C 45.6875 75.042969 45.726562 74.835938 45.792969 74.640625 L 25.695312 74.640625 C 25.351562 74.640625 25.070312 74.917969 25.070312 75.261719 C 25.070312 75.605469 25.351562 75.882812 25.695312 75.882812 " fill-opacity="1" fill-rule="nonzero"/><path fill="#1f1c20" d="M 45.792969 75.882812 C 46.050781 76.640625 46.769531 77.1875 47.613281 77.1875 C 48.457031 77.1875 49.171875 76.640625 49.433594 75.882812 C 49.5 75.6875 49.535156 75.480469 49.535156 75.261719 C 49.535156 75.042969 49.5 74.835938 49.433594 74.640625 C 49.171875 73.882812 48.457031 73.335938 47.613281 73.335938 C 46.769531 73.335938 46.050781 73.882812 45.792969 74.640625 C 45.726562 74.835938 45.6875 75.042969 45.6875 75.261719 C 45.6875 75.480469 45.726562 75.6875 45.792969 75.882812 " fill-opacity="1" fill-rule="nonzero"/><path fill="#1f1c20" d="M 98.921875 75.144531 C 98.988281 75.144531 99.039062 75.195312 99.039062 75.261719 C 99.039062 75.328125 98.988281 75.382812 98.921875 75.382812 C 98.855469 75.382812 98.804688 75.328125 98.804688 75.261719 C 98.804688 75.195312 98.855469 75.144531 98.921875 75.144531 Z M 99.199219 76.058594 C 99.25 76.011719 99.324219 76.011719 99.371094 76.058594 C 99.414062 76.105469 99.414062 76.179688 99.371094 76.226562 C 99.324219 76.273438 99.25 76.273438 99.199219 76.226562 C 99.15625 76.179688 99.15625 76.105469 99.199219 76.058594 Z M 99.199219 74.296875 C 99.25 74.25 99.324219 74.25 99.371094 74.296875 C 99.414062 74.34375 99.414062 74.417969 99.371094 74.464844 C 99.324219 74.511719 99.25 74.511719 99.199219 74.464844 C 99.15625 74.417969 99.15625 74.34375 99.199219 74.296875 Z M 99.558594 74.796875 C 99.601562 74.742188 99.648438 74.695312 99.699219 74.65625 C 99.875 74.714844 99.976562 74.671875 100.0625 74.503906 C 100.097656 74.5 100.128906 74.496094 100.164062 74.496094 C 100.199219 74.496094 100.234375 74.5 100.269531 74.503906 C 100.351562 74.671875 100.457031 74.714844 100.632812 74.65625 C 100.683594 74.695312 100.730469 74.742188 100.769531 74.796875 C 100.710938 74.96875 100.753906 75.074219 100.921875 75.160156 C 100.925781 75.191406 100.929688 75.226562 100.929688 75.261719 C 100.929688 75.296875 100.925781 75.332031 100.921875 75.367188 C 100.753906 75.449219 100.710938 75.554688 100.769531 75.730469 C 100.730469 75.78125 100.683594 75.828125 100.632812 75.867188 C 100.457031 75.808594 100.351562 75.851562 100.269531 76.019531 C 100.234375 76.023438 100.199219 76.023438 100.164062 76.023438 C 100.128906 76.023438 100.097656 76.023438 100.0625 76.019531 C 99.976562 75.851562 99.875 75.808594 99.699219 75.867188 C 99.648438 75.828125 99.601562 75.78125 99.558594 75.730469 C 99.617188 75.554688 99.574219 75.449219 99.410156 75.367188 C 99.40625 75.332031 99.402344 75.296875 99.402344 75.261719 C 99.402344 75.226562 99.40625 75.191406 99.410156 75.160156 C 99.574219 75.074219 99.617188 74.96875 99.558594 74.796875 Z M 100.164062 73.898438 C 100.230469 73.898438 100.285156 73.949219 100.285156 74.015625 C 100.285156 74.082031 100.230469 74.136719 100.164062 74.136719 C 100.097656 74.136719 100.046875 74.082031 100.046875 74.015625 C 100.046875 73.949219 100.097656 73.898438 100.164062 73.898438 Z M 100.960938 74.296875 C 101.007812 74.25 101.082031 74.25 101.128906 74.296875 C 101.175781 74.34375 101.175781 74.417969 101.128906 74.464844 C 101.082031 74.511719 101.007812 74.511719 100.960938 74.464844 C 100.914062 74.417969 100.914062 74.34375 100.960938 74.296875 Z M 101.410156 75.144531 C 101.472656 75.144531 101.527344 75.195312 101.527344 75.261719 C 101.527344 75.328125 101.472656 75.382812 101.410156 75.382812 C 101.34375 75.382812 101.289062 75.328125 101.289062 75.261719 C 101.289062 75.195312 101.34375 75.144531 101.410156 75.144531 Z M 101.128906 76.226562 C 101.082031 76.273438 101.007812 76.273438 100.960938 76.226562 C 100.914062 76.179688 100.914062 76.105469 100.960938 76.058594 C 101.007812 76.011719 101.082031 76.011719 101.128906 76.058594 C 101.175781 76.105469 101.175781 76.179688 101.128906 76.226562 Z M 100.164062 76.625 C 100.097656 76.625 100.046875 76.574219 100.046875 76.507812 C 100.046875 76.441406 100.097656 76.390625 100.164062 76.390625 C 100.230469 76.390625 100.285156 76.441406 100.285156 76.507812 C 100.285156 76.574219 100.230469 76.625 100.164062 76.625 Z M 98.757812 76.226562 L 98.457031 76.523438 L 98.902344 76.96875 L 99.203125 76.671875 C 99.394531 76.804688 99.613281 76.894531 99.851562 76.941406 L 99.851562 77.363281 L 100.480469 77.363281 L 100.480469 76.941406 C 100.714844 76.894531 100.9375 76.804688 101.128906 76.671875 L 101.425781 76.96875 L 101.871094 76.523438 L 101.570312 76.226562 C 101.703125 76.035156 101.796875 75.8125 101.84375 75.578125 L 102.265625 75.578125 L 102.265625 74.949219 L 101.84375 74.949219 C 101.796875 74.710938 101.703125 74.488281 101.570312 74.296875 L 101.871094 74 L 101.425781 73.554688 L 101.128906 73.855469 C 100.9375 73.722656 100.714844 73.628906 100.480469 73.582031 L 100.480469 73.164062 L 99.851562 73.164062 L 99.851562 73.582031 C 99.613281 73.628906 99.394531 73.722656 99.203125 73.855469 L 98.902344 73.554688 L 98.457031 74 L 98.757812 74.296875 C 98.625 74.488281 98.535156 74.710938 98.488281 74.949219 L 98.066406 74.949219 L 98.066406 75.578125 L 98.488281 75.578125 C 98.535156 75.8125 98.625 76.035156 98.757812 76.226562 " fill-opacity="1" fill-rule="nonzero"/><path fill="#1f1c20" d="M 105.582031 73.734375 L 106.675781 73.734375 L 106.675781 73.164062 L 105.011719 73.164062 L 105.011719 74.828125 L 105.582031 74.828125 L 105.582031 73.734375 " fill-opacity="1" fill-rule="nonzero"/><path fill="#1f1c20" d="M 108.867188 74.828125 L 109.4375 74.828125 L 109.4375 73.164062 L 107.773438 73.164062 L 107.773438 73.734375 L 108.867188 73.734375 L 108.867188 74.828125 " fill-opacity="1" fill-rule="nonzero"/><path fill="#1f1c20" d="M 109.4375 77.589844 L 109.4375 75.925781 L 108.867188 75.925781 L 108.867188 77.023438 L 107.773438 77.023438 L 107.773438 77.589844 L 109.4375 77.589844 " fill-opacity="1" fill-rule="nonzero"/><path fill="#1f1c20" d="M 106.675781 77.589844 L 106.675781 77.023438 L 105.582031 77.023438 L 105.582031 75.925781 L 105.011719 75.925781 L 105.011719 77.589844 L 106.675781 77.589844 " fill-opacity="1" fill-rule="nonzero"/></svg>