<svg xmlns="http://www.w3.org/2000/svg" xmlns:xlink="http://www.w3.org/1999/xlink" width="150" zoomAndPan="magnify" viewBox="0 0 113.04 120.96" height="150" preserveAspectRatio="xMidYMid meet" version="1.2"><defs><clipPath id="1ebf630264"><path d="M 0 0.488281 L 107.835938 0.488281 L 107.835938 103 L 0 103 Z M 0 0.488281 "/></clipPath><clipPath id="feace594b1"><path d="M 0 0.488281 L 107.835938 0.488281 L 107.835938 103.117188 L 0 103.117188 Z M 0 0.488281 "/></clipPath></defs><g id="08ca11fecc"><path style=" stroke:none;fill-rule:nonzero;fill:#ffffff;fill-opacity:1;" d="M 78.238281 98.960938 C 78.234375 98.960938 78.234375 98.960938 78.230469 98.960938 L 78.007812 99.003906 L 78.007812 98.96875 L 77.863281 99.003906 C 77.066406 99.183594 76.511719 99.878906 76.511719 100.695312 C 76.511719 101.652344 77.289062 102.433594 78.246094 102.433594 C 79.207031 102.433594 79.988281 101.652344 79.988281 100.695312 C 79.988281 99.738281 79.210938 98.960938 78.238281 98.960938 "/><path style=" stroke:none;fill-rule:nonzero;fill:#ffffff;fill-opacity:1;" d="M 89.773438 98.960938 C 89.769531 98.960938 89.765625 98.960938 89.765625 98.960938 L 89.542969 99.003906 L 89.542969 98.96875 L 89.398438 99.003906 C 88.601562 99.183594 88.042969 99.878906 88.042969 100.695312 C 88.042969 101.652344 88.824219 102.433594 89.78125 102.433594 C 90.742188 102.433594 91.523438 101.652344 91.523438 100.695312 C 91.523438 99.738281 90.746094 98.960938 89.773438 98.960938 "/><g clip-rule="nonzero" clip-path="url(#1ebf630264)"><path style=" stroke:none;fill-rule:nonzero;fill:#ffffff;fill-opacity:1;" d="M 76.519531 81.03125 L 76.160156 81.089844 L 75.527344 79.261719 L 76.519531 79.261719 Z M 107.589844 54.421875 L 107.589844 52.582031 L 107.585938 52.5625 L 107.570312 52.546875 L 105.355469 50.128906 L 105.34375 50.078125 L 105.339844 50.027344 C 104.226562 44.777344 102.375 41.175781 99.511719 38.691406 C 98.839844 38.109375 98.082031 37.597656 97.257812 37.167969 L 97.191406 37.121094 L 97.171875 37.085938 C 95.277344 34.679688 93.625 32.820312 91.976562 31.226562 C 90.753906 30.050781 89.425781 28.9375 88.140625 27.859375 C 87.871094 27.636719 87.605469 27.414062 87.335938 27.1875 L 87.332031 27.1875 L 87.277344 27.144531 C 87.039062 26.949219 86.796875 26.765625 86.558594 26.605469 C 85.449219 25.847656 84.246094 25.269531 82.976562 24.882812 C 82.652344 24.785156 82.320312 24.714844 82.035156 24.65625 L 81.976562 24.644531 L 80.25 22.765625 L 78.714844 22.765625 L 78.683594 22.621094 C 78.558594 22.054688 78.5 21.34375 78.929688 21.089844 L 78.964844 21.066406 C 80.128906 20.023438 81.03125 19.019531 81.730469 17.988281 L 81.777344 17.914062 L 81.867188 17.910156 C 83.363281 17.796875 86.929688 17.351562 87.792969 15.625 C 88.246094 14.671875 87.453125 14.128906 86.097656 13.351562 C 85.507812 13.011719 84.898438 12.660156 84.507812 12.234375 L 84.464844 12.191406 L 84.457031 12.128906 C 84.457031 12.117188 84.335938 10.882812 84.21875 10.300781 C 83.261719 5.546875 79.855469 2.125 75.113281 1.144531 C 75.113281 1.144531 74.929688 1.113281 74.886719 1.105469 L 74.902344 1.234375 L 74.398438 1.078125 C 74.296875 1.046875 74.207031 1.019531 74.148438 1 C 73.570312 0.925781 73.050781 0.890625 72.558594 0.890625 C 70.820312 0.890625 69.351562 1.335938 67.5 2.421875 C 66.199219 3.183594 65.113281 4.285156 64.519531 5.441406 C 63.703125 7.015625 63.117188 9.214844 63.058594 10.917969 L 63.050781 11.101562 C 63.023438 11.609375 63.027344 11.839844 63.394531 12 L 63.507812 12.046875 L 63.511719 12.167969 C 63.519531 13.195312 63.640625 14.308594 63.863281 15.476562 C 64.039062 16.386719 64.269531 17.324219 64.578125 18.347656 C 64.953125 19.601562 65.570312 20.710938 66.359375 21.554688 C 66.664062 21.875 66.992188 22.171875 67.339844 22.429688 L 67.789062 22.765625 L 0.269531 22.75 C 0.265625 22.75 0.265625 22.753906 0.261719 22.753906 L 0.261719 22.765625 L 0.246094 22.78125 L 0.242188 24.625 L 23.8125 50.945312 L 23.601562 51.242188 L 0.246094 41.414062 L 0.242188 43.207031 L 26.984375 54.527344 L 26.996094 54.523438 L 27.035156 54.542969 L 28.523438 54.542969 L 46.277344 54.5 L 46.316406 54.523438 C 48.398438 55.640625 50.882812 56.847656 53.5 57.308594 L 53.480469 57.675781 C 53.464844 57.679688 53.453125 57.679688 53.4375 57.679688 C 55 57.574219 56.933594 57.476562 59.207031 57.382812 L 59.457031 57.375 L 59.394531 57.613281 C 59.304688 57.976562 59.210938 58.347656 59.109375 58.730469 L 59.078125 58.84375 L 58.917969 58.871094 C 58.15625 59 56.734375 59.234375 55.867188 59.34375 L 54.863281 59.472656 C 53.332031 59.667969 51.746094 59.871094 50.242188 60.191406 L 49.929688 60.257812 L 49.824219 60.28125 C 47.761719 60.757812 46.207031 61.386719 44.921875 62.273438 C 39.921875 65.71875 38.902344 69.113281 41.199219 92.269531 L 42.121094 92.269531 L 42.128906 92.445312 C 42.136719 92.617188 42.144531 92.78125 42.15625 92.957031 C 42.160156 93.011719 42.15625 93.085938 42.152344 93.167969 C 42.148438 93.300781 42.144531 93.449219 42.164062 93.570312 L 42.1875 93.710938 L 41.910156 93.839844 C 39.5 94.960938 36.769531 96.234375 35.226562 98.300781 C 34.785156 98.894531 34.519531 99.679688 34.425781 100.632812 L 34.289062 100.632812 C 34.269531 100.632812 34.253906 100.636719 34.238281 100.640625 C 34.160156 100.664062 34.101562 100.734375 34.101562 100.820312 C 34.101562 100.894531 34.148438 100.960938 34.214844 100.988281 C 34.238281 101 34.261719 101.003906 34.289062 101.003906 L 34.402344 101.003906 C 34.390625 101.273438 34.398438 101.496094 34.40625 101.625 L 34.472656 101.640625 C 34.550781 101.640625 34.84375 101.644531 35.304688 101.652344 C 36.339844 101.671875 38.230469 101.703125 40.496094 101.742188 L 40.765625 101.746094 C 44.355469 101.804688 52.820312 101.933594 56.285156 101.933594 L 56.289062 101.824219 C 56.292969 101.738281 56.300781 101.449219 56.308594 101.003906 L 56.496094 101.003906 C 56.597656 101.003906 56.683594 100.921875 56.683594 100.820312 C 56.683594 100.714844 56.601562 100.636719 56.5 100.632812 L 56.316406 100.628906 C 56.335938 99.605469 56.347656 98.558594 56.347656 97.523438 C 56.347656 95.335938 54.886719 93.175781 54.441406 92.566406 L 54.222656 92.269531 L 55.683594 92.269531 L 55.683594 76.042969 L 55.914062 76.097656 C 56.246094 76.175781 56.601562 76.222656 57.003906 76.234375 L 57.171875 76.242188 L 57.179688 76.410156 C 57.242188 77.515625 57.90625 78.492188 58.910156 78.972656 L 58.976562 79.003906 L 59.003906 79.070312 C 60.269531 82.3125 62.03125 86.375 64.539062 91.851562 L 65.410156 91.554688 L 65.476562 91.714844 L 65.664062 92.179688 C 65.6875 92.230469 65.707031 92.296875 65.730469 92.371094 C 65.769531 92.5 65.816406 92.644531 65.875 92.757812 L 65.941406 92.882812 L 65.714844 93.101562 C 63.800781 94.945312 61.632812 97.035156 60.84375 99.496094 C 60.617188 100.195312 60.621094 101.027344 60.84375 101.960938 L 60.722656 102.003906 C 60.703125 102.011719 60.6875 102.019531 60.671875 102.03125 C 60.609375 102.078125 60.578125 102.160156 60.605469 102.238281 C 60.628906 102.308594 60.691406 102.351562 60.761719 102.359375 C 60.769531 102.359375 60.773438 102.363281 60.78125 102.363281 C 60.800781 102.363281 60.824219 102.363281 60.84375 102.355469 L 60.941406 102.320312 C 61.023438 102.582031 61.105469 102.789062 61.15625 102.910156 L 61.203125 102.902344 C 61.222656 102.894531 64.332031 101.886719 64.332031 101.886719 L 64.414062 101.960938 C 64.742188 102.265625 65.160156 102.433594 65.597656 102.433594 C 66.425781 102.433594 67.144531 101.84375 67.304688 101.023438 L 67.324219 100.917969 L 67.429688 100.882812 C 71.21875 99.652344 74.984375 98.417969 77.765625 97.5 L 78.007812 97.421875 L 78.136719 97.378906 C 79.0625 97.070312 79.90625 96.789062 80.640625 96.542969 L 81.226562 96.542969 C 81.417969 96.476562 81.597656 96.417969 81.773438 96.359375 L 82.035156 96.359375 L 82.007812 96.277344 C 82.007812 96.277344 82.011719 96.277344 82.011719 96.277344 L 82.183594 96.21875 L 82.167969 96.171875 L 81.972656 96.171875 L 81.914062 95.992188 C 81.890625 95.917969 81.8125 95.652344 81.679688 95.25 L 81.652344 95.222656 L 81.847656 95.15625 C 81.945312 95.121094 81.996094 95.015625 81.960938 94.917969 C 81.929688 94.824219 81.824219 94.769531 81.726562 94.804688 L 81.734375 94.800781 L 81.5 94.683594 C 81.265625 93.96875 80.953125 93.003906 80.574219 91.90625 C 80.367188 91.304688 80.03125 90.703125 79.535156 90.066406 L 79.496094 90.015625 L 79.496094 79.261719 L 95.820312 79.261719 C 97.488281 79.261719 98.84375 77.90625 98.84375 76.238281 L 98.84375 75.964844 C 98.84375 74.992188 98.371094 74.074219 97.574219 73.511719 L 97.449219 73.417969 L 97.515625 73.277344 C 98.21875 71.839844 98.597656 69.675781 98.640625 66.847656 L 98.644531 66.675781 L 98.816406 66.664062 C 100.074219 66.605469 101.089844 66.535156 102.019531 66.441406 C 102.375 66.40625 102.738281 66.371094 103.097656 66.316406 L 103.308594 66.289062 L 103.308594 66.285156 L 103.464844 66.257812 C 103.644531 66.230469 103.820312 66.191406 103.996094 66.152344 C 104.765625 65.96875 105.199219 65.292969 105.554688 64.59375 C 106.292969 63.132812 106.210938 61.191406 106.132812 59.476562 C 106.113281 58.949219 106.089844 58.453125 106.089844 57.980469 C 106.09375 56.839844 106.054688 55.710938 105.972656 54.625 L 105.960938 54.425781 L 106.160156 54.425781 C 106.636719 54.421875 107.113281 54.421875 107.589844 54.421875 "/></g><path style=" stroke:none;fill-rule:nonzero;fill:#100f0d;fill-opacity:1;" d="M 89.78125 99.140625 C 90.640625 99.140625 91.335938 99.839844 91.335938 100.695312 C 91.335938 101.550781 90.640625 102.25 89.78125 102.25 C 88.925781 102.25 88.230469 101.550781 88.230469 100.695312 C 88.230469 99.839844 88.925781 99.140625 89.78125 99.140625 Z M 82.011719 96.277344 C 81.773438 96.355469 81.511719 96.445312 81.222656 96.542969 L 88.054688 96.542969 C 88.773438 96.542969 89.359375 97.125 89.359375 97.84375 L 89.359375 98.820312 C 88.5 99.015625 87.859375 99.78125 87.859375 100.695312 C 87.859375 101.753906 88.722656 102.621094 89.78125 102.621094 C 90.847656 102.621094 91.710938 101.753906 91.710938 100.695312 C 91.710938 99.632812 90.847656 98.769531 89.78125 98.769531 C 89.761719 98.769531 89.746094 98.773438 89.730469 98.777344 L 89.730469 97.84375 C 89.730469 96.921875 88.976562 96.171875 88.054688 96.171875 L 82.167969 96.171875 L 82.179688 96.214844 L 82.011719 96.277344 "/><path style=" stroke:none;fill-rule:nonzero;fill:#100f0d;fill-opacity:1;" d="M 34.214844 100.988281 C 34.199219 101.460938 34.234375 101.78125 34.234375 101.78125 L 34.453125 101.824219 C 34.519531 101.824219 37.152344 101.875 40.625 101.929688 C 40.628906 101.914062 40.636719 101.90625 40.640625 101.894531 C 40.648438 101.90625 40.652344 101.917969 40.660156 101.929688 C 45.949219 102.015625 53.175781 102.117188 56.285156 102.117188 L 56.464844 102.117188 L 56.472656 101.859375 C 56.472656 101.851562 56.484375 101.539062 56.496094 101.003906 L 34.289062 101.003906 C 34.265625 101.003906 34.238281 101 34.214844 100.988281 "/><path style=" stroke:none;fill-rule:nonzero;fill:#100f0d;fill-opacity:1;" d="M 39.683594 28.339844 C 39.683594 28.238281 39.601562 28.15625 39.496094 28.15625 L 29.078125 28.15625 C 28.976562 28.15625 28.894531 28.238281 28.894531 28.339844 C 28.894531 28.445312 28.976562 28.527344 29.078125 28.527344 L 39.5 28.527344 C 39.601562 28.527344 39.683594 28.445312 39.683594 28.339844 "/><path style=" stroke:none;fill-rule:nonzero;fill:#100f0d;fill-opacity:1;" d="M 44.335938 28.527344 L 48.800781 28.527344 C 48.902344 28.527344 48.984375 28.445312 48.984375 28.339844 C 48.984375 28.238281 48.902344 28.15625 48.800781 28.15625 L 44.335938 28.15625 C 44.230469 28.15625 44.148438 28.238281 44.148438 28.339844 C 44.148438 28.445312 44.230469 28.527344 44.335938 28.527344 "/><path style=" stroke:none;fill-rule:nonzero;fill:#100f0d;fill-opacity:1;" d="M 2.664062 44.878906 L 3.035156 44.878906 L 3.035156 102.117188 L 2.664062 102.117188 L 2.664062 44.878906 "/><path style=" stroke:none;fill-rule:nonzero;fill:#100f0d;fill-opacity:1;" d="M 75.675781 69.15625 C 76.316406 69.355469 76.960938 69.503906 77.613281 69.613281 C 79.355469 69.90625 81.132812 69.921875 82.90625 69.921875 C 83.148438 69.921875 83.148438 69.550781 82.90625 69.550781 C 81.132812 69.550781 79.355469 69.539062 77.613281 69.238281 C 76.996094 69.128906 76.382812 68.988281 75.773438 68.796875 C 75.546875 68.722656 75.449219 69.082031 75.675781 69.15625 "/><path style=" stroke:none;fill-rule:nonzero;fill:#100f0d;fill-opacity:1;" d="M 39.601562 37.511719 C 39.589844 37.503906 39.578125 37.496094 39.566406 37.488281 C 39.578125 37.496094 39.589844 37.503906 39.601562 37.515625 C 39.601562 37.511719 39.601562 37.511719 39.601562 37.511719 "/><path style=" stroke:none;fill-rule:nonzero;fill:#100f0d;fill-opacity:1;" d="M 65.777344 33.683594 C 67.472656 36.230469 69.84375 38.1875 72.523438 39.632812 C 72.734375 39.746094 72.921875 39.425781 72.710938 39.308594 C 69.972656 37.835938 67.667969 35.855469 65.9375 33.257812 C 64.777344 31.515625 64.128906 29.546875 63.539062 27.554688 C 63.472656 27.324219 63.113281 27.421875 63.179688 27.652344 C 63.8125 29.789062 64.535156 31.816406 65.777344 33.683594 "/><g clip-rule="nonzero" clip-path="url(#feace594b1)"><path style=" stroke:none;fill-rule:nonzero;fill:#100f0d;fill-opacity:1;" d="M 107.402344 52.757812 L 107.402344 54.234375 L 107.390625 54.234375 C 107.046875 54.234375 106.699219 54.234375 106.355469 54.238281 L 106.132812 54.238281 C 106.089844 53.742188 106.039062 53.246094 105.976562 52.753906 C 106.269531 52.753906 106.558594 52.75 106.847656 52.75 L 107.402344 52.75 C 107.402344 52.753906 107.402344 52.753906 107.402344 52.757812 Z M 104.851562 65.363281 C 104.425781 65.90625 103.992188 65.984375 103.347656 66.09375 C 101.324219 66.425781 99.238281 66.472656 97.199219 66.546875 C 96.195312 66.582031 95.195312 66.613281 94.195312 66.632812 L 94.195312 58.417969 C 94.195312 57.511719 93.453125 56.773438 92.546875 56.773438 L 92.117188 56.773438 C 91.210938 56.773438 90.472656 57.511719 90.472656 58.417969 L 90.472656 66.6875 C 89.695312 66.695312 88.921875 66.699219 88.144531 66.699219 C 83.320312 66.707031 78.492188 66.632812 73.675781 66.417969 C 71.988281 66.34375 70.304688 66.253906 68.628906 66.082031 C 66.914062 65.898438 65.628906 65.492188 64.632812 63.859375 C 63.320312 61.429688 63.9375 58.582031 64.480469 56.019531 C 64.964844 53.730469 65.429688 51.507812 66.378906 49.351562 C 68.203125 45.226562 71.332031 41.757812 75.144531 39.371094 C 79.503906 36.644531 84.738281 35.59375 89.828125 35.679688 C 92.484375 35.726562 95.144531 36.199219 97.488281 37.484375 C 99.644531 38.671875 101.355469 40.613281 102.582031 42.722656 C 105.136719 47.121094 105.886719 52.632812 105.902344 57.628906 C 105.914062 60.070312 106.449219 63.308594 104.851562 65.363281 Z M 97.375 73.15625 C 96.914062 72.90625 96.386719 72.757812 95.820312 72.757812 L 94.195312 72.757812 L 94.195312 69.472656 C 95.292969 69.539062 96.355469 69.433594 97.429688 69.046875 C 97.652344 68.964844 97.554688 68.605469 97.328125 68.6875 C 96.289062 69.0625 95.257812 69.167969 94.195312 69.105469 L 94.195312 67 C 94.414062 66.996094 94.636719 66.996094 94.855469 66.988281 C 96.050781 66.960938 97.246094 66.929688 98.441406 66.871094 C 98.410156 69.039062 98.167969 71.5 97.375 73.15625 Z M 90.84375 75.574219 L 90.84375 58.417969 C 90.84375 57.71875 91.414062 57.144531 92.117188 57.144531 L 92.546875 57.144531 C 93.25 57.144531 93.824219 57.71875 93.824219 58.417969 L 93.824219 75.574219 C 93.824219 76.273438 93.25 76.84375 92.546875 76.84375 L 92.117188 76.84375 C 91.414062 76.84375 90.84375 76.273438 90.84375 75.574219 Z M 98.660156 75.964844 L 98.660156 76.238281 C 98.660156 77.804688 97.386719 79.074219 95.820312 79.074219 L 60.195312 79.074219 C 58.632812 79.074219 57.359375 77.804688 57.359375 76.238281 L 57.359375 75.964844 C 57.359375 74.398438 58.632812 73.128906 60.195312 73.128906 L 90.472656 73.128906 L 90.472656 75.574219 C 90.472656 76.480469 91.210938 77.214844 92.117188 77.214844 L 92.546875 77.214844 C 93.453125 77.214844 94.195312 76.480469 94.195312 75.574219 L 94.195312 73.128906 L 95.820312 73.128906 C 97.386719 73.128906 98.660156 74.398438 98.660156 75.964844 Z M 79.3125 95.8125 C 79.3125 96.390625 78.78125 96.875 78.097656 96.910156 C 77.355469 96.871094 76.707031 96.355469 76.707031 95.8125 L 76.707031 79.445312 L 79.3125 79.445312 Z M 78.246094 99.140625 C 79.105469 99.140625 79.804688 99.839844 79.804688 100.695312 C 79.804688 101.550781 79.105469 102.25 78.246094 102.25 C 77.390625 102.25 76.695312 101.550781 76.695312 100.695312 C 76.695312 99.839844 77.390625 99.140625 78.246094 99.140625 Z M 67.417969 100.101562 C 67.382812 99.980469 67.332031 99.867188 67.269531 99.757812 L 76.609375 96.558594 C 76.695312 96.664062 76.792969 96.761719 76.90625 96.847656 Z M 65.597656 102.25 C 64.742188 102.25 64.046875 101.550781 64.046875 100.695312 C 64.046875 99.839844 64.742188 99.140625 65.597656 99.140625 C 66.457031 99.140625 67.152344 99.839844 67.152344 100.695312 C 67.152344 101.550781 66.457031 102.25 65.597656 102.25 Z M 71.234375 97.6875 C 70.78125 97.976562 70.78125 97.976562 70.582031 97.265625 C 70.777344 97.3125 70.898438 97.304688 70.976562 97.363281 C 71.078125 97.445312 71.144531 97.578125 71.234375 97.6875 Z M 65.171875 97.84375 C 65.171875 96.921875 65.925781 96.171875 66.847656 96.171875 L 76.402344 96.171875 C 76.445312 96.304688 76.511719 96.429688 76.601562 96.542969 L 66.847656 96.542969 C 66.128906 96.542969 65.542969 97.125 65.542969 97.84375 L 65.542969 98.777344 C 65.414062 98.78125 65.292969 98.796875 65.171875 98.820312 Z M 67.480469 94.710938 C 67.199219 94.96875 67.007812 95.148438 66.8125 95.328125 C 66.75 95.292969 66.6875 95.261719 66.621094 95.222656 C 66.640625 94.964844 66.667969 94.703125 66.703125 94.324219 C 67.007812 94.476562 67.179688 94.566406 67.480469 94.710938 Z M 65.660156 91.667969 L 72.828125 89.210938 C 72.511719 89.425781 72.214844 89.664062 71.964844 89.933594 C 71.945312 89.953125 69.984375 91.675781 68.546875 92.226562 C 68.46875 92.25 68.609375 92.242188 68.246094 92.316406 C 67.835938 92.476562 67.390625 92.570312 67 92.625 C 66.609375 92.683594 66.273438 92.699219 66.074219 92.703125 C 66 92.519531 65.925781 92.332031 65.847656 92.152344 C 65.785156 91.984375 65.722656 91.828125 65.660156 91.667969 Z M 75.300781 95.511719 C 74.980469 95.261719 75.03125 95.023438 75.265625 94.628906 C 75.488281 94.996094 75.691406 95.242188 75.300781 95.511719 Z M 75.789062 79.445312 L 76.335938 79.445312 L 76.335938 81.03125 Z M 64.640625 91.621094 C 62.339844 86.605469 60.589844 82.589844 59.296875 79.316406 C 59.585938 79.398438 59.882812 79.445312 60.195312 79.445312 L 75.398438 79.445312 L 76.335938 82.175781 L 76.335938 87.617188 Z M 87.957031 67.070312 C 88.796875 67.070312 89.632812 67.070312 90.472656 67.0625 L 90.472656 72.757812 L 87.027344 72.757812 C 87.933594 70.972656 88.074219 69.035156 87.957031 67.070312 Z M 56.988281 75.964844 L 56.988281 76.046875 C 56.710938 76.039062 56.445312 76.011719 56.183594 75.964844 C 56.054688 75.941406 55.921875 75.910156 55.796875 75.878906 C 51.625 74.777344 49.84375 68.726562 49.671875 64.53125 C 49.609375 62.929688 49.757812 61.515625 50.070312 60.417969 C 51.660156 60.066406 53.324219 59.855469 54.964844 59.648438 L 55.894531 59.53125 C 56.765625 59.417969 58.226562 59.175781 58.964844 59.054688 C 58.96875 59.054688 58.96875 59.054688 58.96875 59.054688 C 59.011719 59.078125 60.578125 59.945312 63.375 60.875 C 63.417969 60.882812 63.453125 60.898438 63.496094 60.914062 C 63.53125 61.695312 63.65625 62.472656 63.925781 63.230469 C 64.027344 63.511719 64.167969 63.78125 64.308594 64.039062 C 64.308594 64.042969 64.308594 64.042969 64.308594 64.042969 C 65.453125 65.910156 66.960938 66.285156 68.925781 66.484375 C 71.269531 66.710938 73.632812 66.800781 75.988281 66.882812 C 76.53125 66.902344 77.074219 66.910156 77.621094 66.929688 C 81.003906 67.027344 84.386719 67.078125 87.773438 67.070312 C 87.886719 69.035156 87.75 70.972656 86.820312 72.757812 L 60.195312 72.757812 C 58.425781 72.757812 56.988281 74.195312 56.988281 75.964844 Z M 55.5 92.082031 L 41.367188 92.082031 C 39.105469 69.175781 40.113281 65.808594 45.027344 62.425781 C 46.375 61.496094 47.96875 60.914062 49.664062 60.507812 C 49.359375 61.703125 49.242188 63.132812 49.300781 64.546875 C 49.511719 69.730469 51.683594 74.972656 55.5 76.171875 Z M 53.941406 93.707031 C 53.800781 93.585938 53.660156 93.460938 53.519531 93.339844 C 53.550781 93.285156 53.585938 93.226562 53.621094 93.171875 C 53.777344 93.273438 53.9375 93.367188 54.09375 93.464844 C 54.042969 93.546875 53.992188 93.628906 53.941406 93.707031 Z M 50.1875 99.21875 C 49.964844 98.878906 50.09375 98.667969 50.441406 98.371094 C 50.535156 98.796875 50.644531 99.089844 50.1875 99.21875 Z M 48.839844 92.863281 C 48.820312 92.875 46.476562 93.878906 44.9375 93.929688 C 44.859375 93.933594 44.777344 93.933594 44.699219 93.933594 C 44.128906 93.933594 43.621094 93.867188 43.21875 93.785156 C 42.816406 93.707031 42.519531 93.613281 42.367188 93.5625 C 42.359375 93.359375 42.347656 93.164062 42.339844 92.964844 C 42.332031 92.792969 42.324219 92.625 42.316406 92.457031 L 49.894531 92.457031 C 49.527344 92.558594 49.167969 92.6875 48.839844 92.863281 Z M 45.152344 99.34375 C 45.324219 99.453125 45.441406 99.488281 45.492188 99.574219 C 45.5625 99.679688 45.585938 99.824219 45.628906 99.960938 C 45.109375 100.085938 45.109375 100.085938 45.152344 99.34375 Z M 42.21875 96.292969 C 42.171875 96.242188 42.117188 96.1875 42.070312 96.132812 C 42.175781 95.898438 42.28125 95.65625 42.4375 95.308594 C 42.675781 95.550781 42.816406 95.691406 43.046875 95.925781 C 42.703125 96.078125 42.460938 96.1875 42.21875 96.292969 Z M 52.109375 57.964844 C 54.21875 57.792969 56.917969 57.664062 59.214844 57.570312 C 59.125 57.929688 59.03125 58.300781 58.929688 58.679688 C 58.191406 58.804688 56.722656 59.050781 55.84375 59.160156 L 54.921875 59.277344 C 53.339844 59.480469 51.738281 59.679688 50.203125 60.007812 C 50.632812 58.785156 51.292969 58.03125 52.109375 57.964844 Z M 59 57.207031 C 59.109375 57.171875 59.21875 57.132812 59.332031 57.097656 C 59.324219 57.128906 59.316406 57.160156 59.308594 57.195312 C 59.207031 57.199219 59.101562 57.199219 59 57.207031 Z M 63.488281 60.515625 C 62.699219 60.257812 62.003906 59.996094 61.421875 59.765625 C 60.289062 59.308594 59.5625 58.945312 59.28125 58.800781 C 59.398438 58.375 59.503906 57.960938 59.601562 57.554688 C 61.617188 57.472656 63.253906 57.425781 63.816406 57.410156 C 63.632812 58.390625 63.492188 59.390625 63.484375 60.382812 C 63.484375 60.425781 63.488281 60.472656 63.488281 60.515625 Z M 44.871094 53.523438 C 43.855469 52.949219 40.074219 50 38.710938 47.335938 C 38.152344 46.242188 38.121094 45.273438 38.628906 44.617188 C 39.367188 43.722656 40.109375 42.835938 40.847656 41.941406 C 41.128906 41.597656 41.40625 41.257812 41.6875 40.910156 C 41.722656 40.890625 41.75 40.855469 41.761719 40.816406 C 42.011719 40.511719 42.261719 40.199219 42.503906 39.886719 C 42.578125 39.871094 42.65625 39.863281 42.730469 39.855469 C 42.859375 39.839844 42.984375 39.832031 43.109375 39.832031 C 44.128906 39.828125 45.164062 40.269531 46.265625 40.742188 C 48.628906 41.757812 50.644531 43.503906 50.664062 43.523438 C 50.710938 43.5625 50.769531 43.578125 50.828125 43.566406 C 50.882812 43.550781 50.933594 43.511719 50.960938 43.460938 C 51.003906 43.359375 55.5 33.425781 58.542969 30.328125 C 61.023438 27.804688 64.277344 26.269531 68.214844 25.769531 L 68.472656 25.738281 C 68.75 25.707031 69.03125 25.671875 69.3125 25.617188 C 71.402344 26.785156 73.691406 27.132812 76.054688 26.867188 C 77.664062 26.683594 80.175781 26.253906 81.078125 24.691406 C 81.695312 24.785156 82.324219 24.882812 82.925781 25.0625 C 84.171875 25.4375 85.359375 26.011719 86.457031 26.757812 C 88.257812 27.992188 89.589844 29.722656 90.765625 31.40625 C 91.730469 32.796875 92.472656 34.195312 92.988281 35.59375 C 90.742188 35.210938 88.394531 35.226562 86.152344 35.421875 C 81.519531 35.820312 76.957031 37.460938 73.222656 40.230469 C 69.886719 42.710938 67.3125 46.101562 65.730469 49.933594 C 64.855469 52.042969 64.464844 54.273438 64 56.496094 C 63.960938 56.671875 63.925781 56.855469 63.886719 57.039062 C 63.4375 57.050781 61.773438 57.097656 59.695312 57.179688 C 60.183594 55.121094 60.441406 53.496094 60.445312 53.476562 L 60.445312 53.472656 L 61.746094 45.066406 C 61.761719 44.964844 61.691406 44.871094 61.589844 44.855469 C 61.492188 44.839844 61.390625 44.90625 61.378906 45.011719 L 60.078125 53.417969 C 60.074219 53.429688 60.019531 53.78125 59.910156 54.363281 C 59.804688 54.945312 59.644531 55.75 59.429688 56.667969 C 54.082031 58.613281 48.976562 55.792969 44.871094 53.523438 Z M 33.121094 54.34375 C 31.335938 54.347656 29.554688 54.351562 27.765625 54.359375 L 27.222656 54.359375 C 27.21875 54.359375 27.21875 54.359375 27.21875 54.359375 L 27.21875 52.871094 C 27.21875 52.871094 27.21875 52.871094 27.222656 52.871094 C 31.300781 52.859375 35.375 52.851562 39.453125 52.839844 C 40.722656 52.839844 41.992188 52.839844 43.265625 52.835938 C 43.882812 53.320312 44.398438 53.683594 44.691406 53.84375 C 44.96875 54 45.257812 54.15625 45.546875 54.316406 C 41.40625 54.324219 37.261719 54.335938 33.121094 54.34375 Z M 33.742188 50.238281 C 33.769531 50.582031 33.570312 50.675781 33.246094 50.652344 L 33.246094 49.980469 C 33.558594 49.851562 33.71875 49.949219 33.742188 50.238281 Z M 38.417969 47.570312 C 38.429688 47.59375 38.445312 47.621094 38.460938 47.644531 L 34.941406 47.652344 L 38.460938 47.644531 C 38.445312 47.621094 38.429688 47.59375 38.417969 47.570312 Z M 36.125 34.988281 C 36.125 34.992188 36.125 34.992188 36.125 34.996094 C 36.121094 35.191406 35.960938 35.351562 35.761719 35.351562 L 35.761719 35.535156 L 35.757812 35.351562 C 35.550781 35.347656 35.390625 35.179688 35.394531 34.976562 C 35.394531 34.777344 35.558594 34.617188 35.761719 34.617188 C 35.960938 34.621094 36.125 34.789062 36.125 34.988281 Z M 42.132812 38.410156 C 42.121094 38.390625 42.105469 38.382812 42.09375 38.367188 C 42.09375 38.367188 42.09375 38.367188 42.089844 38.367188 C 42.171875 38.335938 42.230469 38.285156 42.269531 38.230469 C 42.453125 37.96875 42.289062 37.554688 42.097656 37.355469 C 42.042969 37.296875 41.824219 37.167969 41.5 36.996094 C 41.378906 36.65625 41.230469 36.324219 41.046875 36.09375 C 40.707031 35.660156 40.25 35.472656 39.964844 35.488281 C 39.800781 35.496094 39.667969 35.558594 39.597656 35.671875 C 39.558594 35.730469 39.53125 35.84375 39.515625 35.984375 C 38.117188 35.296875 36.582031 34.5625 36.082031 34.324219 L 36.082031 34.328125 C 35.984375 34.28125 35.875 34.25 35.753906 34.246094 C 35.355469 34.246094 35.027344 34.570312 35.023438 34.96875 C 35.015625 35.335938 35.28125 35.640625 35.625 35.707031 C 35.914062 35.835938 36.40625 36.058594 36.988281 36.3125 C 36.757812 36.367188 36.515625 36.488281 36.304688 36.707031 L 30.628906 30.386719 L 57.984375 30.386719 C 55.265625 33.429688 51.710938 40.9375 50.820312 42.863281 L 50.445312 42.863281 C 49.699219 42.277344 48.144531 41.144531 46.394531 40.390625 C 45.148438 39.855469 43.859375 39.304688 42.578125 39.492188 C 42.535156 39.179688 42.375 38.875 42.230469 38.597656 C 42.195312 38.535156 42.164062 38.472656 42.132812 38.410156 Z M 41.855469 38.320312 C 41.839844 38.253906 41.824219 38.164062 41.800781 38.0625 C 41.824219 38.160156 41.839844 38.25 41.855469 38.320312 Z M 42.074219 38.355469 C 42.039062 38.328125 42 38.304688 41.949219 38.308594 C 41.945312 38.308594 41.9375 38.3125 41.929688 38.3125 C 41.9375 38.3125 41.945312 38.308594 41.953125 38.308594 C 42 38.304688 42.039062 38.328125 42.074219 38.355469 Z M 41.964844 38.015625 C 41.957031 38.027344 41.902344 38.042969 41.792969 38.019531 C 41.757812 37.867188 41.714844 37.691406 41.660156 37.503906 C 41.742188 37.550781 41.804688 37.589844 41.828125 37.609375 C 41.953125 37.738281 42.003906 37.960938 41.964844 38.015625 Z M 40.597656 39.332031 C 41.011719 39.011719 41.453125 38.757812 41.859375 38.691406 C 41.871094 38.71875 41.886719 38.746094 41.902344 38.773438 C 42.050781 39.054688 42.214844 39.375 42.214844 39.65625 C 42 39.929688 41.78125 40.203125 41.5625 40.472656 C 41.253906 40.078125 40.929688 39.703125 40.597656 39.332031 Z M 39.515625 40.316406 C 39.75 40.070312 40.023438 39.8125 40.308594 39.566406 C 40.664062 39.957031 41.007812 40.351562 41.324219 40.769531 C 41.125 41.019531 40.921875 41.265625 40.71875 41.511719 C 40.339844 41.089844 39.917969 40.710938 39.515625 40.316406 Z M 38.464844 41.4375 C 38.664062 41.207031 38.871094 40.984375 39.078125 40.761719 L 39.183594 40.65625 C 39.207031 40.632812 39.230469 40.605469 39.253906 40.582031 C 39.667969 40.984375 40.097656 41.371094 40.480469 41.804688 C 40.28125 42.046875 40.078125 42.292969 39.875 42.535156 C 39.40625 42.167969 38.902344 41.839844 38.464844 41.4375 Z M 37.566406 42.609375 C 37.761719 42.304688 37.984375 42.011719 38.222656 41.722656 C 38.660156 42.117188 39.152344 42.433594 39.613281 42.800781 C 39.621094 42.804688 39.632812 42.8125 39.644531 42.8125 C 39.445312 43.054688 39.246094 43.292969 39.050781 43.535156 C 38.546875 43.238281 38.054688 42.925781 37.566406 42.609375 Z M 37.382812 42.929688 C 37.855469 43.234375 38.328125 43.535156 38.808594 43.820312 C 38.671875 43.984375 38.535156 44.148438 38.402344 44.3125 C 38.007812 44.28125 37.410156 44.039062 37.039062 43.761719 C 37.117188 43.480469 37.238281 43.199219 37.382812 42.929688 Z M 36.488281 34.929688 C 37.433594 35.378906 38.527344 35.914062 39.484375 36.382812 C 39.476562 36.59375 39.480469 36.816406 39.488281 37.023438 C 38.34375 36.511719 37.011719 35.921875 36.214844 35.5625 C 36.382812 35.429688 36.492188 35.226562 36.496094 35 C 36.496094 34.976562 36.492188 34.953125 36.488281 34.929688 Z M 35.261719 39.296875 C 35.332031 39.257812 35.371094 39.175781 35.355469 39.09375 C 35.152344 38.171875 36.085938 37.75 36.128906 37.738281 C 36.179688 37.710938 36.21875 37.667969 36.230469 37.613281 C 36.554688 36.417969 37.550781 36.632812 37.683594 36.667969 L 37.832031 36.691406 C 38.375 36.933594 38.945312 37.1875 39.46875 37.421875 C 39.5 37.441406 39.527344 37.460938 39.558594 37.484375 C 39.558594 37.484375 39.5625 37.484375 39.566406 37.488281 C 39.574219 37.492188 39.578125 37.5 39.585938 37.5 C 39.589844 37.503906 39.597656 37.507812 39.601562 37.511719 C 39.628906 37.527344 39.660156 37.53125 39.695312 37.53125 C 39.796875 37.527344 39.875 37.441406 39.871094 37.335938 C 39.839844 36.730469 39.851562 35.992188 39.90625 35.875 C 39.914062 35.871094 39.953125 35.851562 40.039062 35.863281 C 40.21875 35.878906 40.511719 36.011719 40.753906 36.324219 C 41.160156 36.839844 41.40625 37.984375 41.492188 38.40625 C 41.058594 38.550781 40.621094 38.832031 40.210938 39.164062 C 39.710938 39.570312 39.257812 40.042969 38.914062 40.398438 L 38.8125 40.507812 C 38.003906 41.359375 37.203125 42.273438 36.808594 43.28125 C 35.550781 42.738281 34.441406 42.140625 34.382812 41.785156 C 34.335938 41.476562 34.402344 41.277344 34.65625 40.988281 C 34.6875 40.949219 34.707031 40.894531 34.699219 40.84375 C 34.578125 39.6875 35.230469 39.3125 35.261719 39.296875 Z M 14.707031 25.925781 L 65.496094 25.925781 C 63.679688 26.414062 62.035156 27.164062 60.574219 28.15625 L 54.011719 28.15625 C 53.90625 28.15625 53.824219 28.238281 53.824219 28.339844 C 53.824219 28.445312 53.90625 28.527344 54.011719 28.527344 L 60.050781 28.527344 C 59.445312 28.976562 58.871094 29.472656 58.332031 30.015625 L 30.210938 30.015625 C 30.136719 30.015625 30.070312 30.058594 30.042969 30.125 C 30.011719 30.191406 30.027344 30.269531 30.074219 30.324219 L 36.078125 37.011719 C 36.007812 37.132812 35.949219 37.269531 35.898438 37.433594 C 35.476562 37.648438 34.851562 38.199219 34.96875 39.046875 C 34.734375 39.226562 34.234375 39.742188 34.324219 40.804688 C 34.082031 41.09375 33.945312 41.390625 34.019531 41.84375 C 34.113281 42.414062 35.453125 43.113281 36.695312 43.644531 C 36.679688 43.691406 36.660156 43.738281 36.648438 43.789062 C 36.632812 43.855469 36.65625 43.925781 36.707031 43.96875 C 37.039062 44.257812 37.644531 44.558594 38.160156 44.65625 C 37.777344 45.359375 37.816406 46.269531 38.273438 47.273438 C 38.292969 47.316406 38.3125 47.355469 38.328125 47.394531 C 38.3125 47.355469 38.292969 47.316406 38.273438 47.273438 L 33.882812 47.285156 Z M 25.746094 46.5625 L 25.746094 45.765625 C 26.148438 45.921875 26.3125 46.128906 26.265625 46.613281 C 26.058594 46.59375 25.90625 46.578125 25.746094 46.5625 Z M 23.40625 44.949219 C 23.496094 44.773438 23.566406 44.636719 23.621094 44.519531 C 23.992188 44.5 24.042969 44.683594 23.796875 45.21875 C 23.644531 45.113281 23.539062 45.039062 23.40625 44.949219 Z M 26.847656 54.058594 L 0.429688 24.554688 L 0.429688 23.253906 L 26.847656 52.757812 Z M 0.429688 43.085938 L 0.429688 41.691406 L 24.25 51.714844 L 26.34375 54.050781 Z M 14.121094 25.664062 C 14.136719 25.628906 14.160156 25.601562 14.191406 25.582031 C 14.160156 25.601562 14.136719 25.628906 14.121094 25.664062 C 14.101562 25.707031 14.105469 25.757812 14.121094 25.800781 C 14.105469 25.757812 14.101562 25.710938 14.121094 25.664062 Z M 14.289062 25.554688 C 14.285156 25.554688 14.277344 25.558594 14.269531 25.558594 C 14.277344 25.558594 14.285156 25.554688 14.289062 25.554688 Z M 42.960938 24.671875 C 42.484375 24.789062 42.484375 24.789062 42.058594 24.394531 C 42.453125 24.015625 42.660156 24.332031 42.960938 24.671875 Z M 66.519531 25.683594 C 66.304688 25.730469 66.089844 25.78125 65.878906 25.832031 C 66.089844 25.78125 66.304688 25.730469 66.519531 25.683594 Z M 67.171875 25.554688 C 67.125 25.5625 67.078125 25.574219 67.03125 25.582031 C 67.078125 25.574219 67.125 25.5625 67.171875 25.554688 Z M 66.492188 21.425781 C 65.726562 20.609375 65.128906 19.523438 64.753906 18.292969 C 64.449219 17.273438 64.21875 16.339844 64.046875 15.441406 C 63.832031 14.328125 63.71875 13.285156 63.699219 12.308594 C 64.699219 12.640625 67.816406 13.671875 69.121094 14.207031 C 69.117188 14.222656 69.109375 14.238281 69.109375 14.253906 C 69.101562 14.339844 69.164062 14.414062 69.25 14.421875 C 69.84375 14.46875 70.320312 14.871094 70.554688 15.527344 C 70.828125 16.277344 70.675781 17.132812 70.1875 17.597656 C 69.925781 17.855469 69.394531 18.003906 68.984375 17.941406 C 68.902344 17.925781 68.824219 17.984375 68.808594 18.070312 C 68.796875 18.15625 68.851562 18.234375 68.9375 18.25 C 69.3125 18.304688 69.742188 18.226562 70.078125 18.054688 C 70.203125 17.988281 70.3125 17.914062 70.402344 17.824219 C 70.988281 17.261719 71.164062 16.292969 70.851562 15.417969 C 70.757812 15.160156 70.625 14.9375 70.472656 14.75 C 70.625 14.8125 70.765625 14.867188 70.847656 14.90625 C 70.847656 14.90625 71.550781 15.441406 72.75 16.074219 C 72.75 16.171875 72.808594 16.269531 72.929688 16.269531 C 72.976562 16.269531 73.011719 16.253906 73.042969 16.226562 C 73.289062 16.355469 73.5625 16.484375 73.847656 16.613281 C 73.890625 16.707031 73.992188 16.769531 74.085938 16.722656 C 74.53125 16.914062 75.007812 17.105469 75.519531 17.28125 C 75.542969 17.316406 75.570312 17.347656 75.625 17.359375 L 75.636719 17.359375 C 75.667969 17.367188 75.703125 17.359375 75.726562 17.347656 C 77.132812 17.808594 78.757812 18.144531 80.503906 18.144531 C 80.761719 18.144531 81.070312 18.136719 81.410156 18.125 C 80.757812 19.046875 79.917969 19.960938 78.875 20.894531 C 78.859375 20.90625 78.851562 20.917969 78.835938 20.929688 C 78.761719 20.972656 78.695312 21.027344 78.640625 21.085938 C 78.183594 21.625 78.527344 22.8125 78.609375 23.074219 C 78.765625 23.566406 79.0625 23.949219 79.476562 24.214844 C 79.503906 24.199219 79.523438 24.191406 79.546875 24.179688 C 79.523438 24.191406 79.507812 24.199219 79.476562 24.214844 C 79.421875 24.246094 79.355469 24.277344 79.277344 24.316406 C 78.238281 24.820312 75.023438 26.082031 70.984375 24.839844 C 70.917969 24.816406 70.851562 24.792969 70.785156 24.773438 C 70.777344 24.789062 70.765625 24.800781 70.753906 24.816406 C 70.765625 24.804688 70.773438 24.789062 70.78125 24.773438 C 70.925781 24.515625 70.949219 24.226562 70.925781 23.941406 C 71.09375 23.953125 71.265625 23.957031 71.4375 23.957031 C 71.808594 23.957031 72.179688 23.929688 72.554688 23.867188 C 72.65625 23.847656 72.722656 23.753906 72.707031 23.648438 C 72.6875 23.550781 72.59375 23.480469 72.492188 23.496094 C 71.496094 23.664062 70.53125 23.597656 69.445312 23.289062 C 68.367188 22.980469 67.347656 22.339844 66.492188 21.425781 Z M 64.578125 7.773438 C 64.65625 7.75 64.734375 7.726562 64.8125 7.707031 C 64.882812 7.96875 64.953125 8.238281 65.027344 8.503906 C 64.613281 8.363281 64.394531 8.15625 64.578125 7.773438 Z M 67.210938 2.523438 C 67.316406 2.585938 67.417969 2.648438 67.523438 2.710938 C 67.273438 3.09375 67.207031 2.855469 67.117188 2.707031 C 67.148438 2.644531 67.179688 2.585938 67.210938 2.523438 Z M 69.671875 11.757812 C 69.5625 11.921875 69.488281 12.027344 69.351562 12.234375 C 69.285156 12 69.25 11.882812 69.171875 11.621094 C 69.414062 11.6875 69.503906 11.710938 69.671875 11.757812 Z M 69.058594 4.03125 C 69.144531 4.277344 69.203125 4.457031 69.289062 4.71875 C 69.039062 4.851562 68.875 4.941406 68.570312 5.105469 C 68.523438 5.003906 68.464844 4.878906 68.390625 4.71875 C 68.238281 4.796875 68.082031 4.875 67.886719 4.972656 C 67.8125 4.78125 67.761719 4.636719 67.671875 4.378906 C 68.164062 4.257812 68.597656 4.148438 69.058594 4.03125 Z M 72.351562 13.417969 C 75.980469 14.234375 80.386719 13.902344 83.621094 11.949219 C 83.824219 11.828125 84.011719 12.148438 83.804688 12.273438 C 80.492188 14.277344 75.976562 14.617188 72.253906 13.777344 C 72.019531 13.722656 72.117188 13.367188 72.351562 13.417969 Z M 74.90625 2.324219 C 75.289062 2.324219 75.589844 2.542969 75.589844 2.824219 C 75.589844 3.109375 75.289062 3.328125 74.90625 3.328125 C 74.527344 3.328125 74.226562 3.109375 74.226562 2.824219 C 74.226562 2.542969 74.527344 2.324219 74.90625 2.324219 Z M 75.996094 3.027344 C 75.980469 3.34375 75.96875 3.558594 75.960938 3.769531 C 75.421875 3.488281 75.574219 3.289062 75.996094 3.027344 Z M 76.277344 12.449219 C 76.175781 12.554688 76.078125 12.675781 75.964844 12.773438 C 75.867188 12.859375 75.746094 12.929688 75.644531 13.003906 C 75.523438 13.285156 75.414062 13.539062 75.296875 13.800781 C 75.246094 13.777344 75.1875 13.753906 75.136719 13.726562 C 75.207031 13.335938 75.28125 12.945312 75.367188 12.480469 C 75.644531 12.410156 75.925781 12.339844 76.203125 12.265625 C 76.230469 12.328125 76.253906 12.390625 76.277344 12.449219 Z M 76.421875 9.625 C 76.367188 9.648438 76.3125 9.675781 76.261719 9.703125 C 76.167969 9.59375 76.070312 9.484375 75.957031 9.359375 C 76.066406 9.246094 76.140625 9.171875 76.308594 9 C 76.355469 9.273438 76.386719 9.449219 76.421875 9.625 Z M 78.703125 2.597656 C 78.769531 2.625 78.835938 2.652344 78.898438 2.671875 C 78.9375 2.851562 78.976562 3.03125 79.035156 3.296875 C 78.78125 3.269531 78.589844 3.246094 78.242188 3.203125 C 78.453125 2.929688 78.578125 2.765625 78.703125 2.597656 Z M 80.566406 11.328125 C 80.710938 11.527344 80.8125 11.664062 80.917969 11.800781 C 80.453125 11.910156 80.324219 11.785156 80.566406 11.328125 Z M 84.285156 13.898438 C 84.34375 14.15625 84.398438 14.289062 84.386719 14.410156 C 84.378906 14.5 84.285156 14.582031 84.191406 14.726562 C 83.953125 14.449219 83.890625 14.246094 84.285156 13.898438 Z M 82.808594 14.9375 C 82.574219 14.746094 82.402344 14.605469 82.226562 14.464844 C 82.242188 14.414062 82.253906 14.363281 82.269531 14.3125 L 82.96875 14.3125 C 82.898438 14.582031 82.863281 14.714844 82.808594 14.9375 Z M 79.859375 24.417969 C 79.871094 24.410156 79.878906 24.394531 79.886719 24.382812 C 79.878906 24.394531 79.871094 24.410156 79.859375 24.421875 C 80.082031 24.511719 80.328125 24.578125 80.59375 24.621094 L 80.675781 24.632812 C 79.730469 26.023438 77.300781 26.347656 75.804688 26.519531 C 73.738281 26.753906 71.6875 26.414062 69.84375 25.472656 C 70.089844 25.378906 70.320312 25.253906 70.523438 25.078125 C 70.539062 25.066406 70.554688 25.054688 70.570312 25.042969 C 70.554688 25.054688 70.539062 25.066406 70.523438 25.078125 C 71.949219 25.5625 73.285156 25.742188 74.472656 25.742188 C 77.664062 25.742188 79.800781 24.464844 79.828125 24.445312 C 79.839844 24.441406 79.847656 24.429688 79.859375 24.417969 Z M 91.847656 31.359375 C 93.554688 32.996094 95.097656 34.792969 96.578125 36.636719 C 95.5625 36.195312 94.5 35.882812 93.410156 35.671875 C 92.882812 34.171875 92.101562 32.679688 91.074219 31.195312 C 90.699219 30.664062 90.308594 30.125 89.894531 29.597656 C 90.554688 30.171875 91.210938 30.753906 91.847656 31.359375 Z M 61.84375 99.007812 C 62.253906 98.988281 62.492188 98.976562 62.871094 98.964844 C 62.394531 99.34375 62.394531 99.34375 61.84375 99.007812 Z M 36.320312 98.160156 C 36.71875 98.277344 36.945312 98.347656 37.308594 98.453125 C 36.730469 98.660156 36.730469 98.660156 36.320312 98.160156 Z M 107.773438 52.542969 C 107.769531 52.53125 107.769531 52.527344 107.765625 52.519531 C 107.757812 52.492188 107.746094 52.464844 107.730469 52.449219 C 107.726562 52.445312 107.726562 52.441406 107.722656 52.4375 L 105.527344 50.042969 C 105.523438 50.023438 105.523438 50.007812 105.519531 49.992188 C 104.609375 45.695312 103.03125 41.5 99.632812 38.550781 C 98.921875 37.933594 98.148438 37.425781 97.34375 37.003906 C 97.339844 36.996094 97.335938 36.992188 97.332031 36.984375 C 95.707031 34.921875 94 32.925781 92.105469 31.09375 C 90.613281 29.652344 88.992188 28.339844 87.40625 27.003906 C 87.398438 27.003906 87.398438 27.003906 87.398438 27.003906 C 87.160156 26.808594 86.917969 26.625 86.664062 26.453125 C 85.539062 25.683594 84.320312 25.097656 83.03125 24.707031 C 82.714844 24.609375 82.390625 24.539062 82.074219 24.476562 L 80.386719 22.640625 C 80.347656 22.601562 80.300781 22.582031 80.25 22.582031 L 78.863281 22.582031 C 78.75 22.058594 78.703125 21.402344 79.03125 21.242188 C 79.042969 21.238281 79.046875 21.230469 79.054688 21.226562 C 79.0625 21.222656 79.074219 21.21875 79.078125 21.210938 C 80.253906 20.164062 81.179688 19.132812 81.882812 18.09375 C 84.066406 17.929688 87.136719 17.351562 87.960938 15.703125 C 88.796875 13.9375 85.757812 13.316406 84.644531 12.109375 C 84.644531 12.109375 84.519531 10.859375 84.402344 10.261719 C 83.429688 5.445312 79.941406 1.953125 75.144531 0.960938 C 74.980469 0.933594 74.824219 0.90625 74.667969 0.886719 C 74.675781 0.914062 74.683594 0.941406 74.6875 0.972656 C 74.46875 0.90625 74.320312 0.859375 74.171875 0.816406 C 71.5625 0.484375 69.761719 0.878906 67.40625 2.261719 C 66.164062 2.988281 65.011719 4.074219 64.355469 5.355469 C 63.539062 6.929688 62.933594 9.15625 62.871094 10.910156 C 62.851562 11.484375 62.757812 11.929688 63.324219 12.167969 C 63.332031 13.210938 63.453125 14.324219 63.679688 15.511719 C 63.855469 16.425781 64.089844 17.371094 64.398438 18.398438 C 64.785156 19.6875 65.417969 20.824219 66.222656 21.679688 C 66.539062 22.015625 66.875 22.316406 67.230469 22.582031 L 0.246094 22.582031 C 0.242188 22.582031 0.242188 22.582031 0.238281 22.582031 C 0.207031 22.582031 0.175781 22.589844 0.152344 22.605469 C 0.144531 22.609375 0.140625 22.613281 0.136719 22.617188 C 0.132812 22.621094 0.128906 22.625 0.125 22.625 C 0.117188 22.628906 0.117188 22.632812 0.113281 22.632812 C 0.109375 22.636719 0.109375 22.640625 0.101562 22.648438 C 0.09375 22.660156 0.0859375 22.667969 0.078125 22.683594 C 0.078125 22.6875 0.0742188 22.6875 0.0742188 22.691406 C 0.0625 22.71875 0.0585938 22.742188 0.0585938 22.769531 L 0.0585938 24.625 C 0.0585938 24.667969 0.0742188 24.714844 0.101562 24.746094 L 23.675781 51.070312 L 0.316406 41.242188 C 0.261719 41.214844 0.191406 41.222656 0.140625 41.257812 C 0.0898438 41.289062 0.0585938 41.347656 0.0585938 41.414062 L 0.0585938 43.207031 C 0.0585938 43.28125 0.101562 43.347656 0.171875 43.378906 L 26.957031 54.714844 L 26.960938 54.714844 C 26.980469 54.726562 27.007812 54.730469 27.035156 54.730469 C 27.464844 54.730469 27.902344 54.726562 28.335938 54.726562 L 28.335938 102.117188 L 28.707031 102.117188 L 28.707031 54.726562 C 34.546875 54.710938 40.386719 54.699219 46.230469 54.683594 C 48.4375 55.871094 50.878906 57.035156 53.46875 57.492188 C 52.984375 57.523438 52.519531 57.558594 52.078125 57.59375 C 50.96875 57.683594 50.222656 58.6875 49.785156 60.101562 C 47.972656 60.515625 46.265625 61.121094 44.816406 62.117188 C 39.746094 65.613281 38.707031 69.03125 41.011719 92.289062 L 41.027344 92.457031 L 41.945312 92.457031 C 41.949219 92.625 41.957031 92.792969 41.96875 92.964844 C 41.976562 93.117188 41.945312 93.382812 41.980469 93.597656 C 39.542969 94.738281 36.683594 96.042969 35.078125 98.191406 C 34.503906 98.960938 34.304688 99.910156 34.238281 100.644531 C 34.257812 100.636719 34.269531 100.632812 34.289062 100.632812 L 56.503906 100.632812 C 56.519531 99.859375 56.53125 98.777344 56.53125 97.519531 C 56.53125 95.234375 54.976562 92.984375 54.589844 92.457031 L 55.871094 92.457031 L 55.871094 76.277344 C 56.230469 76.363281 56.609375 76.40625 56.996094 76.421875 C 57.0625 77.621094 57.792969 78.648438 58.828125 79.136719 C 60.148438 82.515625 61.964844 86.683594 64.367188 91.929688 L 64.441406 92.082031 L 65.304688 91.785156 C 65.371094 91.9375 65.429688 92.09375 65.492188 92.246094 C 65.546875 92.386719 65.609375 92.652344 65.710938 92.84375 C 63.773438 94.714844 61.488281 96.878906 60.667969 99.4375 C 60.371094 100.351562 60.496094 101.320312 60.671875 102.03125 C 60.6875 102.019531 60.703125 102.011719 60.722656 102.003906 L 63.699219 100.980469 C 63.722656 101.109375 63.75 101.226562 63.792969 101.339844 L 60.84375 102.351562 C 60.824219 102.359375 60.800781 102.363281 60.78125 102.363281 C 60.773438 102.363281 60.765625 102.359375 60.757812 102.355469 C 60.902344 102.8125 61.039062 103.109375 61.039062 103.109375 L 61.261719 103.078125 C 61.304688 103.0625 62.488281 102.679688 64.289062 102.097656 C 64.632812 102.417969 65.089844 102.621094 65.597656 102.621094 C 66.539062 102.621094 67.316406 101.945312 67.488281 101.058594 C 70.734375 100.003906 74.671875 98.71875 77.824219 97.675781 L 77.824219 98.820312 C 76.964844 99.015625 76.324219 99.78125 76.324219 100.695312 C 76.324219 101.753906 77.1875 102.621094 78.246094 102.621094 C 79.3125 102.621094 80.175781 101.753906 80.175781 100.695312 C 80.175781 99.632812 79.3125 98.769531 78.246094 98.769531 C 78.230469 98.769531 78.214844 98.773438 78.195312 98.777344 L 78.195312 97.554688 C 79.347656 97.171875 80.382812 96.828125 81.222656 96.542969 L 79.457031 96.542969 C 79.53125 96.429688 79.585938 96.300781 79.625 96.171875 L 82.167969 96.171875 L 82.101562 95.96875 C 82.101562 95.964844 82.007812 95.664062 81.84375 95.152344 L 79.671875 95.902344 C 79.675781 95.871094 79.683594 95.839844 79.683594 95.8125 L 79.683594 95.503906 L 81.734375 94.800781 C 81.496094 94.066406 81.160156 93.035156 80.75 91.84375 C 80.511719 91.152344 80.117188 90.515625 79.683594 89.953125 L 79.683594 79.445312 L 95.820312 79.445312 C 97.589844 79.445312 99.03125 78.007812 99.03125 76.238281 L 99.03125 75.964844 C 99.03125 74.890625 98.5 73.9375 97.683594 73.359375 C 98.535156 71.617188 98.792969 69.074219 98.828125 66.851562 C 99.894531 66.796875 100.964844 66.730469 102.035156 66.628906 C 102.394531 66.589844 102.761719 66.554688 103.125 66.5 L 103.125 102.117188 L 103.496094 102.117188 L 103.496094 66.441406 C 103.679688 66.410156 103.855469 66.375 104.039062 66.332031 C 104.878906 66.132812 105.339844 65.425781 105.722656 64.675781 C 106.703125 62.734375 106.277344 60.0625 106.277344 57.976562 C 106.277344 56.839844 106.242188 55.722656 106.160156 54.609375 C 106.636719 54.605469 107.113281 54.605469 107.589844 54.605469 C 107.691406 54.605469 107.777344 54.519531 107.777344 54.421875 L 107.777344 52.5625 C 107.777344 52.554688 107.773438 52.546875 107.773438 52.542969 "/></g><path style=" stroke:none;fill-rule:nonzero;fill:#100f0d;fill-opacity:1;" d="M 89.535156 34.335938 C 89.890625 33.296875 90 32.222656 90.007812 31.128906 C 90.007812 30.890625 89.636719 30.890625 89.636719 31.128906 C 89.628906 32.191406 89.523438 33.230469 89.175781 34.238281 C 89.097656 34.464844 89.457031 34.5625 89.535156 34.335938 "/><path style=" stroke:none;fill-rule:nonzero;fill:#100f0d;fill-opacity:1;" d="M 74.90625 2.957031 C 75.101562 2.957031 75.21875 2.867188 75.21875 2.828125 C 75.21875 2.785156 75.101562 2.695312 74.90625 2.695312 C 74.714844 2.695312 74.597656 2.785156 74.597656 2.828125 C 74.597656 2.867188 74.714844 2.957031 74.90625 2.957031 "/><path style=" stroke:none;fill-rule:nonzero;fill:#100f0d;fill-opacity:1;" d="M 71.992188 16.492188 C 72.082031 16.464844 72.140625 16.402344 72.160156 16.3125 C 72.199219 16.085938 71.867188 15.988281 71.804688 16.195312 C 71.707031 16.320312 71.804688 16.550781 71.992188 16.492188 "/><path style=" stroke:none;fill-rule:nonzero;fill:#100f0d;fill-opacity:1;" d="M 73.109375 17.109375 C 73.347656 17.109375 73.347656 16.734375 73.109375 16.734375 C 72.871094 16.734375 72.871094 17.109375 73.109375 17.109375 "/><path style=" stroke:none;fill-rule:nonzero;fill:#100f0d;fill-opacity:1;" d="M 72.351562 17.363281 C 72.382812 17.359375 72.410156 17.355469 72.4375 17.351562 C 72.671875 17.308594 72.570312 16.953125 72.335938 16.992188 C 72.308594 16.996094 72.28125 17 72.253906 17.003906 C 72.019531 17.046875 72.117188 17.402344 72.351562 17.363281 "/><path style=" stroke:none;fill-rule:nonzero;fill:#100f0d;fill-opacity:1;" d="M 73.882812 17.65625 C 74.121094 17.65625 74.121094 17.285156 73.882812 17.285156 C 73.640625 17.285156 73.640625 17.65625 73.882812 17.65625 "/><path style=" stroke:none;fill-rule:nonzero;fill:#100f0d;fill-opacity:1;" d="M 75.183594 18.074219 C 75.425781 18.074219 75.425781 17.703125 75.183594 17.703125 C 74.945312 17.703125 74.945312 18.074219 75.183594 18.074219 "/><path style=" stroke:none;fill-rule:nonzero;fill:#100f0d;fill-opacity:1;" d="M 74.585938 17.539062 C 74.824219 17.539062 74.824219 17.167969 74.585938 17.167969 C 74.34375 17.167969 74.34375 17.539062 74.585938 17.539062 "/><path style=" stroke:none;fill-rule:nonzero;fill:#100f0d;fill-opacity:1;" d="M 76 18.148438 C 76.195312 18.289062 76.382812 17.96875 76.1875 17.828125 C 76.171875 17.816406 76.15625 17.804688 76.140625 17.792969 C 75.945312 17.65625 75.757812 17.976562 75.953125 18.117188 C 75.96875 18.128906 75.984375 18.136719 76 18.148438 "/><path style=" stroke:none;fill-rule:nonzero;fill:#100f0d;fill-opacity:1;" d="M 78.816406 19.203125 C 79.058594 19.203125 79.058594 18.832031 78.816406 18.832031 C 78.578125 18.832031 78.578125 19.203125 78.816406 19.203125 "/><path style=" stroke:none;fill-rule:nonzero;fill:#100f0d;fill-opacity:1;" d="M 79.609375 18.601562 C 79.847656 18.601562 79.847656 18.230469 79.609375 18.230469 C 79.367188 18.230469 79.367188 18.601562 79.609375 18.601562 "/><path style=" stroke:none;fill-rule:nonzero;fill:#100f0d;fill-opacity:1;" d="M 78.871094 18.472656 C 78.886719 18.472656 78.898438 18.46875 78.914062 18.464844 C 79.148438 18.425781 79.046875 18.066406 78.8125 18.109375 C 78.800781 18.109375 78.785156 18.113281 78.773438 18.113281 C 78.535156 18.15625 78.636719 18.511719 78.871094 18.472656 "/><path style=" stroke:none;fill-rule:nonzero;fill:#100f0d;fill-opacity:1;" d="M 77.804688 18.480469 C 78.042969 18.480469 78.042969 18.109375 77.804688 18.109375 C 77.5625 18.109375 77.5625 18.480469 77.804688 18.480469 "/><path style=" stroke:none;fill-rule:nonzero;fill:#100f0d;fill-opacity:1;" d="M 77.066406 18.105469 C 77.0625 18.089844 77.0625 18.074219 77.058594 18.0625 C 77.019531 17.828125 76.660156 17.925781 76.699219 18.160156 C 76.703125 18.175781 76.703125 18.1875 76.707031 18.203125 C 76.746094 18.4375 77.105469 18.339844 77.066406 18.105469 "/><path style=" stroke:none;fill-rule:nonzero;fill:#100f0d;fill-opacity:1;" d="M 77.550781 19.246094 C 77.789062 19.246094 77.789062 18.875 77.550781 18.875 C 77.308594 18.875 77.308594 19.246094 77.550781 19.246094 "/><path style=" stroke:none;fill-rule:nonzero;fill:#100f0d;fill-opacity:1;" d="M 76.445312 19.007812 C 76.6875 19.007812 76.6875 18.636719 76.445312 18.636719 C 76.207031 18.636719 76.207031 19.007812 76.445312 19.007812 "/><path style=" stroke:none;fill-rule:nonzero;fill:#100f0d;fill-opacity:1;" d="M 75.476562 18.789062 C 75.714844 18.789062 75.714844 18.417969 75.476562 18.417969 C 75.234375 18.417969 75.234375 18.789062 75.476562 18.789062 "/><path style=" stroke:none;fill-rule:nonzero;fill:#100f0d;fill-opacity:1;" d="M 74.351562 18.425781 C 74.59375 18.425781 74.59375 18.054688 74.351562 18.054688 C 74.113281 18.054688 74.113281 18.425781 74.351562 18.425781 "/><path style=" stroke:none;fill-rule:nonzero;fill:#100f0d;fill-opacity:1;" d="M 73.035156 18.140625 C 73.066406 18.136719 73.09375 18.128906 73.121094 18.125 C 73.355469 18.085938 73.253906 17.726562 73.019531 17.769531 C 72.992188 17.773438 72.964844 17.777344 72.9375 17.78125 C 72.703125 17.820312 72.800781 18.179688 73.035156 18.140625 "/><path style=" stroke:none;fill-rule:nonzero;fill:#100f0d;fill-opacity:1;" d="M 71.519531 17.199219 C 71.757812 17.199219 71.757812 16.828125 71.519531 16.828125 C 71.277344 16.828125 71.277344 17.199219 71.519531 17.199219 "/><path style=" stroke:none;fill-rule:nonzero;fill:#100f0d;fill-opacity:1;" d="M 71.449219 15.914062 C 71.691406 15.914062 71.691406 15.542969 71.449219 15.542969 C 71.210938 15.542969 71.210938 15.914062 71.449219 15.914062 "/><path style=" stroke:none;fill-rule:nonzero;fill:#100f0d;fill-opacity:1;" d="M 79.847656 19.28125 C 80.085938 19.28125 80.085938 18.910156 79.847656 18.910156 C 79.605469 18.910156 79.605469 19.28125 79.847656 19.28125 "/></g></svg>