<svg xmlns="http://www.w3.org/2000/svg" xmlns:xlink="http://www.w3.org/1999/xlink" width="150" zoomAndPan="magnify" viewBox="0 0 113.04 120.96" height="150" preserveAspectRatio="xMidYMid meet" version="1.2"><defs><clipPath id="78a44d995d"><path d="M 0 0.488281 L 96.679688 0.488281 L 96.679688 111.832031 L 0 111.832031 Z M 0 0.488281 "/></clipPath><clipPath id="91c72e499c"><path d="M 0 0.488281 L 96.679688 0.488281 L 96.679688 111.769531 L 0 111.769531 Z M 0 0.488281 "/></clipPath></defs><g id="2479f1089b"><g clip-rule="nonzero" clip-path="url(#78a44d995d)"><path style=" stroke:none;fill-rule:nonzero;fill:#ffffff;fill-opacity:1;" d="M 10.035156 72.527344 C 7.105469 72.527344 4.753906 70.488281 2.839844 68.492188 L 2.804688 68.457031 L 2.757812 68.433594 L 2.824219 68.429688 C 3.101562 68.398438 3.386719 68.382812 3.667969 68.382812 C 6.351562 68.382812 8.609375 69.859375 10.03125 71.097656 L 10.832031 71.796875 C 10.835938 71.804688 10.855469 71.867188 10.855469 71.867188 L 10.882812 71.90625 L 10.878906 71.964844 L 10.898438 72.015625 C 10.945312 72.160156 10.988281 72.304688 11.035156 72.453125 L 10.796875 72.480469 C 10.542969 72.511719 10.285156 72.527344 10.035156 72.527344 Z M 39.242188 82.203125 C 39.742188 82.722656 40.273438 83.453125 40.75 84.257812 L 41.292969 84.085938 C 41.210938 83.210938 41.171875 82.539062 41.171875 81.960938 C 41.171875 80.640625 41.394531 80.117188 41.582031 79.910156 C 41.636719 79.851562 41.699219 79.804688 41.765625 79.773438 C 41.824219 79.75 41.894531 79.734375 41.964844 79.734375 C 41.992188 79.734375 42.015625 79.734375 42.042969 79.742188 C 42.078125 79.746094 42.101562 79.75 42.128906 79.757812 L 42.171875 79.765625 C 42.257812 79.792969 42.34375 79.820312 42.417969 79.855469 C 42.472656 79.875 42.5 79.886719 42.527344 79.902344 L 42.605469 79.953125 L 42.664062 80.007812 L 42.703125 80.007812 C 42.71875 80.019531 42.773438 80.066406 42.773438 80.066406 L 42.789062 80.070312 L 42.792969 80.082031 L 42.847656 80.121094 L 42.875 80.144531 L 42.890625 80.175781 L 42.929688 80.195312 L 43 80.269531 L 43 80.441406 L 43.132812 80.445312 L 43.167969 80.46875 C 43.175781 80.480469 43.238281 80.574219 43.238281 80.574219 L 43.773438 81.371094 L 43.824219 80.496094 L 43.824219 76.988281 L 43.597656 76.9375 C 40.351562 76.214844 37.1875 75.136719 33.933594 73.636719 L 33.113281 73.261719 L 33.554688 74.042969 C 34.253906 75.289062 34.855469 76.621094 35.4375 77.90625 C 35.667969 78.421875 35.902344 78.9375 36.140625 79.445312 L 36.363281 79.925781 C 36.542969 80.308594 36.726562 80.699219 36.886719 81.097656 L 37.007812 81.394531 L 37.292969 81.25 C 37.308594 81.25 37.359375 81.242188 37.359375 81.242188 L 37.457031 81.242188 L 37.476562 81.222656 C 37.511719 81.21875 37.539062 81.21875 37.5625 81.21875 C 37.6875 81.21875 37.820312 81.242188 37.953125 81.285156 C 38.03125 81.304688 38.101562 81.335938 38.160156 81.363281 C 38.308594 81.433594 38.449219 81.515625 38.589844 81.621094 C 38.722656 81.714844 38.859375 81.828125 39.023438 81.988281 C 39.085938 82.042969 39.140625 82.097656 39.199219 82.152344 Z M 34.664062 86.84375 C 33.3125 87.3125 31.898438 87.65625 30.691406 87.933594 L 30.75 88.507812 C 31.632812 88.535156 32.832031 88.9375 33.882812 89.5625 L 34.238281 89.773438 L 34.320312 89.371094 C 34.40625 88.941406 34.601562 88.550781 34.898438 88.214844 L 34.964844 88.136719 L 34.96875 88.03125 C 34.972656 87.761719 34.992188 87.507812 35.027344 87.269531 L 35.046875 87.253906 L 35.050781 87.117188 L 35.050781 86.707031 Z M 12.308594 111.480469 C 12.140625 111.480469 11.972656 111.476562 11.804688 111.472656 C 11.015625 111.449219 10.300781 111.40625 9.628906 111.335938 C 9.53125 111.132812 9.359375 110.949219 9.117188 110.777344 L 8.636719 110.4375 C 8.636719 110.4375 8.660156 111.160156 8.660156 111.226562 C 7.054688 110.992188 5.703125 110.601562 4.535156 110.035156 C 2.792969 109.183594 1.632812 107.578125 1.082031 105.273438 C 0.886719 104.425781 0.742188 103.503906 0.640625 102.394531 C 0.671875 102.394531 1.039062 102.394531 1.039062 102.394531 L 1.039062 101.585938 L 0.578125 101.535156 C 0.511719 100.378906 0.5 99.203125 0.488281 98.0625 C 0.476562 97.089844 0.46875 96.085938 0.421875 95.09375 L 0.414062 94.929688 C 0.320312 92.910156 0.222656 90.820312 0.359375 88.765625 C 0.488281 86.824219 0.664062 84.164062 1.8125 82.21875 C 2.566406 80.945312 4.828125 80.5625 5.273438 80.496094 L 5.398438 80.480469 L 5.472656 80.375 C 6.050781 79.558594 8.683594 78.96875 11.734375 78.96875 L 12.121094 78.972656 L 12.457031 78.972656 L 12.410156 78.640625 C 12.3125 77.964844 12.191406 77.269531 12.054688 76.574219 L 12.042969 76.5 L 11.992188 76.441406 L 12.003906 76.347656 C 11.882812 75.730469 11.75 75.128906 11.605469 74.535156 L 12.171875 74.511719 C 12.539062 72.125 13.503906 70.171875 14.964844 68.863281 L 15.171875 68.675781 L 14.992188 68.460938 C 14.828125 68.261719 14.75 68.03125 14.757812 67.757812 C 14.839844 67.300781 15.179688 66.960938 15.636719 66.910156 L 16.285156 66.835938 L 15.800781 66.40625 C 15.589844 66.214844 15.472656 66 15.453125 65.761719 C 15.4375 65.597656 15.484375 65.453125 15.589844 65.335938 L 15.863281 65.15625 L 15.648438 64.914062 C 14.367188 63.410156 12.878906 62.082031 11.445312 60.796875 C 10.0625 59.5625 8.632812 58.285156 7.40625 56.867188 C 6.453125 55.761719 3.921875 52.820312 4.960938 50.863281 C 5.03125 50.722656 5.117188 50.605469 5.238281 50.476562 L 5.46875 50.238281 L 5.199219 50.042969 C 4.097656 49.246094 3.328125 48.398438 3.320312 48.390625 C 2.992188 48 1.972656 46.671875 2.554688 45.835938 C 2.808594 45.464844 3.398438 45.246094 4.132812 45.246094 C 4.503906 45.246094 4.851562 45.296875 5.144531 45.398438 L 5.570312 45.542969 L 5.53125 45.097656 C 5.476562 44.457031 5.59375 44.039062 5.921875 43.707031 C 6.21875 43.417969 6.628906 43.257812 7.09375 43.257812 C 7.488281 43.257812 7.894531 43.371094 8.242188 43.570312 L 8.582031 43.761719 L 8.675781 43.386719 C 8.945312 42.304688 9.324219 41.527344 9.796875 41.078125 L 9.957031 40.925781 L 9.605469 40.242188 C 9.570312 40.164062 9.539062 40.101562 9.507812 40.046875 C 9.429688 39.878906 9.363281 39.691406 9.308594 39.46875 C 9.1875 38.976562 9.222656 38.539062 9.40625 38.210938 C 9.546875 37.957031 9.859375 37.640625 10.546875 37.554688 C 10.605469 37.550781 10.679688 37.546875 10.757812 37.546875 C 11.390625 37.546875 12.191406 37.828125 13.136719 38.382812 L 13.472656 38.582031 L 13.570312 38.207031 C 13.765625 37.46875 14.394531 36.671875 15.308594 36.667969 C 15.722656 36.667969 16.074219 36.835938 16.441406 37.222656 C 16.488281 37.269531 16.53125 37.316406 16.574219 37.367188 L 16.863281 37.691406 L 17.054688 37.304688 C 17.171875 37.074219 17.332031 36.84375 17.523438 36.632812 C 17.566406 36.574219 17.605469 36.539062 17.644531 36.503906 C 18.097656 36.039062 18.613281 35.769531 19.027344 35.769531 C 19.082031 35.769531 19.136719 35.773438 19.191406 35.78125 C 19.910156 35.914062 20.238281 36.78125 20.386719 37.488281 C 20.4375 37.75 20.464844 37.980469 20.480469 38.121094 C 20.484375 38.179688 20.492188 38.386719 20.492188 38.6875 L 20.492188 39.035156 L 20.484375 39.242188 C 20.484375 39.289062 20.484375 39.339844 20.480469 39.386719 C 20.480469 39.511719 20.472656 39.605469 20.46875 39.703125 C 20.460938 39.75 20.460938 39.800781 20.460938 39.847656 L 20.425781 40.28125 C 20.421875 40.308594 20.421875 40.332031 20.421875 40.359375 L 20.398438 40.578125 L 19.820312 40.578125 L 20.472656 41.097656 C 20.585938 41.1875 20.691406 41.285156 20.804688 41.386719 L 21.09375 41.640625 L 21.265625 41.296875 C 21.558594 40.699219 22.203125 40.097656 22.980469 40.097656 C 23.078125 40.097656 23.171875 40.105469 23.269531 40.125 C 23.726562 40.21875 24.058594 40.5 24.371094 41.058594 L 24.585938 41.445312 L 24.855469 41.097656 C 25.296875 40.535156 26.175781 39.957031 26.875 39.957031 C 27.015625 39.957031 27.144531 39.980469 27.261719 40.023438 C 28.25 40.417969 28.09375 42.207031 28.054688 42.5625 C 27.957031 43.292969 27.644531 44.566406 27.101562 45.742188 L 27.007812 45.941406 L 27.179688 46.085938 C 27.214844 46.117188 27.234375 46.128906 27.253906 46.148438 C 28.765625 47.667969 29.160156 50.101562 29.503906 52.246094 L 29.597656 52.804688 C 29.714844 53.542969 29.824219 54.285156 29.929688 55.023438 L 29.949219 55.160156 L 30.066406 55.230469 C 30.316406 55.382812 30.5625 55.535156 30.800781 55.683594 C 32.171875 56.535156 33.589844 57.414062 35.316406 57.789062 C 35.582031 57.847656 35.851562 57.875 36.109375 57.875 C 38.535156 57.875 40.058594 55.308594 41.066406 53.613281 L 41.097656 53.5625 L 41.105469 53.507812 C 41.15625 53.179688 41.226562 52.746094 41.328125 52.316406 C 41.582031 51.238281 42.007812 50.109375 42.632812 48.871094 L 42.714844 48.714844 L 42.613281 48.570312 C 41.351562 46.808594 41.492188 45.027344 43.085938 42.617188 C 45.25 39.351562 46.628906 36.570312 47.433594 33.851562 C 48.566406 30.027344 47.949219 26.160156 47.347656 22.417969 C 46.917969 19.730469 46.472656 16.949219 46.6875 14.210938 C 46.835938 12.238281 47.074219 9.976562 47.972656 8.0625 C 48.324219 7.324219 48.734375 6.59375 49.363281 6.242188 C 49.859375 5.96875 50.15625 5.441406 50.445312 4.933594 C 50.613281 4.640625 50.769531 4.363281 50.953125 4.152344 C 53.472656 1.246094 57.335938 0.636719 60.128906 0.636719 C 60.921875 0.636719 61.738281 0.6875 62.550781 0.785156 C 68.5625 1.523438 73.453125 4.488281 76.316406 9.136719 C 77.9375 11.765625 78.984375 14.734375 79.996094 17.605469 L 80.441406 18.882812 C 81.503906 21.960938 82.710938 25.449219 85.199219 27.746094 C 86.402344 28.855469 87.839844 29.832031 89.230469 30.773438 C 92.765625 33.167969 96.109375 35.429688 96.363281 39.921875 C 96.632812 44.613281 94.386719 50.359375 89.570312 52.265625 L 89.417969 52.328125 L 89.390625 52.488281 C 89.324219 52.898438 89.242188 53.3125 89.148438 53.726562 C 88.433594 56.960938 87.21875 60.277344 85.210938 64.484375 L 84.507812 65.964844 C 83.738281 68.179688 83.335938 69.839844 83.191406 71.386719 C 83.019531 73.234375 83.15625 75.089844 83.289062 76.886719 C 83.382812 78.207031 83.484375 79.574219 83.460938 80.917969 L 83.457031 81.117188 L 83.640625 81.195312 C 83.761719 81.242188 83.875 81.296875 83.992188 81.359375 C 86.03125 82.507812 85.921875 85.097656 85.824219 87.378906 C 85.804688 87.835938 85.785156 88.28125 85.785156 88.699219 C 85.785156 91.625 85.503906 95.234375 83.320312 97.222656 C 82.636719 97.84375 81.671875 97.976562 80.984375 97.976562 C 80.601562 97.976562 80.199219 97.9375 79.789062 97.859375 C 77.949219 97.519531 75.773438 97.105469 73.597656 96.636719 C 73.3125 96.578125 73.023438 96.511719 72.734375 96.445312 C 71.605469 96.1875 70.4375 95.921875 69.292969 95.917969 C 68.175781 95.917969 67.128906 96.070312 66.121094 96.21875 L 65.4375 96.320312 L 65.417969 96.894531 C 67.3125 97.292969 68.652344 97.925781 69.632812 98.882812 C 70.101562 99.347656 70.625 100.082031 70.546875 100.621094 C 70.507812 100.863281 70.351562 101.054688 70.0625 101.207031 C 69.558594 101.476562 69.058594 101.613281 68.578125 101.613281 C 66.675781 101.613281 65.183594 99.535156 64.097656 97.722656 L 63.558594 97.933594 C 63.832031 99.179688 64.222656 100.355469 64.730469 101.453125 C 64.289062 100.511719 63.9375 99.507812 63.675781 98.457031 L 63.46875 97.605469 L 63.125 98.410156 C 62.105469 100.800781 60.339844 103.371094 58.867188 103.371094 C 58.609375 103.371094 58.367188 103.296875 58.128906 103.144531 C 57.695312 102.867188 57.480469 102.550781 57.46875 102.175781 C 57.429688 100.753906 60.179688 98.753906 61.824219 97.5625 L 62.113281 97.351562 L 61.890625 96.828125 C 61.152344 96.957031 60.488281 97.109375 59.855469 97.289062 C 57.578125 98.039062 55.574219 99.382812 53.636719 100.679688 C 51.859375 101.875 50.015625 103.109375 47.988281 103.859375 C 47.613281 104 46.289062 104.453125 45.003906 104.453125 C 44.40625 104.453125 43.917969 104.355469 43.550781 104.164062 L 43.144531 103.949219 L 43.121094 104.40625 L 43.117188 104.546875 C 43.117188 104.601562 43.117188 104.660156 43.113281 104.714844 C 43.09375 104.855469 43.082031 105 43.070312 105.160156 C 42.96875 106.175781 42.835938 107.539062 42.207031 108.25 C 42.121094 108.347656 42.027344 108.429688 41.929688 108.492188 C 41.761719 108.605469 41.597656 108.660156 41.433594 108.660156 C 40.492188 108.660156 39.898438 106.800781 39.578125 105.804688 L 39.46875 105.496094 C 38.972656 103.988281 39.285156 102.800781 39.660156 101.839844 L 39.96875 101.035156 L 39.230469 101.488281 C 38.695312 101.8125 36.855469 102.882812 35.707031 102.882812 C 35.367188 102.882812 35.117188 102.785156 34.957031 102.601562 C 34.769531 102.371094 34.722656 101.988281 34.824219 101.46875 C 35.011719 100.605469 35.324219 99.898438 35.78125 99.316406 L 35.917969 99.140625 L 35.785156 98.964844 C 35.363281 98.394531 34.976562 97.652344 34.640625 96.761719 L 34.441406 96.238281 L 34.125 96.703125 C 32.566406 98.96875 31.351562 100.121094 30.511719 100.121094 C 30.253906 100.121094 30.035156 100.011719 29.855469 99.792969 C 29.664062 99.546875 29.597656 99.242188 29.652344 98.859375 C 29.785156 98.027344 30.585938 96.804688 31.796875 95.585938 L 31.488281 95.105469 C 30.878906 95.332031 29.03125 96.019531 27.953125 96.019531 C 27.363281 96.019531 27.066406 95.820312 27.066406 95.425781 C 27.050781 93.535156 29.648438 93.027344 31.363281 92.691406 C 31.585938 92.648438 31.800781 92.605469 31.996094 92.566406 L 32.703125 92.417969 L 32.089844 92.035156 C 30.6875 91.15625 29.300781 89.9375 29.367188 89.183594 C 29.382812 89.007812 29.480469 88.863281 29.664062 88.746094 L 30.5 88.210938 L 29.472656 88.210938 L 29.425781 88.21875 C 28.40625 88.445312 26.914062 88.714844 25.410156 88.714844 C 24.582031 88.714844 23.84375 88.632812 23.210938 88.46875 L 22.820312 88.371094 L 22.863281 89.070312 C 22.898438 89.738281 22.898438 90.414062 22.890625 91.046875 C 22.882812 91.0625 22.878906 91.074219 22.871094 91.089844 L 22.800781 91.265625 L 22.890625 91.355469 C 22.878906 92.160156 22.847656 92.96875 22.820312 93.777344 C 22.800781 94.34375 22.78125 94.910156 22.769531 95.476562 C 22.75 96.246094 22.75 97.019531 22.75 97.796875 C 22.75 99.046875 22.753906 100.332031 22.671875 101.597656 L 22.253906 101.148438 L 22.042969 101.398438 C 21.203125 102.390625 21.445312 103.160156 21.792969 103.78125 L 21.851562 103.882812 L 21.964844 103.917969 C 22.121094 103.964844 22.261719 103.984375 22.398438 103.988281 C 22.3125 104.480469 22.226562 104.882812 22.121094 105.261719 C 21.601562 107.191406 20.820312 108.625 19.800781 109.527344 L 19.503906 109.074219 L 19.292969 109.59375 C 19.195312 109.839844 18.984375 109.996094 18.746094 110.179688 L 18.601562 110.289062 C 17.667969 110.734375 16.585938 111.058594 15.382812 111.257812 C 14.957031 110.914062 14.425781 110.855469 13.910156 110.796875 L 13.605469 110.761719 L 13.101562 111.464844 C 12.835938 111.476562 12.570312 111.480469 12.308594 111.480469 "/></g><path style=" stroke:none;fill-rule:nonzero;fill:#100f0d;fill-opacity:1;" d="M 9.339844 40.359375 C 9.308594 40.300781 9.28125 40.242188 9.25 40.191406 C 9.144531 39.96875 9.074219 39.753906 9.023438 39.539062 C 9.074219 39.753906 9.15625 39.96875 9.257812 40.191406 C 9.28125 40.242188 9.308594 40.300781 9.339844 40.359375 "/><path style=" stroke:none;fill-rule:nonzero;fill:#100f0d;fill-opacity:1;" d="M 7.183594 45.160156 C 7.234375 44.988281 7.335938 44.785156 7.515625 44.601562 C 7.34375 44.785156 7.234375 44.988281 7.183594 45.160156 "/><path style=" stroke:none;fill-rule:nonzero;fill:#100f0d;fill-opacity:1;" d="M 8.351562 44.09375 C 8.382812 44.082031 8.425781 44.070312 8.460938 44.0625 C 8.464844 44.0625 8.472656 44.070312 8.476562 44.070312 C 8.4375 44.082031 8.382812 44.082031 8.351562 44.09375 "/><path style=" stroke:none;fill-rule:nonzero;fill:#100f0d;fill-opacity:1;" d="M 9.894531 44.027344 C 9.484375 43.96875 9.117188 43.964844 8.789062 44.011719 C 8.792969 44.007812 8.800781 44 8.800781 43.992188 C 9.121094 43.953125 9.492188 43.964844 9.894531 44.027344 "/><path style=" stroke:none;fill-rule:nonzero;fill:#100f0d;fill-opacity:1;" d="M 8.863281 43.867188 C 8.851562 43.917969 8.828125 43.960938 8.800781 43.992188 C 8.683594 44.011719 8.566406 44.027344 8.460938 44.0625 C 8.429688 44.050781 8.410156 44.042969 8.390625 44.027344 C 8.046875 43.726562 7.558594 43.550781 7.097656 43.550781 C 6.828125 43.550781 6.433594 43.617188 6.128906 43.917969 C 5.738281 44.308594 5.777344 44.84375 5.882812 45.5625 C 5.894531 45.664062 5.847656 45.769531 5.761719 45.835938 C 5.671875 45.898438 5.554688 45.910156 5.460938 45.859375 L 5.367188 45.8125 C 5.074219 45.640625 4.601562 45.539062 4.132812 45.539062 C 3.503906 45.539062 2.996094 45.71875 2.796875 46.003906 C 2.421875 46.539062 2.960938 47.519531 3.535156 48.195312 C 3.890625 48.59375 4.636719 49.304688 5.53125 49.929688 C 5.34375 50.011719 5.175781 50.125 5.027344 50.277344 C 3.898438 49.460938 3.105469 48.59375 3.09375 48.578125 C 2.730469 48.144531 1.605469 46.683594 2.316406 45.671875 C 2.628906 45.21875 3.289062 44.957031 4.132812 44.957031 C 4.53125 44.957031 4.917969 45.011719 5.238281 45.125 C 5.191406 44.570312 5.238281 43.980469 5.714844 43.503906 C 6.070312 43.15625 6.550781 42.96875 7.09375 42.96875 C 7.539062 42.96875 8.003906 43.097656 8.390625 43.316406 C 8.675781 42.171875 9.085938 41.347656 9.597656 40.867188 C 9.683594 41.035156 9.785156 41.210938 9.890625 41.402344 C 9.460938 41.878906 9.109375 42.722656 8.863281 43.867188 "/><path style=" stroke:none;fill-rule:nonzero;fill:#100f0d;fill-opacity:1;" d="M 10.421875 44.132812 C 10.679688 44.191406 10.957031 44.265625 11.242188 44.367188 C 10.957031 44.273438 10.679688 44.191406 10.421875 44.132812 "/><path style=" stroke:none;fill-rule:nonzero;fill:#100f0d;fill-opacity:1;" d="M 11.382812 43.65625 C 11.308594 43.890625 11.261719 44.132812 11.25 44.367188 L 11.242188 44.367188 C 11.253906 44.128906 11.300781 43.882812 11.378906 43.644531 C 11.382812 43.648438 11.382812 43.648438 11.382812 43.65625 "/><path style=" stroke:none;fill-rule:nonzero;fill:#100f0d;fill-opacity:1;" d="M 11.128906 50.992188 L 11.496094 50.859375 C 11.296875 50.734375 11.097656 50.597656 10.902344 50.453125 L 10.191406 50.710938 C 10.5 50.816406 10.8125 50.914062 11.128906 50.992188 "/><path style=" stroke:none;fill-rule:nonzero;fill:#100f0d;fill-opacity:1;" d="M 28.34375 42.597656 C 28.246094 43.335938 27.933594 44.640625 27.367188 45.863281 C 27.214844 45.71875 27.054688 45.597656 26.886719 45.503906 C 27.394531 44.367188 27.679688 43.160156 27.765625 42.519531 C 27.863281 41.652344 27.757812 40.539062 27.148438 40.296875 C 27.070312 40.265625 26.976562 40.25 26.875 40.25 C 26.183594 40.25 25.1875 40.976562 24.917969 41.542969 L 24.859375 41.660156 C 24.808594 41.75 24.703125 41.816406 24.597656 41.804688 C 24.484375 41.796875 24.386719 41.734375 24.339844 41.640625 C 24.074219 41.09375 23.800781 40.527344 23.214844 40.417969 C 22.371094 40.25 21.601562 41.019531 21.398438 41.757812 C 21.375 41.855469 21.292969 41.933594 21.195312 41.960938 C 21.09375 41.984375 20.988281 41.960938 20.910156 41.886719 C 20.789062 41.769531 20.671875 41.660156 20.550781 41.554688 C 20.589844 41.328125 20.628906 41.101562 20.65625 40.871094 C 20.773438 40.964844 20.882812 41.066406 21 41.167969 C 21.398438 40.367188 22.300781 39.644531 23.324219 39.839844 C 23.988281 39.976562 24.355469 40.433594 24.625 40.917969 C 25.117188 40.296875 26.078125 39.667969 26.875 39.667969 C 27.050781 39.667969 27.214844 39.695312 27.367188 39.753906 C 28.519531 40.214844 28.410156 42.042969 28.34375 42.597656 "/><path style=" stroke:none;fill-rule:nonzero;fill:#100f0d;fill-opacity:1;" d="M 19.074219 46.847656 C 19.070312 47.152344 19.050781 47.457031 19.011719 47.75 C 19.226562 48.015625 19.457031 48.246094 19.699219 48.453125 C 19.851562 48.328125 20.003906 48.203125 20.15625 48.074219 C 19.753906 47.753906 19.394531 47.332031 19.074219 46.847656 "/><path style=" stroke:none;fill-rule:nonzero;fill:#100f0d;fill-opacity:1;" d="M 18.226562 49.894531 C 18.203125 49.921875 18.183594 49.949219 18.160156 49.976562 C 18.183594 49.949219 18.203125 49.921875 18.226562 49.894531 "/><path style=" stroke:none;fill-rule:nonzero;fill:#100f0d;fill-opacity:1;" d="M 18.382812 49.671875 C 18.375 49.683594 18.363281 49.703125 18.355469 49.71875 C 18.363281 49.703125 18.375 49.683594 18.382812 49.671875 "/><path style=" stroke:none;fill-rule:nonzero;fill:#100f0d;fill-opacity:1;" d="M 18.03125 50.117188 C 18 50.152344 17.964844 50.183594 17.929688 50.214844 C 17.964844 50.183594 18 50.152344 18.03125 50.117188 "/><path style=" stroke:none;fill-rule:nonzero;fill:#100f0d;fill-opacity:1;" d="M 17.640625 50.449219 C 17.699219 50.410156 17.753906 50.371094 17.808594 50.328125 C 17.753906 50.371094 17.699219 50.410156 17.640625 50.449219 "/><path style=" stroke:none;fill-rule:nonzero;fill:#100f0d;fill-opacity:1;" d="M 63.6875 30.953125 C 63.625 30.804688 63.453125 30.734375 63.308594 30.792969 C 63.285156 30.800781 63.269531 30.804688 63.25 30.8125 C 60.949219 31.726562 58.871094 31.507812 58.089844 31.261719 C 56.410156 30.734375 54.835938 29.679688 53.53125 28.214844 C 52.363281 26.902344 51.464844 25.179688 50.9375 23.230469 C 49.628906 18.398438 49.246094 14.398438 49.746094 11.003906 C 49.710938 11.15625 49.679688 11.308594 49.65625 11.46875 C 49.601562 11.882812 49.269531 11.546875 49.234375 12.179688 C 49.113281 14.410156 49.410156 16.664062 49.796875 18.847656 C 50.234375 21.335938 50.527344 23.585938 51.632812 25.890625 C 52.542969 27.789062 54.527344 29.996094 56.324219 30.988281 C 57.285156 31.519531 58.207031 31.308594 59.1875 31.789062 C 59.367188 31.878906 59.507812 31.96875 59.625 32.054688 C 59.683594 32.058594 59.734375 32.058594 59.789062 32.058594 C 60.085938 32.058594 60.394531 32.042969 60.714844 32.011719 C 60.828125 31.867188 60.929688 31.714844 61.003906 31.574219 C 61.078125 31.429688 61.253906 31.371094 61.398438 31.445312 C 61.542969 31.519531 61.597656 31.695312 61.523438 31.839844 C 61.511719 31.863281 61.496094 31.882812 61.484375 31.90625 C 62.152344 31.792969 62.84375 31.609375 63.527344 31.332031 C 63.675781 31.273438 63.75 31.101562 63.6875 30.953125 "/><path style=" stroke:none;fill-rule:nonzero;fill:#100f0d;fill-opacity:1;" d="M 55.75 25.273438 C 55.398438 25.132812 55.25 25.699219 55.59375 25.835938 C 56.839844 26.335938 58.511719 26.269531 59.679688 25.515625 C 60.085938 25.253906 60.4375 24.90625 60.679688 24.46875 C 60.863281 24.140625 60.355469 23.84375 60.175781 24.175781 C 59.972656 24.535156 59.6875 24.820312 59.355469 25.035156 C 58.332031 25.695312 56.835938 25.707031 55.75 25.273438 "/><path style=" stroke:none;fill-rule:nonzero;fill:#100f0d;fill-opacity:1;" d="M 60.109375 13.378906 C 59.398438 13.25 58.675781 13.402344 58.082031 13.804688 C 57.960938 13.886719 57.25 14.390625 57.550781 14.648438 C 57.640625 14.726562 57.757812 14.742188 57.867188 14.726562 C 58.097656 14.691406 58.296875 14.558594 58.507812 14.46875 C 58.765625 14.363281 59.03125 14.296875 59.296875 14.226562 C 59.621094 14.144531 59.957031 14.097656 60.296875 14.15625 C 60.488281 14.1875 60.679688 14.242188 60.871094 14.257812 C 60.992188 14.265625 61.203125 14.277344 61.246094 14.113281 C 61.355469 13.660156 60.328125 13.421875 60.109375 13.378906 "/><path style=" stroke:none;fill-rule:nonzero;fill:#100f0d;fill-opacity:1;" d="M 50.351562 15.9375 C 50.230469 16.019531 49.519531 16.527344 49.816406 16.78125 C 49.910156 16.863281 50.027344 16.875 50.132812 16.859375 C 50.363281 16.828125 50.566406 16.695312 50.777344 16.605469 C 51.03125 16.496094 51.300781 16.429688 51.566406 16.363281 C 51.890625 16.28125 52.226562 16.230469 52.566406 16.289062 C 52.757812 16.324219 52.945312 16.378906 53.140625 16.390625 C 53.238281 16.398438 53.398438 16.402344 53.472656 16.3125 C 53.488281 16.292969 53.507812 16.277344 53.511719 16.246094 C 53.566406 16.023438 53.347656 15.855469 53.085938 15.734375 C 52.808594 15.609375 52.488281 15.535156 52.378906 15.515625 C 51.667969 15.386719 50.945312 15.535156 50.351562 15.9375 "/><path style=" stroke:none;fill-rule:nonzero;fill:#100f0d;fill-opacity:1;" d="M 58.722656 17.035156 C 58.640625 16.324219 58.941406 15.707031 59.390625 15.65625 C 59.839844 15.605469 60.269531 16.140625 60.351562 16.851562 C 60.429688 17.5625 60.132812 18.179688 59.683594 18.230469 C 59.230469 18.28125 58.800781 17.746094 58.722656 17.035156 "/><path style=" stroke:none;fill-rule:nonzero;fill:#100f0d;fill-opacity:1;" d="M 52.621094 18.996094 C 52.703125 19.707031 52.402344 20.324219 51.953125 20.375 C 51.503906 20.421875 51.070312 19.886719 50.992188 19.179688 C 50.910156 18.46875 51.210938 17.851562 51.660156 17.800781 C 52.109375 17.75 52.539062 18.285156 52.621094 18.996094 "/><path style=" stroke:none;fill-rule:nonzero;fill:#100f0d;fill-opacity:1;" d="M 55.183594 22.816406 C 55.546875 22.929688 55.699219 22.367188 55.339844 22.257812 C 53.378906 21.652344 54.121094 19.910156 54.8125 18.296875 C 55.109375 17.601562 55.394531 16.929688 55.457031 16.382812 C 55.496094 16.007812 54.910156 16.011719 54.871094 16.382812 C 54.820312 16.824219 54.664062 17.304688 54.476562 17.796875 C 53.71875 19.765625 52.417969 21.964844 55.183594 22.816406 "/><path style=" stroke:none;fill-rule:nonzero;fill:#100f0d;fill-opacity:1;" d="M 31.273438 72.007812 C 31.917969 72.347656 32.550781 72.660156 33.171875 72.964844 C 32.949219 72.910156 32.683594 73.148438 32.835938 73.394531 C 32.847656 73.417969 32.859375 73.441406 32.878906 73.464844 C 32.285156 73.183594 31.695312 72.886719 31.09375 72.574219 C 31.0625 72.554688 31.035156 72.542969 31 72.527344 C 30.859375 72.449219 30.800781 72.277344 30.875 72.132812 C 30.929688 72.039062 31.023438 71.984375 31.121094 71.984375 C 31.128906 71.984375 31.132812 71.980469 31.132812 71.980469 C 31.179688 71.980469 31.226562 71.984375 31.273438 72.007812 "/><path style=" stroke:none;fill-rule:nonzero;fill:#100f0d;fill-opacity:1;" d="M 89.734375 52.210938 C 89.714844 52.320312 89.699219 52.425781 89.679688 52.539062 C 89.609375 52.953125 89.527344 53.371094 89.433594 53.789062 C 88.714844 57.058594 87.492188 60.394531 85.476562 64.613281 L 85.171875 65.253906 C 85.035156 65.53125 84.90625 65.8125 84.773438 66.09375 C 84.34375 66.980469 83.898438 67.878906 83.425781 68.753906 C 82.621094 70.214844 81.734375 71.613281 80.625 72.835938 C 77.679688 76.09375 73.117188 78.027344 67.792969 78.28125 C 64.101562 78.421875 60.792969 78.519531 57.734375 78.519531 C 52.875 78.519531 48.640625 78.253906 44.503906 77.425781 C 44.375 77.402344 44.246094 77.378906 44.117188 77.355469 C 43.917969 77.316406 43.726562 77.261719 43.53125 77.222656 C 40.339844 76.511719 37.179688 75.453125 33.808594 73.902344 C 33.664062 73.632812 33.503906 73.367188 33.339844 73.097656 C 33.3125 73.046875 33.277344 73.011719 33.234375 72.992188 C 44.292969 78.28125 52.925781 78.246094 67.761719 77.699219 C 72.933594 77.449219 77.351562 75.585938 80.191406 72.445312 C 82.105469 70.332031 83.394531 67.625 84.644531 65.003906 L 84.949219 64.363281 C 86.945312 60.191406 88.152344 56.890625 88.859375 53.664062 C 90.371094 46.832031 89.054688 40.628906 85.335938 37.0625 C 83.8125 35.601562 82.128906 34.820312 80.667969 34.863281 C 79.542969 34.898438 78.527344 35.390625 77.644531 36.335938 C 75.933594 38.183594 74.644531 40.664062 73.71875 43.917969 L 73.257812 45.539062 C 72.042969 49.84375 70.890625 53.902344 68.980469 57.914062 C 68.519531 58.886719 68.042969 59.855469 67.5625 60.816406 C 67.523438 60.898438 67.464844 61.042969 67.386719 61.21875 C 66.914062 62.363281 66.621094 62.929688 66.246094 63.035156 C 64.019531 63.644531 61.714844 64 59.480469 64.34375 L 57.261719 64.6875 C 48.386719 66.085938 40.007812 67.402344 31.101562 65.53125 C 31.078125 65.53125 31.0625 65.527344 31.039062 65.519531 C 31 65.515625 30.964844 65.496094 30.929688 65.46875 C 30.839844 65.402344 30.789062 65.292969 30.816406 65.175781 C 30.816406 65.164062 30.824219 65.160156 30.828125 65.15625 C 30.871094 65.007812 31.015625 64.921875 31.160156 64.949219 C 31.238281 64.96875 31.3125 64.980469 31.390625 64.996094 C 34.933594 65.722656 38.347656 65.953125 41.757812 65.871094 C 41.945312 65.863281 42.140625 65.863281 42.324219 65.859375 C 43.308594 65.824219 44.292969 65.765625 45.277344 65.683594 C 49.113281 65.382812 53.015625 64.769531 57.175781 64.113281 L 59.386719 63.769531 C 61.609375 63.429688 63.898438 63.074219 66.089844 62.46875 C 66.28125 62.359375 66.691406 61.367188 66.851562 60.996094 C 66.925781 60.804688 66.996094 60.644531 67.039062 60.558594 C 67.515625 59.597656 67.992188 58.636719 68.453125 57.664062 C 70.347656 53.699219 71.484375 49.65625 72.695312 45.378906 L 73.152344 43.761719 C 74.113281 40.414062 75.4375 37.855469 77.214844 35.9375 C 78.207031 34.875 79.359375 34.316406 80.648438 34.28125 C 80.835938 34.273438 81.027344 34.285156 81.222656 34.304688 C 82.265625 34.738281 83.25 35.296875 84.179688 36.101562 C 84.320312 36.226562 84.496094 36.183594 84.597656 36.078125 C 85.628906 36.917969 86.613281 37.960938 87.496094 39.289062 C 90.875 44.367188 89.417969 52.335938 89.417969 52.335938 C 89.523438 52.300781 89.628906 52.253906 89.734375 52.210938 "/><path style=" stroke:none;fill-rule:nonzero;fill:#100f0d;fill-opacity:1;" d="M 37.160156 80.988281 L 37.160156 80.996094 C 37.144531 81 37.125 81.007812 37.109375 81.011719 C 37.089844 81.011719 37.066406 81.019531 37.050781 81.03125 C 36.898438 81.101562 36.773438 81.191406 36.667969 81.296875 L 36.667969 81.292969 C 36.242188 80.085938 35.589844 78.933594 35.074219 77.792969 C 34.40625 76.3125 33.726562 74.851562 32.878906 73.464844 C 32.859375 73.441406 32.847656 73.417969 32.835938 73.394531 C 32.753906 73.261719 32.796875 73.132812 32.890625 73.046875 C 32.902344 73.027344 32.917969 73.015625 32.9375 73.003906 C 33.007812 72.964844 33.089844 72.945312 33.171875 72.964844 C 33.195312 72.96875 33.210938 72.980469 33.234375 72.992188 C 33.277344 73.007812 33.3125 73.046875 33.339844 73.097656 C 33.503906 73.363281 33.664062 73.632812 33.808594 73.902344 C 34.792969 75.648438 35.554688 77.507812 36.40625 79.324219 C 36.65625 79.871094 36.933594 80.417969 37.160156 80.988281 "/><g clip-rule="nonzero" clip-path="url(#91c72e499c)"><path style=" stroke:none;fill-rule:nonzero;fill:#100f0d;fill-opacity:1;" d="M 94.039062 35.070312 C 94.144531 34.972656 94.238281 34.890625 94.320312 34.820312 C 94.417969 34.929688 94.507812 35.058594 94.59375 35.175781 C 94.414062 35.140625 94.238281 35.105469 94.039062 35.070312 Z M 91.988281 34.40625 C 92.585938 34.011719 92.726562 34.285156 92.832031 34.976562 C 92.4375 34.714844 92.214844 34.566406 91.988281 34.40625 Z M 91.882812 42.980469 C 92.46875 42.585938 92.554688 42.894531 92.621094 43.5 C 92.285156 43.265625 92.082031 43.121094 91.882812 42.980469 Z M 91.613281 47.644531 C 91.488281 47.300781 91.414062 47.082031 91.269531 46.65625 C 91.671875 46.789062 91.90625 46.867188 92.300781 47 C 92.011719 47.265625 91.851562 47.414062 91.613281 47.644531 Z M 90.847656 41.660156 C 91.035156 41.664062 91.226562 41.675781 91.414062 41.6875 C 91.414062 41.792969 91.410156 41.898438 91.410156 42.003906 C 91.222656 41.992188 91.027344 41.984375 90.839844 41.972656 C 90.839844 41.867188 90.847656 41.761719 90.847656 41.660156 Z M 88.585938 34.269531 C 88.472656 34.179688 88.351562 34.082031 88.023438 33.8125 C 88.25 33.445312 88.390625 33.21875 88.609375 32.859375 C 89.148438 33.570312 89.058594 33.878906 88.585938 34.269531 Z M 87.25 34.726562 C 87.1875 33.992188 87.1875 33.992188 87.953125 33.929688 C 87.746094 34.164062 87.546875 34.394531 87.25 34.726562 Z M 79.992188 24.269531 C 79.769531 23.785156 79.6875 23.609375 79.613281 23.441406 C 79.734375 23.351562 79.804688 23.308594 80.121094 23.089844 C 80.074219 23.511719 80.050781 23.71875 79.992188 24.269531 Z M 77.332031 20.855469 C 77.296875 20.785156 77.265625 20.714844 77.222656 20.652344 C 77.386719 20.527344 77.542969 20.410156 77.710938 20.289062 C 77.761719 20.386719 77.8125 20.488281 77.867188 20.585938 C 77.6875 20.679688 77.515625 20.765625 77.332031 20.855469 Z M 71.957031 18.464844 C 71.652344 18.328125 71.34375 18.191406 70.914062 18 C 71.558594 17.324219 71.855469 17.535156 72.097656 18.066406 C 72.050781 18.199219 72.003906 18.332031 71.957031 18.464844 Z M 63.40625 40.535156 C 61.53125 42.070312 58.648438 43.207031 56.347656 41.886719 C 54.320312 40.726562 55.757812 35.765625 57.015625 34.441406 C 57.039062 34.425781 57.046875 34.402344 57.054688 34.378906 C 57.980469 34.359375 58.867188 34.230469 59.59375 33.789062 C 60.242188 33.394531 61.085938 32.625 61.484375 31.90625 C 61.496094 31.886719 61.515625 31.863281 61.527344 31.839844 C 61.601562 31.691406 61.542969 31.519531 61.398438 31.449219 C 61.257812 31.371094 61.082031 31.429688 61.003906 31.570312 C 60.929688 31.714844 60.828125 31.867188 60.710938 32.011719 C 60.394531 32.042969 60.085938 32.058594 59.792969 32.058594 C 59.734375 32.058594 59.679688 32.054688 59.628906 32.054688 C 59.503906 31.964844 59.371094 31.878906 59.1875 31.792969 C 58.207031 31.308594 57.285156 31.519531 56.324219 30.988281 C 54.527344 30 52.542969 27.785156 51.632812 25.890625 C 50.527344 23.585938 50.234375 21.335938 49.792969 18.84375 C 49.40625 16.660156 49.109375 14.40625 49.238281 12.175781 C 49.265625 11.546875 49.601562 11.878906 49.660156 11.472656 C 49.675781 11.308594 49.710938 11.15625 49.746094 11.003906 C 49.757812 10.949219 49.769531 10.894531 49.789062 10.84375 C 49.980469 10.121094 50.28125 9.613281 50.28125 9.613281 L 50.28125 9.609375 C 50.28125 9.601562 50.285156 9.601562 50.292969 9.59375 C 51.597656 6.257812 55.070312 5.507812 58.289062 6.28125 C 62.300781 7.25 64.625 10.621094 65.953125 14.300781 C 66.722656 16.421875 67.003906 18.625 66.925781 20.867188 C 66.867188 22.664062 66.863281 24.34375 67.285156 26.097656 C 67.875 28.523438 69.253906 30.859375 71.605469 31.84375 C 68.523438 34.382812 66.503906 37.996094 63.40625 40.535156 Z M 54.609375 32.613281 C 54.597656 32.386719 54.585938 32.148438 54.574219 31.851562 C 55.046875 31.808594 55.457031 31.78125 55.996094 31.738281 C 55.628906 32.835938 55.628906 32.835938 54.609375 32.613281 Z M 48.722656 36.691406 C 48.65625 36.644531 48.59375 36.597656 48.527344 36.550781 C 48.675781 36.304688 48.816406 36.066406 48.960938 35.824219 C 49.054688 35.890625 49.148438 35.960938 49.242188 36.03125 C 49.066406 36.246094 48.898438 36.46875 48.722656 36.691406 Z M 51.84375 3.253906 C 51.890625 3.5625 51.933594 3.863281 51.976562 4.191406 C 51.585938 4.679688 51.125 4.882812 50.574219 4.652344 C 50.949219 4.125 51.367188 3.660156 51.84375 3.253906 Z M 62.28125 5.152344 C 62.28125 5.28125 62.28125 5.402344 62.277344 5.523438 C 61.953125 5.511719 61.632812 5.503906 61.128906 5.484375 C 61.578125 4.894531 61.914062 4.855469 62.28125 5.152344 Z M 68.710938 26.644531 C 68.71875 26.753906 68.722656 26.867188 68.722656 26.976562 C 68.417969 27.039062 68.109375 27.105469 67.785156 27.167969 C 67.6875 26.894531 67.605469 26.613281 67.539062 26.328125 C 67.949219 26.371094 68.335938 26.457031 68.710938 26.644531 Z M 44.113281 42.125 C 44.011719 41.886719 43.917969 41.664062 43.867188 41.449219 C 44.023438 41.210938 44.183594 40.972656 44.339844 40.726562 C 44.511719 41.1875 44.609375 41.613281 44.113281 42.125 Z M 30.660156 63.621094 C 30.460938 63.347656 30.238281 63.078125 29.984375 62.835938 C 29.035156 61.910156 27.742188 61.089844 26.039062 60.3125 C 25.265625 59.964844 24.632812 59.648438 24.039062 59.324219 C 23.371094 58.957031 22.460938 58.613281 21.898438 59.066406 C 21.527344 59.371094 21.480469 59.703125 21.503906 59.929688 C 21.617188 60.976562 23.488281 62.054688 24.890625 62.777344 L 25.011719 62.839844 C 25.570312 63.136719 25.886719 63.617188 25.738281 64.257812 C 25.617188 64.757812 24.953125 65.015625 24.492188 65.113281 C 23.507812 65.136719 22.300781 65.054688 21.09375 64.957031 C 19.21875 61.773438 16.566406 59.257812 14.066406 56.574219 C 13.808594 56.300781 13.390625 56.714844 13.648438 56.988281 C 16.023438 59.535156 18.527344 61.925781 20.367188 64.898438 C 19.15625 64.796875 18.007812 64.707031 17.023438 64.699219 C 16.699219 64.699219 16.304688 64.714844 15.957031 64.816406 C 13.949219 62.421875 11.488281 60.480469 9.234375 58.339844 C 8.03125 57.191406 6.867188 55.945312 6 54.53125 C 5.398438 53.550781 4.394531 51.355469 5.667969 50.480469 C 6.820312 49.683594 9.0625 51.054688 10.199219 51.382812 C 11.390625 51.734375 12.710938 51.875 13.953125 51.734375 C 13.988281 51.734375 14.023438 51.742188 14.054688 51.742188 C 14.445312 51.742188 14.820312 51.664062 15.160156 51.523438 C 17.585938 50.929688 19.605469 49.46875 21.441406 47.769531 C 23.496094 45.859375 26.378906 44.609375 27.980469 47.675781 C 29.042969 49.703125 29.253906 52.375 29.582031 54.601562 C 29.609375 54.769531 29.628906 54.9375 29.652344 55.105469 C 29.644531 55.160156 29.65625 55.21875 29.675781 55.269531 C 30.078125 58.042969 30.394531 60.832031 30.660156 63.621094 Z M 14.863281 47.40625 C 14.617188 47.667969 14.5 47.792969 14.375 47.917969 C 13.144531 47.722656 12.828125 46.667969 12.253906 45.628906 C 13.953125 45.101562 13.9375 46.824219 14.863281 47.40625 Z M 14.070312 42.125 C 14.339844 41.664062 14.664062 41.542969 15.160156 42.230469 C 14.714844 42.414062 14.429688 42.539062 14.007812 42.71875 C 14.035156 42.421875 14 42.242188 14.070312 42.125 Z M 16.050781 40.34375 C 16.238281 40.664062 16.34375 40.84375 16.484375 41.085938 C 16.304688 41.261719 16.140625 41.425781 16.003906 41.554688 C 15.589844 41.4375 15.59375 41.1875 16.050781 40.34375 Z M 15.214844 69.015625 C 15.15625 71.839844 14.714844 74.910156 12.230469 76.632812 C 12.265625 76.59375 12.296875 76.535156 12.296875 76.464844 C 12.339844 73.761719 13.117188 70.835938 15.214844 69.015625 Z M 15.675781 70.996094 C 15.800781 71.042969 15.929688 71.089844 16.050781 71.125 C 16.175781 71.171875 16.296875 71.207031 16.421875 71.257812 C 16.632812 71.328125 16.835938 71.386719 17.042969 71.449219 C 17.03125 71.457031 17.019531 71.46875 17.007812 71.472656 C 16.695312 71.722656 16.519531 72.109375 16.539062 72.507812 C 16.566406 73.25 17.707031 73.546875 17.808594 73.570312 C 18.257812 73.726562 18.730469 73.859375 19.191406 73.964844 C 19.367188 76.085938 19.496094 78.210938 19.617188 80.335938 C 19.214844 80.246094 18.761719 80.199219 18.246094 80.199219 L 18.222656 80.199219 C 18.339844 80.355469 18.40625 80.519531 18.40625 80.699219 C 18.40625 81.730469 16.390625 82.375 13.9375 82.613281 C 13.917969 82.660156 13.902344 82.703125 13.878906 82.753906 C 13.855469 82.707031 13.832031 82.667969 13.808594 82.625 C 13.589844 82.648438 13.371094 82.660156 13.144531 82.679688 C 13.132812 82.484375 13.117188 82.289062 13.101562 82.097656 C 13.015625 81.160156 12.917969 80.222656 12.789062 79.289062 C 12.761719 79.089844 12.738281 78.898438 12.707031 78.699219 C 12.632812 78.195312 12.550781 77.691406 12.457031 77.1875 C 14.609375 75.742188 15.402344 73.417969 15.675781 70.996094 Z M 17.511719 95.085938 C 17.808594 94.839844 18.035156 94.648438 18.265625 94.460938 C 18.328125 94.226562 18.394531 93.996094 18.476562 93.691406 C 19.078125 94.066406 18.992188 94.390625 18.621094 94.742188 C 18.5 95.042969 18.371094 95.351562 18.1875 95.804688 C 17.882812 95.484375 17.726562 95.316406 17.511719 95.085938 Z M 18.078125 99.980469 C 17.621094 99.707031 17.164062 99.433594 16.519531 99.050781 C 16.917969 98.648438 17.15625 98.410156 17.4375 98.117188 C 17.894531 98.1875 18.347656 98.253906 18.914062 98.335938 C 18.621094 98.910156 18.386719 99.363281 18.078125 99.980469 Z M 17.273438 109.84375 C 17.175781 109.570312 17.105469 109.390625 17.039062 109.21875 C 17.152344 109.132812 17.214844 109.085938 17.308594 109.015625 C 17.761719 109.242188 17.65625 109.476562 17.273438 109.84375 Z M 16.28125 102.914062 C 15.929688 102.433594 15.957031 102.132812 16.402344 101.863281 C 16.84375 102.351562 16.625 102.609375 16.28125 102.914062 Z M 15.121094 100.628906 C 15.230469 100.011719 15.285156 99.726562 15.394531 99.132812 C 15.722656 99.632812 15.871094 99.855469 16.0625 100.15625 C 15.792969 100.292969 15.625 100.378906 15.121094 100.628906 Z M 13.765625 94.992188 C 14.46875 94.605469 14.828125 94.980469 15.121094 95.515625 C 14.550781 95.707031 14.058594 95.707031 13.765625 94.992188 Z M 13.703125 99.789062 C 13.976562 99.980469 14.1875 100.128906 14.457031 100.308594 C 13.808594 100.628906 13.808594 100.628906 13.703125 99.789062 Z M 13.351562 93.085938 C 13.636719 93.023438 13.847656 92.96875 14.304688 92.863281 C 14.117188 93.34375 14.019531 93.597656 13.914062 93.859375 C 13.796875 93.832031 13.683594 93.808594 13.574219 93.78125 C 13.507812 93.582031 13.445312 93.382812 13.351562 93.085938 Z M 14.992188 88.078125 C 14.359375 88.363281 14.359375 88.363281 14.183594 87.636719 C 14.480469 87.796875 14.699219 87.914062 14.992188 88.078125 Z M 16.367188 95.910156 C 17.183594 96.511719 16.925781 97.15625 16.789062 97.957031 C 16.238281 97.589844 15.824219 97.316406 15.285156 96.953125 C 15.675781 96.582031 16.015625 96.25 16.367188 95.910156 Z M 15.089844 85.945312 C 14.738281 85.777344 14.457031 85.636719 14.171875 85.496094 C 14.152344 85.054688 14.1875 84.6875 14.117188 84.34375 C 14.070312 84.101562 13.878906 83.890625 13.75 83.664062 C 13.835938 83.582031 13.925781 83.5 14.011719 83.417969 C 14.476562 83.832031 14.933594 84.246094 15.390625 84.652344 C 15.277344 85.128906 15.203125 85.472656 15.089844 85.945312 Z M 13.28125 85.027344 C 13.960938 85.304688 14.101562 86.195312 14.839844 86.574219 C 13.988281 86.609375 13.578125 86.546875 13.320312 86.171875 C 13.308594 85.792969 13.296875 85.410156 13.28125 85.027344 Z M 12.6875 100.058594 C 12.710938 99.832031 12.730469 99.605469 12.753906 99.371094 C 12.816406 99.394531 12.882812 99.417969 12.957031 99.441406 C 12.859375 99.660156 12.769531 99.867188 12.6875 100.058594 Z M 12.886719 101.648438 C 12.796875 101.648438 12.707031 101.652344 12.617188 101.660156 C 12.601562 101.550781 12.585938 101.4375 12.574219 101.332031 C 12.585938 101.199219 12.597656 101.070312 12.609375 100.941406 C 12.707031 100.941406 12.804688 100.949219 12.914062 100.949219 C 12.90625 101.183594 12.894531 101.414062 12.886719 101.648438 Z M 12.09375 100.226562 C 11.808594 99.914062 11.519531 99.605469 11.527344 98.992188 C 11.78125 99.066406 11.984375 99.132812 12.1875 99.195312 C 12.15625 99.539062 12.121094 99.882812 12.09375 100.226562 Z M 12.34375 92.464844 C 12.453125 92.71875 12.542969 92.921875 12.625 93.109375 C 12.617188 93.289062 12.609375 93.472656 12.601562 93.644531 C 12.414062 93.820312 12.234375 93.988281 12 94.210938 C 11.589844 93.917969 11.183594 93.632812 10.804688 93.359375 C 10.992188 92.257812 11.699219 92.625 12.34375 92.464844 Z M 9.914062 102.351562 C 9.671875 102.226562 9.449219 102.101562 9.234375 101.980469 C 8.96875 102.277344 8.699219 102.574219 8.273438 103.058594 C 8.214844 102.0625 8.617188 101.914062 9.121094 101.882812 C 9.449219 101.578125 9.777344 101.28125 10.101562 100.984375 C 10.101562 100.976562 10.09375 100.972656 10.089844 100.964844 L 10.09375 100.960938 C 9.929688 100.84375 9.761719 100.726562 9.410156 100.484375 C 9.800781 100.398438 10.042969 100.339844 10.515625 100.234375 C 10.289062 100.628906 10.1875 100.796875 10.09375 100.960938 C 10.101562 100.964844 10.105469 100.972656 10.113281 100.972656 C 10.105469 100.976562 10.105469 100.976562 10.101562 100.984375 C 10.253906 101.183594 10.40625 101.378906 10.59375 101.625 C 10.351562 101.882812 10.152344 102.097656 9.914062 102.351562 Z M 8.554688 107.035156 C 8.625 106.710938 8.6875 106.382812 8.757812 106.058594 C 8.875 106.015625 8.992188 105.976562 9.117188 105.933594 C 9.492188 106.5 9.867188 107.070312 10.347656 107.796875 C 9.460938 107.933594 9.074219 107.433594 8.554688 107.035156 Z M 7.933594 91.710938 C 7.589844 91.582031 7.242188 91.457031 6.863281 91.316406 C 7.03125 90.769531 7.160156 90.367188 7.359375 89.726562 C 7.675781 90.402344 7.898438 90.882812 8.121094 91.367188 C 8.054688 91.480469 7.996094 91.597656 7.933594 91.710938 Z M 6.640625 106.539062 C 7.066406 105.394531 7.152344 105.363281 8.042969 106.121094 C 7.535156 106.273438 7.148438 106.390625 6.640625 106.539062 Z M 5.484375 107.089844 C 5.433594 107.019531 5.386719 106.949219 5.332031 106.878906 C 5.496094 106.667969 5.65625 106.464844 5.929688 106.109375 C 6.070312 106.523438 6.136719 106.710938 6.230469 106.984375 C 5.917969 107.023438 5.703125 107.054688 5.484375 107.089844 Z M 4.019531 107.992188 C 3.699219 107.484375 3.785156 107.15625 4.289062 106.820312 C 4.789062 107.472656 4.546875 107.746094 4.019531 107.992188 Z M 4.324219 102.207031 C 4.734375 102.347656 5.046875 102.453125 5.414062 102.574219 C 5.421875 102.96875 5.425781 103.3125 5.4375 103.820312 C 5.027344 103.664062 4.746094 103.554688 4.429688 103.4375 C 4.273438 103.613281 4.074219 103.828125 3.773438 104.136719 C 3.066406 102.957031 4.230469 102.890625 4.324219 102.207031 Z M 2.390625 108.304688 C 2.191406 108.085938 2.0625 107.933594 1.808594 107.636719 C 2.367188 107.558594 2.761719 107.5 3.421875 107.410156 C 2.960938 107.8125 2.695312 108.039062 2.390625 108.304688 Z M 5.351562 94.304688 C 4.910156 94.515625 4.707031 94.613281 4.390625 94.765625 C 4.371094 94.351562 4.355469 94.070312 4.332031 93.585938 C 4.707031 93.847656 4.921875 94 5.351562 94.304688 Z M 6.746094 97.25 C 6.488281 97.199219 6.222656 97.144531 5.765625 97.054688 C 6.269531 96.558594 6.53125 96.605469 6.746094 97.25 Z M 5.949219 93.652344 C 6.152344 93.941406 6.359375 94.226562 6.625 94.601562 C 5.832031 94.605469 5.832031 94.605469 5.949219 93.652344 Z M 9.707031 99.527344 C 9.132812 99.652344 8.933594 99.417969 8.828125 98.917969 C 9.445312 98.742188 9.636719 98.988281 9.707031 99.527344 Z M 10.726562 90.773438 C 10.792969 90.796875 10.855469 90.816406 10.921875 90.832031 C 10.945312 91.023438 10.972656 91.21875 11.019531 91.554688 C 10.761719 91.445312 10.628906 91.386719 10.488281 91.328125 C 10.570312 91.140625 10.644531 90.960938 10.726562 90.773438 Z M 12.171875 84.488281 C 11.839844 84.785156 11.644531 84.949219 11.460938 85.113281 C 11.347656 84.972656 11.261719 84.910156 11.253906 84.84375 C 11.25 84.308594 11.464844 84.152344 12.171875 84.488281 Z M 20.648438 97.0625 C 20.773438 96.996094 20.894531 96.929688 21.011719 96.859375 C 21.128906 97.09375 21.246094 97.328125 21.398438 97.628906 C 20.742188 97.695312 20.625 97.441406 20.648438 97.0625 Z M 21.65625 105.382812 C 21.75 105.417969 21.84375 105.457031 21.9375 105.492188 C 21.871094 105.714844 21.804688 105.933594 21.734375 106.152344 C 21.632812 106.117188 21.535156 106.074219 21.433594 106.035156 C 21.507812 105.816406 21.582031 105.597656 21.65625 105.382812 Z M 21.949219 93.964844 C 22.230469 94.195312 22.511719 94.421875 22.785156 94.652344 C 22.742188 94.722656 22.691406 94.792969 22.648438 94.867188 C 22.355469 94.652344 22.058594 94.445312 21.773438 94.226562 C 21.832031 94.140625 21.890625 94.054688 21.949219 93.964844 Z M 3.429688 68.675781 C 6.1875 68.601562 8.699219 70.121094 10.609375 72.042969 C 10.628906 72.09375 10.644531 72.152344 10.664062 72.210938 C 7.738281 72.53125 5.378906 70.65625 3.429688 68.675781 Z M 11.578125 41.484375 C 11.460938 41.425781 11.34375 41.367188 11.226562 41.316406 C 11.324219 41.121094 11.425781 40.929688 11.519531 40.746094 C 11.601562 40.785156 11.6875 40.824219 11.769531 40.867188 C 11.707031 41.070312 11.640625 41.28125 11.578125 41.484375 Z M 46.691406 14.132812 C 46.707031 13.964844 46.71875 13.785156 46.738281 13.601562 C 46.800781 13.644531 46.863281 13.679688 46.929688 13.71875 C 46.929688 13.824219 46.9375 13.929688 46.941406 14.035156 C 46.859375 14.070312 46.777344 14.105469 46.691406 14.132812 Z M 96.65625 39.90625 C 96.289062 33.40625 89.535156 31.351562 85.398438 27.535156 C 82.710938 25.054688 81.5625 21.179688 80.386719 17.832031 C 79.3125 14.792969 78.265625 11.738281 76.566406 8.984375 C 73.480469 3.976562 68.335938 1.203125 62.585938 0.5 C 58.445312 -0.0078125 53.601562 0.65625 50.730469 3.964844 C 50.203125 4.570312 49.910156 5.613281 49.21875 5.992188 C 48.5 6.394531 48.046875 7.226562 47.710938 7.941406 C 46.804688 9.859375 46.554688 12.105469 46.398438 14.191406 C 45.882812 20.773438 49.078125 27.273438 47.152344 33.773438 C 46.234375 36.882812 44.621094 39.769531 42.839844 42.457031 C 41.441406 44.578125 40.855469 46.621094 42.375 48.738281 C 41.804688 49.871094 41.332031 51.035156 41.042969 52.253906 C 40.949219 52.65625 40.878906 53.054688 40.816406 53.464844 C 39.550781 55.597656 37.96875 58.066406 35.378906 57.507812 C 33.714844 57.144531 32.375 56.316406 30.957031 55.4375 C 30.71875 55.289062 30.472656 55.136719 30.21875 54.984375 C 30.113281 54.246094 30.003906 53.5 29.886719 52.757812 C 29.503906 50.46875 29.175781 47.667969 27.460938 45.945312 C 27.433594 45.914062 27.402344 45.894531 27.367188 45.863281 C 27.214844 45.71875 27.058594 45.597656 26.886719 45.503906 C 25.316406 44.582031 23.242188 45.574219 21.925781 46.601562 C 21.316406 47.085938 20.738281 47.585938 20.15625 48.078125 C 20.003906 48.203125 19.851562 48.328125 19.699219 48.457031 C 19.335938 48.753906 18.960938 49.042969 18.574219 49.324219 C 18.804688 48.851562 18.9375 48.316406 19.015625 47.75 C 19.050781 47.453125 19.066406 47.152344 19.074219 46.847656 C 19.089844 46.214844 19.042969 45.566406 18.972656 44.964844 C 19.863281 44.199219 20.320312 42.851562 20.550781 41.554688 C 20.589844 41.324219 20.632812 41.101562 20.65625 40.871094 C 20.660156 40.871094 20.660156 40.867188 20.660156 40.859375 C 20.679688 40.691406 20.695312 40.523438 20.714844 40.359375 C 20.714844 40.332031 20.71875 40.308594 20.71875 40.285156 C 20.730469 40.132812 20.742188 39.988281 20.753906 39.847656 C 20.753906 39.8125 20.753906 39.777344 20.761719 39.738281 C 20.765625 39.625 20.773438 39.519531 20.773438 39.417969 C 20.777344 39.359375 20.777344 39.300781 20.777344 39.242188 C 20.777344 39.171875 20.785156 39.101562 20.785156 39.039062 L 20.785156 38.6875 C 20.785156 38.328125 20.773438 38.097656 20.773438 38.085938 C 20.753906 37.941406 20.726562 37.703125 20.671875 37.429688 C 20.515625 36.679688 20.140625 35.660156 19.242188 35.496094 C 18.628906 35.386719 17.949219 35.777344 17.4375 36.292969 C 17.394531 36.339844 17.34375 36.386719 17.304688 36.441406 C 17.09375 36.671875 16.917969 36.929688 16.792969 37.171875 C 16.75 37.121094 16.699219 37.070312 16.65625 37.023438 C 16.316406 36.667969 15.894531 36.375 15.308594 36.375 C 14.277344 36.382812 13.527344 37.226562 13.285156 38.136719 C 12.296875 37.550781 11.449219 37.253906 10.757812 37.253906 C 10.675781 37.253906 10.59375 37.261719 10.511719 37.265625 C 9.707031 37.367188 9.328125 37.757812 9.152344 38.070312 C 8.929688 38.464844 8.886719 38.980469 9.023438 39.539062 C 9.074219 39.753906 9.15625 39.96875 9.257812 40.191406 C 9.28125 40.242188 9.308594 40.300781 9.339844 40.359375 C 9.363281 40.410156 9.390625 40.464844 9.421875 40.523438 C 9.472656 40.628906 9.53125 40.742188 9.597656 40.867188 C 9.683594 41.035156 9.785156 41.210938 9.890625 41.402344 C 10.28125 42.101562 10.785156 42.910156 11.378906 43.644531 C 11.382812 43.648438 11.382812 43.648438 11.382812 43.65625 C 11.308594 43.890625 11.261719 44.132812 11.25 44.367188 L 11.242188 44.367188 C 10.957031 44.265625 10.679688 44.191406 10.421875 44.132812 C 10.242188 44.085938 10.066406 44.050781 9.894531 44.027344 C 9.492188 43.964844 9.121094 43.953125 8.800781 43.992188 C 8.683594 44.011719 8.566406 44.027344 8.460938 44.0625 C 8.425781 44.070312 8.382812 44.082031 8.351562 44.09375 C 7.960938 44.226562 7.707031 44.40625 7.519531 44.601562 C 7.484375 44.636719 7.453125 44.667969 7.429688 44.703125 C 7.402344 44.738281 7.371094 44.78125 7.347656 44.816406 C 7.335938 44.839844 7.320312 44.863281 7.308594 44.882812 L 7.300781 44.882812 C 7.296875 44.898438 7.289062 44.90625 7.285156 44.921875 C 7.265625 44.957031 7.25 44.988281 7.230469 45.023438 C 7.214844 45.070312 7.195312 45.117188 7.183594 45.160156 C 7.003906 45.757812 7.195312 46.503906 7.730469 47.214844 C 8.46875 48.164062 9.601562 49.480469 10.890625 50.445312 C 10.898438 50.445312 10.902344 50.453125 10.902344 50.453125 C 11.097656 50.597656 11.296875 50.734375 11.496094 50.859375 C 11.660156 50.964844 11.824219 51.058594 11.988281 51.144531 C 11.695312 51.117188 11.40625 51.058594 11.125 50.996094 C 10.808594 50.914062 10.5 50.820312 10.195312 50.710938 C 9.082031 50.316406 8.011719 49.804688 6.851562 49.734375 C 6.363281 49.699219 5.917969 49.753906 5.53125 49.929688 C 5.34375 50.011719 5.175781 50.125 5.027344 50.277344 C 4.90625 50.40625 4.792969 50.546875 4.699219 50.726562 C 3.605469 52.800781 5.964844 55.640625 7.183594 57.058594 C 9.703125 59.964844 12.925781 62.171875 15.425781 65.101562 C 15.40625 65.113281 15.390625 65.125 15.375 65.140625 C 15.214844 65.316406 15.136719 65.539062 15.164062 65.789062 C 15.191406 66.136719 15.375 66.410156 15.605469 66.621094 C 15.035156 66.683594 14.578125 67.109375 14.464844 67.75 C 14.460938 68.03125 14.523438 68.351562 14.769531 68.648438 C 13.101562 70.144531 12.222656 72.265625 11.882812 74.464844 C 11.671875 73.613281 11.441406 72.765625 11.179688 71.925781 C 11.183594 71.863281 11.167969 71.796875 11.121094 71.734375 C 10.574219 70.035156 9.925781 68.351562 9.136719 66.703125 C 8.96875 66.363281 8.46875 66.660156 8.625 67 C 9.238281 68.273438 9.765625 69.566406 10.222656 70.878906 C 8.171875 69.089844 5.574219 67.816406 2.792969 68.140625 C 2.601562 68.140625 2.433594 68.351562 2.511719 68.542969 C 2.527344 68.605469 2.570312 68.664062 2.628906 68.695312 C 4.828125 70.988281 7.484375 73.171875 10.832031 72.769531 C 11.179688 73.953125 11.472656 75.148438 11.710938 76.347656 L 11.710938 76.464844 C 11.710938 76.535156 11.734375 76.589844 11.769531 76.632812 C 11.90625 77.3125 12.023438 77.996094 12.121094 78.683594 C 12.152344 78.878906 12.179688 79.074219 12.210938 79.265625 C 12.339844 80.214844 12.445312 81.167969 12.523438 82.125 C 12.542969 82.316406 12.5625 82.507812 12.574219 82.699219 C 12.296875 82.710938 12.015625 82.71875 11.734375 82.71875 C 8.421875 82.71875 5.070312 82.027344 5.070312 80.695312 C 5.070312 80.523438 5.128906 80.359375 5.234375 80.207031 C 4.664062 80.289062 2.375 80.691406 1.5625 82.070312 C 0.414062 84.015625 0.214844 86.546875 0.0664062 88.746094 C -0.0742188 90.871094 0.03125 92.980469 0.132812 95.105469 C 0.230469 97.335938 0.15625 99.574219 0.300781 101.792969 C 0.449219 101.808594 0.601562 101.828125 0.746094 101.84375 L 0.746094 102.101562 C 0.605469 102.101562 0.464844 102.101562 0.324219 102.105469 C 0.414062 103.191406 0.546875 104.269531 0.800781 105.339844 C 1.308594 107.488281 2.398438 109.3125 4.40625 110.296875 C 5.8125 110.976562 7.382812 111.355469 8.96875 111.558594 C 8.964844 111.390625 8.953125 111.214844 8.945312 111.011719 C 9.234375 111.214844 9.367188 111.414062 9.414062 111.605469 C 10.21875 111.695312 11.015625 111.738281 11.800781 111.761719 C 12.28125 111.773438 12.765625 111.769531 13.257812 111.753906 C 13.421875 111.523438 13.585938 111.292969 13.742188 111.070312 C 14.335938 111.140625 14.890625 111.175781 15.296875 111.566406 C 16.496094 111.378906 17.671875 111.058594 18.757812 110.539062 C 19.0625 110.296875 19.40625 110.09375 19.566406 109.703125 C 19.628906 109.800781 19.6875 109.882812 19.734375 109.957031 C 21.160156 108.855469 21.957031 107.003906 22.40625 105.339844 C 22.558594 104.78125 22.664062 104.210938 22.75 103.632812 C 22.554688 103.714844 22.332031 103.71875 22.050781 103.640625 C 21.699219 103.011719 21.574219 102.402344 22.265625 101.589844 C 22.5 101.839844 22.710938 102.066406 22.917969 102.289062 C 23.113281 100.027344 23.011719 97.722656 23.0625 95.484375 C 23.097656 94.0625 23.167969 92.648438 23.1875 91.234375 C 23.175781 91.222656 23.15625 91.210938 23.144531 91.199219 C 23.15625 91.167969 23.175781 91.144531 23.1875 91.117188 C 23.191406 90.433594 23.191406 89.746094 23.15625 89.054688 C 23.148438 88.957031 23.144531 88.851562 23.140625 88.75 C 25.210938 89.28125 27.867188 88.867188 29.464844 88.507812 C 29.476562 88.507812 29.492188 88.5 29.503906 88.5 C 29.652344 88.40625 29.832031 88.328125 30.085938 88.261719 C 30.265625 88.226562 30.453125 88.210938 30.652344 88.210938 C 30.6875 88.210938 30.722656 88.214844 30.757812 88.214844 C 32.105469 87.90625 33.46875 87.5625 34.757812 87.117188 C 34.78125 86.980469 34.8125 86.84375 34.839844 86.695312 C 34.851562 86.621094 34.871094 86.539062 34.882812 86.464844 C 33.144531 87.300781 30.78125 87.585938 29.3125 87.949219 C 27.480469 88.398438 24.984375 88.699219 23.097656 88.019531 C 22.972656 86.054688 22.71875 84.050781 21.863281 82.285156 C 21.417969 81.378906 20.882812 80.84375 20.199219 80.535156 C 20.191406 80.238281 20.1875 79.945312 20.167969 79.667969 C 20.0625 77.808594 19.941406 75.949219 19.789062 74.09375 C 21.714844 74.460938 23.496094 74.449219 23.816406 74.441406 C 23.816406 74.453125 23.8125 74.460938 23.8125 74.472656 C 24.050781 77.585938 24.597656 80.667969 24.765625 83.789062 C 24.785156 84.164062 25.371094 84.167969 25.351562 83.789062 C 25.183594 80.667969 24.636719 77.585938 24.398438 74.472656 C 24.398438 74.464844 24.398438 74.464844 24.398438 74.460938 C 24.480469 74.460938 24.5625 74.464844 24.65625 74.464844 C 25.125 74.464844 25.714844 74.441406 26.144531 74.347656 C 26.238281 74.324219 26.3125 74.300781 26.402344 74.277344 C 26.5 75.234375 26.753906 76.160156 26.976562 77.097656 C 27.0625 77.464844 27.625 77.308594 27.535156 76.941406 C 27.316406 76.003906 27.050781 75.082031 26.964844 74.117188 C 27.847656 73.863281 28.507812 73.636719 29.21875 73.351562 C 29.699219 76.210938 30.917969 79.023438 32.34375 81.535156 C 32.535156 81.863281 33.039062 81.566406 32.855469 81.238281 C 31.433594 78.75 30.230469 75.96875 29.769531 73.125 C 30.132812 72.96875 30.511719 72.800781 30.957031 72.59375 L 31.09375 72.570312 C 31.0625 72.554688 31.035156 72.542969 31 72.523438 C 30.859375 72.449219 30.800781 72.273438 30.875 72.128906 C 30.929688 72.035156 31.023438 71.984375 31.121094 71.984375 C 31.109375 71.984375 31.097656 71.976562 31.085938 71.976562 L 30.964844 72 L 30.816406 72.03125 C 30.792969 72.03125 30.769531 72.042969 30.746094 72.046875 C 28.894531 72.898438 28.046875 73.222656 26.003906 73.785156 C 25.28125 73.933594 23.917969 73.859375 23.875 73.859375 C 23.847656 73.863281 20.566406 73.933594 17.976562 73.007812 C 17.632812 72.925781 17.128906 72.6875 17.125 72.480469 C 17.113281 72.316406 17.175781 72.082031 17.371094 71.929688 C 17.609375 71.738281 17.992188 71.710938 18.464844 71.839844 C 18.46875 71.839844 18.46875 71.839844 18.46875 71.839844 C 19.863281 72.183594 21.101562 72.355469 22.183594 72.355469 C 22.570312 72.355469 22.933594 72.339844 23.277344 72.292969 C 23.445312 72.273438 23.554688 72.128906 23.539062 71.972656 C 23.519531 71.808594 23.359375 71.699219 23.207031 71.714844 C 21.523438 71.917969 19.300781 71.574219 16.621094 70.707031 C 16.496094 70.660156 16.367188 70.613281 16.238281 70.574219 C 16.0625 70.515625 15.894531 70.453125 15.734375 70.386719 C 15.757812 70.0625 15.777344 69.734375 15.789062 69.410156 C 15.929688 69.4375 16.074219 69.472656 16.234375 69.507812 C 16.589844 69.59375 17.03125 69.707031 17.652344 69.800781 C 19.296875 70.125 21.078125 70.21875 22.582031 70.292969 L 22.597656 70.292969 C 22.753906 70.292969 22.886719 70.171875 22.894531 70.015625 C 22.898438 69.859375 22.777344 69.71875 22.617188 69.710938 C 20.632812 69.613281 18.160156 69.492188 16.203125 68.816406 C 16.058594 68.773438 15.929688 68.726562 15.804688 68.675781 C 15.804688 68.582031 15.8125 68.496094 15.8125 68.402344 C 15.8125 68.199219 15.554688 68.015625 15.371094 68.152344 C 15.3125 68.191406 15.265625 68.234375 15.214844 68.273438 C 15.101562 68.132812 15.042969 67.976562 15.050781 67.808594 C 15.121094 67.398438 15.449219 67.15625 15.859375 67.195312 C 16.390625 67.242188 16.929688 67.320312 17.464844 67.40625 C 18.042969 67.546875 18.628906 67.640625 19.207031 67.710938 L 19.230469 67.710938 C 19.980469 67.796875 20.71875 67.832031 21.410156 67.859375 C 21.5625 67.867188 21.714844 67.871094 21.867188 67.871094 C 22.230469 67.878906 22.597656 67.882812 22.9375 67.929688 C 22.953125 67.9375 22.964844 67.9375 22.980469 67.9375 C 23.121094 67.9375 23.25 67.832031 23.265625 67.6875 C 23.292969 67.523438 23.179688 67.375 23.015625 67.351562 C 22.640625 67.308594 22.253906 67.296875 21.878906 67.289062 C 21.734375 67.289062 21.582031 67.285156 21.433594 67.277344 C 20.753906 67.253906 20.027344 67.214844 19.296875 67.132812 L 18.980469 67.074219 C 18.523438 66.992188 18.050781 66.910156 17.582031 66.835938 C 17.304688 66.765625 17.03125 66.695312 16.761719 66.601562 C 16.53125 66.527344 15.78125 66.234375 15.742188 65.738281 C 15.734375 65.628906 15.769531 65.570312 15.804688 65.535156 C 15.917969 65.417969 16.238281 65.28125 17.019531 65.28125 C 18.003906 65.285156 19.175781 65.386719 20.410156 65.484375 C 21.851562 65.601562 23.332031 65.722656 24.53125 65.695312 C 24.550781 65.695312 24.5625 65.6875 24.578125 65.683594 C 24.585938 65.683594 24.597656 65.6875 24.601562 65.683594 C 25.328125 65.542969 26.050781 65.128906 26.300781 64.40625 C 26.601562 63.550781 26.039062 62.71875 25.300781 62.332031 C 25.292969 62.332031 25.292969 62.332031 25.292969 62.328125 C 25.289062 62.328125 25.289062 62.328125 25.289062 62.328125 L 25.160156 62.257812 C 22.566406 60.921875 22.121094 60.191406 22.089844 59.871094 C 22.078125 59.78125 22.089844 59.664062 22.273438 59.519531 C 22.5 59.335938 23.070312 59.449219 23.753906 59.828125 C 24.363281 60.167969 25.011719 60.488281 25.792969 60.84375 C 27.4375 61.585938 28.675781 62.375 29.574219 63.246094 C 30.132812 63.785156 30.546875 64.417969 30.792969 65.070312 L 30.792969 65.089844 C 30.800781 65.09375 30.800781 65.09375 30.804688 65.097656 C 30.8125 65.117188 30.824219 65.132812 30.828125 65.152344 C 30.871094 65.007812 31.015625 64.917969 31.164062 64.949219 C 31.238281 64.964844 31.316406 64.976562 31.390625 64.996094 C 31.386719 64.972656 31.375 64.949219 31.367188 64.925781 C 31.09375 61.859375 30.765625 58.792969 30.335938 55.738281 C 30.441406 55.804688 30.546875 55.867188 30.648438 55.933594 C 32.113281 56.835938 33.492188 57.691406 35.25 58.070312 C 35.554688 58.140625 35.84375 58.167969 36.117188 58.167969 C 38.152344 58.167969 39.5625 56.527344 40.644531 54.847656 C 40.351562 58.511719 41.050781 62.316406 41.757812 65.867188 C 41.945312 65.863281 42.140625 65.863281 42.324219 65.855469 C 41.453125 61.640625 40.804688 57.285156 41.484375 53.050781 C 41.757812 51.332031 42.46875 49.800781 43.351562 48.3125 C 44.550781 46.300781 45.765625 44.3125 46.820312 42.214844 L 46.8125 42.296875 C 46.882812 42.140625 46.953125 41.984375 47.023438 41.832031 C 47.199219 41.4375 47.375 41.023438 47.558594 40.613281 C 48.617188 38.15625 49.710938 35.617188 51.945312 34.703125 C 52.511719 34.523438 53.050781 34.40625 53.550781 34.347656 C 54.140625 34.277344 54.820312 34.3125 55.539062 34.34375 C 55.796875 34.351562 56.054688 34.363281 56.3125 34.371094 C 55.070312 35.988281 54.507812 38.996094 54.9375 40.851562 C 55.453125 43.105469 58.433594 43.222656 60.238281 42.832031 C 65.691406 41.65625 68.179688 35.203125 72.257812 32.046875 C 74.304688 32.199219 76.285156 32.820312 78.261719 33.339844 C 79.300781 33.621094 80.285156 33.910156 81.222656 34.300781 C 82.265625 34.738281 83.25 35.296875 84.179688 36.101562 C 84.320312 36.222656 84.496094 36.183594 84.597656 36.078125 C 85.628906 36.917969 86.613281 37.957031 87.496094 39.285156 C 90.875 44.363281 89.417969 52.332031 89.417969 52.332031 C 89.523438 52.296875 89.628906 52.25 89.734375 52.210938 C 89.714844 52.320312 89.699219 52.425781 89.679688 52.535156 C 94.519531 50.621094 96.9375 44.816406 96.65625 39.90625 "/></g><path style=" stroke:none;fill-rule:nonzero;fill:#100f0d;fill-opacity:1;" d="M 35.960938 98.695312 C 35.8125 98.835938 35.679688 98.980469 35.550781 99.136719 C 35.050781 98.46875 34.664062 97.660156 34.367188 96.867188 C 32.734375 99.25 31.464844 100.414062 30.511719 100.414062 C 30.167969 100.414062 29.863281 100.261719 29.628906 99.976562 C 29.382812 99.660156 29.292969 99.277344 29.363281 98.816406 C 29.539062 97.710938 30.640625 96.335938 31.589844 95.382812 C 30.429688 95.8125 28.929688 96.3125 27.953125 96.3125 C 26.894531 96.3125 26.773438 95.695312 26.773438 95.429688 C 26.757812 93.300781 29.5 92.761719 31.308594 92.40625 C 31.53125 92.363281 31.742188 92.324219 31.9375 92.28125 C 30.863281 91.613281 28.984375 90.210938 29.078125 89.160156 C 29.09375 88.953125 29.195312 88.699219 29.503906 88.503906 C 29.652344 88.410156 29.832031 88.328125 30.085938 88.261719 C 30.265625 88.230469 30.453125 88.210938 30.652344 88.210938 C 30.6875 88.210938 30.722656 88.21875 30.757812 88.21875 C 31.742188 88.246094 32.984375 88.6875 34.03125 89.3125 C 34.019531 89.382812 34.003906 89.453125 33.996094 89.519531 C 33.980469 89.683594 33.984375 89.832031 34.007812 89.96875 C 32.964844 89.300781 31.636719 88.792969 30.652344 88.792969 C 30.496094 88.792969 30.34375 88.804688 30.207031 88.835938 C 29.863281 88.917969 29.675781 89.042969 29.65625 89.207031 C 29.585938 90 32.039062 91.769531 32.820312 92.113281 C 32.929688 92.160156 33 92.269531 32.996094 92.394531 C 32.988281 92.511719 32.914062 92.613281 32.800781 92.65625 C 32.457031 92.777344 31.976562 92.871094 31.425781 92.976562 C 29.703125 93.3125 27.347656 93.78125 27.359375 95.421875 C 27.359375 95.519531 27.359375 95.730469 27.953125 95.730469 C 29.035156 95.730469 31.015625 94.980469 32.082031 94.570312 C 32.433594 94.4375 32.714844 94.332031 32.867188 94.285156 C 33 94.246094 33.148438 94.308594 33.210938 94.445312 C 33.277344 94.570312 33.234375 94.722656 33.113281 94.804688 C 32.386719 95.304688 30.167969 97.496094 29.945312 98.90625 C 29.898438 99.203125 29.945312 99.433594 30.085938 99.617188 C 30.207031 99.761719 30.34375 99.832031 30.511719 99.832031 C 30.953125 99.832031 32.015625 99.347656 34.148438 96.144531 L 34.207031 96.054688 C 34.261719 95.976562 34.355469 95.929688 34.453125 95.929688 C 34.464844 95.929688 34.476562 95.929688 34.488281 95.933594 C 34.601562 95.945312 34.695312 96.019531 34.730469 96.132812 C 34.976562 96.882812 35.386719 97.878906 35.960938 98.695312 "/><path style=" stroke:none;fill-rule:nonzero;fill:#100f0d;fill-opacity:1;" d="M 35.960938 98.695312 C 36.082031 98.578125 36.21875 98.472656 36.351562 98.378906 C 36.21875 98.480469 36.089844 98.585938 35.964844 98.699219 C 35.964844 98.699219 35.964844 98.695312 35.960938 98.695312 "/><path style=" stroke:none;fill-rule:nonzero;fill:#100f0d;fill-opacity:1;" d="M 45.671875 96 C 45.617188 96.230469 45.546875 96.457031 45.472656 96.6875 C 45.425781 96.628906 45.378906 96.574219 45.332031 96.515625 C 45.074219 97.355469 44.808594 98.074219 44.546875 98.679688 C 44.511719 98.757812 44.476562 98.839844 44.441406 98.921875 C 44.324219 99.121094 44.199219 99.3125 44.070312 99.511719 C 43.820312 99.894531 43.46875 100.332031 43.144531 100.796875 C 43.003906 100.902344 42.867188 100.976562 42.71875 101.023438 C 42.601562 101.066406 42.492188 101.082031 42.375 101.082031 C 42.148438 101.082031 41.933594 101.019531 41.730469 100.878906 C 41.402344 100.652344 41.203125 100.308594 41.132812 99.847656 C 41.078125 99.480469 41.121094 99.050781 41.214844 98.597656 C 41.320312 98.082031 41.5 97.542969 41.71875 97.023438 C 41.882812 96.632812 42.054688 96.25 42.238281 95.910156 C 40.84375 96.972656 39.390625 97.96875 38.488281 97.96875 C 38.195312 97.96875 37.96875 97.855469 37.8125 97.664062 C 37.738281 97.582031 37.679688 97.488281 37.644531 97.367188 C 37.453125 96.757812 37.542969 96.203125 37.8125 95.714844 C 37.5625 95.316406 37.316406 94.960938 37.113281 94.675781 C 37.042969 94.582031 37.035156 94.460938 37.089844 94.363281 C 37.148438 94.261719 37.261719 94.203125 37.371094 94.214844 C 37.421875 94.214844 37.476562 94.214844 37.53125 94.222656 C 37.683594 94.578125 37.871094 94.945312 38.085938 95.300781 C 38.800781 94.378906 40.09375 93.6875 41.085938 93.152344 C 41.285156 93.046875 41.476562 92.941406 41.648438 92.847656 C 41.320312 92.761719 40.921875 92.636719 40.503906 92.492188 C 40.359375 92.433594 40.207031 92.382812 40.054688 92.316406 C 39.515625 92.097656 38.992188 91.828125 38.601562 91.523438 C 38.484375 91.433594 38.371094 91.339844 38.285156 91.242188 C 38.136719 91.320312 38.007812 91.390625 37.914062 91.449219 C 37.796875 91.523438 37.652344 91.507812 37.558594 91.421875 C 37.457031 91.328125 37.433594 91.175781 37.507812 91.058594 C 37.523438 91.03125 37.535156 91.007812 37.550781 90.980469 C 37.71875 90.941406 37.878906 90.90625 38.039062 90.875 C 38.015625 90.816406 38 90.761719 37.984375 90.703125 C 37.921875 90.40625 37.992188 89.964844 38.683594 89.558594 C 39.1875 89.28125 39.894531 89.136719 40.734375 89.136719 C 41.765625 89.136719 42.859375 89.351562 43.75 89.691406 C 43.25 88.886719 42.921875 88 42.808594 87.097656 C 42.792969 86.980469 42.78125 86.867188 42.765625 86.742188 C 42.765625 86.714844 42.757812 86.691406 42.757812 86.664062 C 42.742188 86.503906 42.71875 86.347656 42.699219 86.179688 C 42.625 85.441406 42.582031 84.613281 42.753906 83.914062 C 42.753906 84.070312 42.757812 84.234375 42.777344 84.402344 C 42.851562 85.070312 43.050781 85.71875 43.308594 86.339844 C 43.320312 86.429688 43.328125 86.515625 43.339844 86.59375 C 43.355469 86.75 43.375 86.894531 43.386719 87.027344 C 43.550781 88.257812 44.140625 89.46875 45.054688 90.429688 C 45.160156 90.539062 45.160156 90.722656 45.050781 90.832031 C 44.945312 90.941406 44.769531 90.953125 44.652344 90.851562 C 43.894531 90.210938 42.207031 89.71875 40.734375 89.71875 C 39.996094 89.71875 39.386719 89.835938 38.96875 90.0625 C 38.664062 90.242188 38.523438 90.417969 38.554688 90.582031 C 38.722656 91.363281 41.589844 92.328125 42.445312 92.429688 C 42.5625 92.4375 42.660156 92.527344 42.6875 92.644531 C 42.722656 92.753906 42.679688 92.875 42.582031 92.953125 C 42.292969 93.167969 41.859375 93.398438 41.359375 93.664062 C 39.820312 94.496094 37.703125 95.625 38.203125 97.191406 C 38.242188 97.316406 38.300781 97.382812 38.488281 97.382812 C 39.402344 97.382812 41.472656 95.773438 42.46875 94.996094 C 42.757812 94.761719 42.992188 94.582031 43.128906 94.496094 C 43.175781 94.460938 43.234375 94.441406 43.292969 94.441406 C 43.367188 94.441406 43.449219 94.472656 43.503906 94.535156 C 43.601562 94.640625 43.609375 94.804688 43.519531 94.914062 C 43.023438 95.542969 41.488281 98.28125 41.710938 99.761719 C 41.757812 100.058594 41.867188 100.269531 42.054688 100.394531 C 42.164062 100.464844 42.265625 100.5 42.371094 100.5 C 42.722656 100.5 43.679688 100.050781 44.910156 95.894531 L 44.9375 95.789062 C 44.96875 95.683594 45.0625 95.601562 45.171875 95.585938 C 45.277344 95.566406 45.390625 95.613281 45.460938 95.707031 C 45.523438 95.796875 45.59375 95.894531 45.671875 96 "/><path style=" stroke:none;fill-rule:nonzero;fill:#100f0d;fill-opacity:1;" d="M 36.617188 83.183594 C 36.691406 83.355469 36.773438 83.527344 36.875 83.710938 C 36.820312 83.722656 36.761719 83.746094 36.703125 83.78125 C 35.894531 84.222656 35.609375 85.777344 35.414062 86.800781 C 35.386719 86.960938 35.355469 87.105469 35.332031 87.234375 C 35.316406 87.316406 35.308594 87.398438 35.296875 87.476562 C 35.058594 87.648438 34.851562 87.828125 34.675781 88.023438 C 34.683594 87.722656 34.707031 87.421875 34.753906 87.128906 C 34.757812 87.121094 34.757812 87.117188 34.757812 87.117188 C 34.78125 86.984375 34.8125 86.84375 34.839844 86.699219 C 34.851562 86.621094 34.871094 86.539062 34.882812 86.464844 C 35.105469 85.289062 35.4375 83.808594 36.421875 83.265625 C 36.484375 83.230469 36.550781 83.207031 36.617188 83.183594 "/><path style=" stroke:none;fill-rule:nonzero;fill:#100f0d;fill-opacity:1;" d="M 38.835938 86.394531 C 38.675781 86.410156 38.523438 86.429688 38.371094 86.445312 C 38.320312 86.214844 38.25 85.910156 38.160156 85.585938 C 38.367188 85.839844 38.589844 86.109375 38.835938 86.394531 "/><path style=" stroke:none;fill-rule:nonzero;fill:#100f0d;fill-opacity:1;" d="M 35.789062 91.355469 C 35.867188 91.3125 35.914062 91.238281 35.929688 91.160156 C 35.691406 91.15625 35.484375 91.132812 35.285156 91.097656 C 35.328125 91.152344 35.367188 91.203125 35.398438 91.257812 C 35.480469 91.386719 35.652344 91.429688 35.789062 91.355469 "/><path style=" stroke:none;fill-rule:nonzero;fill:#100f0d;fill-opacity:1;" d="M 42.085938 79.453125 C 41.929688 79.433594 41.78125 79.453125 41.640625 79.507812 C 41.777344 79.453125 41.929688 79.429688 42.085938 79.453125 "/><path style=" stroke:none;fill-rule:nonzero;fill:#100f0d;fill-opacity:1;" d="M 42.671875 79.648438 C 42.707031 79.671875 42.742188 79.691406 42.777344 79.714844 C 42.707031 79.667969 42.625 79.625 42.542969 79.589844 C 42.589844 79.609375 42.628906 79.625 42.671875 79.648438 "/><path style=" stroke:none;fill-rule:nonzero;fill:#100f0d;fill-opacity:1;" d="M 43.304688 80.164062 C 43.316406 80.179688 43.328125 80.203125 43.34375 80.222656 C 43.332031 80.199219 43.316406 80.175781 43.292969 80.15625 L 43.292969 80.152344 C 43.292969 80.152344 43.296875 80.15625 43.304688 80.164062 "/><path style=" stroke:none;fill-rule:nonzero;fill:#100f0d;fill-opacity:1;" d="M 43.5625 80.546875 C 43.585938 80.585938 43.609375 80.632812 43.632812 80.6875 C 43.585938 80.59375 43.539062 80.5 43.480469 80.414062 C 43.496094 80.441406 43.515625 80.464844 43.53125 80.496094 C 43.542969 80.511719 43.550781 80.527344 43.5625 80.546875 "/><path style=" stroke:none;fill-rule:nonzero;fill:#100f0d;fill-opacity:1;" d="M 36.84375 81.140625 C 36.90625 81.101562 36.972656 81.066406 37.050781 81.03125 C 36.898438 81.101562 36.773438 81.191406 36.667969 81.296875 C 36.644531 81.308594 36.628906 81.328125 36.609375 81.351562 C 36.628906 81.328125 36.644531 81.308594 36.667969 81.292969 C 36.722656 81.234375 36.773438 81.1875 36.839844 81.148438 L 36.84375 81.140625 "/><path style=" stroke:none;fill-rule:nonzero;fill:#100f0d;fill-opacity:1;" d="M 37.300781 80.953125 C 37.3125 80.953125 37.316406 80.949219 37.332031 80.949219 C 37.269531 80.960938 37.210938 80.976562 37.160156 80.996094 C 37.144531 81 37.125 81.007812 37.105469 81.011719 C 37.089844 81.011719 37.066406 81.019531 37.046875 81.03125 C 37.085938 81.011719 37.125 81 37.160156 80.988281 C 37.171875 80.984375 37.183594 80.984375 37.195312 80.976562 C 37.230469 80.964844 37.265625 80.960938 37.300781 80.953125 "/><path style=" stroke:none;fill-rule:nonzero;fill:#100f0d;fill-opacity:1;" d="M 38.765625 81.386719 C 38.921875 81.496094 39.074219 81.628906 39.226562 81.777344 C 39.074219 81.628906 38.921875 81.503906 38.765625 81.386719 "/><path style=" stroke:none;fill-rule:nonzero;fill:#100f0d;fill-opacity:1;" d="M 39.457031 81.996094 L 39.457031 82.003906 C 39.378906 81.921875 39.304688 81.84375 39.226562 81.777344 C 39.304688 81.847656 39.378906 81.921875 39.457031 81.996094 "/><path style=" stroke:none;fill-rule:nonzero;fill:#100f0d;fill-opacity:1;" d="M 38.054688 93.984375 C 38 93.847656 37.949219 93.714844 37.910156 93.582031 C 38.015625 93.597656 38.121094 93.617188 38.238281 93.632812 C 38.171875 93.757812 38.113281 93.871094 38.054688 93.984375 Z M 40.503906 92.492188 C 40.570312 92.621094 40.644531 92.765625 40.726562 92.929688 C 40.066406 92.992188 39.949219 92.738281 39.972656 92.363281 C 40 92.347656 40.03125 92.335938 40.054688 92.316406 C 39.515625 92.097656 38.992188 91.828125 38.601562 91.523438 C 38.5 91.539062 38.402344 91.554688 38.296875 91.578125 C 37.960938 91.660156 37.726562 91.800781 37.570312 91.957031 C 37.410156 92.121094 37.324219 92.292969 37.269531 92.445312 C 37.121094 92.933594 37.253906 93.5625 37.527344 94.222656 C 37.679688 94.578125 37.867188 94.945312 38.085938 95.300781 C 38.800781 94.378906 40.09375 93.6875 41.082031 93.152344 C 41.285156 93.046875 41.476562 92.941406 41.648438 92.847656 C 41.320312 92.761719 40.921875 92.636719 40.503906 92.492188 "/><path style=" stroke:none;fill-rule:nonzero;fill:#100f0d;fill-opacity:1;" d="M 85.492188 88.199219 C 85.5 90.402344 85.371094 92.457031 84.632812 94.546875 C 84.339844 95.382812 83.953125 96.148438 83.347656 96.800781 C 82.351562 97.898438 80.703125 97.738281 79.390625 97.496094 C 77.136719 97.078125 74.890625 96.609375 72.640625 96.144531 C 70.597656 95.71875 68.742188 95.539062 66.667969 95.839844 C 65.84375 95.964844 65.011719 96.0625 64.179688 96.171875 C 64.683594 95.820312 65.175781 95.460938 65.554688 94.96875 C 66.210938 94.105469 66.679688 93.167969 67.082031 92.167969 C 67.851562 90.238281 68.148438 88.046875 68.132812 85.988281 C 68.121094 85.03125 67.980469 83.84375 67.503906 82.894531 C 69.085938 83 70.722656 83.097656 72.230469 82.835938 C 74.292969 82.480469 76.320312 81.9375 78.386719 81.585938 C 80.742188 81.183594 84.246094 80.347656 85.265625 83.308594 C 85.773438 84.804688 85.488281 86.644531 85.492188 88.199219 Z M 67.863281 97.996094 C 69.023438 98.550781 71.625 100.621094 69.074219 101.285156 C 66.699219 101.910156 64.976562 98.71875 63.960938 96.925781 C 65.308594 97.128906 66.628906 97.40625 67.863281 97.996094 Z M 63.078125 96.261719 C 63.03125 96.273438 62.976562 96.289062 62.9375 96.335938 C 62.929688 96.34375 62.925781 96.347656 62.921875 96.355469 C 61.859375 96.511719 60.8125 96.710938 59.785156 97.007812 C 55.796875 98.316406 52.617188 101.421875 48.828125 103.195312 C 47.371094 103.882812 44.820312 104.820312 43.351562 103.664062 C 42.507812 103 43.292969 101.683594 43.691406 101.03125 C 44.292969 100.050781 45.007812 99.195312 45.523438 98.164062 C 47.011719 95.1875 46.542969 91.972656 45.273438 89.03125 C 44.230469 86.617188 41.4375 82.429688 45.429688 81.117188 C 47.328125 80.496094 49.710938 80.832031 51.667969 80.988281 C 54.296875 81.191406 56.910156 81.636719 59.515625 82.054688 C 61.609375 82.386719 63.679688 82.691406 65.800781 82.785156 C 66.082031 82.796875 66.375 82.8125 66.664062 82.835938 C 67.078125 83.539062 67.371094 84.402344 67.433594 84.769531 C 67.714844 86.21875 67.519531 87.796875 67.273438 89.242188 C 67.03125 90.636719 66.59375 91.980469 65.960938 93.25 C 65.292969 94.601562 64.214844 95.359375 63.078125 96.261719 Z M 58.1875 102.8125 C 56.417969 101.316406 61.601562 98.160156 63.082031 96.984375 C 63.109375 97.144531 63.136719 97.304688 63.164062 97.464844 C 62.445312 99.429688 59.867188 104.246094 58.1875 102.8125 Z M 66.230469 82.210938 C 65.761719 82.203125 65.296875 82.164062 64.835938 82.128906 C 65.316406 81.546875 65.808594 81.734375 66.230469 82.210938 Z M 42.046875 101.699219 C 42.097656 101.648438 42.144531 101.597656 42.199219 101.550781 C 42.273438 101.699219 42.339844 101.851562 42.402344 102.007812 C 42.292969 101.910156 42.171875 101.8125 42.046875 101.699219 Z M 40.351562 107.074219 C 40.816406 106.265625 41.21875 106.855469 41.886719 107.035156 C 41.132812 107.804688 40.796875 107.03125 40.351562 107.074219 Z M 40.984375 100.679688 C 41.074219 100.714844 41.171875 100.757812 41.265625 100.792969 C 41.195312 101.015625 41.125 101.230469 41.0625 101.449219 C 40.957031 101.410156 40.855469 101.367188 40.757812 101.332031 C 40.832031 101.113281 40.910156 100.898438 40.984375 100.679688 Z M 37.945312 90.039062 C 37.90625 90.132812 37.867188 90.226562 37.828125 90.324219 C 37.535156 90.390625 37.238281 90.449219 36.9375 90.496094 C 36.90625 90.460938 36.875 90.417969 36.832031 90.378906 C 37.128906 90.132812 37.359375 89.945312 37.585938 89.753906 C 37.652344 89.527344 37.714844 89.296875 37.796875 88.992188 C 38.402344 89.363281 38.3125 89.691406 37.945312 90.039062 Z M 84.132812 81.105469 C 84.003906 81.035156 83.882812 80.976562 83.753906 80.925781 C 83.8125 77.746094 83.191406 74.59375 83.484375 71.414062 C 83.648438 69.636719 84.164062 67.84375 84.773438 66.089844 C 84.34375 66.980469 83.898438 67.878906 83.425781 68.753906 C 83.199219 69.632812 83.015625 70.523438 82.898438 71.414062 C 82.5 74.496094 83.191406 77.628906 83.164062 80.714844 C 82.078125 80.425781 80.90625 80.546875 79.804688 80.75 C 77.550781 81.160156 75.324219 81.5625 73.09375 82.085938 C 71.136719 82.539062 69.109375 82.347656 67.113281 82.253906 C 66.972656 82.078125 66.820312 81.914062 66.644531 81.78125 C 65.707031 81.066406 64.777344 81.117188 64.167969 82.078125 C 62.28125 81.90625 60.417969 81.613281 58.542969 81.308594 C 54.484375 80.664062 50.0625 79.789062 45.953125 80.402344 C 45.308594 80.496094 44.738281 80.703125 44.269531 81 C 44.21875 81.035156 44.164062 81.070312 44.117188 81.105469 L 44.117188 77.355469 C 43.917969 77.3125 43.726562 77.261719 43.535156 77.222656 L 43.535156 80.496094 C 43.515625 80.464844 43.496094 80.441406 43.480469 80.414062 C 43.445312 80.359375 43.410156 80.304688 43.375 80.253906 C 43.367188 80.25 43.363281 80.25 43.363281 80.246094 C 43.355469 80.238281 43.351562 80.226562 43.347656 80.222656 C 43.328125 80.203125 43.316406 80.179688 43.304688 80.164062 C 43.304688 80.164062 43.296875 80.15625 43.292969 80.15625 L 43.292969 80.152344 L 43.203125 80.0625 L 43.136719 79.988281 C 43.125 79.976562 43.117188 79.964844 43.105469 79.957031 C 43.101562 79.949219 43.089844 79.941406 43.082031 79.933594 C 43.066406 79.917969 43.046875 79.90625 43.023438 79.890625 L 42.789062 79.71875 C 42.78125 79.71875 42.78125 79.714844 42.777344 79.714844 C 42.742188 79.691406 42.707031 79.671875 42.671875 79.652344 C 42.632812 79.628906 42.589844 79.609375 42.542969 79.59375 C 42.445312 79.546875 42.332031 79.511719 42.214844 79.476562 L 42.210938 79.476562 C 42.167969 79.464844 42.128906 79.457031 42.085938 79.453125 C 41.929688 79.433594 41.78125 79.453125 41.640625 79.511719 C 41.542969 79.558594 41.449219 79.628906 41.367188 79.714844 C 41.003906 80.117188 40.878906 80.953125 40.878906 81.960938 C 40.878906 82.632812 40.933594 83.371094 41.003906 84.113281 C 40.597656 83.425781 40.054688 82.628906 39.457031 82.003906 C 39.382812 81.921875 39.304688 81.847656 39.230469 81.777344 C 39.078125 81.632812 38.925781 81.503906 38.765625 81.386719 C 38.609375 81.269531 38.449219 81.175781 38.285156 81.101562 C 38.210938 81.066406 38.128906 81.03125 38.046875 81.007812 C 37.886719 80.953125 37.722656 80.925781 37.566406 80.925781 C 37.5 80.925781 37.4375 80.929688 37.371094 80.945312 C 37.367188 80.945312 37.355469 80.945312 37.347656 80.949219 L 37.332031 80.949219 C 37.320312 80.949219 37.3125 80.953125 37.300781 80.953125 C 37.265625 80.960938 37.230469 80.964844 37.195312 80.976562 C 37.183594 80.984375 37.171875 80.984375 37.160156 80.988281 C 37.144531 80.996094 37.125 81 37.109375 81.011719 C 37.089844 81.011719 37.066406 81.019531 37.050781 81.03125 C 36.972656 81.066406 36.910156 81.101562 36.84375 81.140625 L 36.839844 81.148438 C 36.773438 81.1875 36.722656 81.234375 36.667969 81.292969 L 36.667969 81.296875 C 36.644531 81.308594 36.628906 81.328125 36.609375 81.351562 C 36.5 81.484375 36.421875 81.640625 36.382812 81.820312 C 36.304688 82.183594 36.386719 82.644531 36.617188 83.183594 C 36.691406 83.355469 36.773438 83.527344 36.875 83.710938 C 37.171875 84.257812 37.601562 84.878906 38.164062 85.585938 C 38.367188 85.839844 38.589844 86.109375 38.835938 86.394531 C 38.679688 86.410156 38.527344 86.429688 38.375 86.445312 C 38.292969 86.457031 38.203125 86.464844 38.128906 86.480469 C 38.109375 86.480469 38.097656 86.488281 38.082031 86.488281 C 38.058594 86.492188 38.035156 86.492188 38.015625 86.5 L 38.011719 86.5 C 37.933594 86.511719 37.863281 86.527344 37.792969 86.539062 C 37.570312 86.582031 37.359375 86.628906 37.160156 86.679688 C 37.113281 86.683594 37.066406 86.703125 37.027344 86.714844 C 36.96875 86.726562 36.914062 86.742188 36.863281 86.761719 C 36.785156 86.785156 36.710938 86.808594 36.632812 86.832031 C 36.523438 86.867188 36.417969 86.90625 36.3125 86.949219 C 36.289062 86.953125 36.269531 86.964844 36.253906 86.972656 C 36.1875 87 36.125 87.023438 36.058594 87.050781 C 36.011719 87.070312 35.972656 87.09375 35.929688 87.109375 C 35.695312 87.222656 35.488281 87.34375 35.296875 87.476562 C 35.058594 87.648438 34.855469 87.828125 34.675781 88.023438 C 34.347656 88.398438 34.132812 88.828125 34.035156 89.3125 C 34.023438 89.382812 34.003906 89.453125 34 89.523438 C 33.980469 89.683594 33.984375 89.832031 34.007812 89.96875 C 34.042969 90.222656 34.136719 90.441406 34.296875 90.621094 C 34.515625 90.867188 34.855469 91.019531 35.285156 91.101562 C 35.484375 91.136719 35.695312 91.160156 35.929688 91.160156 L 35.949219 91.160156 C 36.445312 91.160156 37.003906 91.082031 37.554688 90.980469 C 37.71875 90.941406 37.878906 90.90625 38.039062 90.875 C 38.015625 90.816406 38 90.761719 37.988281 90.703125 C 37.921875 90.40625 37.992188 89.964844 38.683594 89.558594 C 39.1875 89.28125 39.894531 89.136719 40.734375 89.136719 C 41.765625 89.136719 42.859375 89.351562 43.75 89.691406 C 43.253906 88.886719 42.925781 88 42.808594 87.097656 C 42.796875 86.980469 42.78125 86.867188 42.765625 86.742188 C 42.667969 86.664062 42.566406 86.582031 42.46875 86.5 C 42.527344 86.386719 42.578125 86.285156 42.636719 86.171875 C 42.660156 86.179688 42.683594 86.179688 42.703125 86.179688 C 42.625 85.4375 42.585938 84.613281 42.753906 83.914062 C 42.753906 84.070312 42.761719 84.234375 42.777344 84.402344 C 42.855469 85.070312 43.050781 85.71875 43.3125 86.339844 C 43.492188 86.777344 43.695312 87.210938 43.914062 87.621094 C 44.949219 89.644531 45.8125 91.617188 45.898438 93.917969 C 45.921875 94.628906 45.839844 95.324219 45.671875 95.996094 C 45.617188 96.230469 45.546875 96.457031 45.472656 96.6875 C 45.425781 96.628906 45.378906 96.574219 45.332031 96.515625 C 45.074219 97.355469 44.808594 98.070312 44.546875 98.675781 C 44.546875 98.6875 44.550781 98.699219 44.550781 98.71875 C 44.515625 98.78125 44.476562 98.851562 44.441406 98.921875 C 44.324219 99.121094 44.203125 99.3125 44.074219 99.511719 C 43.820312 99.894531 43.46875 100.332031 43.148438 100.796875 C 43.058594 100.925781 42.976562 101.054688 42.894531 101.1875 C 42.832031 101.136719 42.773438 101.082031 42.714844 101.03125 C 42.714844 101.03125 42.71875 101.03125 42.71875 101.023438 C 42.601562 101.066406 42.492188 101.082031 42.375 101.082031 C 42.152344 101.082031 41.933594 101.019531 41.730469 100.878906 C 41.402344 100.652344 41.203125 100.308594 41.132812 99.847656 C 41.078125 99.480469 41.121094 99.050781 41.214844 98.59375 C 41.007812 98.082031 41.027344 97.558594 41.589844 96.882812 C 41.636719 96.933594 41.675781 96.976562 41.71875 97.023438 C 41.882812 96.632812 42.058594 96.25 42.238281 95.910156 C 40.84375 96.96875 39.390625 97.964844 38.488281 97.964844 C 38.195312 97.964844 37.96875 97.855469 37.8125 97.664062 C 37.71875 97.691406 37.628906 97.722656 37.542969 97.757812 C 37.453125 97.785156 37.371094 97.816406 37.296875 97.847656 C 37.171875 97.902344 37.054688 97.953125 36.9375 98.019531 C 36.890625 98.042969 36.84375 98.066406 36.796875 98.09375 C 36.640625 98.175781 36.492188 98.269531 36.351562 98.378906 C 36.289062 98.425781 36.21875 98.472656 36.152344 98.53125 C 36.089844 98.578125 36.019531 98.636719 35.960938 98.695312 C 35.8125 98.835938 35.679688 98.980469 35.550781 99.136719 C 35.074219 99.742188 34.734375 100.492188 34.535156 101.414062 C 34.417969 102.019531 34.484375 102.480469 34.734375 102.789062 C 34.945312 103.039062 35.273438 103.171875 35.707031 103.171875 C 36.769531 103.171875 38.375 102.351562 39.386719 101.734375 C 38.941406 102.882812 38.699219 104.101562 39.191406 105.589844 L 39.300781 105.894531 C 39.667969 107.042969 40.28125 108.949219 41.4375 108.949219 C 41.652344 108.949219 41.875 108.882812 42.09375 108.734375 C 42.214844 108.652344 42.328125 108.554688 42.425781 108.445312 C 43.125 107.660156 43.257812 106.25 43.363281 105.183594 C 43.375 105.023438 43.386719 104.886719 43.40625 104.746094 C 43.414062 104.636719 43.410156 104.53125 43.414062 104.421875 C 43.867188 104.660156 44.421875 104.746094 45.003906 104.746094 C 46.117188 104.746094 47.324219 104.421875 48.089844 104.132812 C 52.359375 102.554688 55.628906 98.984375 59.9375 97.570312 C 60.605469 97.378906 61.273438 97.230469 61.941406 97.117188 C 59.761719 98.707031 55.386719 101.730469 57.972656 103.390625 C 60.03125 104.710938 62.359375 100.960938 63.394531 98.527344 C 63.910156 100.609375 64.777344 102.5625 66.089844 104.316406 C 66.3125 104.613281 66.820312 104.328125 66.59375 104.023438 C 65.210938 102.167969 64.332031 100.09375 63.84375 97.875 C 65.234375 100.1875 67.320312 103.003906 70.199219 101.46875 C 71.507812 100.773438 70.546875 99.375 69.835938 98.675781 C 68.644531 97.507812 67.085938 96.949219 65.480469 96.609375 C 65.601562 96.59375 65.71875 96.574219 65.835938 96.558594 C 66.992188 96.390625 68.121094 96.203125 69.292969 96.207031 C 70.699219 96.214844 72.167969 96.632812 73.539062 96.925781 C 75.601562 97.367188 77.667969 97.761719 79.734375 98.148438 C 80.984375 98.378906 82.53125 98.339844 83.519531 97.4375 C 85.832031 95.335938 86.078125 91.589844 86.078125 88.699219 C 86.085938 86.160156 86.757812 82.585938 84.132812 81.105469 "/><path style=" stroke:none;fill-rule:nonzero;fill:#100f0d;fill-opacity:1;" d="M 61.253906 91.933594 C 57.609375 92.941406 54.40625 94.875 51.09375 96.632812 C 50.761719 96.808594 51.058594 97.3125 51.390625 97.136719 C 54.65625 95.398438 57.8125 93.488281 61.410156 92.496094 C 61.773438 92.398438 61.617188 91.835938 61.253906 91.933594 "/><path style=" stroke:none;fill-rule:nonzero;fill:#100f0d;fill-opacity:1;" d="M 80.4375 92.6875 C 77.355469 92.0625 74.222656 91.796875 71.132812 91.238281 C 70.761719 91.171875 70.605469 91.730469 70.976562 91.800781 C 74.066406 92.359375 77.203125 92.621094 80.28125 93.25 C 80.648438 93.324219 80.804688 92.765625 80.4375 92.6875 "/><path style=" stroke:none;fill-rule:nonzero;fill:#100f0d;fill-opacity:1;" d="M 74.332031 88.847656 C 73.359375 88.824219 72.386719 88.84375 71.425781 88.679688 C 71.058594 88.617188 70.898438 89.179688 71.273438 89.242188 C 72.285156 89.414062 73.304688 89.402344 74.332031 89.429688 C 74.707031 89.4375 74.707031 88.855469 74.332031 88.847656 "/><path style=" stroke:none;fill-rule:nonzero;fill:#100f0d;fill-opacity:1;" d="M 70.992188 86.300781 C 73.976562 86.617188 77.128906 86.148438 80.015625 85.386719 C 80.378906 85.292969 80.226562 84.730469 79.859375 84.824219 C 77.015625 85.578125 73.9375 86.03125 70.992188 85.71875 C 70.617188 85.675781 70.621094 86.257812 70.992188 86.300781 "/><path style=" stroke:none;fill-rule:nonzero;fill:#100f0d;fill-opacity:1;" d="M 50.8125 84.125 C 55.371094 85.113281 60.03125 85.246094 64.679688 85.363281 C 65.058594 85.375 65.058594 84.792969 64.679688 84.78125 C 60.082031 84.667969 55.476562 84.539062 50.964844 83.566406 C 50.597656 83.484375 50.441406 84.046875 50.8125 84.125 "/><path style=" stroke:none;fill-rule:nonzero;fill:#100f0d;fill-opacity:1;" d="M 65.101562 87.847656 C 61.839844 88.386719 58.519531 88.449219 55.292969 89.1875 C 54.925781 89.269531 55.082031 89.832031 55.449219 89.75 C 58.675781 89.011719 61.996094 88.949219 65.253906 88.410156 C 65.628906 88.347656 65.46875 87.785156 65.101562 87.847656 "/><path style=" stroke:none;fill-rule:nonzero;fill:#100f0d;fill-opacity:1;" d="M 12.707031 78.699219 C 12.738281 78.894531 12.761719 79.09375 12.789062 79.289062 C 15.890625 79.429688 17.820312 80.171875 17.820312 80.699219 C 17.820312 81.210938 16.019531 81.921875 13.101562 82.097656 C 13.117188 82.289062 13.132812 82.484375 13.148438 82.675781 C 13.371094 82.664062 13.589844 82.648438 13.808594 82.628906 C 13.851562 82.621094 13.894531 82.621094 13.941406 82.613281 C 16.390625 82.375 18.40625 81.730469 18.40625 80.699219 C 18.40625 80.519531 18.339844 80.351562 18.226562 80.199219 C 17.578125 79.3125 15.230469 78.804688 12.707031 78.699219 "/><path style=" stroke:none;fill-rule:nonzero;fill:#100f0d;fill-opacity:1;" d="M 12.570312 82.703125 C 12.296875 82.714844 12.015625 82.71875 11.734375 82.71875 C 8.417969 82.71875 5.070312 82.027344 5.070312 80.699219 C 5.070312 80.523438 5.128906 80.359375 5.234375 80.210938 C 5.949219 79.203125 8.859375 78.675781 11.734375 78.675781 C 11.863281 78.675781 11.992188 78.683594 12.121094 78.683594 C 12.152344 78.882812 12.179688 79.074219 12.210938 79.265625 C 12.050781 79.265625 11.898438 79.261719 11.734375 79.261719 C 8.019531 79.261719 5.65625 80.117188 5.65625 80.699219 C 5.65625 81.289062 8.019531 82.136719 11.734375 82.136719 C 12.007812 82.136719 12.265625 82.132812 12.523438 82.125 C 12.542969 82.316406 12.558594 82.507812 12.570312 82.703125 "/></g></svg>