<svg xmlns="http://www.w3.org/2000/svg" xmlns:xlink="http://www.w3.org/1999/xlink" width="150" zoomAndPan="magnify" viewBox="0 0 113.04 120.96" height="150" preserveAspectRatio="xMidYMid meet" version="1.2"><defs><clipPath id="02a4d7c83e"><path d="M 0 0.488281 L 51 0.488281 L 51 112 L 0 112 Z M 0 0.488281 "/></clipPath><clipPath id="d255514b64"><path d="M 32.210938 29.714844 L 70.605469 29.714844 L 70.605469 54.925781 L 32.210938 54.925781 Z M 32.210938 29.714844 "/></clipPath><clipPath id="dff4c03a3e"><path d="M 0.0507812 0.488281 L 70.605469 0.488281 L 70.605469 112.042969 L 0.0507812 112.042969 Z M 0.0507812 0.488281 "/></clipPath></defs><g id="dabd2460d6"><path style=" stroke:none;fill-rule:nonzero;fill:#ffffff;fill-opacity:1;" d="M 52.507812 28.890625 C 52.511719 28.859375 52.515625 28.828125 52.519531 28.796875 C 52.515625 28.816406 52.515625 28.847656 52.507812 28.890625 "/><g clip-rule="nonzero" clip-path="url(#02a4d7c83e)"><path style=" stroke:none;fill-rule:nonzero;fill:#ffffff;fill-opacity:1;" d="M 41.667969 107.613281 C 40.777344 106.925781 38.355469 105.621094 38.328125 105.605469 C 38.066406 105.453125 37.804688 105.304688 37.539062 105.160156 L 37.460938 105.121094 L 37.40625 100.734375 L 37.355469 96.964844 L 37.257812 89.542969 L 37.355469 89.507812 C 38.222656 89.214844 38.886719 88.84375 39.390625 88.378906 C 40.777344 87.109375 40.535156 84.617188 40.40625 83.277344 C 40.296875 82.121094 40.132812 80.878906 39.921875 79.589844 C 39.84375 79.109375 39.753906 78.625 39.664062 78.167969 L 39.640625 78.039062 L 39.761719 78.003906 C 41.171875 77.558594 42.476562 77 43.652344 76.332031 L 43.660156 76.328125 C 42.753906 74.144531 42.035156 71.859375 41.34375 69.648438 C 41.082031 68.816406 40.820312 67.984375 40.550781 67.15625 C 39.769531 64.777344 38.730469 62.480469 37.722656 60.261719 C 37.425781 59.613281 37.132812 58.960938 36.839844 58.304688 C 36.492188 57.515625 36.171875 56.742188 35.90625 56.089844 L 35.890625 56.058594 L 35.933594 55.414062 L 35.65625 55.457031 C 34.15625 51.660156 32.914062 47.707031 31.714844 43.886719 C 31.191406 42.210938 30.644531 40.476562 30.085938 38.777344 L 29.835938 38.007812 L 30.152344 38.171875 C 31.554688 38.90625 32.894531 39.277344 34.136719 39.277344 C 34.582031 39.277344 35.019531 39.230469 35.433594 39.140625 C 37.375 38.714844 38.976562 37.585938 40.191406 35.78125 L 40.304688 35.613281 L 40.425781 35.773438 C 41.796875 37.5625 43.085938 38.527344 44.253906 38.640625 L 44.386719 38.652344 L 44.386719 38.65625 L 44.527344 38.652344 C 45.058594 38.640625 45.570312 38.449219 46.046875 38.085938 C 46.851562 37.464844 47.484375 36.605469 48.046875 35.769531 C 48.832031 34.609375 49.363281 33.628906 49.722656 32.679688 C 49.761719 32.582031 49.804688 32.480469 49.851562 32.375 L 49.890625 32.28125 C 50.089844 31.832031 50.339844 31.269531 50.171875 30.863281 C 50.089844 30.667969 49.914062 30.515625 49.644531 30.410156 C 49.265625 30.257812 48.859375 30.164062 48.46875 30.078125 L 48.265625 30.03125 C 47.695312 29.894531 47.347656 29.578125 47.238281 29.09375 C 47.199219 28.925781 47.035156 28.089844 47.414062 27.953125 L 47.433594 27.945312 C 49 26.753906 49.914062 25.570312 50.308594 24.214844 C 51.015625 21.753906 49.953125 18.691406 47.886719 17.246094 C 47.363281 16.875 46.753906 16.550781 46.128906 16.300781 C 45.460938 16.03125 44.75 15.894531 44.015625 15.894531 C 41.96875 15.894531 40.203125 16.96875 39.40625 18.695312 C 39.152344 19.242188 38.992188 19.929688 38.851562 20.550781 L 38.820312 20.699219 C 38.609375 21.605469 38.566406 22.675781 38.699219 23.875 L 38.710938 23.964844 L 38.71875 24.050781 L 37.90625 24.625 L 38.109375 24.152344 C 38.132812 24.09375 38.148438 24.039062 38.148438 23.988281 C 38.148438 23.875 38.089844 23.777344 37.976562 23.699219 C 37.921875 23.664062 37.855469 23.644531 37.78125 23.644531 C 37.601562 23.644531 37.367188 23.742188 37.097656 23.921875 C 36.820312 24.113281 36.519531 24.300781 36.148438 24.511719 C 35.351562 24.972656 34.761719 25.429688 34.351562 25.914062 C 34.078125 26.238281 33.882812 26.617188 33.792969 26.980469 L 33.785156 27.066406 L 33.742188 27.101562 C 33.210938 27.589844 32.640625 28.0625 32.050781 28.503906 L 31.933594 28.589844 L 31.847656 28.472656 C 31.449219 27.945312 30.707031 26.96875 30.195312 26.382812 C 28.453125 24.402344 26.546875 23.179688 25.824219 22.714844 L 25.792969 22.695312 C 25.558594 22.542969 25.3125 22.414062 25.03125 22.296875 C 25.003906 22.285156 24.976562 22.277344 24.949219 22.265625 L 24.882812 22.242188 L 24.847656 22.226562 L 24.828125 22.222656 L 24.8125 22.21875 C 24.160156 21.96875 23.429688 21.816406 22.675781 21.664062 L 22.425781 21.617188 C 22.347656 21.601562 22.269531 21.585938 22.191406 21.570312 C 22.109375 21.554688 22.027344 21.535156 21.945312 21.515625 C 21.617188 21.433594 21.203125 21.300781 20.925781 20.984375 C 20.671875 20.695312 20.761719 20.289062 20.84375 19.929688 C 20.84375 19.929688 20.871094 19.796875 20.882812 19.75 L 20.933594 19.457031 L 21.046875 19.453125 C 21.203125 19.441406 21.339844 19.425781 21.4375 19.40625 C 21.457031 19.398438 21.480469 19.394531 21.496094 19.390625 C 22.367188 19.179688 23.203125 18.691406 23.914062 17.980469 C 24.550781 17.355469 25.0625 16.507812 25.390625 15.535156 C 26.105469 13.433594 26.4375 11.640625 26.40625 10.046875 L 26.417969 9.792969 L 26.636719 9.921875 C 28.101562 7.882812 27.386719 4.640625 25.832031 3.011719 C 25.289062 2.441406 24.527344 2.164062 23.792969 1.898438 C 23.644531 1.84375 23.496094 1.789062 23.347656 1.734375 C 23.09375 1.636719 22.84375 1.535156 22.601562 1.433594 C 21.726562 1.078125 20.902344 0.738281 19.917969 0.660156 C 19.710938 0.644531 19.5 0.632812 19.289062 0.632812 C 16.414062 0.632812 13.46875 2.132812 11.785156 4.449219 C 10.632812 6.039062 10.117188 7.871094 10.257812 9.890625 C 10.328125 10.910156 10.648438 11.890625 10.953125 12.710938 C 11.09375 13.097656 11.257812 13.476562 11.414062 13.847656 L 11.46875 13.96875 C 11.488281 14.019531 11.511719 14.078125 11.535156 14.136719 C 11.625 14.363281 11.726562 14.621094 11.894531 14.738281 C 12.035156 14.832031 12.183594 14.878906 12.34375 14.878906 C 12.578125 14.878906 12.820312 14.773438 13.007812 14.59375 L 13.179688 14.425781 L 13.246094 14.65625 C 13.515625 15.574219 14.375 16.382812 15.386719 16.667969 L 15.511719 16.707031 L 15.488281 16.863281 C 15.46875 17.058594 15.449219 17.253906 15.433594 17.460938 C 15.332031 18.664062 15.230469 19.910156 14.183594 20.554688 C 13.789062 20.796875 13.28125 20.824219 12.878906 20.824219 C 12.679688 20.824219 12.472656 20.816406 12.257812 20.808594 C 12.058594 20.800781 11.867188 20.789062 11.6875 20.789062 C 11.519531 20.789062 11.375 20.796875 11.246094 20.8125 C 11.066406 20.832031 10.871094 20.875 10.722656 20.914062 L 10.644531 20.933594 C 10.570312 20.953125 10.496094 20.972656 10.421875 20.996094 L 10.394531 21.019531 L 10.359375 21.027344 C 9.878906 21.128906 8.894531 21.8125 8.488281 22.203125 C 6.957031 23.679688 6.207031 26.109375 6.4375 28.867188 L 6.441406 28.886719 L 6.4375 28.902344 C 6.097656 31.285156 5.710938 33.402344 5.257812 35.367188 C 4.125 40.261719 3.375 44.621094 2.96875 48.6875 C 2.75 50.867188 2.65625 53.113281 2.683594 55.550781 C 2.6875 55.828125 2.6875 56.109375 2.6875 56.394531 C 2.695312 57.929688 2.703125 59.515625 3.015625 60.984375 C 3.171875 61.730469 3.515625 62.4375 4.035156 63.09375 L 4.222656 63.332031 L 3.757812 63.332031 C 2.597656 63.332031 1.503906 63.738281 0.835938 64.425781 C 0.402344 64.875 0.179688 65.398438 0.195312 65.9375 C 0.234375 67.378906 1.898438 68.546875 3.902344 68.546875 L 13.46875 68.546875 L 13.503906 68.570312 C 14.929688 69.480469 15.882812 70.480469 16.5 71.710938 C 16.980469 72.664062 17.183594 73.832031 17.105469 75.175781 C 17.0625 75.921875 17 76.679688 16.941406 77.414062 C 16.871094 78.296875 16.796875 79.207031 16.757812 80.105469 C 16.636719 82.679688 16.777344 85.335938 18.570312 87.304688 C 19.128906 87.914062 19.796875 88.410156 20.613281 88.824219 L 20.703125 88.867188 L 20.691406 88.96875 C 20.546875 90.460938 20.410156 91.980469 20.28125 93.449219 L 20.261719 93.6875 C 20.089844 95.589844 19.910156 97.617188 19.695312 99.65625 L 19.667969 99.785156 L 19.644531 99.785156 L 19.644531 99.789062 C 19.640625 99.800781 19.378906 100.703125 19.363281 102.203125 C 19.335938 102.835938 19.378906 103.527344 19.488281 104.3125 C 19.503906 104.402344 19.519531 104.523438 19.546875 104.652344 C 19.476562 104.664062 19.421875 104.722656 19.421875 104.792969 C 19.421875 104.875 19.488281 104.9375 19.570312 104.9375 L 19.609375 104.9375 C 19.667969 105.152344 19.746094 105.316406 19.839844 105.421875 L 20.0625 105.664062 L 28.054688 105.664062 L 28.011719 105.839844 C 27.941406 106.144531 27.777344 106.972656 27.777344 108.148438 L 27.777344 108.355469 C 27.78125 108.972656 27.785156 109.667969 27.917969 110.300781 L 27.804688 110.445312 C 27.722656 110.445312 27.660156 110.511719 27.660156 110.59375 C 27.660156 110.671875 27.722656 110.738281 27.804688 110.738281 L 27.886719 110.738281 L 28.09375 110.882812 C 28.117188 110.941406 28.144531 111 28.167969 111.054688 C 28.207031 111.125 28.238281 111.175781 28.273438 111.207031 L 28.277344 111.214844 C 28.328125 111.261719 28.386719 111.28125 28.480469 111.292969 L 28.625 111.292969 C 29.628906 111.292969 30.628906 111.285156 31.625 111.277344 L 31.722656 111.277344 C 31.890625 111.273438 32.058594 111.269531 32.222656 111.269531 L 32.378906 111.269531 L 32.382812 111.265625 L 32.515625 111.265625 C 35.28125 111.238281 38.261719 111.199219 41.894531 111.144531 C 42.640625 111.140625 43.148438 111.140625 43.289062 111.140625 C 43.636719 111.140625 43.90625 110.976562 43.996094 110.707031 C 44.222656 110.050781 43.371094 108.921875 41.667969 107.613281 "/></g><g clip-rule="nonzero" clip-path="url(#d255514b64)"><path style=" stroke:none;fill-rule:nonzero;fill:#ffffff;fill-opacity:1;" d="M 70.253906 43.46875 L 70.460938 43.46875 L 70.460938 42.015625 C 66.359375 42.011719 62.253906 42.007812 58.148438 41.996094 L 58.082031 41.722656 C 58.585938 41.476562 58.898438 40.980469 58.898438 40.421875 L 58.898438 36.652344 C 58.898438 36.289062 58.761719 35.9375 58.511719 35.671875 L 58.371094 35.523438 L 58.558594 35.4375 C 58.765625 35.347656 58.898438 35.140625 58.898438 34.914062 L 58.898438 34.625 C 58.898438 34.421875 58.792969 34.238281 58.621094 34.132812 L 58.5 34.0625 L 59.179688 32.8125 L 59.195312 32.753906 L 60.777344 30.75 L 59.390625 30.042969 L 58.753906 32.449219 L 58.722656 32.476562 C 58.695312 32.5 58.679688 32.519531 58.667969 32.539062 L 58.304688 33.207031 L 58.035156 33.121094 L 58.21875 31.773438 C 58.21875 31.761719 58.214844 31.746094 58.214844 31.734375 L 58.222656 31.660156 L 58.230469 31.652344 C 58.453125 30.28125 58.222656 29.796875 58.222656 29.792969 C 57.824219 30.253906 57.714844 31.25 57.691406 31.542969 L 57.691406 31.574219 L 57.675781 31.601562 C 57.660156 31.632812 57.648438 31.664062 57.644531 31.695312 L 57.320312 34.042969 L 54.902344 34.042969 L 54.132812 32.246094 C 54.09375 32.152344 53.992188 32.089844 53.886719 32.089844 C 53.871094 32.089844 53.855469 32.089844 53.839844 32.09375 L 53.730469 32.113281 L 53.683594 32.007812 C 53.660156 31.960938 53.640625 31.910156 53.625 31.867188 C 53.453125 31.445312 53.351562 31.191406 52.882812 30.804688 C 52.832031 30.757812 52.785156 30.703125 52.742188 30.640625 C 52.785156 30.703125 52.832031 30.757812 52.882812 30.804688 C 53.347656 31.1875 53.449219 31.445312 53.621094 31.867188 L 53.640625 31.910156 C 53.65625 31.949219 53.675781 31.992188 53.691406 32.035156 L 53.722656 32.121094 L 53.65625 32.1875 C 53.628906 32.214844 53.609375 32.246094 53.597656 32.273438 C 53.570312 32.339844 53.570312 32.410156 53.597656 32.472656 L 54.269531 34.042969 L 53.382812 34.042969 C 53.0625 34.042969 52.804688 34.304688 52.804688 34.625 L 52.804688 34.914062 C 52.804688 35.140625 52.9375 35.347656 53.144531 35.4375 L 53.328125 35.523438 L 53.191406 35.671875 C 52.941406 35.9375 52.804688 36.289062 52.804688 36.652344 L 52.804688 40.421875 C 52.804688 40.96875 53.109375 41.464844 53.601562 41.71875 L 53.539062 41.992188 C 52.714844 41.988281 51.886719 41.988281 51.0625 41.988281 L 50.886719 41.988281 C 49.636719 41.984375 48.386719 41.984375 47.140625 41.984375 L 47 41.984375 L 46.996094 41.839844 C 46.988281 41.410156 46.613281 41.003906 46.226562 41.003906 L 42.546875 41.003906 C 42.160156 41.003906 41.789062 41.40625 41.777344 41.832031 L 41.757812 41.972656 L 41.613281 41.972656 C 38.488281 41.96875 35.367188 41.960938 32.246094 41.957031 L 32.238281 41.960938 L 32.238281 43.410156 C 33.605469 43.410156 34.96875 43.410156 36.332031 43.414062 L 36.699219 43.414062 L 35.96875 54.90625 L 35.984375 54.628906 L 66.71875 54.628906 L 66.007812 43.460938 L 66.164062 43.460938 C 67.527344 43.460938 68.890625 43.464844 70.253906 43.46875 "/></g><path style=" stroke:none;fill-rule:nonzero;fill:#ffffff;fill-opacity:1;" d="M 52.488281 29.402344 C 52.492188 29.496094 52.492188 29.59375 52.5 29.691406 C 52.492188 29.59375 52.492188 29.5 52.488281 29.402344 "/><path style=" stroke:none;fill-rule:nonzero;fill:#ffffff;fill-opacity:1;" d="M 52.488281 29.308594 C 52.492188 29.214844 52.492188 29.121094 52.5 29.03125 C 52.496094 29.113281 52.492188 29.207031 52.488281 29.308594 "/><path style=" stroke:none;fill-rule:nonzero;fill:#100f0d;fill-opacity:1;" d="M 34.816406 28.820312 L 34.964844 29.074219 Z M 34.816406 28.820312 "/><path style=" stroke:none;fill-rule:nonzero;fill:#100f0d;fill-opacity:1;" d="M 20.652344 15.65625 C 20.574219 15.488281 20.324219 15.632812 20.402344 15.800781 C 20.8125 16.667969 22.03125 16.914062 22.878906 16.632812 C 23.054688 16.574219 22.980469 16.292969 22.800781 16.351562 C 22.070312 16.59375 21.007812 16.410156 20.652344 15.65625 "/><path style=" stroke:none;fill-rule:nonzero;fill:#100f0d;fill-opacity:1;" d="M 20.359375 9.804688 C 20.472656 9.785156 20.578125 9.738281 20.691406 9.707031 C 20.886719 9.648438 21.085938 9.652344 21.285156 9.679688 C 21.445312 9.703125 21.609375 9.722656 21.765625 9.769531 C 21.898438 9.808594 22.027344 9.871094 22.164062 9.875 C 22.226562 9.878906 22.296875 9.863281 22.34375 9.808594 C 22.503906 9.636719 22.050781 9.386719 21.972656 9.34375 C 21.59375 9.148438 21.15625 9.109375 20.746094 9.234375 C 20.621094 9.273438 20.03125 9.484375 20.128906 9.746094 C 20.164062 9.839844 20.289062 9.820312 20.359375 9.804688 "/><path style=" stroke:none;fill-rule:nonzero;fill:#100f0d;fill-opacity:1;" d="M 25.660156 11.824219 C 25.664062 12.179688 25.480469 12.46875 25.257812 12.46875 C 25.035156 12.472656 24.847656 12.183594 24.847656 11.828125 C 24.847656 11.472656 25.027344 11.183594 25.25 11.179688 C 25.476562 11.179688 25.65625 11.46875 25.660156 11.824219 "/><path style=" stroke:none;fill-rule:nonzero;fill:#100f0d;fill-opacity:1;" d="M 21.703125 11.273438 C 21.703125 11.628906 21.523438 11.917969 21.300781 11.921875 C 21.074219 11.921875 20.890625 11.632812 20.890625 11.277344 C 20.886719 10.921875 21.066406 10.632812 21.292969 10.628906 C 21.515625 10.628906 21.699219 10.917969 21.703125 11.273438 "/><path style=" stroke:none;fill-rule:nonzero;fill:#100f0d;fill-opacity:1;" d="M 23.082031 15.144531 C 24.789062 14.726562 23.820312 12.953125 23.535156 11.679688 C 23.496094 11.507812 23.46875 11.347656 23.464844 11.203125 C 23.457031 11.015625 23.164062 11.015625 23.171875 11.203125 C 23.183594 11.445312 23.21875 11.679688 23.265625 11.914062 C 23.351562 12.339844 23.476562 12.753906 23.605469 13.175781 C 23.84375 13.925781 23.976562 14.628906 23.007812 14.867188 C 22.824219 14.910156 22.902344 15.1875 23.082031 15.144531 "/><g clip-rule="nonzero" clip-path="url(#dff4c03a3e)"><path style=" stroke:none;fill-rule:nonzero;fill:#100f0d;fill-opacity:1;" d="M 70.316406 43.320312 L 70.300781 43.320312 C 69.992188 43.320312 69.679688 43.320312 69.371094 43.320312 C 68.058594 43.320312 66.746094 43.316406 65.4375 43.3125 C 61.128906 43.308594 56.816406 43.300781 52.511719 43.292969 C 45.804688 43.285156 39.09375 43.273438 32.386719 43.265625 L 32.386719 42.105469 C 38.804688 42.113281 45.222656 42.125 51.640625 42.132812 C 56.03125 42.140625 60.421875 42.148438 64.8125 42.152344 C 66.21875 42.15625 67.625 42.15625 69.035156 42.160156 C 69.40625 42.160156 69.78125 42.164062 70.152344 42.164062 L 70.316406 42.164062 Z M 66.5625 54.484375 L 36.136719 54.484375 L 36.835938 43.558594 C 41.769531 43.570312 46.707031 43.574219 51.640625 43.582031 C 56.386719 43.589844 61.128906 43.597656 65.875 43.605469 Z M 69.257812 96.820312 L 37.5 96.820312 C 37.46875 94.425781 37.433594 92.039062 37.402344 89.644531 C 38.1875 89.378906 38.917969 89.011719 39.492188 88.484375 C 40.855469 87.234375 40.710938 84.921875 40.550781 83.261719 C 40.433594 82.03125 40.265625 80.789062 40.066406 79.566406 C 39.988281 79.089844 39.898438 78.617188 39.804688 78.140625 C 41.171875 77.710938 42.496094 77.15625 43.734375 76.453125 C 43.738281 76.449219 43.742188 76.445312 43.746094 76.441406 C 43.796875 76.414062 43.828125 76.363281 43.800781 76.289062 C 42.558594 73.304688 41.691406 70.183594 40.6875 67.113281 C 39.679688 64.042969 38.28125 61.195312 36.972656 58.246094 C 36.648438 57.511719 36.339844 56.773438 36.039062 56.035156 L 36.121094 54.777344 L 66.585938 54.777344 Z M 37.832031 105.484375 C 37.140625 105.582031 35.804688 105.953125 34.632812 107.40625 C 34.136719 108.015625 33.941406 108.488281 33.871094 108.695312 C 33.230469 108.660156 32.917969 108.332031 32.730469 108.035156 L 32.890625 105.539062 C 33.394531 105.527344 33.902344 105.523438 34.40625 105.515625 C 34.421875 105.515625 34.4375 105.507812 34.449219 105.503906 L 35.1875 105.503906 C 35.605469 105.503906 35.9375 105.3125 36.050781 104.984375 C 36.304688 104.238281 35.441406 103.0625 33.625 101.664062 C 33.496094 101.566406 33.335938 101.453125 33.15625 101.335938 L 33.429688 97.085938 C 33.449219 97.097656 33.472656 97.109375 33.503906 97.109375 L 37.210938 97.109375 C 37.25 99.777344 37.285156 102.449219 37.320312 105.121094 C 37.320312 105.167969 37.34375 105.21875 37.390625 105.246094 C 37.539062 105.324219 37.683594 105.402344 37.832031 105.484375 Z M 36.820312 107.152344 C 36.925781 106.855469 37.078125 106.785156 37.289062 106.890625 C 37.476562 106.980469 37.539062 107.125 37.371094 107.425781 C 37.175781 107.328125 36.996094 107.242188 36.820312 107.152344 Z M 36.863281 108.609375 C 36.800781 108.722656 36.71875 108.902344 36.628906 108.910156 C 36.417969 108.929688 36.355469 108.753906 36.382812 108.511719 C 36.507812 108.476562 36.640625 108.445312 36.78125 108.410156 C 36.820312 108.496094 36.882812 108.578125 36.863281 108.609375 Z M 43.660156 110.445312 C 43.738281 110.445312 43.804688 110.511719 43.804688 110.59375 C 43.804688 110.671875 43.738281 110.738281 43.660156 110.738281 L 32.558594 110.738281 L 32.578125 110.445312 Z M 40.878906 108.101562 C 40.628906 108.015625 40.417969 107.914062 40.386719 107.585938 C 40.832031 107.628906 40.832031 107.628906 40.878906 108.101562 Z M 32.46875 107.570312 C 32.277344 107.207031 32.074219 106.835938 31.75 106.550781 C 31.097656 105.988281 30.777344 105.898438 29.945312 105.757812 L 29.820312 105.738281 C 29.507812 105.6875 29.195312 105.636719 28.878906 105.59375 C 29.714844 105.585938 30.546875 105.570312 31.382812 105.5625 C 31.789062 105.554688 32.195312 105.550781 32.597656 105.539062 Z M 32.230469 103.378906 C 32.183594 103.308594 32.125 103.21875 32.050781 103.101562 C 31.941406 103.175781 31.832031 103.253906 31.6875 103.355469 C 31.613281 103.214844 31.558594 103.109375 31.460938 102.917969 C 31.824219 102.769531 32.144531 102.640625 32.492188 102.5 C 32.582031 102.679688 32.648438 102.8125 32.742188 103.003906 C 32.566406 103.132812 32.449219 103.222656 32.230469 103.378906 Z M 30.847656 101.6875 L 30.898438 101.539062 C 30.988281 101.574219 31.070312 101.609375 31.160156 101.644531 C 31.007812 101.96875 30.933594 101.792969 30.847656 101.6875 Z M 26.355469 101.570312 C 25.855469 102.191406 25.652344 102.671875 25.582031 102.882812 C 24.742188 102.84375 24.457031 102.308594 24.28125 101.984375 L 24.164062 101.769531 C 23.960938 101.390625 23.753906 101 23.410156 100.699219 C 22.75 100.125 22.421875 100.03125 21.574219 99.890625 L 21.445312 99.867188 C 20.921875 99.78125 20.386719 99.695312 19.839844 99.660156 C 20.210938 96.140625 20.488281 92.609375 20.832031 89.089844 C 22.824219 90.003906 25.191406 90.199219 27.328125 90.414062 C 28.921875 90.574219 30.535156 90.621094 32.132812 90.527344 C 31.234375 93.441406 30.351562 96.363281 29.121094 99.160156 C 29.089844 99.230469 29.097656 99.316406 29.171875 99.359375 C 29.324219 99.441406 29.476562 99.523438 29.632812 99.609375 C 28.925781 99.703125 27.558594 100.085938 26.355469 101.570312 Z M 25.167969 103.546875 C 25.335938 103.574219 25.445312 103.59375 25.664062 103.625 C 25.410156 103.863281 25.285156 103.929688 25.167969 103.546875 Z M 23.996094 103.449219 C 23.84375 103.246094 23.75 103.121094 23.582031 102.898438 C 23.960938 102.941406 24.09375 103.027344 23.996094 103.449219 Z M 20.480469 103.6875 C 20.347656 103.625 20.210938 103.558594 20.023438 103.46875 C 20.128906 103.390625 20.1875 103.316406 20.210938 103.332031 C 20.335938 103.382812 20.449219 103.457031 20.566406 103.523438 C 20.539062 103.582031 20.507812 103.636719 20.480469 103.6875 Z M 18.460938 86.957031 C 16.496094 84.691406 16.804688 81.304688 16.996094 78.535156 C 17.164062 76.066406 17.710938 73.472656 16.402344 71.21875 C 15.421875 69.527344 13.65625 68.460938 11.957031 67.609375 C 8.589844 65.921875 3.410156 64.609375 3.035156 60.121094 C 2.65625 55.605469 2.839844 51.117188 3.378906 46.652344 C 6.925781 46.417969 10.421875 44.402344 12.953125 41.933594 C 12.96875 43.496094 13.015625 45.0625 13.074219 46.625 C 13.171875 49.09375 13.238281 51.625 13.710938 54.058594 C 14.347656 57.304688 16.125 60.308594 17.945312 63.019531 C 19.964844 66.011719 22.242188 68.816406 24.078125 71.929688 C 25.324219 74.03125 26.332031 76.300781 26.878906 78.683594 C 26.882812 78.691406 26.886719 78.699219 26.886719 78.703125 C 26.890625 78.710938 26.894531 78.714844 26.898438 78.722656 C 26.90625 78.738281 26.914062 78.746094 26.921875 78.757812 C 26.925781 78.757812 26.925781 78.761719 26.929688 78.761719 C 26.941406 78.773438 26.957031 78.777344 26.972656 78.78125 C 26.976562 78.78125 26.976562 78.785156 26.980469 78.789062 C 29.351562 79.417969 31.835938 79.476562 34.273438 79.234375 L 33.582031 90.113281 C 31.886719 90.316406 30.164062 90.320312 28.457031 90.214844 C 27.257812 90.144531 26.0625 89.992188 24.875 89.804688 C 23.90625 89.652344 22.738281 89.578125 21.832031 89.210938 C 20.546875 88.691406 19.375 88.011719 18.460938 86.957031 Z M 3.902344 68.402344 C 1.976562 68.402344 0.378906 67.296875 0.34375 65.9375 C 0.328125 65.429688 0.535156 64.941406 0.945312 64.523438 C 1.582031 63.867188 2.636719 63.472656 3.757812 63.472656 L 4.167969 63.472656 C 4.738281 64.113281 5.433594 64.652344 6.164062 65.109375 C 8.171875 66.363281 10.777344 67.144531 12.949219 68.402344 Z M 4.230469 41.050781 C 4.78125 38.019531 5.617188 35.042969 6.136719 32.015625 C 6.25 31.347656 6.34375 30.675781 6.4375 30.007812 C 6.472656 30.214844 6.515625 30.421875 6.558594 30.632812 C 6.917969 32.261719 7.523438 33.921875 8.523438 36.023438 L 8.671875 36.339844 C 9.300781 37.664062 9.945312 39.03125 10.925781 40.117188 C 11.464844 40.714844 12.113281 41.21875 12.847656 41.628906 C 10.375 44.074219 6.914062 46.113281 3.417969 46.359375 C 3.636719 44.582031 3.914062 42.816406 4.230469 41.050781 Z M 8.589844 22.308594 C 9.015625 21.898438 10.035156 21.203125 10.441406 21.15625 C 10.667969 21.128906 10.71875 21.140625 10.789062 21.15625 C 10.820312 21.167969 10.859375 21.179688 10.90625 21.183594 C 12.929688 21.507812 13.839844 23.925781 14.351562 25.71875 C 14.480469 26.179688 14.605469 26.644531 14.730469 27.105469 C 15.277344 29.117188 15.839844 31.195312 16.890625 33.09375 C 17.167969 33.601562 17.441406 34.035156 17.71875 34.417969 C 17.742188 34.441406 17.765625 34.464844 17.796875 34.472656 C 19.191406 34.859375 20.890625 34.144531 22.015625 33.675781 L 22.507812 33.476562 C 26.640625 31.824219 30.546875 30.257812 33.855469 27.195312 C 33.859375 27.1875 33.867188 27.1875 33.871094 27.179688 C 33.875 27.175781 33.875 27.175781 33.878906 27.175781 C 33.878906 27.171875 33.878906 27.167969 33.882812 27.164062 C 33.890625 27.152344 33.898438 27.144531 33.90625 27.132812 C 33.910156 27.128906 33.914062 27.121094 33.914062 27.113281 C 33.914062 27.109375 33.921875 27.101562 33.921875 27.09375 L 33.933594 27.023438 C 34.023438 26.664062 34.207031 26.3125 34.464844 26.003906 C 34.871094 25.53125 35.445312 25.082031 36.21875 24.636719 C 36.589844 24.421875 36.894531 24.234375 37.179688 24.042969 C 37.5 23.824219 37.773438 23.738281 37.898438 23.820312 C 37.992188 23.882812 38.003906 23.941406 38.003906 23.984375 C 38.003906 24.144531 37.816406 24.527344 36.601562 25.308594 L 36.539062 25.351562 C 36.53125 25.351562 36.53125 25.363281 36.523438 25.363281 C 36.515625 25.375 36.507812 25.378906 36.5 25.386719 C 36.496094 25.394531 36.492188 25.402344 36.488281 25.410156 C 36.488281 25.417969 36.480469 25.429688 36.476562 25.4375 L 36.476562 25.464844 C 36.476562 25.472656 36.476562 25.480469 36.476562 25.492188 C 36.476562 25.5 36.480469 25.511719 36.484375 25.515625 C 36.488281 25.523438 36.488281 25.53125 36.492188 25.542969 C 36.492188 25.546875 36.496094 25.546875 36.496094 25.546875 C 36.5 25.546875 36.5 25.546875 36.5 25.550781 C 36.5 25.554688 36.507812 25.558594 36.511719 25.566406 C 36.523438 25.574219 36.527344 25.582031 36.535156 25.589844 C 36.542969 25.59375 36.550781 25.597656 36.558594 25.601562 C 36.566406 25.601562 36.578125 25.609375 36.585938 25.613281 C 36.59375 25.613281 36.605469 25.613281 36.613281 25.613281 L 36.640625 25.613281 C 36.648438 25.613281 36.660156 25.609375 36.671875 25.601562 C 36.675781 25.601562 36.683594 25.601562 36.691406 25.597656 C 37.207031 25.304688 37.808594 24.875 38.390625 24.460938 C 38.890625 24.105469 39.363281 23.765625 39.78125 23.511719 C 40.121094 23.304688 40.285156 23.289062 40.363281 23.3125 C 40.386719 23.320312 40.417969 23.332031 40.441406 23.386719 C 40.550781 23.605469 40.304688 23.921875 40.226562 24.011719 C 40.136719 24.117188 40.039062 24.21875 39.941406 24.316406 C 39.753906 24.472656 39.570312 24.632812 39.394531 24.785156 L 39.289062 24.878906 C 38.992188 25.101562 38.695312 25.300781 38.414062 25.488281 C 38.351562 25.527344 38.289062 25.566406 38.226562 25.605469 C 38.070312 25.703125 37.90625 25.804688 37.761719 25.921875 C 37.695312 25.972656 37.6875 26.0625 37.738281 26.125 C 37.765625 26.164062 37.808594 26.179688 37.851562 26.179688 C 37.882812 26.179688 37.914062 26.167969 37.941406 26.148438 C 38.074219 26.039062 38.230469 25.945312 38.378906 25.851562 C 38.445312 25.8125 38.511719 25.769531 38.574219 25.730469 C 38.855469 25.542969 39.152344 25.339844 39.445312 25.117188 C 39.453125 25.117188 39.457031 25.117188 39.464844 25.109375 L 39.480469 25.09375 C 39.695312 24.929688 39.898438 24.753906 40.097656 24.566406 C 40.316406 24.382812 40.535156 24.203125 40.761719 24.035156 C 40.925781 23.910156 41.128906 23.9375 41.253906 24.074219 C 41.382812 24.277344 41.308594 24.527344 41.023438 24.824219 C 40.859375 25.015625 40.675781 25.203125 40.472656 25.386719 C 39.875 25.929688 39.148438 26.417969 38.53125 26.828125 C 38.464844 26.871094 38.449219 26.960938 38.492188 27.027344 C 38.519531 27.070312 38.566406 27.09375 38.613281 27.09375 C 38.640625 27.09375 38.667969 27.085938 38.695312 27.066406 C 39.320312 26.648438 40.0625 26.152344 40.675781 25.589844 C 40.910156 25.402344 41.070312 25.246094 41.195312 25.121094 C 41.292969 25.023438 41.378906 24.9375 41.472656 24.863281 C 41.570312 24.785156 41.664062 24.78125 41.714844 24.800781 C 41.773438 24.824219 41.792969 24.878906 41.796875 24.917969 C 41.828125 25.152344 41.644531 25.367188 41.46875 25.574219 C 41.421875 25.628906 41.378906 25.679688 41.34375 25.722656 C 40.417969 26.78125 39.558594 27.492188 38.789062 27.835938 C 38.71875 27.867188 38.6875 27.953125 38.71875 28.027344 C 38.742188 28.078125 38.796875 28.109375 38.851562 28.109375 C 38.871094 28.109375 38.890625 28.109375 38.910156 28.101562 C 39.519531 27.828125 40.15625 27.363281 40.84375 26.683594 C 40.996094 26.523438 41.148438 26.441406 41.285156 26.441406 C 41.300781 26.441406 41.316406 26.441406 41.332031 26.445312 C 41.453125 26.460938 41.539062 26.542969 41.578125 26.613281 C 41.625 26.707031 41.472656 26.9375 41.335938 27.070312 C 40.484375 28.109375 39.070312 28.910156 39.046875 28.925781 C 39.039062 28.933594 38.476562 29.308594 38.140625 29.425781 C 37.121094 29.707031 36.675781 29.785156 35.671875 29.890625 C 35.660156 29.890625 35.648438 29.894531 35.636719 29.898438 L 35.507812 29.945312 C 35.503906 29.949219 35.5 29.953125 35.496094 29.953125 C 35.492188 29.957031 35.492188 29.957031 35.488281 29.957031 C 35.46875 29.96875 35.449219 29.988281 35.4375 30.007812 C 31.789062 35.960938 24.84375 42.816406 17.300781 42.535156 C 14.738281 42.410156 12.550781 41.484375 11.140625 39.921875 C 10.191406 38.867188 9.550781 37.519531 8.9375 36.214844 L 8.78125 35.894531 C 7.796875 33.820312 7.195312 32.175781 6.84375 30.570312 C 6.09375 27.167969 6.746094 24.082031 8.589844 22.308594 Z M 11.265625 20.953125 C 11.558594 20.921875 11.894531 20.9375 12.25 20.953125 C 12.730469 20.972656 13.222656 20.992188 13.660156 20.902344 C 14.390625 21.554688 14.914062 22.359375 15.289062 23.25 C 16.164062 25.359375 16.175781 27.953125 15.925781 30.144531 C 15.582031 29.136719 15.296875 28.097656 15.011719 27.03125 C 14.886719 26.566406 14.757812 26.101562 14.628906 25.640625 C 14.410156 24.871094 14.117188 23.996094 13.699219 23.203125 C 13.144531 22.148438 12.363281 21.253906 11.226562 20.960938 C 11.238281 20.960938 11.253906 20.953125 11.265625 20.953125 Z M 14.226562 20.695312 C 15.441406 21.292969 16.195312 22.414062 17.136719 23.308594 C 17.683594 23.832031 18.292969 24.277344 19.09375 24.492188 C 20.039062 24.746094 20.90625 24.214844 21.363281 23.441406 C 21.699219 22.871094 21.808594 22.167969 21.550781 21.546875 C 21.527344 21.492188 21.5 21.441406 21.472656 21.390625 C 21.5 21.441406 21.527344 21.492188 21.550781 21.546875 C 21.71875 21.609375 21.894531 21.652344 22.066406 21.691406 C 22.078125 21.695312 22.082031 21.695312 22.089844 21.699219 C 22.425781 22.273438 22.78125 22.835938 23.066406 23.441406 C 23.074219 23.460938 23.082031 23.476562 23.089844 23.496094 C 23.609375 24.621094 23.917969 25.839844 24.175781 27.046875 C 21.585938 26.523438 18.9375 26.503906 16.304688 26.503906 C 16.21875 25.382812 16.007812 24.273438 15.605469 23.261719 C 15.242188 22.335938 14.710938 21.496094 13.976562 20.808594 C 14.066406 20.777344 14.144531 20.742188 14.226562 20.695312 Z M 14.179688 20.398438 C 14.113281 20.425781 14.066406 20.5 14.078125 20.566406 C 14.066406 20.5 14.113281 20.425781 14.179688 20.398438 Z M 14.496094 20.507812 C 15.386719 19.789062 15.492188 18.558594 15.582031 17.46875 C 15.59375 17.265625 15.617188 17.066406 15.636719 16.871094 C 15.960938 16.929688 16.292969 16.9375 16.613281 16.871094 C 17.390625 16.703125 17.367188 15.835938 17.199219 15.25 C 17.015625 14.601562 16.808594 13.976562 16.65625 13.324219 C 16.644531 13.269531 16.632812 13.214844 16.617188 13.160156 C 16.601562 13.089844 16.554688 13.054688 16.5 13.054688 C 16.492188 13.050781 16.484375 13.046875 16.472656 13.046875 C 16.148438 13.023438 15.773438 12.8125 15.617188 12.574219 C 15.332031 12.132812 15.367188 11.457031 15.707031 10.933594 C 15.996094 10.488281 16.417969 10.269531 16.863281 10.320312 C 16.878906 10.335938 16.902344 10.351562 16.933594 10.359375 C 16.984375 10.363281 17.03125 10.367188 17.082031 10.375 C 18.675781 10.570312 19.804688 9.71875 20.464844 8.265625 C 21.003906 7.089844 22.144531 4.507812 23.816406 5.171875 C 25.488281 5.578125 26.214844 7.507812 26.214844 9.082031 L 26.214844 9.191406 C 26.214844 9.195312 26.214844 9.195312 26.214844 9.199219 C 26.21875 9.230469 26.21875 9.269531 26.222656 9.304688 C 26.246094 9.523438 26.257812 9.746094 26.265625 9.972656 C 26.378906 10.066406 26.546875 10.226562 26.449219 10.359375 C 26.429688 10.386719 26.40625 10.402344 26.382812 10.414062 C 26.40625 10.402344 26.429688 10.386719 26.449219 10.359375 C 26.542969 10.226562 26.378906 10.0625 26.265625 9.972656 C 26.222656 9.941406 26.1875 9.917969 26.171875 9.90625 C 26.03125 9.816406 25.878906 9.761719 25.71875 9.75 C 25.554688 9.734375 25.390625 9.761719 25.226562 9.832031 C 25.128906 9.875 24.664062 10.101562 24.730469 10.359375 C 24.757812 10.453125 24.855469 10.425781 24.90625 10.410156 C 24.945312 10.402344 24.980469 10.386719 25.015625 10.371094 C 25.066406 10.347656 25.117188 10.324219 25.167969 10.304688 C 25.324219 10.238281 25.480469 10.238281 25.628906 10.261719 C 25.753906 10.277344 25.878906 10.292969 26 10.335938 C 26.089844 10.367188 26.171875 10.414062 26.265625 10.425781 C 26.238281 11.902344 25.90625 13.566406 25.253906 15.484375 C 24.933594 16.4375 24.433594 17.265625 23.816406 17.878906 C 23.125 18.566406 22.308594 19.042969 21.464844 19.25 C 20.644531 19.453125 18.421875 19.253906 17.167969 17.332031 C 17.164062 17.324219 17.15625 17.320312 17.15625 17.316406 C 17.105469 17.261719 17.03125 17.25 16.96875 17.285156 C 16.898438 17.332031 16.882812 17.421875 16.925781 17.488281 C 17.707031 18.691406 18.851562 19.257812 19.84375 19.480469 C 20.03125 19.519531 20.210938 19.550781 20.382812 19.570312 C 20.210938 19.550781 20.03125 19.523438 19.84375 19.480469 C 19.867188 19.550781 19.886719 19.625 19.917969 19.691406 C 20.023438 19.929688 20.257812 20.304688 20.539062 20.496094 C 20.5625 20.511719 20.589844 20.527344 20.617188 20.539062 C 20.617188 20.539062 20.617188 20.539062 20.621094 20.539062 C 20.625 20.730469 20.675781 20.917969 20.820312 21.078125 C 20.898438 21.167969 20.988281 21.242188 21.082031 21.308594 C 21.074219 21.300781 21.070312 21.292969 21.066406 21.285156 C 20.96875 21.152344 21.148438 21.027344 21.269531 21.09375 C 21.148438 21.027344 20.96875 21.152344 21.066406 21.285156 C 21.070312 21.292969 21.078125 21.300781 21.082031 21.308594 C 21.535156 21.933594 21.425781 22.78125 21.023438 23.429688 C 20.855469 23.703125 20.636719 23.941406 20.382812 24.113281 C 19.527344 24.683594 18.195312 23.921875 17.535156 23.367188 C 17.519531 23.351562 17.5 23.335938 17.484375 23.320312 C 16.433594 22.417969 15.738281 21.175781 14.496094 20.507812 C 14.441406 20.476562 14.382812 20.445312 14.324219 20.417969 C 14.382812 20.445312 14.441406 20.476562 14.496094 20.507812 Z M 14.632812 16.15625 C 14.007812 15.75 13.449219 15.085938 13.324219 14.339844 C 13.324219 14.335938 13.324219 14.332031 13.320312 14.332031 C 13.308594 14.253906 13.246094 14.226562 13.1875 14.234375 C 13.140625 14.234375 13.089844 14.25 13.0625 14.300781 C 12.648438 14.984375 11.964844 14.738281 11.695312 14.121094 C 11.480469 13.648438 11.285156 13.167969 11.097656 12.683594 C 10.75 11.785156 10.5 10.859375 10.40625 9.898438 C 10.207031 7.921875 10.8125 6.121094 11.921875 4.507812 C 13.640625 2.011719 16.957031 0.648438 19.929688 0.804688 C 21.101562 0.867188 22.027344 1.382812 23.082031 1.785156 C 23.90625 2.101562 24.820312 2.339844 25.511719 2.902344 C 27.339844 4.40625 27.898438 7.828125 26.550781 9.792969 C 26.539062 9.582031 26.523438 9.382812 26.503906 9.183594 L 26.503906 9.179688 C 26.539062 7.460938 25.726562 5.335938 23.890625 4.894531 C 23.683594 4.8125 23.484375 4.777344 23.292969 4.777344 C 22.246094 4.777344 21.445312 5.878906 20.933594 6.726562 C 20.535156 7.378906 20.269531 8.097656 19.886719 8.761719 C 19.269531 9.820312 18.203125 10.269531 17.011719 10.078125 C 16.984375 10.074219 16.957031 10.078125 16.9375 10.085938 L 16.933594 10.085938 C 16.382812 10 15.847656 10.269531 15.503906 10.800781 C 15.109375 11.414062 15.074219 12.179688 15.414062 12.707031 C 15.46875 12.789062 15.539062 12.867188 15.625 12.9375 C 15.820312 13.105469 16.085938 13.226562 16.347656 13.269531 C 16.53125 14.128906 16.953125 15.015625 17.027344 15.882812 C 17.152344 17.25 15.101562 16.457031 14.632812 16.15625 Z M 20.886719 19.910156 L 20.769531 20.605469 Z M 20.941406 19.597656 C 20.933594 19.597656 20.929688 19.597656 20.921875 19.597656 C 20.929688 19.597656 20.933594 19.597656 20.941406 19.597656 Z M 19.09375 28.34375 C 19.117188 28.210938 19.132812 28.113281 19.167969 27.921875 C 19.3125 28.066406 19.398438 28.15625 19.488281 28.242188 C 19.464844 28.285156 19.4375 28.328125 19.414062 28.371094 C 19.320312 28.363281 19.230469 28.355469 19.09375 28.34375 Z M 17.023438 30.769531 C 17.46875 30.8125 17.46875 30.8125 17.515625 31.28125 C 17.265625 31.195312 17.054688 31.097656 17.023438 30.769531 Z M 25.945312 23.449219 C 25.945312 23.449219 25.945312 23.449219 25.941406 23.449219 C 25.945312 23.449219 25.945312 23.449219 25.945312 23.449219 Z M 22.644531 21.804688 C 23.445312 21.964844 24.160156 22.121094 24.796875 22.363281 C 24.921875 22.457031 25.414062 22.867188 25.804688 23.578125 L 25.835938 23.578125 C 25.839844 23.519531 25.886719 23.46875 25.941406 23.449219 C 25.886719 23.46875 25.839844 23.519531 25.835938 23.578125 C 25.835938 23.605469 25.835938 23.628906 25.851562 23.65625 C 26.847656 25.472656 27.578125 27.394531 28.042969 29.40625 C 28.136719 29.820312 28.214844 30.234375 28.285156 30.648438 C 27.863281 30.863281 27.433594 31.070312 27 31.273438 C 25.898438 30.085938 25.191406 28.632812 24.496094 27.183594 C 24.242188 25.925781 23.917969 24.683594 23.410156 23.503906 C 23.398438 23.476562 23.386719 23.453125 23.375 23.425781 C 23.121094 22.847656 22.792969 22.316406 22.46875 21.773438 Z M 25.714844 22.816406 L 25.746094 22.835938 C 26.457031 23.292969 28.351562 24.507812 30.085938 26.480469 C 30.539062 26.992188 31.191406 27.839844 31.734375 28.5625 C 30.714844 29.300781 29.65625 29.933594 28.550781 30.507812 C 28.121094 28.066406 27.304688 25.710938 26.105469 23.519531 C 26.105469 23.515625 26.105469 23.515625 26.105469 23.515625 C 26.105469 23.515625 26.101562 23.511719 26.101562 23.511719 C 26.085938 23.484375 26.066406 23.46875 26.046875 23.457031 C 26.066406 23.46875 26.085938 23.484375 26.101562 23.507812 C 25.9375 23.203125 25.757812 22.949219 25.585938 22.742188 C 25.628906 22.769531 25.675781 22.789062 25.714844 22.816406 Z M 41.796875 19.410156 C 41.75 19.523438 41.738281 19.613281 41.699219 19.628906 C 41.460938 19.722656 41.359375 19.570312 41.367188 19.234375 C 41.503906 19.289062 41.640625 19.34375 41.796875 19.410156 Z M 42.246094 29.257812 Z M 42.375 31.464844 C 42.175781 31.257812 42.078125 31.160156 41.929688 31.003906 C 42.109375 30.949219 42.199219 30.921875 42.351562 30.875 C 42.359375 31.050781 42.363281 31.179688 42.375 31.464844 Z M 42.84375 22.246094 C 43.058594 22.476562 42.96875 22.644531 42.867188 22.898438 C 42.679688 22.644531 42.664062 22.472656 42.84375 22.246094 Z M 43.046875 21.230469 C 43.148438 21.292969 43.253906 21.328125 43.308594 21.40625 C 43.34375 21.457031 43.308594 21.5625 43.304688 21.652344 C 43.035156 21.59375 43.035156 21.59375 43.046875 21.230469 Z M 44.492188 26.253906 C 43.992188 26.351562 43.992188 26.351562 43.960938 25.894531 C 44.285156 25.945312 44.285156 25.945312 44.492188 26.253906 Z M 32.039062 57.21875 C 32.082031 57.261719 32.125 57.300781 32.164062 57.339844 C 32.054688 57.488281 31.945312 57.628906 31.832031 57.773438 C 31.613281 57.308594 31.839844 57.277344 32.039062 57.21875 Z M 39.863281 30.722656 C 39.660156 30.777344 39.574219 30.800781 39.449219 30.835938 C 39.425781 30.667969 39.40625 30.539062 39.386719 30.410156 C 39.445312 30.402344 39.507812 30.394531 39.566406 30.386719 C 39.648438 30.476562 39.738281 30.578125 39.863281 30.722656 Z M 41.363281 30.375 C 41.273438 30.351562 41.21875 30.320312 41.179688 30.285156 C 41.234375 30.28125 41.292969 30.277344 41.347656 30.269531 C 41.355469 30.304688 41.355469 30.335938 41.363281 30.375 Z M 40.707031 28.230469 C 40.710938 28.226562 40.71875 28.222656 40.722656 28.222656 C 40.730469 28.234375 40.734375 28.246094 40.738281 28.257812 C 40.730469 28.246094 40.71875 28.238281 40.707031 28.230469 Z M 35.65625 30.203125 L 35.71875 30.179688 C 36.726562 30.066406 37.183594 29.992188 38.222656 29.699219 C 38.609375 29.574219 39.183594 29.183594 39.195312 29.171875 C 39.234375 29.152344 39.785156 28.84375 40.40625 28.359375 C 40.757812 28.660156 41.152344 28.894531 41.5625 29.050781 C 41.804688 29.144531 42.03125 29.210938 42.242188 29.257812 C 42.234375 29.347656 42.226562 29.4375 42.214844 29.53125 C 42.222656 29.503906 42.226562 29.476562 42.230469 29.449219 C 42.226562 29.476562 42.222656 29.503906 42.214844 29.53125 C 42.191406 29.601562 42.15625 29.664062 42.101562 29.710938 C 41.792969 29.972656 41.300781 29.992188 40.867188 30.011719 L 40.617188 30.027344 C 39.996094 30.050781 39.351562 30.082031 38.738281 30.238281 C 38.6875 30.25 38.636719 30.261719 38.585938 30.269531 C 38.25 30.34375 37.792969 30.441406 37.75 30.90625 C 37.671875 31.714844 38.109375 32.445312 38.492188 33.09375 L 38.597656 33.261719 C 38.898438 33.773438 39.433594 34.683594 40.125 35.617188 C 38.929688 37.433594 37.34375 38.574219 35.398438 38.996094 C 33.75 39.359375 31.917969 38.992188 29.949219 37.898438 C 29.894531 37.734375 29.84375 37.570312 29.785156 37.40625 C 29.777344 37.390625 29.773438 37.371094 29.765625 37.355469 C 32.148438 35.175781 34.171875 32.617188 35.65625 30.203125 Z M 21.035156 60.792969 C 20.863281 60.960938 20.75 61.074219 20.621094 61.199219 C 20.507812 61.097656 20.433594 61.027344 20.347656 60.949219 C 20.488281 60.632812 20.675781 60.601562 21.035156 60.792969 Z M 22.257812 56.972656 C 22.121094 57.089844 22.042969 57.15625 21.960938 57.230469 C 21.667969 57.109375 21.53125 56.949219 21.699219 56.539062 C 21.90625 56.699219 22.0625 56.820312 22.257812 56.972656 Z M 23.183594 65.136719 C 23.109375 65.445312 23.109375 65.445312 22.796875 65.335938 C 22.914062 65.273438 23.03125 65.214844 23.183594 65.136719 Z M 22.277344 47.65625 C 22.492188 47.847656 22.589844 47.933594 22.714844 48.046875 C 22.617188 48.144531 22.554688 48.210938 22.382812 48.386719 C 22.34375 48.101562 22.320312 47.960938 22.277344 47.65625 Z M 22.371094 52.425781 C 22.425781 52.421875 22.480469 52.414062 22.539062 52.410156 C 22.617188 52.554688 22.699219 52.695312 22.8125 52.894531 C 22.648438 52.957031 22.539062 53.003906 22.3125 53.09375 C 22.335938 52.804688 22.351562 52.613281 22.371094 52.425781 Z M 26.320312 58.082031 C 26.25 58.285156 26.203125 58.421875 26.140625 58.59375 C 25.8125 58.390625 25.632812 58.203125 25.894531 57.800781 C 26.039062 57.898438 26.15625 57.96875 26.320312 58.082031 Z M 26.117188 48.230469 C 26.1875 48.019531 26.234375 47.859375 26.332031 47.550781 C 26.570312 48.128906 26.570312 48.128906 26.117188 48.230469 Z M 34.957031 73.074219 C 35.261719 75.019531 35.394531 76.992188 35.410156 78.96875 C 35.316406 78.980469 35.222656 78.996094 35.128906 79.007812 C 35.125 77.476562 35.046875 75.949219 34.871094 74.433594 L 34.574219 79.070312 C 34.476562 79.082031 34.378906 79.089844 34.285156 79.097656 L 34.667969 73.003906 C 34.492188 71.917969 34.261719 70.84375 33.960938 69.785156 C 32.648438 65.195312 30.109375 61.078125 26.753906 57.699219 C 26.621094 57.566406 26.828125 57.359375 26.957031 57.496094 C 30.273438 60.832031 32.878906 64.9375 34.175781 69.480469 C 34.398438 70.265625 34.585938 71.0625 34.742188 71.863281 L 35.769531 55.738281 C 35.851562 55.9375 35.9375 56.140625 36.023438 56.339844 Z M 33.855469 90.367188 C 33.933594 90.355469 34.015625 90.347656 34.09375 90.339844 C 35.035156 90.207031 36.109375 90.046875 37.117188 89.742188 C 37.121094 89.914062 37.121094 90.089844 37.121094 90.265625 C 37.148438 92.253906 37.175781 94.238281 37.199219 96.222656 C 37.203125 96.421875 37.207031 96.621094 37.210938 96.820312 L 33.503906 96.820312 C 33.480469 96.820312 33.460938 96.820312 33.445312 96.828125 Z M 32.949219 104.648438 L 35.824219 104.648438 C 35.902344 104.648438 35.96875 104.710938 35.96875 104.792969 C 35.96875 104.875 35.902344 104.9375 35.824219 104.9375 L 32.929688 104.9375 Z M 32.878906 101.15625 C 32.234375 100.746094 31.4375 100.289062 30.878906 99.976562 C 30.398438 99.6875 29.90625 99.425781 29.429688 99.171875 C 30.652344 96.359375 31.527344 93.429688 32.433594 90.507812 C 32.8125 90.484375 33.1875 90.445312 33.5625 90.402344 Z M 36.53125 62.777344 C 36.6875 62.972656 36.792969 63.101562 36.9375 63.285156 C 36.5 63.289062 36.5 63.289062 36.53125 62.777344 Z M 39.523438 78.222656 C 39.554688 78.378906 39.585938 78.535156 39.613281 78.691406 C 40.042969 80.957031 40.480469 83.339844 40.324219 85.640625 C 40.242188 86.828125 39.820312 87.945312 38.828125 88.652344 C 37.921875 89.296875 36.699219 89.496094 35.640625 89.75 C 35.054688 89.890625 34.464844 89.996094 33.875 90.078125 L 34.566406 79.207031 C 34.757812 79.1875 34.945312 79.164062 35.132812 79.140625 C 35.136719 81.328125 35 83.515625 34.808594 85.65625 C 34.789062 85.839844 35.082031 85.839844 35.097656 85.65625 C 35.292969 83.492188 35.425781 81.292969 35.410156 79.101562 C 35.4375 79.101562 35.460938 79.097656 35.484375 79.09375 C 36.839844 78.910156 38.203125 78.621094 39.523438 78.222656 Z M 42.546875 40.859375 C 42.082031 40.859375 41.644531 41.328125 41.632812 41.828125 C 38.5 41.824219 35.371094 41.816406 32.238281 41.816406 C 32.203125 41.816406 32.171875 41.828125 32.148438 41.847656 C 32.144531 41.851562 32.140625 41.851562 32.136719 41.855469 C 32.136719 41.859375 32.136719 41.863281 32.132812 41.867188 C 32.113281 41.890625 32.09375 41.917969 32.09375 41.960938 L 32.09375 43.410156 C 32.09375 43.488281 32.160156 43.554688 32.238281 43.554688 C 33.671875 43.554688 35.109375 43.558594 36.542969 43.558594 L 35.789062 55.40625 C 33.636719 49.949219 32.058594 44.308594 30.226562 38.734375 C 30.1875 38.613281 30.148438 38.496094 30.109375 38.378906 C 30.101562 38.351562 30.09375 38.328125 30.082031 38.300781 C 31.507812 39.046875 32.863281 39.421875 34.136719 39.421875 C 34.589844 39.421875 35.03125 39.375 35.464844 39.28125 C 37.453125 38.847656 39.078125 37.695312 40.3125 35.863281 C 41.382812 37.257812 42.777344 38.640625 44.242188 38.785156 L 44.242188 40.859375 Z M 46.226562 41.148438 C 46.53125 41.148438 46.84375 41.492188 46.851562 41.835938 C 45.207031 41.832031 43.566406 41.832031 41.921875 41.828125 C 41.933594 41.460938 42.269531 41.148438 42.546875 41.148438 Z M 52.949219 40.421875 L 52.949219 36.652344 C 52.949219 36.253906 53.125 35.886719 53.4375 35.636719 L 54.796875 35.636719 L 55.6875 37.71875 L 54.078125 40.679688 C 53.972656 40.875 54.046875 41.121094 54.242188 41.226562 L 54.296875 41.257812 C 54.355469 41.289062 54.421875 41.304688 54.488281 41.304688 C 54.636719 41.304688 54.773438 41.226562 54.84375 41.09375 L 56.125 38.742188 L 56.433594 39.453125 L 56.226562 40.929688 C 56.199219 41.152344 56.351562 41.351562 56.574219 41.382812 L 56.636719 41.390625 C 56.65625 41.394531 56.671875 41.394531 56.695312 41.394531 C 56.894531 41.394531 57.066406 41.246094 57.089844 41.046875 L 57.097656 41.007812 L 57.144531 41.117188 C 57.207031 41.269531 57.351562 41.363281 57.515625 41.363281 C 57.570312 41.363281 57.621094 41.351562 57.675781 41.328125 L 57.730469 41.304688 C 57.832031 41.261719 57.910156 41.183594 57.949219 41.085938 C 57.988281 40.984375 57.988281 40.875 57.945312 40.777344 L 57.324219 39.332031 L 57.835938 35.636719 L 58.265625 35.636719 C 58.574219 35.886719 58.753906 36.253906 58.753906 36.652344 L 58.753906 40.421875 C 58.753906 41.140625 58.167969 41.726562 57.449219 41.726562 L 54.253906 41.726562 C 53.535156 41.726562 52.949219 41.140625 52.949219 40.421875 Z M 52.949219 34.914062 L 52.949219 34.625 C 52.949219 34.382812 53.144531 34.1875 53.382812 34.1875 L 54.175781 34.1875 L 54.300781 34.480469 L 53.238281 34.480469 C 53.15625 34.480469 53.09375 34.542969 53.09375 34.625 C 53.09375 34.703125 53.15625 34.769531 53.238281 34.769531 L 54.425781 34.769531 L 54.671875 35.347656 L 53.382812 35.347656 C 53.144531 35.347656 52.949219 35.15625 52.949219 34.914062 Z M 53.730469 32.414062 C 53.71875 32.386719 53.71875 32.355469 53.730469 32.328125 C 53.742188 32.300781 53.765625 32.277344 53.789062 32.265625 C 53.792969 32.265625 53.792969 32.265625 53.792969 32.265625 L 53.851562 32.242188 C 53.867188 32.234375 53.878906 32.230469 53.894531 32.230469 C 53.941406 32.230469 53.980469 32.261719 54 32.300781 L 54.683594 33.898438 L 54.367188 33.898438 Z M 57.15625 34.1875 L 57.117188 34.480469 L 55.246094 34.480469 L 55.125 34.1875 Z M 57.789062 31.710938 C 57.789062 31.699219 57.796875 31.6875 57.800781 31.679688 C 57.808594 31.671875 57.808594 31.664062 57.816406 31.65625 C 57.835938 31.632812 57.871094 31.617188 57.914062 31.617188 C 57.914062 31.617188 57.914062 31.617188 57.917969 31.617188 L 57.980469 31.625 C 58.011719 31.628906 58.035156 31.644531 58.054688 31.667969 C 58.074219 31.691406 58.082031 31.722656 58.078125 31.753906 L 57.78125 33.898438 L 57.488281 33.898438 Z M 58.160156 30.15625 C 58.191406 30.394531 58.203125 30.789062 58.125 31.371094 C 58.09375 31.359375 58.058594 31.34375 58.019531 31.339844 L 57.953125 31.328125 C 57.921875 31.324219 57.890625 31.328125 57.863281 31.328125 C 57.898438 31.03125 57.980469 30.53125 58.160156 30.15625 Z M 58.796875 32.609375 C 58.804688 32.589844 58.820312 32.578125 58.835938 32.566406 C 58.835938 32.566406 58.839844 32.5625 58.84375 32.5625 C 58.859375 32.554688 58.878906 32.550781 58.894531 32.550781 C 58.917969 32.550781 58.933594 32.554688 58.949219 32.5625 L 59.007812 32.59375 C 59.03125 32.609375 59.050781 32.632812 59.0625 32.660156 C 59.0625 32.675781 59.066406 32.691406 59.0625 32.703125 L 59.0625 32.707031 C 59.0625 32.722656 59.058594 32.734375 59.050781 32.75 L 58.417969 33.910156 C 58.386719 33.90625 58.351562 33.898438 58.316406 33.898438 L 58.09375 33.898438 Z M 59.484375 30.257812 L 60.554688 30.800781 L 59.261719 32.4375 C 59.230469 32.398438 59.191406 32.363281 59.144531 32.339844 L 59.085938 32.308594 C 59.046875 32.285156 59 32.273438 58.949219 32.265625 Z M 58.109375 34.480469 L 57.996094 34.480469 L 58.035156 34.1875 L 58.269531 34.1875 Z M 57.449219 34.1875 L 57.742188 34.1875 L 57.703125 34.480469 L 57.410156 34.480469 Z M 57.289062 35.347656 L 57.367188 34.769531 L 57.660156 34.769531 L 57.582031 35.347656 Z M 56.476562 38.089844 L 56.585938 38.339844 L 56.507812 38.898438 L 56.300781 38.414062 Z M 56.667969 37.742188 L 56.660156 37.78125 L 56.65625 37.765625 Z M 56.890625 36.117188 L 56.78125 36.929688 L 54.589844 40.960938 C 54.558594 41.011719 54.488281 41.03125 54.433594 41.003906 L 54.378906 40.972656 C 54.324219 40.941406 54.304688 40.875 54.332031 40.820312 Z M 55.425781 35.640625 L 56.042969 37.070312 L 55.867188 37.394531 L 55.113281 35.640625 Z M 56.820312 35.640625 L 56.21875 36.746094 L 55.746094 35.640625 Z M 57.003906 35.300781 L 56.976562 35.347656 L 55.621094 35.347656 L 55.371094 34.769531 L 57.074219 34.769531 Z M 54.492188 34.1875 L 54.808594 34.1875 L 54.929688 34.480469 L 54.617188 34.480469 Z M 54.738281 34.769531 L 55.054688 34.769531 L 55.304688 35.347656 L 54.988281 35.347656 Z M 57.25 39.890625 L 57.675781 40.890625 C 57.6875 40.917969 57.691406 40.949219 57.679688 40.976562 C 57.667969 41.003906 57.648438 41.027344 57.617188 41.039062 L 57.558594 41.0625 C 57.503906 41.089844 57.4375 41.0625 57.410156 41.003906 L 57.171875 40.449219 Z M 56.804688 41.007812 C 56.792969 41.0625 56.75 41.105469 56.691406 41.105469 L 56.613281 41.09375 C 56.550781 41.085938 56.507812 41.03125 56.515625 40.96875 L 57.25 35.640625 L 57.542969 35.640625 Z M 58.753906 34.625 L 58.753906 34.914062 C 58.753906 35.15625 58.554688 35.347656 58.316406 35.347656 L 57.96875 35.347656 L 58.28125 34.769531 L 58.460938 34.769531 C 58.542969 34.769531 58.605469 34.703125 58.605469 34.625 C 58.605469 34.542969 58.542969 34.480469 58.460938 34.480469 L 58.441406 34.480469 L 58.558594 34.261719 C 58.488281 34.214844 58.40625 34.1875 58.316406 34.1875 C 58.40625 34.1875 58.488281 34.214844 58.558594 34.261719 C 58.675781 34.339844 58.753906 34.472656 58.753906 34.625 Z M 45.828125 33.242188 C 45.875 33.390625 45.917969 33.511719 45.976562 33.679688 C 45.804688 33.742188 45.640625 33.800781 45.421875 33.878906 C 45.402344 33.640625 45.386719 33.476562 45.371094 33.273438 C 45.550781 33.261719 45.683594 33.253906 45.828125 33.242188 Z M 48.1875 23.628906 C 48.265625 23.4375 48.351562 23.246094 48.464844 22.980469 C 48.582031 23.167969 48.660156 23.289062 48.730469 23.402344 C 48.617188 23.613281 48.527344 23.78125 48.441406 23.941406 C 48.222656 24.097656 48.015625 24.242188 47.734375 24.441406 C 47.601562 24.351562 47.425781 24.226562 47.238281 24.097656 C 47.492188 23.644531 47.863281 23.707031 48.1875 23.628906 Z M 50.007812 22.957031 C 50.140625 23.15625 50.195312 23.210938 50.214844 23.28125 C 50.226562 23.320312 50.167969 23.378906 50.128906 23.453125 C 50.066406 23.398438 50.007812 23.371094 49.988281 23.324219 C 49.972656 23.269531 49.992188 23.203125 50.007812 22.957031 Z M 70.460938 41.871094 C 66.359375 41.867188 62.253906 41.859375 58.148438 41.851562 C 58.679688 41.59375 59.042969 41.050781 59.042969 40.421875 L 59.042969 36.652344 C 59.042969 36.246094 58.890625 35.863281 58.617188 35.570312 C 58.867188 35.457031 59.042969 35.207031 59.042969 34.914062 L 59.042969 34.625 C 59.042969 34.363281 58.902344 34.136719 58.695312 34.007812 L 59.308594 32.882812 C 59.316406 32.867188 59.320312 32.84375 59.324219 32.824219 L 60.890625 30.84375 C 60.917969 30.808594 60.925781 30.765625 60.917969 30.722656 C 60.910156 30.675781 60.878906 30.644531 60.84375 30.621094 L 59.457031 29.914062 C 59.417969 29.898438 59.371094 29.894531 59.332031 29.914062 C 59.289062 29.929688 59.261719 29.96875 59.25 30.007812 L 58.625 32.371094 C 58.589844 32.398438 58.5625 32.433594 58.542969 32.46875 L 58.179688 33.140625 L 58.363281 31.792969 C 58.367188 31.773438 58.363281 31.753906 58.363281 31.734375 C 58.363281 31.730469 58.363281 31.722656 58.367188 31.722656 C 58.609375 30.261719 58.363281 29.75 58.351562 29.726562 C 58.328125 29.6875 58.289062 29.65625 58.238281 29.648438 C 58.191406 29.640625 58.144531 29.664062 58.113281 29.695312 C 57.664062 30.214844 57.566406 31.3125 57.550781 31.535156 C 57.527344 31.578125 57.507812 31.625 57.503906 31.675781 L 57.195312 33.898438 L 55 33.898438 L 54.265625 32.1875 C 54.191406 32.015625 53.996094 31.917969 53.816406 31.949219 C 53.796875 31.902344 53.773438 31.855469 53.757812 31.8125 C 53.585938 31.382812 53.46875 31.101562 52.976562 30.691406 C 52.570312 30.359375 52.613281 29.214844 52.664062 28.796875 C 52.675781 28.71875 52.617188 28.648438 52.539062 28.640625 C 52.460938 28.628906 52.386719 28.683594 52.378906 28.765625 C 52.355469 28.933594 52.195312 30.421875 52.792969 30.914062 C 53.226562 31.277344 53.320312 31.507812 53.488281 31.921875 C 53.507812 31.972656 53.535156 32.027344 53.554688 32.082031 C 53.515625 32.121094 53.480469 32.167969 53.460938 32.21875 C 53.421875 32.320312 53.421875 32.433594 53.464844 32.53125 L 54.050781 33.898438 L 53.382812 33.898438 C 52.984375 33.898438 52.65625 34.222656 52.65625 34.625 L 52.65625 34.914062 C 52.65625 35.207031 52.832031 35.457031 53.085938 35.570312 C 52.8125 35.863281 52.65625 36.246094 52.65625 36.652344 L 52.65625 40.421875 C 52.65625 41.046875 53.019531 41.582031 53.539062 41.847656 C 52.710938 41.84375 51.886719 41.84375 51.0625 41.84375 C 49.753906 41.839844 48.445312 41.839844 47.140625 41.839844 C 47.132812 41.332031 46.691406 40.859375 46.226562 40.859375 L 44.53125 40.859375 L 44.53125 38.796875 C 45.089844 38.785156 45.632812 38.585938 46.136719 38.199219 C 46.953125 37.570312 47.597656 36.695312 48.167969 35.851562 C 48.960938 34.679688 49.496094 33.6875 49.859375 32.730469 C 49.90625 32.605469 49.964844 32.476562 50.023438 32.339844 C 50.246094 31.835938 50.496094 31.265625 50.308594 30.808594 C 50.207031 30.574219 50.003906 30.394531 49.699219 30.273438 C 49.308594 30.117188 48.898438 30.027344 48.5 29.933594 L 48.296875 29.890625 C 47.789062 29.765625 47.476562 29.492188 47.378906 29.0625 C 47.300781 28.710938 47.257812 28.160156 47.484375 28.078125 L 47.519531 28.058594 C 49.117188 26.851562 50.046875 25.640625 50.445312 24.253906 C 51.171875 21.734375 50.082031 18.605469 47.96875 17.125 C 47.433594 16.75 46.816406 16.417969 46.183594 16.164062 C 45.496094 15.890625 44.765625 15.75 44.015625 15.75 C 41.917969 15.75 40.097656 16.851562 39.273438 18.632812 C 39.011719 19.199219 38.851562 19.898438 38.707031 20.519531 L 38.675781 20.664062 C 38.460938 21.589844 38.421875 22.675781 38.554688 23.890625 C 38.558594 23.917969 38.5625 23.949219 38.566406 23.980469 C 38.460938 24.054688 38.351562 24.128906 38.242188 24.207031 C 38.273438 24.132812 38.289062 24.0625 38.292969 23.988281 C 38.292969 23.871094 38.253906 23.710938 38.058594 23.578125 C 37.761719 23.378906 37.328125 23.589844 37.015625 23.800781 C 36.738281 23.992188 36.4375 24.175781 36.074219 24.386719 C 35.269531 24.847656 34.667969 25.316406 34.242188 25.820312 C 33.953125 26.160156 33.75 26.550781 33.648438 26.964844 L 33.644531 26.996094 C 33.097656 27.5 32.535156 27.960938 31.964844 28.386719 C 31.417969 27.660156 30.757812 26.804688 30.304688 26.289062 C 28.542969 24.285156 26.621094 23.054688 25.902344 22.589844 L 25.871094 22.574219 C 25.628906 22.417969 25.375 22.28125 25.089844 22.164062 C 25.039062 22.140625 24.988281 22.128906 24.933594 22.105469 L 24.929688 22.105469 C 24.910156 22.089844 24.886719 22.082031 24.863281 22.082031 C 24.21875 21.835938 23.5 21.679688 22.703125 21.519531 L 22.5 21.484375 C 22.410156 21.464844 22.316406 21.449219 22.222656 21.429688 C 22.140625 21.410156 22.0625 21.394531 21.980469 21.375 C 21.617188 21.285156 21.265625 21.148438 21.035156 20.890625 C 20.828125 20.65625 20.90625 20.300781 20.984375 19.960938 C 20.996094 19.898438 21.011719 19.832031 21.023438 19.773438 C 21.035156 19.714844 21.042969 19.65625 21.054688 19.59375 C 21.222656 19.585938 21.363281 19.570312 21.484375 19.542969 C 21.5 19.539062 21.515625 19.535156 21.53125 19.53125 C 22.429688 19.3125 23.289062 18.808594 24.015625 18.085938 C 24.667969 17.441406 25.191406 16.574219 25.527344 15.578125 C 26.25 13.460938 26.582031 11.640625 26.554688 10.042969 C 26.613281 10.078125 26.703125 10.074219 26.757812 10.003906 C 28.234375 7.949219 27.609375 4.664062 25.9375 2.910156 C 25.261719 2.199219 24.289062 1.9375 23.402344 1.597656 C 22.230469 1.152344 21.214844 0.617188 19.929688 0.515625 C 16.820312 0.265625 13.488281 1.859375 11.667969 4.363281 C 10.480469 6.003906 9.976562 7.882812 10.113281 9.898438 C 10.179688 10.886719 10.476562 11.84375 10.816406 12.761719 C 10.972656 13.191406 11.15625 13.609375 11.335938 14.027344 C 11.449219 14.289062 11.558594 14.683594 11.816406 14.855469 C 12.246094 15.152344 12.765625 15.027344 13.109375 14.695312 C 13.398438 15.6875 14.324219 16.519531 15.351562 16.804688 C 15.347656 16.820312 15.347656 16.835938 15.34375 16.847656 C 15.324219 17.042969 15.308594 17.242188 15.289062 17.445312 C 15.191406 18.613281 15.09375 19.824219 14.109375 20.429688 C 13.628906 20.722656 12.933594 20.691406 12.265625 20.664062 C 11.894531 20.644531 11.546875 20.628906 11.230469 20.667969 C 11.058594 20.6875 10.875 20.726562 10.6875 20.773438 C 10.585938 20.796875 10.484375 20.820312 10.382812 20.855469 C 10.363281 20.859375 10.347656 20.871094 10.332031 20.882812 C 9.792969 21 8.773438 21.726562 8.390625 22.097656 C 6.800781 23.628906 6.0625 26.085938 6.292969 28.878906 C 5.984375 31.058594 5.613281 33.1875 5.117188 35.335938 C 4.101562 39.722656 3.273438 44.1875 2.824219 48.671875 C 2.59375 50.957031 2.511719 53.253906 2.539062 55.550781 C 2.558594 57.339844 2.5 59.257812 2.871094 61.015625 C 3.046875 61.835938 3.425781 62.554688 3.921875 63.183594 L 3.757812 63.183594 C 2.558594 63.183594 1.425781 63.609375 0.734375 64.324219 C 0.273438 64.796875 0.0351562 65.359375 0.0507812 65.941406 C 0.09375 67.457031 1.824219 68.695312 3.902344 68.695312 L 4.273438 68.695312 L 1.234375 111.285156 C 1.230469 111.363281 1.292969 111.433594 1.367188 111.4375 L 1.382812 111.4375 C 1.457031 111.4375 1.519531 111.378906 1.527344 111.304688 L 4.566406 68.703125 C 4.566406 68.699219 4.5625 68.695312 4.5625 68.695312 L 13.425781 68.695312 C 14.652344 69.472656 15.703125 70.4375 16.371094 71.773438 C 16.898438 72.824219 17.027344 74.011719 16.960938 75.164062 C 16.867188 76.808594 16.6875 78.449219 16.613281 80.097656 C 16.492188 82.671875 16.640625 85.398438 18.464844 87.402344 C 19.070312 88.066406 19.777344 88.5625 20.546875 88.953125 C 20.394531 90.523438 20.253906 92.101562 20.117188 93.671875 C 19.9375 95.664062 19.757812 97.65625 19.550781 99.640625 L 19.539062 99.640625 L 19.507812 99.746094 C 19.496094 99.785156 19.234375 100.699219 19.21875 102.195312 C 19.191406 102.90625 19.246094 103.632812 19.347656 104.332031 C 19.363281 104.457031 19.386719 104.621094 19.425781 104.792969 C 19.425781 104.710938 19.488281 104.648438 19.570312 104.648438 L 32.65625 104.648438 L 32.636719 104.9375 L 19.570312 104.9375 C 19.507812 104.9375 19.457031 104.902344 19.4375 104.851562 C 19.492188 105.097656 19.582031 105.351562 19.734375 105.515625 L 2.15625 105.515625 C 2.074219 105.515625 2.011719 105.582031 2.011719 105.664062 C 2.011719 105.742188 2.074219 105.808594 2.15625 105.808594 L 27.871094 105.808594 C 27.792969 106.15625 27.632812 106.980469 27.632812 108.148438 L 27.632812 108.316406 C 27.636719 108.984375 27.636719 109.753906 27.804688 110.445312 L 32.285156 110.445312 L 32.269531 110.738281 L 27.890625 110.738281 C 27.933594 110.867188 27.980469 110.996094 28.039062 111.117188 C 28.085938 111.203125 28.125 111.265625 28.175781 111.3125 L 28.175781 111.316406 L 28.179688 111.316406 C 28.261719 111.394531 28.355469 111.425781 28.480469 111.433594 C 28.492188 111.433594 28.503906 111.4375 28.511719 111.4375 L 28.523438 111.4375 C 28.523438 111.4375 28.527344 111.4375 28.527344 111.4375 L 28.625 111.4375 C 29.664062 111.4375 30.695312 111.429688 31.730469 111.421875 C 31.894531 111.417969 32.058594 111.414062 32.226562 111.414062 L 32.195312 111.886719 C 32.191406 111.964844 32.25 112.035156 32.332031 112.042969 L 32.34375 112.042969 C 32.417969 112.042969 32.480469 111.984375 32.488281 111.90625 L 32.519531 111.410156 C 35.644531 111.378906 38.769531 111.335938 41.894531 111.289062 C 42.640625 111.285156 43.148438 111.285156 43.289062 111.285156 C 43.703125 111.285156 44.027344 111.078125 44.136719 110.753906 C 44.382812 110.023438 43.539062 108.867188 41.757812 107.5 C 40.882812 106.824219 38.597656 105.585938 38.402344 105.480469 C 38.136719 105.328125 37.875 105.179688 37.605469 105.035156 C 37.589844 103.601562 37.570312 102.167969 37.550781 100.734375 C 37.535156 99.527344 37.519531 98.320312 37.503906 97.109375 L 69.277344 97.109375 L 70.21875 111.90625 C 70.222656 111.984375 70.289062 112.042969 70.363281 112.042969 L 70.371094 112.042969 C 70.453125 112.035156 70.511719 111.964844 70.507812 111.890625 L 69.566406 97.085938 C 69.609375 97.058594 69.636719 97.015625 69.636719 96.964844 C 69.636719 96.902344 69.601562 96.855469 69.550781 96.832031 L 66.164062 43.605469 C 67.597656 43.605469 69.027344 43.609375 70.460938 43.613281 C 70.539062 43.613281 70.605469 43.546875 70.605469 43.46875 L 70.605469 42.019531 C 70.605469 41.9375 70.539062 41.871094 70.460938 41.871094 "/></g></g></svg>