<svg xmlns="http://www.w3.org/2000/svg" xmlns:xlink="http://www.w3.org/1999/xlink" width="150" zoomAndPan="magnify" viewBox="0 0 112.5 112.499997" height="150" preserveAspectRatio="xMidYMid meet" version="1.2"><defs><clipPath id="23c8452d60"><path d="M 0 0 L 112 0 L 112 88.855469 L 0 88.855469 Z M 0 0 "/></clipPath><clipPath id="91318b5d26"><path d="M 0 0 L 112 0 L 112 88.855469 L 0 88.855469 Z M 0 0 "/></clipPath></defs><g id="f97d6eaad7"><g clip-rule="nonzero" clip-path="url(#23c8452d60)"><path style=" stroke:none;fill-rule:nonzero;fill:#ffffff;fill-opacity:1;" d="M 33.398438 47.195312 C 34.195312 47.796875 35.324219 47.839844 36.324219 47.878906 L 36.726562 47.894531 C 42.582031 48.164062 47.554688 50.035156 51.507812 53.457031 C 52.65625 54.457031 53.8125 55.609375 54.941406 56.882812 L 55.359375 56.535156 C 51.09375 51.066406 47.757812 46.246094 47.617188 46.042969 L 47.527344 45.910156 L 47.371094 45.925781 C 47.261719 45.9375 47.152344 45.941406 47.042969 45.941406 C 46.167969 45.941406 44.957031 45.597656 44.429688 44.628906 C 44.300781 44.390625 44.199219 44.136719 44.097656 43.890625 C 43.816406 43.183594 43.519531 42.453125 42.625 42.046875 C 42.488281 41.984375 42.347656 41.921875 42.210938 41.863281 C 41.679688 41.636719 41.179688 41.421875 40.78125 41.050781 C 40.609375 40.898438 40.480469 40.644531 40.429688 40.371094 L 40.289062 39.621094 L 39.921875 40.292969 C 39.617188 40.851562 39.28125 41.363281 38.921875 41.816406 C 37.75 43.277344 36.304688 44.367188 34.738281 44.957031 C 34.191406 45.15625 33.636719 45.320312 33.042969 45.449219 L 32.832031 45.496094 L 32.828125 45.707031 C 32.820312 46.136719 32.855469 46.667969 33.21875 47.039062 L 33.21875 47.191406 Z M 21.90625 88.585938 L 21.292969 88.542969 L 20.492188 88.542969 L 20.503906 88.585938 L 4.195312 88.585938 L 1.316406 88.296875 L 1.234375 88.347656 C 0.324219 83.050781 1.425781 71.050781 1.554688 69.699219 L 1.570312 69.546875 L 1.289062 69.34375 C 1.140625 69.234375 1 69.132812 0.875 69.03125 C 1.171875 65.714844 2.335938 62.300781 4.332031 58.878906 C 5.855469 56.265625 7.609375 53.570312 10.128906 51.53125 C 11.648438 50.304688 13.332031 49.320312 15.136719 48.609375 C 16.085938 48.238281 17.109375 48.003906 18.015625 47.796875 L 18.503906 47.6875 C 19.898438 47.359375 20.742188 46.589844 21.015625 45.40625 C 21.105469 45.007812 21.511719 43.007812 20.570312 42.609375 C 20.570312 42.609375 20.523438 42.585938 20.523438 42.585938 C 20.523438 42.585938 20.527344 42.589844 20.535156 42.59375 L 20.53125 42.59375 C 19.507812 41.820312 18.589844 41.03125 17.769531 40.222656 L 17.75 40.203125 L 17.722656 40.1875 C 17.199219 39.859375 16.730469 39.527344 16.382812 39.28125 C 13.625 37.296875 11.527344 34.792969 10.324219 32.042969 C 8.796875 28.535156 9.25 24.003906 11.5625 19.609375 C 11.695312 19.34375 11.855469 19.074219 11.996094 18.847656 L 12.246094 18.449219 L 11.773438 18.433594 L 11.8125 18.433594 L 11.804688 18.433594 L 12.742188 18.433594 L 11.949219 17.933594 C 10.097656 16.761719 8.515625 15.179688 7.496094 13.480469 C 5.113281 9.570312 5.121094 3.984375 9.253906 1.398438 C 10.476562 0.652344 11.84375 0.273438 13.320312 0.273438 C 16.003906 0.273438 18.910156 1.566406 21.089844 3.734375 C 22.84375 5.472656 23.699219 7.726562 24.363281 9.902344 L 24.464844 10.234375 L 24.699219 10.09375 L 24.707031 10.347656 L 25.007812 10.351562 C 25.289062 10.328125 25.511719 10.308594 25.714844 10.304688 C 26.109375 10.273438 26.515625 10.257812 26.941406 10.257812 C 29.625 10.257812 32.515625 10.914062 34.867188 12.058594 C 36.371094 12.789062 37.601562 13.691406 38.515625 14.738281 C 39.875 16.289062 41.253906 18.109375 41.175781 19.859375 C 41.160156 20.058594 41.085938 20.304688 40.972656 20.558594 C 40.882812 20.753906 40.773438 20.945312 40.652344 21.125 L 40.578125 21.234375 L 40.621094 21.363281 C 40.960938 22.390625 41.21875 23.472656 41.472656 24.585938 L 41.554688 24.933594 C 42.0625 27.15625 42.15625 29.761719 41.835938 32.679688 C 41.824219 32.8125 41.808594 32.9375 41.792969 33.0625 L 41.726562 33.617188 L 42.101562 33.53125 C 42.394531 33.464844 42.738281 33.429688 43.128906 33.429688 C 43.957031 33.429688 44.976562 33.578125 46.25 33.878906 C 47.167969 34.085938 47.917969 34.503906 48.550781 35.160156 L 48.613281 35.222656 L 48.703125 35.238281 C 48.75 35.246094 48.804688 35.246094 48.851562 35.246094 L 49.75 35.269531 C 51.488281 35.308594 53.25 35.347656 54.960938 35.558594 C 55.109375 35.578125 55.296875 35.589844 55.507812 35.601562 C 56.371094 35.65625 57.523438 35.734375 58.019531 36.300781 C 58.195312 36.503906 58.269531 36.746094 58.246094 37.042969 C 58.175781 37.867188 57.511719 38.234375 56.097656 38.234375 C 55.875 38.234375 55.660156 38.230469 55.476562 38.21875 L 55.320312 38.214844 C 54.820312 38.199219 54.320312 38.1875 53.816406 38.183594 C 52.71875 38.160156 51.59375 38.136719 50.511719 38.019531 L 50.105469 37.976562 L 50.21875 38.367188 C 50.445312 39.128906 50.621094 39.933594 50.765625 40.582031 C 50.824219 40.859375 50.882812 41.128906 50.945312 41.382812 L 50.96875 41.492188 L 51.0625 41.550781 C 54.226562 43.578125 57.3125 45.914062 60.292969 48.171875 L 60.507812 48.332031 C 61.832031 49.332031 63.203125 50.367188 64.582031 51.375 L 65.121094 51.765625 L 65.011719 51.109375 C 64.859375 50.203125 64.792969 49.375 64.8125 48.644531 L 64.820312 48.453125 L 64.636719 48.382812 C 64.046875 48.164062 62.574219 47.570312 61.605469 46.789062 L 61.351562 46.585938 C 60.613281 46.003906 59.980469 45.5 59.027344 44.832031 C 58.515625 44.472656 58.246094 44.132812 58.246094 43.847656 C 58.246094 43.6875 58.335938 43.542969 58.507812 43.417969 C 58.679688 43.335938 58.914062 43.28125 59.160156 43.28125 C 59.273438 43.28125 59.386719 43.292969 59.496094 43.3125 L 59.957031 43.398438 L 59.800781 42.957031 C 59.636719 42.484375 59.609375 41.964844 59.726562 41.410156 C 59.84375 40.828125 60.042969 40.578125 60.148438 40.480469 L 60.230469 40.402344 L 60.234375 40.292969 C 60.25 39.992188 60.339844 39.707031 60.507812 39.445312 L 60.628906 39.253906 L 60.464844 39.101562 C 60.148438 38.804688 59.921875 38.5625 59.734375 38.316406 C 59.398438 37.875 59.066406 37.363281 59.15625 36.921875 C 59.246094 36.445312 59.46875 36.246094 59.894531 36.246094 C 60.089844 36.246094 60.328125 36.289062 60.601562 36.378906 L 61.164062 36.558594 L 60.9375 36.015625 C 60.722656 35.503906 60.613281 34.972656 60.613281 34.433594 C 60.613281 32.167969 62.460938 30.324219 64.726562 30.324219 C 66.996094 30.324219 68.84375 32.167969 68.84375 34.433594 C 68.84375 36.128906 67.816406 37.625 66.230469 38.25 L 65.789062 38.421875 L 66.160156 38.714844 C 66.351562 38.867188 66.550781 39.007812 66.753906 39.148438 C 67.167969 39.4375 67.5625 39.710938 67.855469 40.070312 L 68.34375 40.675781 L 68.335938 39.898438 C 68.324219 38.511719 68.867188 36.941406 70.089844 36.78125 C 70.121094 36.773438 70.152344 36.773438 70.179688 36.773438 C 70.292969 36.773438 70.386719 36.8125 70.46875 36.886719 C 70.769531 37.171875 70.734375 37.902344 70.679688 38.566406 C 70.667969 38.710938 70.660156 38.839844 70.660156 38.917969 L 70.667969 39.261719 C 70.671875 39.679688 70.679688 40.113281 70.652344 40.546875 C 70.613281 41.148438 70.664062 41.710938 70.710938 42.203125 C 70.773438 42.898438 70.832031 43.585938 70.699219 44.34375 C 70.589844 44.957031 70.421875 45.429688 70.199219 45.757812 L 70.113281 45.882812 L 70.175781 46.019531 C 71.066406 48.0625 72.011719 50.085938 72.816406 51.796875 L 73.042969 52.28125 L 73.300781 51.808594 C 75.386719 47.992188 78.347656 45.558594 80.195312 45.132812 L 80.15625 44.597656 C 79.003906 44.5 77.808594 44.179688 76.609375 43.648438 C 74.980469 42.9375 73.605469 41.9375 72.835938 40.90625 L 72.820312 40.886719 L 72.796875 40.863281 C 72.675781 40.691406 72.578125 40.527344 72.488281 40.355469 C 71.324219 38.359375 71.089844 36.464844 71.792969 34.707031 C 72.011719 34.160156 72.273438 33.632812 72.53125 33.125 C 73.121094 31.949219 73.730469 30.734375 73.746094 29.253906 C 73.757812 28.316406 73.738281 27.371094 73.714844 26.371094 C 73.625 22.019531 73.527344 17.523438 75.984375 13.996094 C 76.660156 12.917969 77.449219 12.054688 78.339844 11.421875 C 79.207031 10.808594 80.546875 10.078125 82 10.078125 C 82.546875 10.078125 83.074219 10.183594 83.566406 10.398438 L 83.761719 10.480469 L 83.890625 10.3125 C 85.566406 8.097656 88.816406 7.765625 90.601562 7.765625 C 92.675781 7.765625 94.933594 8.195312 96.496094 8.882812 C 100.882812 10.910156 104.476562 14.675781 105.652344 18.476562 C 106.210938 20.347656 105.929688 22.265625 105.65625 24.117188 C 105.507812 25.15625 105.355469 26.226562 105.363281 27.246094 L 105.363281 27.273438 L 105.367188 27.300781 C 105.710938 28.828125 106.554688 30.257812 107.949219 31.679688 C 108.210938 31.945312 108.5 32.210938 108.792969 32.484375 C 109.816406 33.429688 110.875 34.410156 111.148438 35.714844 C 111.570312 37.757812 110.683594 39.78125 108.503906 41.722656 C 107.933594 42.3125 107.269531 42.816406 106.511719 43.238281 L 106.472656 43.238281 L 106.414062 43.289062 C 106.101562 43.460938 105.773438 43.613281 105.445312 43.746094 L 105.007812 43.917969 L 105.378906 44.210938 C 106.445312 45.046875 107.308594 46.390625 107.746094 47.890625 C 108.039062 48.90625 108.171875 50.007812 108.132812 51.167969 C 108.148438 52.164062 108.167969 53.144531 108.199219 54.132812 C 108.285156 57.132812 108.425781 60.230469 108.621094 63.597656 C 109.035156 70.648438 109.597656 78.195312 110.921875 85.585938 C 111.09375 86.546875 111.253906 87.398438 111.417969 88.1875 L 111.394531 88.183594 L 111.332031 88.191406 L 71.941406 88.332031 L 72.515625 72.367188 L 72.324219 72.304688 C 71.5 72.027344 70.648438 71.699219 69.792969 71.320312 C 67.394531 70.285156 63.597656 66.640625 58.515625 60.484375 L 58.085938 60.816406 C 60.054688 63.503906 61.824219 66.351562 63.445312 69.03125 C 62.460938 69.808594 60.980469 70.703125 59.171875 71.609375 L 58.957031 71.714844 L 59.039062 71.941406 C 59.15625 72.277344 59.304688 72.675781 59.472656 73.128906 C 60.542969 75.976562 62.535156 81.277344 63.445312 88.328125 L 63.421875 88.328125 C 61.453125 88.335938 59.554688 88.355469 57.660156 88.375 C 55.785156 88.394531 53.910156 88.417969 51.976562 88.425781 L 51.625 88.425781 L 51.667969 88.585938 L 21.90625 88.585938 "/></g><path style=" stroke:none;fill-rule:nonzero;fill:#100f0d;fill-opacity:1;" d="M 64.726562 31.621094 C 66.277344 31.621094 67.546875 32.882812 67.546875 34.433594 C 67.546875 35.980469 66.277344 37.242188 64.726562 37.242188 C 63.179688 37.242188 61.914062 35.980469 61.914062 34.433594 C 61.914062 32.882812 63.179688 31.621094 64.726562 31.621094 Z M 64.726562 37.515625 C 66.433594 37.515625 67.816406 36.132812 67.816406 34.433594 C 67.816406 32.730469 66.433594 31.347656 64.726562 31.347656 C 63.027344 31.347656 61.640625 32.730469 61.640625 34.433594 C 61.640625 36.132812 63.027344 37.515625 64.726562 37.515625 "/><g clip-rule="nonzero" clip-path="url(#91318b5d26)"><path style=" stroke:none;fill-rule:nonzero;fill:#100f0d;fill-opacity:1;" d="M 107.425781 53.9375 C 106.601562 57.097656 104.992188 60.308594 103.046875 62.929688 C 102 64.34375 100.742188 65.640625 98.976562 64.640625 C 97.273438 63.683594 95.835938 62.082031 94.460938 60.699219 C 93.222656 59.464844 92.054688 58.152344 91.03125 56.734375 C 90.238281 55.644531 88.828125 53.71875 89.546875 52.308594 C 90.480469 50.492188 92.3125 49.089844 93.914062 47.894531 C 95.296875 46.871094 96.765625 45.953125 98.253906 45.074219 C 98.628906 45.125 99.003906 45.144531 99.367188 45.144531 C 99.84375 45.144531 100.304688 45.109375 100.746094 45.058594 C 101.320312 44.996094 101.859375 44.902344 102.324219 44.820312 C 102.546875 44.777344 102.761719 44.746094 102.957031 44.710938 C 103.644531 44.601562 104.308594 44.441406 104.933594 44.230469 C 106.171875 45.070312 107.054688 46.492188 107.484375 47.964844 C 108.011719 49.773438 107.984375 51.785156 107.480469 53.742188 L 107.523438 53.796875 C 107.480469 53.828125 107.441406 53.871094 107.425781 53.9375 Z M 91.652344 70.304688 C 83.621094 74.023438 77.121094 74.253906 69.90625 71.074219 C 63.460938 68.292969 48.40625 46.703125 47.769531 45.789062 C 47.742188 45.699219 47.660156 45.628906 47.53125 45.648438 L 47.449219 45.648438 C 46.0625 45.808594 44.929688 45.179688 44.421875 43.863281 C 44.191406 43.246094 43.890625 42.589844 43.34375 42.191406 C 42.453125 41.53125 40.839844 41.390625 40.691406 40.085938 C 40.519531 38.550781 43.785156 40.238281 44.210938 40.601562 C 44.476562 40.828125 44.863281 40.441406 44.597656 40.214844 C 43.730469 39.484375 42.496094 38.835938 41.324219 38.960938 C 40.476562 37.976562 41.914062 37.589844 42.5625 37.589844 C 43.46875 37.589844 44.359375 38.101562 45.101562 38.554688 C 45.210938 38.613281 45.308594 38.597656 45.386719 38.539062 C 45.527344 38.4375 45.570312 38.203125 45.378906 38.082031 C 45.332031 38.058594 45.277344 38.03125 45.226562 38.003906 C 44.136719 37.359375 42.910156 36.847656 41.679688 37.179688 C 41.121094 35.402344 43.507812 35.871094 44.390625 36.152344 C 44.421875 36.164062 44.457031 36.175781 44.488281 36.1875 L 44.519531 36.195312 L 44.542969 36.203125 C 44.601562 36.222656 44.664062 36.242188 44.722656 36.261719 C 45.46875 36.515625 46.332031 36.902344 46.824219 37.464844 C 47.058594 37.730469 47.445312 37.347656 47.210938 37.082031 C 46.535156 36.320312 45.292969 35.769531 44.183594 35.503906 C 43.664062 35.332031 42.882812 35.183594 41.632812 35.371094 C 41.398438 35.410156 41.039062 35.164062 40.964844 34.828125 C 40.871094 34.433594 41.230469 34.074219 41.953125 33.847656 C 42.792969 33.578125 44.21875 33.679688 46.1875 34.140625 C 49.230469 34.828125 49.929688 38.050781 50.5 40.644531 C 50.566406 40.957031 50.636719 41.261719 50.703125 41.554688 L 50.730469 41.664062 L 50.820312 41.722656 C 54.027344 43.765625 57.148438 46.132812 60.175781 48.421875 C 65.714844 52.605469 71.445312 56.945312 78.023438 59.640625 C 79.769531 60.347656 81.941406 60.25 83.832031 59.375 C 85.984375 58.382812 87.847656 56.902344 89.488281 55.3125 C 89.71875 55.746094 89.988281 56.160156 90.226562 56.523438 C 91.3125 58.1875 92.679688 59.675781 94.074219 61.085938 C 95.554688 62.582031 97.101562 64.203125 98.953125 65.238281 C 96.757812 67.257812 94.335938 69.058594 91.652344 70.304688 Z M 51.6875 53.253906 C 47.683594 49.789062 42.652344 47.894531 36.738281 47.625 L 36.359375 47.605469 C 35.359375 47.570312 34.230469 47.53125 33.496094 46.925781 C 33.5 46.929688 33.503906 46.929688 33.503906 46.9375 C 33.484375 46.917969 33.464844 46.902344 33.441406 46.890625 C 33.449219 46.890625 33.453125 46.898438 33.453125 46.898438 C 33.464844 46.898438 33.476562 46.902344 33.480469 46.914062 C 33.148438 46.632812 33.089844 46.1875 33.101562 45.714844 C 33.664062 45.589844 34.242188 45.425781 34.832031 45.210938 C 36.445312 44.601562 37.933594 43.484375 39.136719 41.984375 C 39.515625 41.507812 39.855469 40.980469 40.160156 40.421875 C 40.21875 40.742188 40.375 41.050781 40.59375 41.25 C 41.140625 41.753906 41.84375 41.988281 42.511719 42.292969 C 43.605469 42.792969 43.691406 43.828125 44.191406 44.757812 C 44.777344 45.839844 46.207031 46.3125 47.394531 46.195312 C 48 47.070312 51.203125 51.648438 55.144531 56.703125 C 54.054688 55.472656 52.902344 54.3125 51.6875 53.253906 Z M 58.707031 65.730469 C 58.773438 66.273438 58.46875 66.421875 58.054688 66.507812 C 58.0625 65.785156 58.0625 65.785156 58.707031 65.730469 Z M 56.851562 65.742188 C 56.980469 65.527344 57.09375 65.347656 57.210938 65.167969 C 57.285156 65.199219 57.367188 65.234375 57.441406 65.265625 C 57.410156 65.484375 57.378906 65.699219 57.339844 65.964844 C 57.144531 65.878906 57.042969 65.832031 56.851562 65.742188 Z M 57.183594 69.386719 C 57.03125 69.144531 56.933594 68.988281 56.6875 68.578125 C 57.136719 68.675781 57.300781 68.710938 57.589844 68.769531 C 57.425781 69.011719 57.335938 69.15625 57.183594 69.386719 Z M 53.238281 74.121094 C 53.023438 74.191406 52.808594 74.261719 52.597656 74.332031 C 52.515625 74.1875 52.433594 74.039062 52.339844 73.855469 C 52.738281 73.800781 52.984375 73.765625 53.414062 73.703125 C 53.347656 73.863281 53.292969 73.992188 53.238281 74.121094 Z M 52.898438 59.980469 C 52.652344 60.285156 52.550781 60.421875 52.34375 60.683594 C 52.160156 60.316406 52.09375 60.183594 51.917969 59.835938 C 52.292969 59.890625 52.429688 59.914062 52.898438 59.980469 Z M 51.667969 55.207031 C 52.140625 55.257812 52.335938 55.28125 52.566406 55.304688 C 52.304688 55.824219 52.304688 55.824219 51.667969 55.207031 Z M 50.675781 68.59375 C 50.476562 68.558594 50.269531 68.527344 50.0625 68.488281 C 50.078125 68.378906 50.09375 68.265625 50.105469 68.15625 C 50.3125 68.195312 50.511719 68.234375 50.71875 68.277344 C 50.703125 68.378906 50.691406 68.488281 50.675781 68.59375 Z M 49.269531 61.761719 C 49.664062 61.703125 49.996094 61.660156 50.375 61.605469 C 50.414062 62.257812 49.96875 62.371094 49.464844 62.726562 C 49.382812 62.320312 49.335938 62.09375 49.269531 61.761719 Z M 48.773438 73.703125 C 48.273438 73.40625 47.828125 73.140625 47.382812 72.878906 C 47.402344 72.75 47.421875 72.625 47.445312 72.496094 C 48.242188 72.289062 49.039062 72.082031 49.839844 71.871094 C 49.882812 71.953125 49.925781 72.035156 49.964844 72.117188 C 49.574219 72.640625 49.183594 73.160156 48.773438 73.703125 Z M 47.394531 83.234375 C 47.074219 83.113281 46.753906 82.996094 46.402344 82.863281 C 46.558594 82.355469 46.679688 81.980469 46.863281 81.390625 C 47.15625 82.011719 47.363281 82.464844 47.570312 82.914062 C 47.507812 83.023438 47.457031 83.125 47.394531 83.234375 Z M 45.554688 85.039062 C 45.742188 85.308594 45.933594 85.578125 46.183594 85.921875 C 45.445312 85.929688 45.445312 85.929688 45.554688 85.039062 Z M 45.386719 88.207031 C 45.851562 87.746094 46.097656 87.792969 46.292969 88.398438 C 46.054688 88.347656 45.808594 88.292969 45.386719 88.207031 Z M 44.109375 86.082031 C 44.09375 85.695312 44.078125 85.429688 44.054688 84.984375 C 44.402344 85.222656 44.601562 85.363281 45 85.648438 C 44.59375 85.84375 44.402344 85.933594 44.109375 86.082031 Z M 44.070312 57.667969 C 44.671875 58.003906 44.609375 58.253906 43.984375 58.480469 C 44.011719 58.242188 44.03125 58.007812 44.070312 57.667969 Z M 43.488281 52.558594 C 43.636719 52.253906 43.738281 52.039062 43.847656 51.828125 C 44.234375 52.378906 44.066406 52.558594 43.488281 52.558594 Z M 42.222656 54.949219 C 42.554688 54.71875 42.707031 54.609375 42.957031 54.429688 C 43.09375 54.777344 43.199219 55.046875 43.394531 55.558594 C 42.914062 55.308594 42.660156 55.179688 42.222656 54.949219 Z M 41.761719 65.769531 C 41.855469 65.503906 41.925781 65.292969 42.011719 65.023438 C 42.371094 65.144531 42.660156 65.25 42.984375 65.367188 C 42.992188 65.636719 42.992188 65.875 42.996094 66.292969 C 42.480469 66.070312 42.152344 65.933594 41.761719 65.769531 Z M 41.226562 65.386719 C 40.921875 65.082031 40.71875 64.875 40.367188 64.511719 C 40.839844 64.304688 41.148438 64.175781 41.460938 64.039062 C 41.539062 64.144531 41.621094 64.246094 41.703125 64.347656 C 41.5625 64.652344 41.421875 64.957031 41.226562 65.386719 Z M 39.523438 85.152344 C 39.382812 85.023438 39.269531 84.925781 39.105469 84.785156 C 39.257812 84.546875 39.394531 84.335938 39.5625 84.078125 C 40.042969 84.546875 39.890625 84.828125 39.523438 85.152344 Z M 39.058594 82.707031 C 38.710938 82.398438 38.503906 82.207031 38.253906 81.984375 C 38.421875 81.835938 38.5 81.699219 38.585938 81.691406 C 39.230469 81.648438 39.105469 82.074219 39.058594 82.707031 Z M 37.667969 76.871094 C 37.628906 76.785156 37.589844 76.691406 37.546875 76.605469 C 37.726562 76.53125 37.90625 76.453125 38.082031 76.382812 C 38.113281 76.449219 38.144531 76.519531 38.179688 76.585938 C 38.011719 76.683594 37.835938 76.773438 37.667969 76.871094 Z M 36.777344 82.089844 C 36.765625 82.273438 36.761719 82.464844 36.746094 82.757812 C 36.398438 82.664062 36.113281 82.59375 35.765625 82.5 C 35.972656 81.699219 36.347656 81.914062 36.777344 82.089844 Z M 35.285156 54.34375 C 35.238281 54.285156 35.195312 54.222656 35.148438 54.160156 C 35.332031 54.011719 35.515625 53.867188 35.703125 53.71875 C 35.738281 53.78125 35.777344 53.832031 35.816406 53.886719 C 35.640625 54.039062 35.460938 54.191406 35.285156 54.34375 Z M 35.816406 85.523438 C 35.835938 85.578125 35.863281 85.625 35.890625 85.671875 C 35.507812 85.726562 35.121094 85.78125 34.734375 85.835938 C 34.734375 85.839844 34.738281 85.847656 34.738281 85.851562 C 34.738281 85.859375 34.734375 85.859375 34.734375 85.863281 C 34.957031 86.28125 35.292969 86.699219 34.777344 87.144531 C 34.207031 86.355469 34.207031 86.351562 34.734375 85.863281 C 34.730469 85.851562 34.722656 85.847656 34.722656 85.839844 C 34.730469 85.835938 34.730469 85.835938 34.734375 85.835938 C 34.605469 85.488281 34.46875 85.136719 34.289062 84.648438 C 34.542969 84.292969 34.84375 83.875 35.15625 83.433594 C 35.902344 83.78125 36.734375 83.601562 37.222656 84.386719 C 36.738281 84.777344 36.277344 85.152344 35.816406 85.523438 Z M 35.886719 87.777344 C 36.011719 88.109375 36.097656 88.34375 36.21875 88.667969 C 35.632812 88.390625 35.632812 88.390625 35.886719 87.777344 Z M 34.992188 77.859375 C 35.164062 78.636719 34.746094 78.75 34.285156 79.0625 C 34.289062 78.429688 34.414062 78.09375 34.992188 77.859375 Z M 34.980469 76.179688 C 35.015625 76.238281 35.0625 76.300781 35.097656 76.363281 C 34.941406 76.496094 34.777344 76.628906 34.621094 76.757812 C 34.574219 76.683594 34.523438 76.605469 34.472656 76.523438 C 34.644531 76.410156 34.8125 76.292969 34.980469 76.179688 Z M 33.9375 70.566406 C 34.234375 70.320312 34.421875 70.167969 34.652344 69.984375 C 34.609375 70.539062 34.609375 70.539062 33.9375 70.566406 Z M 33.691406 86.070312 C 33.59375 86.125 33.503906 86.171875 33.410156 86.222656 C 33.296875 85.960938 33.1875 85.695312 33.03125 85.328125 C 33.730469 85.363281 33.746094 85.691406 33.691406 86.070312 Z M 32.824219 67.988281 C 32.578125 68 32.335938 68.011719 32.019531 68.019531 C 32.042969 67.789062 32.058594 67.636719 32.089844 67.320312 C 32.414062 67.5 32.65625 67.636719 32.894531 67.765625 C 32.871094 67.839844 32.851562 67.914062 32.824219 67.988281 Z M 30.765625 74.085938 C 30.710938 73.925781 30.65625 73.777344 30.601562 73.617188 C 30.953125 73.488281 31.3125 73.359375 31.839844 73.167969 C 31.601562 74.046875 31.242188 74.191406 30.765625 74.085938 Z M 29.609375 59.070312 C 29.546875 58.449219 29.613281 58.195312 30.203125 58.574219 C 30.046875 58.703125 29.886719 58.839844 29.609375 59.070312 Z M 28.914062 85.613281 C 28.308594 85.808594 27.703125 86.058594 27.042969 85.328125 C 27.695312 85.1875 28.21875 85.078125 28.824219 84.949219 C 28.894531 85.0625 29 85.21875 29.101562 85.382812 C 29.011719 85.5 28.972656 85.59375 28.914062 85.613281 Z M 27 86.507812 C 27.640625 86.347656 28.03125 86.605469 28.316406 87.117188 C 27.734375 87.273438 27.195312 87.375 27 86.507812 Z M 26.875 83.597656 C 27.011719 83.78125 27.152344 83.964844 27.292969 84.144531 C 27.203125 84.21875 27.109375 84.292969 27.023438 84.363281 C 26.898438 84.167969 26.773438 83.96875 26.652344 83.777344 C 26.722656 83.714844 26.800781 83.65625 26.875 83.597656 Z M 19.789062 47.367188 L 19.53125 47.433594 L 19.789062 47.367188 C 19.789062 47.367188 25.542969 50.277344 32.757812 47.359375 C 25.546875 50.277344 19.789062 47.367188 19.789062 47.367188 Z M 25.035156 79.84375 C 24.664062 79.058594 24.664062 79.058594 25.285156 78.792969 C 25.207031 79.113281 25.15625 79.34375 25.035156 79.84375 Z M 24.351562 83.261719 C 24.4375 82.789062 24.476562 82.570312 24.550781 82.175781 C 24.832031 82.386719 24.953125 82.472656 25.175781 82.632812 C 24.921875 82.828125 24.738281 82.96875 24.351562 83.261719 Z M 21.140625 81.796875 C 21.375 81.898438 21.542969 81.976562 21.777344 82.078125 C 21.304688 82.367188 21.304688 82.367188 21.140625 81.796875 Z M 20.386719 51.019531 C 20.324219 50.976562 20.265625 50.933594 20.207031 50.886719 C 20.34375 50.667969 20.472656 50.4375 20.609375 50.210938 C 20.695312 50.277344 20.78125 50.339844 20.867188 50.40625 C 20.707031 50.605469 20.550781 50.8125 20.386719 51.019531 Z M 20.359375 86.199219 C 20.316406 86.019531 20.265625 85.84375 20.222656 85.667969 C 20.332031 85.648438 20.433594 85.625 20.542969 85.609375 C 20.550781 85.792969 20.554688 85.984375 20.558594 86.171875 C 20.496094 86.183594 20.429688 86.1875 20.359375 86.199219 Z M 19.542969 47.238281 C 19.613281 47.109375 19.777344 47.054688 19.910156 47.121094 C 19.914062 47.121094 19.933594 47.132812 19.960938 47.144531 C 19.933594 47.132812 19.914062 47.121094 19.910156 47.121094 C 19.777344 47.054688 19.613281 47.109375 19.546875 47.242188 C 19.515625 47.304688 19.511719 47.371094 19.527344 47.433594 C 19.511719 47.367188 19.511719 47.304688 19.542969 47.238281 Z M 18.269531 87.367188 C 18.738281 87.355469 18.953125 87.355469 19.183594 87.351562 C 19.027344 88.003906 19.027344 88.003906 18.269531 87.367188 Z M 18.875 64.300781 C 18.820312 64.675781 18.785156 64.917969 18.746094 65.15625 C 18.664062 65.171875 18.578125 65.183594 18.488281 65.199219 C 18.386719 65 18.285156 64.804688 18.140625 64.527344 C 18.398438 64.445312 18.566406 64.398438 18.875 64.300781 Z M 32.660156 47.328125 C 32.589844 47.308594 32.515625 47.285156 32.460938 47.257812 C 32.515625 47.28125 32.589844 47.308594 32.660156 47.328125 Z M 33.199219 46.875 C 33.171875 46.886719 33.144531 46.898438 33.117188 46.910156 C 33.144531 46.898438 33.171875 46.886719 33.199219 46.875 C 33.230469 46.859375 33.257812 46.855469 33.289062 46.855469 C 33.261719 46.855469 33.230469 46.863281 33.199219 46.875 Z M 33.386719 47.183594 C 33.421875 47.207031 33.457031 47.230469 33.496094 47.253906 C 33.457031 47.230469 33.421875 47.207031 33.386719 47.183594 Z M 33.132812 64.191406 C 33.253906 64.4375 33.351562 64.636719 33.480469 64.90625 C 33.199219 65.070312 32.964844 65.195312 32.671875 65.359375 C 32.433594 64.746094 32.574219 64.425781 33.132812 64.191406 Z M 32.910156 47.292969 L 32.914062 46.996094 C 32.914062 46.996094 32.917969 46.996094 32.917969 46.992188 Z M 33.570312 47.054688 C 33.589844 47.132812 33.574219 47.214844 33.527344 47.277344 C 33.574219 47.214844 33.589844 47.132812 33.570312 47.054688 Z M 21.277344 45.46875 C 21.359375 45.113281 21.660156 43.609375 21.164062 42.796875 C 21.054688 42.613281 20.894531 42.464844 20.691406 42.375 C 20.359375 42.125 20.042969 41.871094 19.738281 41.621094 C 21.226562 42.320312 22.910156 42.84375 24.699219 42.84375 C 24.882812 42.84375 25.074219 42.839844 25.261719 42.824219 C 27.675781 42.675781 32.3125 41.46875 34.527344 38.835938 C 35.097656 38.164062 35.355469 37.363281 35.441406 37.101562 L 35.59375 36.652344 L 35.175781 36.695312 C 35.167969 36.695312 35.140625 36.695312 35.085938 36.699219 C 35.035156 36.667969 34.972656 36.664062 34.910156 36.683594 C 34.886719 36.691406 34.867188 36.695312 34.84375 36.699219 C 34.332031 36.695312 33.175781 36.59375 32.53125 35.792969 C 32.042969 35.1875 31.921875 34.277344 32.183594 33.09375 C 32.199219 33.019531 32.214844 32.949219 32.238281 32.871094 C 32.441406 32.425781 32.757812 32.089844 33.160156 31.878906 C 33.324219 31.890625 33.441406 31.949219 33.441406 31.949219 L 33.507812 31.984375 L 33.578125 31.984375 C 34.609375 31.957031 36.09375 31.054688 36.722656 30.449219 C 38.652344 28.582031 39.226562 24.898438 38.921875 22.855469 C 39.476562 22.699219 40.03125 22.289062 40.476562 21.792969 C 40.769531 22.730469 40.996094 23.730469 41.203125 24.648438 L 41.285156 24.996094 C 41.789062 27.183594 41.882812 29.757812 41.566406 32.648438 C 41.539062 32.914062 41.503906 33.179688 41.46875 33.445312 C 41.410156 33.472656 41.351562 33.5 41.296875 33.527344 C 40.09375 33.273438 38.78125 32.960938 37.601562 33.378906 C 36.621094 33.722656 36.757812 35.019531 36.761719 35.832031 C 36.773438 36.828125 36.800781 38.671875 37.816406 39.246094 C 38.5625 39.667969 39.378906 39.5 40.140625 39.203125 C 39.753906 40.105469 39.277344 40.9375 38.710938 41.640625 C 37.570312 43.074219 36.164062 44.125 34.636719 44.699219 C 33.09375 45.28125 31.695312 45.488281 30.226562 45.367188 C 30.113281 45.351562 29.996094 45.4375 29.949219 45.558594 C 29.945312 45.574219 29.933594 45.589844 29.933594 45.613281 C 29.921875 45.765625 30.03125 45.894531 30.179688 45.90625 C 30.464844 45.933594 30.753906 45.941406 31.035156 45.941406 L 31.078125 45.941406 C 31.3125 46.304688 31.757812 46.832031 32.253906 47.140625 C 32.296875 47.167969 32.335938 47.191406 32.378906 47.210938 C 32.390625 47.21875 32.402344 47.226562 32.414062 47.230469 C 32.402344 47.226562 32.390625 47.21875 32.378906 47.214844 C 26.734375 49.386719 22.003906 47.953125 20.453125 47.351562 C 20.332031 47.304688 20.230469 47.265625 20.152344 47.230469 C 20.105469 47.210938 20.070312 47.195312 20.039062 47.179688 C 20.070312 47.195312 20.109375 47.210938 20.152344 47.226562 C 20.722656 46.789062 21.109375 46.203125 21.277344 45.46875 Z M 16.539062 39.058594 C 13.820312 37.109375 11.753906 34.640625 10.578125 31.9375 C 9.082031 28.507812 9.527344 24.058594 11.796875 19.730469 C 11.976562 19.394531 12.195312 19.027344 12.449219 18.640625 C 14.855469 18.34375 16.929688 17.089844 18.890625 15.683594 C 20.914062 14.226562 22.964844 12.59375 24.582031 10.675781 C 25.011719 10.621094 25.386719 10.585938 25.742188 10.578125 C 26.125 10.542969 26.527344 10.527344 26.941406 10.527344 C 30.695312 10.527344 35.664062 11.882812 38.3125 14.914062 C 39.632812 16.421875 40.976562 18.191406 40.90625 19.839844 C 40.828125 20.785156 39.617188 22.253906 38.582031 22.371094 L 38.285156 22.40625 L 38.339844 22.691406 C 38.726562 24.589844 38.152344 28.3125 36.34375 30.058594 C 35.789062 30.59375 34.472656 31.382812 33.628906 31.433594 C 33.527344 31.398438 33.34375 31.332031 33.117188 31.332031 C 32.703125 31.332031 31.964844 31.550781 31.648438 32.976562 C 31.355469 34.332031 31.507812 35.394531 32.105469 36.136719 C 32.859375 37.070312 34.097656 37.238281 34.816406 37.242188 C 34.691406 37.582031 34.46875 38.066406 34.109375 38.492188 C 32.121094 40.855469 27.71875 42.136719 25.230469 42.285156 C 21.753906 42.5 18.582031 40.53125 16.539062 39.058594 Z M 7.726562 13.335938 C 5.410156 9.546875 5.40625 4.128906 9.398438 1.628906 C 10.582031 0.90625 11.902344 0.542969 13.320312 0.542969 C 15.933594 0.542969 18.765625 1.808594 20.902344 3.925781 C 22.710938 5.722656 23.558594 8.136719 24.199219 10.300781 C 22.753906 11.992188 20.972656 13.433594 19.210938 14.773438 C 17.269531 16.25 15.121094 17.679688 12.6875 18.070312 L 12.539062 17.984375 C 10.535156 16.808594 8.824219 15.160156 7.726562 13.335938 Z M 49.742188 35.539062 C 51.453125 35.578125 53.21875 35.617188 54.929688 35.828125 C 55.082031 35.84375 55.269531 35.859375 55.488281 35.871094 C 56.242188 35.921875 57.386719 35.992188 57.8125 36.480469 C 57.9375 36.625 57.992188 36.804688 57.976562 37.019531 C 57.894531 37.96875 56.699219 38.003906 55.484375 37.949219 L 55.324219 37.941406 C 54.828125 37.925781 54.332031 37.917969 53.820312 37.910156 C 52.652344 37.890625 51.457031 37.863281 50.300781 37.71875 C 50.03125 36.929688 49.679688 36.175781 49.210938 35.523438 Z M 65.089844 48.464844 L 65.101562 48.261719 L 64.910156 48.199219 C 63.632812 47.730469 62.460938 47.128906 61.738281 46.550781 C 60.90625 45.890625 60.25 45.355469 59.179688 44.609375 C 58.691406 44.265625 58.519531 43.988281 58.519531 43.847656 C 58.519531 43.824219 58.519531 43.742188 58.632812 43.660156 C 59.066406 43.441406 59.585938 43.554688 59.925781 43.769531 C 59.992188 43.855469 60.054688 43.9375 60.132812 44.019531 C 60.242188 44.136719 60.375 44.234375 60.515625 44.320312 C 61.042969 46.144531 62.734375 47.488281 64.726562 47.488281 C 67.148438 47.488281 69.113281 45.527344 69.113281 43.113281 C 69.113281 42.457031 68.960938 41.835938 68.707031 41.285156 C 68.695312 41.082031 68.675781 40.851562 68.652344 40.585938 L 68.625 40.292969 C 68.523438 39.078125 68.925781 37.207031 70.125 37.046875 C 70.226562 37.03125 70.265625 37.070312 70.28125 37.085938 C 70.511719 37.296875 70.441406 38.144531 70.414062 38.546875 C 70.394531 38.703125 70.390625 38.839844 70.390625 38.925781 L 70.394531 39.261719 C 70.402344 39.679688 70.40625 40.113281 70.378906 40.523438 C 70.34375 41.144531 70.390625 41.691406 70.441406 42.226562 C 70.503906 42.910156 70.566406 43.5625 70.429688 44.300781 C 70.316406 44.960938 70.136719 45.433594 69.914062 45.703125 C 69.835938 45.785156 69.832031 45.90625 69.875 45.996094 C 69.875 46.003906 69.875 46.007812 69.878906 46.011719 C 70.796875 48.117188 71.765625 50.195312 72.742188 52.273438 C 72.226562 53.292969 71.777344 54.417969 71.394531 55.644531 C 69.328125 54.390625 67.328125 53.027344 65.371094 51.609375 C 65.160156 50.5 65.046875 49.417969 65.089844 48.464844 Z M 59.992188 41.46875 C 60.015625 41.328125 60.054688 41.214844 60.085938 41.117188 C 60.21875 41.488281 60.445312 41.824219 60.734375 42.066406 C 61.042969 42.320312 61.53125 42.722656 62.058594 42.824219 L 62.113281 42.882812 C 62.226562 43.261719 62.21875 43.566406 62.070312 43.769531 C 61.945312 43.9375 61.71875 44.039062 61.441406 44.039062 C 61.097656 44.039062 60.75 43.886719 60.527344 43.648438 C 59.992188 43.0625 59.8125 42.332031 59.992188 41.46875 Z M 59.492188 37.382812 C 59.277344 36.851562 59.632812 36.414062 60.203125 36.523438 C 60.496094 36.582031 60.789062 36.703125 61.070312 36.84375 C 61.761719 37.878906 62.878906 38.605469 64.171875 38.773438 C 63.277344 38.886719 62.460938 39.273438 61.820312 39.847656 C 61.816406 39.851562 61.808594 39.851562 61.804688 39.855469 C 61.808594 39.851562 61.8125 39.847656 61.816406 39.84375 C 61.6875 39.753906 61.558594 39.660156 61.425781 39.5625 C 61.457031 39.585938 61.488281 39.613281 61.515625 39.636719 C 61.484375 39.613281 61.457031 39.589844 61.425781 39.566406 C 61.15625 39.351562 60.914062 39.15625 60.84375 39.09375 C 60.824219 39.078125 60.808594 39.054688 60.792969 39.042969 C 60.777344 39.027344 60.761719 39.023438 60.746094 39.015625 C 60.210938 38.550781 59.742188 38.007812 59.492188 37.382812 Z M 64.726562 30.59375 C 66.84375 30.59375 68.570312 32.320312 68.570312 34.433594 C 68.570312 36.550781 66.84375 38.269531 64.726562 38.269531 C 62.613281 38.269531 60.886719 36.550781 60.886719 34.433594 C 60.886719 32.320312 62.613281 30.59375 64.726562 30.59375 Z M 65.726562 38.691406 C 65.730469 38.703125 65.738281 38.71875 65.753906 38.730469 C 65.824219 38.792969 65.898438 38.855469 65.980469 38.914062 C 65.753906 38.847656 65.519531 38.800781 65.285156 38.773438 C 65.433594 38.75 65.578125 38.722656 65.726562 38.691406 Z M 62.511719 44.082031 C 62.640625 43.902344 62.753906 43.621094 62.722656 43.207031 C 62.753906 43.621094 62.640625 43.90625 62.511719 44.082031 C 62.445312 44.175781 62.359375 44.253906 62.265625 44.320312 C 62.714844 45.230469 63.644531 45.859375 64.730469 45.859375 C 66.25 45.859375 67.484375 44.628906 67.484375 43.109375 C 67.484375 41.589844 66.25 40.359375 64.730469 40.359375 C 64.0625 40.359375 63.460938 40.605469 62.984375 40.996094 C 62.878906 40.800781 62.753906 40.632812 62.632812 40.519531 C 62.589844 40.480469 62.457031 40.375 62.234375 40.199219 C 62.90625 39.625 63.773438 39.273438 64.726562 39.273438 C 66.84375 39.273438 68.570312 40.996094 68.570312 43.113281 C 68.570312 45.226562 66.84375 46.945312 64.726562 46.945312 C 63.125 46.945312 61.746094 45.953125 61.175781 44.554688 C 61.261719 44.566406 61.347656 44.582031 61.441406 44.582031 C 61.761719 44.582031 62.042969 44.484375 62.265625 44.320312 C 62.359375 44.25 62.445312 44.175781 62.511719 44.082031 Z M 63.179688 42.320312 C 63.261719 42.105469 63.257812 41.847656 63.203125 41.59375 C 63.257812 41.847656 63.265625 42.105469 63.179688 42.320312 C 63.140625 42.421875 63.0625 42.558594 62.914062 42.664062 C 63.058594 42.558594 63.136719 42.421875 63.179688 42.320312 Z M 60.679688 39.660156 C 60.855469 39.808594 61.136719 40.027344 61.570312 40.367188 C 61.875 40.605469 62.214844 40.871094 62.265625 40.914062 C 62.542969 41.175781 62.792969 41.816406 62.671875 42.125 C 62.65625 42.171875 62.601562 42.304688 62.304688 42.304688 L 62.296875 42.574219 L 62.296875 42.304688 C 61.878906 42.304688 61.375 41.890625 61.082031 41.648438 C 60.566406 41.21875 60.316406 40.355469 60.679688 39.660156 Z M 80.339844 45.375 L 80.710938 45.300781 C 81.132812 45.21875 81.605469 45.128906 82.054688 44.992188 C 81.640625 45.507812 81.273438 46.039062 80.996094 46.46875 C 80.4375 47.347656 80.351562 48.316406 80.769531 48.941406 C 80.9375 49.195312 81.324219 49.570312 82.105469 49.570312 C 82.253906 49.570312 82.414062 49.558594 82.59375 49.527344 C 84.820312 49.167969 86.683594 47.773438 88.480469 46.425781 C 89.046875 46.003906 89.574219 45.605469 90.109375 45.238281 C 91.089844 44.574219 93.085938 43.226562 94.433594 42.867188 C 94.792969 43.449219 95.222656 43.914062 95.757812 44.308594 C 96.320312 44.601562 96.882812 44.804688 97.449219 44.933594 C 95.917969 45.859375 94.417969 46.832031 92.988281 47.917969 C 91.566406 49 89.632812 50.503906 88.96875 52.253906 C 88.660156 53.085938 88.863281 53.972656 89.230469 54.804688 C 87.597656 56.40625 85.738281 57.902344 83.605469 58.882812 C 81.851562 59.695312 79.835938 59.789062 78.226562 59.136719 C 76.023438 58.238281 73.914062 57.140625 71.867188 55.925781 C 73.855469 49.386719 78.164062 45.800781 80.339844 45.375 Z M 76.339844 32.191406 C 76.644531 33.859375 77.238281 35.382812 78.078125 36.628906 C 78.21875 36.84375 78.367188 37.046875 78.519531 37.242188 C 78.367188 37.042969 78.21875 36.84375 78.074219 36.628906 C 77.238281 35.386719 76.640625 33.859375 76.339844 32.191406 Z M 75.875 27.21875 C 75.871094 27.195312 75.871094 27.167969 75.871094 27.144531 C 75.871094 27.167969 75.871094 27.195312 75.875 27.21875 Z M 76.800781 19.371094 C 76.800781 19.375 76.800781 19.375 76.800781 19.375 C 76.097656 21.585938 75.789062 24.136719 75.871094 27.105469 C 75.789062 24.136719 76.097656 21.585938 76.800781 19.371094 Z M 76.953125 19.671875 C 76.960938 19.683594 76.972656 19.6875 76.984375 19.6875 C 77.121094 19.742188 77.28125 19.699219 77.320312 19.527344 C 77.265625 19.78125 76.949219 19.75 76.835938 19.570312 C 76.863281 19.613281 76.90625 19.648438 76.953125 19.671875 Z M 76.800781 19.484375 C 76.804688 19.507812 76.8125 19.527344 76.824219 19.546875 C 76.8125 19.527344 76.804688 19.507812 76.800781 19.484375 Z M 76.800781 19.386719 C 76.796875 19.410156 76.796875 19.433594 76.796875 19.453125 C 76.796875 19.433594 76.796875 19.410156 76.800781 19.386719 Z M 82.964844 40.492188 C 83.015625 40.503906 83.0625 40.515625 83.113281 40.527344 C 83.160156 40.539062 83.210938 40.546875 83.257812 40.554688 C 83.210938 40.546875 83.164062 40.539062 83.117188 40.53125 C 83.0625 40.515625 83.015625 40.503906 82.964844 40.492188 Z M 82.105469 40.199219 C 81.429688 39.878906 80.789062 39.464844 80.191406 38.96875 C 80.789062 39.460938 81.429688 39.878906 82.105469 40.195312 C 82.1875 40.234375 82.273438 40.269531 82.367188 40.304688 C 82.273438 40.269531 82.183594 40.234375 82.105469 40.199219 Z M 96.324219 42.597656 C 95.949219 42.988281 95.664062 43.328125 95.234375 43.074219 C 95.140625 42.960938 95.054688 42.839844 94.972656 42.714844 C 95.097656 42.390625 95.207031 42.101562 95.363281 41.683594 C 95.726562 42.03125 95.992188 42.285156 96.324219 42.597656 Z M 77.328125 19.519531 C 77.738281 17.214844 79.097656 14.589844 81.273438 13.515625 C 80.855469 14.363281 80.722656 15.382812 80.878906 16.265625 C 81.335938 18.746094 84.375 20.019531 86.597656 20.035156 C 86.671875 20.039062 86.726562 20.011719 86.769531 19.976562 C 86.777344 19.980469 86.789062 19.980469 86.792969 19.988281 C 88.597656 21.125 90.09375 22.226562 90.992188 24.210938 C 91.5625 25.46875 92.765625 26.164062 94.085938 26.203125 C 94.210938 26.203125 94.335938 26.207031 94.46875 26.203125 C 95.269531 26.292969 95.929688 26.839844 96.277344 27.734375 C 96.703125 28.820312 96.527344 30.074219 95.839844 30.777344 C 95.464844 31.164062 94.699219 31.402344 94.097656 31.332031 C 93.976562 31.316406 93.863281 31.402344 93.847656 31.527344 C 93.835938 31.628906 93.894531 31.722656 93.988281 31.761719 C 94.003906 31.765625 94.023438 31.777344 94.042969 31.78125 L 94.109375 31.78125 C 93.597656 32.703125 93.449219 33.804688 93.316406 34.808594 C 92.914062 37.113281 93.054688 39.304688 93.734375 41.328125 C 93.863281 41.71875 94.003906 42.066406 94.167969 42.386719 C 92.742188 42.808594 90.851562 44.082031 89.808594 44.792969 C 89.257812 45.160156 88.699219 45.585938 88.15625 45.992188 C 86.414062 47.296875 84.605469 48.652344 82.507812 48.996094 C 82.078125 49.066406 81.507812 49.066406 81.222656 48.636719 C 80.925781 48.199219 81.019531 47.445312 81.453125 46.761719 C 81.9375 46.019531 82.679688 44.945312 83.546875 44.230469 C 83.554688 44.21875 83.5625 44.207031 83.570312 44.195312 C 83.632812 44.136719 83.695312 44.078125 83.757812 44.015625 C 84.328125 43.367188 84.132812 42.5 83.972656 41.804688 C 83.945312 41.691406 83.917969 41.578125 83.902344 41.46875 C 83.882812 41.382812 83.789062 41.011719 83.6875 40.628906 C 83.632812 40.617188 83.582031 40.609375 83.53125 40.601562 C 83.582031 40.609375 83.636719 40.617188 83.6875 40.625 C 84.066406 40.683594 84.453125 40.726562 84.847656 40.730469 C 84.90625 40.734375 84.964844 40.734375 85.019531 40.734375 C 86.234375 40.734375 87.441406 40.496094 88.523438 40.042969 C 88.660156 39.984375 88.726562 39.824219 88.667969 39.6875 C 88.613281 39.546875 88.449219 39.484375 88.3125 39.542969 C 88.304688 39.542969 88.292969 39.546875 88.285156 39.550781 C 87.230469 39.992188 86.046875 40.210938 84.859375 40.191406 C 84.296875 40.179688 83.734375 40.113281 83.234375 40 C 82.886719 39.917969 82.574219 39.816406 82.335938 39.707031 C 80.863281 39.011719 79.542969 37.84375 78.527344 36.328125 C 77.617188 34.972656 77.007812 33.273438 76.765625 31.40625 C 76.300781 27.839844 76.28125 24.792969 76.703125 22.171875 C 76.765625 22.214844 76.832031 22.246094 76.902344 22.257812 C 77.15625 22.300781 77.414062 22.230469 77.671875 22.207031 C 77.976562 22.183594 78.28125 22.203125 78.585938 22.222656 C 78.59375 22.222656 78.605469 22.222656 78.613281 22.226562 C 78.972656 22.25 79.335938 22.316406 79.667969 22.488281 C 79.859375 22.589844 80.039062 22.710938 80.238281 22.792969 C 80.363281 22.84375 80.582031 22.929688 80.683594 22.769531 C 80.957031 22.324219 79.949219 21.71875 79.734375 21.601562 C 79.21875 21.320312 78.640625 21.203125 78.066406 21.246094 C 77.859375 21.261719 77.652344 21.292969 77.449219 21.351562 C 77.359375 21.378906 77.035156 21.484375 76.800781 21.636719 C 76.921875 20.992188 77.070312 20.371094 77.25 19.78125 C 77.273438 19.695312 77.292969 19.609375 77.320312 19.527344 C 77.320312 19.523438 77.320312 19.523438 77.320312 19.519531 C 77.320312 19.523438 77.320312 19.523438 77.320312 19.523438 L 77.320312 19.519531 C 77.320312 19.519531 77.320312 19.519531 77.328125 19.519531 Z M 82.117188 13.203125 C 82.164062 13.183594 82.21875 13.167969 82.269531 13.160156 C 81.335938 16.03125 83.707031 17.980469 85.96875 19.453125 C 84.292969 19.285156 82.734375 18.488281 81.796875 17.046875 C 81.078125 15.953125 81.257812 14.238281 82.117188 13.203125 Z M 82.761719 13.34375 C 83.300781 16.085938 85.90625 18.148438 88.179688 19.515625 C 90.003906 20.609375 91.617188 21.824219 92.640625 23.730469 C 92.902344 24.210938 93.132812 25.046875 93.539062 25.601562 C 92.195312 25.316406 91.648438 24.144531 90.949219 22.871094 C 90.367188 21.820312 89.347656 21.054688 88.382812 20.382812 C 86.039062 18.746094 81.574219 16.878906 82.761719 13.34375 Z M 95.242188 10.648438 C 95.433594 10.734375 95.625 10.820312 95.8125 10.902344 C 95.761719 11.015625 95.699219 11.125 95.644531 11.234375 C 95.472656 11.125 95.304688 11.011719 95.136719 10.902344 C 95.171875 10.816406 95.207031 10.734375 95.242188 10.648438 Z M 96.9375 17.984375 C 97.046875 18.304688 97.125 18.539062 97.238281 18.859375 C 96.671875 18.570312 96.671875 18.570312 96.9375 17.984375 Z M 100.742188 37.585938 C 100.550781 37.6875 100.480469 37.71875 100.34375 37.792969 C 100.25 37.652344 100.152344 37.5 100.039062 37.324219 C 100.464844 36.960938 100.617188 37.15625 100.742188 37.585938 Z M 104.679688 32.585938 C 105.019531 33.292969 104.929688 33.550781 104.199219 33.703125 C 104.386719 33.273438 104.488281 33.023438 104.679688 32.585938 Z M 105.5 33.785156 C 105.585938 34.066406 105.640625 34.335938 105.742188 34.585938 C 105.84375 34.851562 105.992188 35.101562 106.167969 35.441406 C 105.792969 35.492188 105.472656 35.539062 105.101562 35.589844 C 104.527344 34.5 104.558594 34.378906 105.5 33.785156 Z M 108.871094 32.964844 C 110.613281 34.628906 111.554688 36.386719 110.515625 38.738281 C 110.445312 38.898438 110.363281 39.042969 110.277344 39.195312 C 110.304688 39.097656 110.335938 39 110.359375 38.902344 C 110.957031 36.164062 109.515625 34.445312 108.121094 32.785156 C 107.386719 31.914062 106.632812 31.007812 106.164062 29.953125 C 106.113281 29.84375 106.078125 29.730469 106.039062 29.625 C 106.765625 30.839844 107.773438 31.917969 108.871094 32.964844 Z M 62.011719 70.03125 C 61.941406 70.078125 61.863281 70.125 61.792969 70.167969 C 61.769531 70.148438 61.75 70.128906 61.726562 70.109375 C 61.824219 70.082031 61.917969 70.058594 62.011719 70.03125 Z M 49.984375 82.367188 C 50.039062 82.382812 50.105469 82.398438 50.164062 82.417969 C 50.1875 82.597656 50.214844 82.773438 50.257812 83.085938 C 50.019531 82.984375 49.894531 82.929688 49.761719 82.875 C 49.839844 82.707031 49.910156 82.535156 49.984375 82.367188 Z M 50.789062 84.003906 L 51.179688 85.550781 C 51.175781 85.554688 51.167969 85.554688 51.164062 85.558594 C 50.785156 85.292969 50.410156 85.023438 50.054688 84.773438 C 50.160156 84.148438 50.449219 84.03125 50.789062 84.003906 Z M 16.109375 56.078125 C 15.84375 55.453125 15.644531 54.960938 16.15625 54.332031 C 16.359375 54.957031 16.730469 55.445312 16.109375 56.078125 Z M 11.035156 86.855469 C 10.714844 86.574219 10.417969 86.324219 10.089844 86.03125 C 10.214844 85.71875 10.3125 85.46875 10.445312 85.132812 C 11.386719 85.664062 11.390625 85.667969 11.035156 86.855469 Z M 9.519531 74.546875 C 9.417969 74.363281 9.324219 74.171875 9.222656 73.988281 C 9.324219 73.9375 9.425781 73.890625 9.523438 73.839844 C 9.59375 74.039062 9.660156 74.242188 9.730469 74.441406 C 9.660156 74.476562 9.589844 74.511719 9.519531 74.546875 Z M 4.699219 74.183594 C 4.710938 74.085938 4.726562 73.980469 4.738281 73.878906 C 4.785156 73.964844 4.835938 74.058594 4.886719 74.15625 C 4.820312 74.164062 4.761719 74.175781 4.699219 74.183594 Z M 74.433594 24.53125 C 74.421875 24.351562 74.410156 24.167969 74.402344 23.988281 C 74.484375 23.859375 74.566406 23.734375 74.660156 23.59375 C 74.878906 23.773438 75.011719 23.890625 75.1875 24.039062 C 74.996094 24.40625 74.789062 24.574219 74.433594 24.53125 Z M 73.296875 33.046875 C 72.558594 34.378906 71.902344 35.792969 71.75 37.3125 C 71.65625 36.179688 71.894531 35.023438 72.488281 33.800781 C 73.242188 32.242188 73.980469 31.015625 74.019531 29.25 C 74.039062 28.171875 74.015625 27.058594 73.992188 25.925781 C 74.019531 26.28125 74.046875 26.636719 74.085938 27.003906 C 74.285156 29.039062 74.328125 31.179688 73.296875 33.046875 Z M 111.683594 88.128906 C 111.503906 87.269531 111.34375 86.402344 111.191406 85.539062 C 109.890625 78.292969 109.320312 70.910156 108.894531 63.578125 C 108.707031 60.433594 108.5625 57.277344 108.46875 54.125 C 108.441406 53.140625 108.421875 52.15625 108.402344 51.175781 C 108.441406 50.019531 108.316406 48.882812 108.007812 47.8125 C 107.578125 46.347656 106.730469 44.929688 105.546875 43.996094 C 105.898438 43.855469 106.242188 43.691406 106.570312 43.511719 C 106.574219 43.507812 106.578125 43.507812 106.589844 43.507812 C 106.59375 43.503906 106.605469 43.496094 106.613281 43.492188 C 107.410156 43.050781 108.105469 42.527344 108.6875 41.921875 C 110.511719 40.296875 111.933594 38.164062 111.414062 35.660156 C 111.042969 33.878906 109.339844 32.703125 108.144531 31.488281 C 106.917969 30.234375 106 28.859375 105.632812 27.242188 C 105.628906 26.25 105.773438 25.21875 105.929688 24.15625 C 106.203125 22.269531 106.488281 20.316406 105.910156 18.398438 C 104.714844 14.53125 101.066406 10.695312 96.609375 8.636719 C 93.386719 7.214844 86.398438 6.546875 83.675781 10.148438 C 81.519531 9.214844 79.320312 10.398438 78.183594 11.199219 C 77.207031 11.894531 76.402344 12.816406 75.761719 13.839844 C 72.6875 18.25 73.53125 24.183594 73.476562 29.25 C 73.453125 31.289062 72.269531 32.773438 71.542969 34.609375 C 70.722656 36.65625 71.191406 38.667969 72.25 40.480469 C 72.335938 40.648438 72.4375 40.824219 72.5625 40.996094 C 72.574219 41.011719 72.585938 41.035156 72.601562 41.050781 C 72.609375 41.054688 72.613281 41.0625 72.617188 41.066406 C 73.398438 42.113281 74.800781 43.15625 76.503906 43.898438 C 77.75 44.449219 78.988281 44.769531 80.136719 44.867188 C 78.347656 45.28125 75.300781 47.578125 73.0625 51.679688 C 72.164062 49.765625 71.269531 47.84375 70.425781 45.910156 C 70.664062 45.5625 70.847656 45.070312 70.96875 44.390625 C 71.109375 43.582031 71.042969 42.867188 70.984375 42.179688 C 70.933594 41.664062 70.886719 41.132812 70.925781 40.5625 C 70.949219 40.121094 70.945312 39.683594 70.941406 39.253906 L 70.933594 38.917969 C 70.933594 38.84375 70.941406 38.722656 70.949219 38.589844 C 71.015625 37.796875 71.039062 37.054688 70.65625 36.6875 C 70.550781 36.585938 70.359375 36.46875 70.054688 36.511719 C 68.703125 36.6875 68.050781 38.3125 68.066406 39.898438 C 67.601562 39.324219 66.910156 38.960938 66.328125 38.5 C 67.957031 37.859375 69.117188 36.28125 69.117188 34.433594 C 69.117188 32.019531 67.148438 30.050781 64.726562 30.050781 C 62.308594 30.050781 60.34375 32.019531 60.34375 34.433594 C 60.34375 35.03125 60.46875 35.597656 60.6875 36.121094 C 59.882812 35.859375 59.085938 35.855469 58.890625 36.867188 C 58.773438 37.449219 59.191406 38.050781 59.519531 38.480469 C 59.746094 38.777344 60.007812 39.042969 60.28125 39.296875 C 60.082031 39.605469 59.980469 39.941406 59.964844 40.28125 C 59.8125 40.421875 59.589844 40.730469 59.460938 41.355469 C 59.335938 41.960938 59.367188 42.535156 59.546875 43.046875 C 59.171875 42.976562 58.746094 42.996094 58.351562 43.195312 C 58.039062 43.417969 57.976562 43.675781 57.976562 43.847656 C 57.976562 44.234375 58.28125 44.632812 58.871094 45.050781 C 59.921875 45.789062 60.570312 46.316406 61.433594 47 C 62.398438 47.773438 63.8125 48.367188 64.542969 48.636719 C 64.519531 49.417969 64.597656 50.273438 64.742188 51.152344 C 63.308594 50.105469 61.902344 49.042969 60.5 47.984375 C 57.496094 45.714844 54.398438 43.363281 51.207031 41.320312 C 51.148438 41.066406 51.089844 40.800781 51.027344 40.523438 C 50.871094 39.800781 50.703125 39.035156 50.480469 38.289062 C 51.582031 38.40625 52.714844 38.429688 53.816406 38.453125 C 54.316406 38.457031 54.816406 38.46875 55.308594 38.484375 L 55.460938 38.488281 C 55.652344 38.5 55.867188 38.503906 56.097656 38.503906 C 57.121094 38.503906 58.410156 38.328125 58.519531 37.0625 C 58.546875 36.695312 58.449219 36.378906 58.226562 36.121094 C 57.648438 35.464844 56.421875 35.386719 55.519531 35.328125 C 55.320312 35.316406 55.132812 35.304688 54.992188 35.289062 C 53.261719 35.074219 51.480469 35.035156 49.757812 34.996094 L 48.851562 34.976562 C 48.820312 34.976562 48.78125 34.976562 48.75 34.96875 C 48.136719 34.335938 47.347656 33.847656 46.316406 33.613281 C 44.386719 33.160156 42.992188 33.050781 42.039062 33.265625 C 42.0625 33.082031 42.089844 32.890625 42.105469 32.707031 C 42.433594 29.757812 42.332031 27.121094 41.816406 24.871094 L 41.738281 24.523438 C 41.496094 23.476562 41.230469 22.339844 40.878906 21.277344 C 41.015625 21.074219 41.128906 20.867188 41.21875 20.667969 C 41.34375 20.390625 41.425781 20.113281 41.449219 19.871094 C 41.53125 18.023438 40.117188 16.152344 38.722656 14.554688 C 37.730469 13.421875 36.425781 12.511719 34.984375 11.8125 C 32.421875 10.5625 29.425781 9.984375 26.941406 9.984375 C 26.511719 9.984375 26.09375 10 25.710938 10.03125 C 25.488281 10.039062 25.242188 10.058594 24.988281 10.082031 C 24.980469 9.894531 24.785156 9.722656 24.621094 9.820312 C 23.972656 7.679688 23.089844 5.332031 21.28125 3.542969 C 19.050781 1.324219 16.074219 0 13.320312 0 C 11.800781 0 10.382812 0.390625 9.113281 1.167969 C 4.832031 3.84375 4.816406 9.601562 7.265625 13.617188 C 8.320312 15.375 9.921875 16.96875 11.804688 18.164062 C 11.800781 18.164062 11.792969 18.167969 11.789062 18.167969 C 11.453125 18.183594 11.441406 18.695312 11.765625 18.707031 C 11.597656 18.976562 11.445312 19.230469 11.324219 19.480469 C 8.96875 23.949219 8.519531 28.570312 10.078125 32.148438 C 11.300781 34.949219 13.421875 37.488281 16.226562 39.5 C 16.632812 39.789062 17.085938 40.105469 17.578125 40.414062 C 18.398438 41.222656 19.324219 42.019531 20.375 42.8125 C 20.386719 42.824219 20.402344 42.828125 20.417969 42.832031 C 20.429688 42.839844 20.4375 42.851562 20.445312 42.851562 C 21.085938 43.09375 20.925781 44.585938 20.75 45.34375 C 20.5 46.425781 19.730469 47.117188 18.449219 47.421875 L 17.953125 47.53125 C 16.988281 47.753906 15.988281 47.984375 15.035156 48.355469 C 13.210938 49.078125 11.5 50.074219 9.957031 51.320312 C 7.410156 53.382812 5.636719 56.105469 4.097656 58.742188 C 2.078125 62.207031 0.90625 65.660156 0.601562 69.003906 C 0.59375 69.09375 0.628906 69.179688 0.703125 69.242188 C 0.878906 69.382812 1.078125 69.523438 1.285156 69.675781 C 1.136719 71.214844 0.0625 83.136719 1.007812 88.378906 C 1.03125 88.511719 1.144531 88.601562 1.273438 88.601562 C 1.289062 88.601562 1.308594 88.601562 1.324219 88.597656 C 1.34375 88.589844 1.367188 88.585938 1.382812 88.574219 C 1.496094 88.53125 1.5625 88.40625 1.539062 88.28125 C 0.671875 83.433594 1.582031 72.386719 1.796875 70.019531 C 2.625 70.570312 3.625 71.144531 4.761719 71.722656 C 3.925781 78 3.925781 84.109375 3.925781 88.332031 C 3.925781 88.476562 4.042969 88.601562 4.195312 88.601562 L 4.195312 88.855469 L 20.886719 88.855469 C 20.402344 88.113281 21.335938 87.816406 21.457031 87.171875 C 21.738281 87.496094 21.929688 87.703125 22.125 87.925781 C 21.847656 88.222656 21.578125 88.515625 21.292969 88.8125 C 21.277344 88.828125 21.265625 88.839844 21.25 88.859375 L 52.023438 88.859375 L 51.980469 88.695312 L 51.953125 88.574219 C 51.980469 88.585938 51.996094 88.601562 52.023438 88.601562 C 52.046875 88.601562 52.074219 88.597656 52.09375 88.589844 C 52.242188 88.554688 52.328125 88.40625 52.289062 88.261719 L 48.992188 75.582031 C 51.699219 75.085938 55.546875 73.675781 58.808594 72.09375 C 58.921875 72.417969 59.0625 72.792969 59.226562 73.222656 C 59.382812 73.648438 59.5625 74.132812 59.757812 74.664062 C 60.714844 77.285156 61.996094 81.160156 62.828125 86.027344 C 62.957031 86.785156 63.074219 87.5625 63.179688 88.363281 C 63.195312 88.488281 63.296875 88.585938 63.421875 88.597656 C 63.433594 88.601562 63.4375 88.601562 63.449219 88.601562 C 63.460938 88.601562 63.472656 88.601562 63.484375 88.597656 C 63.628906 88.582031 63.738281 88.445312 63.71875 88.292969 C 62.804688 81.222656 60.804688 75.894531 59.730469 73.03125 C 59.5625 72.582031 59.414062 72.1875 59.296875 71.851562 C 61.039062 70.976562 62.578125 70.066406 63.617188 69.242188 C 63.722656 69.152344 63.75 69.003906 63.679688 68.886719 C 62.066406 66.21875 60.292969 63.367188 58.308594 60.65625 C 62.445312 65.667969 66.828125 70.335938 69.683594 71.566406 C 70.542969 71.945312 71.390625 72.277344 72.238281 72.558594 L 71.671875 88.320312 C 71.667969 88.472656 71.789062 88.597656 71.933594 88.601562 C 71.9375 88.601562 71.945312 88.601562 71.945312 88.601562 C 72.089844 88.601562 72.210938 88.488281 72.214844 88.335938 L 72.777344 72.722656 C 75.082031 73.4375 77.371094 73.800781 79.695312 73.800781 C 83.574219 73.800781 87.554688 72.804688 91.886719 70.796875 C 94.683594 69.496094 97.195312 67.613281 99.460938 65.507812 C 100.625 66.058594 101.855469 65.042969 102.621094 64.269531 C 104.074219 62.796875 105.09375 60.863281 106 59.023438 C 106.671875 57.660156 107.296875 56.234375 107.742188 54.769531 C 107.78125 54.640625 107.824219 54.515625 107.863281 54.390625 C 107.894531 54.289062 107.925781 54.1875 107.953125 54.082031 C 107.925781 54.1875 107.894531 54.289062 107.863281 54.394531 C 107.882812 54.320312 107.910156 54.242188 107.933594 54.167969 C 108.023438 57.308594 108.171875 60.449219 108.351562 63.578125 C 108.824219 71.832031 109.492188 80.164062 111.15625 88.273438 C 111.226562 88.617188 111.75 88.472656 111.683594 88.128906 "/></g><path style=" stroke:none;fill-rule:nonzero;fill:#100f0d;fill-opacity:1;" d="M 80.691406 34.375 C 82.054688 35.148438 84.058594 35.191406 85.242188 34.101562 C 85.367188 33.988281 85.480469 33.867188 85.585938 33.726562 C 85.796875 33.445312 85.324219 33.175781 85.117188 33.453125 C 85.074219 33.511719 85.015625 33.554688 84.96875 33.605469 C 83.996094 34.652344 82.121094 34.5625 80.964844 33.910156 C 80.660156 33.734375 80.386719 34.203125 80.691406 34.375 "/><path style=" stroke:none;fill-rule:nonzero;fill:#100f0d;fill-opacity:1;" d="M 84.507812 22.257812 C 84.761719 22.300781 85.019531 22.230469 85.273438 22.207031 C 85.582031 22.183594 85.886719 22.203125 86.191406 22.222656 C 86.5625 22.246094 86.933594 22.3125 87.273438 22.488281 C 87.464844 22.589844 87.644531 22.710938 87.84375 22.792969 C 87.964844 22.84375 88.1875 22.929688 88.285156 22.769531 C 88.5625 22.328125 87.554688 21.71875 87.339844 21.601562 C 86.632812 21.21875 85.820312 21.132812 85.054688 21.355469 C 84.894531 21.398438 83.972656 21.691406 84.199219 22.066406 C 84.269531 22.183594 84.386719 22.238281 84.507812 22.257812 "/><path style=" stroke:none;fill-rule:nonzero;fill:#100f0d;fill-opacity:1;" d="M 84.84375 24.992188 C 84.980469 24.339844 85.421875 23.878906 85.832031 23.964844 C 86.246094 24.050781 86.46875 24.644531 86.335938 25.296875 C 86.199219 25.949219 85.757812 26.410156 85.347656 26.324219 C 84.933594 26.242188 84.710938 25.644531 84.84375 24.992188 "/><path style=" stroke:none;fill-rule:nonzero;fill:#100f0d;fill-opacity:1;" d="M 77.242188 24.992188 C 77.378906 24.339844 77.820312 23.878906 78.234375 23.964844 C 78.644531 24.050781 78.867188 24.648438 78.734375 25.300781 C 78.597656 25.953125 78.15625 26.410156 77.746094 26.328125 C 77.332031 26.242188 77.109375 25.644531 77.242188 24.992188 "/><path style=" stroke:none;fill-rule:nonzero;fill:#100f0d;fill-opacity:1;" d="M 80.863281 31.574219 C 81.175781 31.722656 81.453125 31.253906 81.136719 31.105469 C 79.480469 30.324219 79.902344 29.089844 80.636719 27.792969 C 80.820312 27.464844 81 27.136719 81.171875 26.804688 C 81.585938 26.019531 81.945312 25.214844 82.160156 24.335938 C 82.242188 23.996094 81.71875 23.851562 81.636719 24.191406 C 81.496094 24.769531 81.15625 25.433594 80.789062 26.121094 C 79.710938 28.136719 78.367188 30.398438 80.863281 31.574219 "/></g></svg>