<svg xmlns="http://www.w3.org/2000/svg" xmlns:xlink="http://www.w3.org/1999/xlink" width="150" zoomAndPan="magnify" viewBox="0 0 112.5 112.499997" height="150" preserveAspectRatio="xMidYMid meet" version="1.2"><defs><clipPath id="faf4878348"><path d="M 0 0 L 100.871094 0 L 100.871094 110.957031 L 0 110.957031 Z M 0 0 "/></clipPath><clipPath id="b99c88d794"><path d="M 0 0 L 100.871094 0 L 100.871094 110.957031 L 0 110.957031 Z M 0 0 "/></clipPath></defs><g id="affa5244ba"><g clip-rule="nonzero" clip-path="url(#faf4878348)"><path style=" stroke:none;fill-rule:nonzero;fill:#ffffff;fill-opacity:1;" d="M 61.222656 47.128906 L 56.269531 47.128906 C 55.683594 47.128906 55.207031 47.605469 55.207031 48.1875 L 55.207031 48.542969 C 55.207031 48.832031 55.320312 49.097656 55.523438 49.300781 L 55.832031 49.605469 L 48.949219 49.605469 L 48.722656 48.9375 C 48.402344 47.996094 48.09375 47.097656 47.902344 46.527344 L 47.851562 46.382812 L 47.988281 46.3125 C 49.179688 45.714844 50.140625 45.132812 50.773438 44.632812 C 50.285156 43.828125 49.847656 43.113281 49.425781 42.449219 L 49.253906 42.179688 L 61.222656 42.179688 Z M 45.222656 88.589844 L 45.488281 88.5625 L 45.40625 88.816406 C 44.851562 90.542969 44.152344 92.261719 43.539062 93.777344 L 43.460938 93.96875 C 43.105469 94.84375 42.769531 95.667969 42.488281 96.4375 C 42.289062 96.992188 42.089844 97.800781 41.929688 98.714844 L 41.582031 98.71875 C 41.070312 95.925781 40.492188 93.191406 39.855469 90.589844 L 39.835938 90.519531 L 39.871094 90.457031 C 40.050781 90.15625 40.230469 89.851562 40.40625 89.546875 L 40.800781 88.882812 L 40.894531 88.878906 C 42.480469 88.800781 43.894531 88.707031 45.222656 88.589844 Z M 36.960938 97.921875 C 36.550781 97.664062 36.210938 97.457031 36.027344 97.351562 L 35.894531 97.269531 L 35.957031 97.128906 C 36.082031 96.828125 36.226562 96.515625 36.402344 96.167969 L 36.597656 95.78125 L 36.730469 96.191406 C 36.875 96.644531 37.023438 97.097656 37.171875 97.550781 L 37.375 98.175781 Z M 100.675781 57.914062 L 93.070312 57.902344 L 93.070312 51.371094 C 93.070312 50.398438 92.277344 49.605469 91.300781 49.605469 L 80.40625 49.605469 L 80.714844 49.300781 C 80.921875 49.097656 81.039062 48.828125 81.039062 48.542969 L 81.039062 48.191406 C 81.039062 47.605469 80.5625 47.128906 79.976562 47.128906 L 75.023438 47.128906 L 75.023438 42.179688 L 91.300781 42.179688 C 92.273438 42.179688 93.070312 41.386719 93.070312 40.410156 L 93.070312 12.121094 C 93.070312 11.144531 92.273438 10.351562 91.300781 10.351562 L 45.296875 10.351562 C 44.324219 10.351562 43.527344 11.144531 43.527344 12.121094 L 43.527344 34.964844 L 43.230469 34.695312 C 43.152344 34.621094 43.070312 34.546875 42.992188 34.480469 C 40.417969 32.246094 37.179688 31.027344 33.367188 30.851562 L 33.097656 30.839844 C 32.445312 30.816406 31.710938 30.789062 31.195312 30.394531 L 31.082031 30.390625 L 31.082031 30.292969 C 30.84375 30.050781 30.820312 29.707031 30.824219 29.425781 L 30.828125 29.289062 L 30.964844 29.257812 C 31.34375 29.171875 31.703125 29.070312 32.066406 28.9375 C 33.085938 28.550781 34.03125 27.84375 34.796875 26.886719 C 35.476562 26.03125 35.972656 24.933594 36.234375 23.707031 C 36.449219 22.699219 36.601562 21.789062 36.691406 20.929688 C 36.902344 19.027344 36.839844 17.328125 36.503906 15.882812 L 36.453125 15.652344 C 36.324219 15.085938 36.164062 14.378906 35.957031 13.71875 L 35.921875 13.601562 L 36.019531 13.527344 C 36.585938 13.089844 36.824219 12.554688 36.730469 11.925781 C 36.53125 10.632812 35.515625 9.570312 34.648438 8.789062 C 33.742188 7.972656 32.683594 7.417969 31.113281 6.941406 C 29.699219 6.515625 28.476562 6.308594 27.378906 6.308594 C 26.734375 6.308594 26.132812 6.382812 25.582031 6.53125 L 25.523438 6.582031 L 25.453125 6.582031 L 25.417969 6.585938 L 25.273438 6.585938 L 25.238281 6.460938 C 24.816406 5.019531 24.265625 3.386719 23.054688 2.183594 C 21.664062 0.800781 19.816406 -0.0234375 18.117188 -0.0234375 C 17.1875 -0.0234375 16.328125 0.214844 15.558594 0.6875 C 14.890625 1.101562 14.371094 1.65625 14.003906 2.347656 C 12.941406 3.972656 12.738281 6.03125 13.449219 7.992188 C 14.128906 9.851562 15.542969 11.214844 17.058594 11.46875 C 17.113281 11.480469 17.160156 11.484375 17.214844 11.488281 L 17.601562 11.511719 L 17.332031 11.789062 C 17.074219 12.054688 16.835938 12.328125 16.632812 12.597656 C 15.402344 14.210938 14.898438 16.027344 15.210938 17.722656 C 15.265625 18.019531 15.351562 18.332031 15.46875 18.667969 C 15.65625 19.195312 15.914062 19.707031 16.226562 20.191406 L 16.242188 20.230469 C 16.269531 20.304688 16.296875 20.375 16.328125 20.445312 C 17.097656 22.207031 18.441406 23.816406 20.210938 25.09375 L 20.421875 25.238281 L 20.433594 25.253906 C 20.96875 25.847656 21.613281 26.445312 22.347656 27.03125 C 22.492188 27.148438 22.636719 27.261719 22.800781 27.386719 C 22.8125 27.390625 22.820312 27.394531 22.820312 27.398438 C 23.472656 27.648438 23.164062 29.070312 23.128906 29.230469 C 22.949219 30 22.398438 30.5 21.492188 30.71875 L 21.171875 30.792969 C 20.492188 30.945312 19.882812 31.089844 19.292969 31.316406 C 18.125 31.777344 17.027344 32.421875 16.03125 33.222656 C 14.394531 34.554688 13.25 36.3125 12.257812 38.011719 C 10.953125 40.253906 10.195312 42.480469 10 44.632812 C 10.113281 44.722656 10.242188 44.816406 10.375 44.910156 L 10.457031 44.964844 L 10.289062 47.78125 L 9.867188 47.828125 C 7.539062 48.082031 5.132812 48.347656 4.230469 50.335938 C 3.832031 51.066406 3.765625 57.625 3.765625 57.625 L -1.234375 57.796875 L -1.234375 59.566406 C -0.410156 59.566406 0.414062 59.566406 1.242188 59.570312 L 4.058594 59.570312 L 4.070312 59.734375 C 4.566406 67.101562 5.75 76.9375 6.367188 81.570312 C 6.695312 83.03125 7.148438 84.945312 7.738281 86.757812 C 8.089844 87.835938 8.703125 88.453125 9.726562 88.75 L 9.890625 88.796875 L 9.847656 88.964844 C 8.167969 95.484375 6.882812 102.621094 5.921875 110.78125 L 7.652344 110.78125 C 9.492188 105.703125 11.339844 99.988281 13.136719 94.433594 C 13.6875 92.71875 14.230469 91.050781 14.761719 89.421875 L 14.804688 89.292969 L 14.941406 89.300781 C 16.972656 89.441406 19.132812 89.507812 21.554688 89.507812 C 21.871094 89.507812 22.1875 89.503906 22.503906 89.503906 L 22.730469 89.5 L 22.675781 89.722656 C 21.5 94.390625 20.578125 99.3125 19.851562 104.769531 L 21.585938 104.769531 C 23.441406 100.308594 25.304688 95.257812 27.109375 90.375 C 27.21875 90.082031 27.324219 89.796875 27.429688 89.503906 L 27.472656 89.390625 L 27.59375 89.386719 C 27.949219 89.375 28.304688 89.363281 28.664062 89.347656 L 28.960938 89.335938 L 28.875 89.582031 C 28.367188 91.039062 27.78125 92.496094 27.257812 93.777344 L 27.125 94.113281 C 26.792969 94.933594 26.476562 95.710938 26.214844 96.4375 C 25.710938 97.800781 25.402344 100.277344 25.402344 101.003906 C 25.402344 102.203125 25.449219 103.882812 25.449219 103.882812 L 25.542969 104.238281 C 25.542969 104.238281 25.996094 104.839844 26.140625 105 L 27.851562 105 C 30.527344 104.976562 34.019531 104.917969 37.082031 104.867188 C 37.589844 104.863281 39.574219 104.839844 39.574219 104.839844 L 39.617188 104.964844 C 40.375 107.207031 41.039062 109.109375 41.640625 110.78125 L 43.375 110.78125 L 43.375 110.777344 C 43.148438 108.863281 42.894531 106.921875 42.613281 105.003906 L 42.585938 104.816406 L 42.777344 104.804688 C 42.839844 104.800781 42.894531 104.800781 42.925781 104.800781 C 42.972656 104.800781 43.019531 104.789062 43.074219 104.777344 L 43.125 104.769531 L 57.039062 104.769531 L 57.699219 104.777344 C 58.492188 104.785156 59.035156 104.792969 59.203125 104.792969 C 59.238281 104.792969 59.265625 104.789062 59.320312 104.78125 C 59.363281 104.78125 59.40625 104.773438 59.464844 104.753906 C 59.476562 104.75 59.492188 104.746094 59.503906 104.742188 L 59.511719 104.734375 L 59.558594 104.71875 C 59.570312 104.714844 59.589844 104.703125 59.617188 104.683594 C 59.683594 104.652344 59.738281 104.609375 59.777344 104.558594 C 59.800781 104.535156 59.820312 104.515625 59.835938 104.488281 C 59.851562 104.464844 60.125 104.15625 60.125 104.15625 C 60.132812 104.113281 60.125 103.960938 60.125 103.960938 C 60.078125 103.460938 59.472656 102.363281 57.082031 100.527344 C 56.871094 100.363281 56.570312 100.152344 56.164062 99.886719 L 56.097656 99.84375 L 56.085938 99.769531 C 55.6875 97.371094 55.238281 95.035156 54.746094 92.828125 L 54.730469 92.757812 L 54.769531 92.695312 C 55.105469 92.175781 55.484375 91.585938 55.824219 91.003906 L 56.664062 89.597656 C 58.300781 86.855469 60.15625 83.75 61.171875 80.972656 L 61.183594 80.945312 C 61.679688 79.476562 62.273438 77.238281 62.273438 74.933594 C 62.273438 71.441406 60.957031 68.761719 58.359375 66.972656 C 55.832031 65.226562 52.429688 64.808594 49.117188 64.398438 L 47.949219 64.25 C 47.003906 64.128906 45.285156 63.839844 44.703125 63.738281 L 44.585938 63.71875 L 44.558594 63.605469 C 44.492188 63.324219 44.367188 62.96875 44.195312 62.542969 C 43.800781 61.554688 43.246094 60.476562 43.121094 60.242188 L 43.101562 60.183594 L 43.027344 59.613281 L 44.4375 59.613281 L 44.488281 59.65625 C 45.503906 60.539062 47.089844 61.007812 49.078125 61.007812 C 51.496094 61.007812 54.460938 60.546875 57.878906 59.636719 L 57.902344 59.628906 L 64.121094 59.636719 C 74.632812 59.652344 85.140625 59.664062 95.648438 59.675781 L 100.675781 59.683594 L 100.675781 57.914062 "/></g><path style=" stroke:none;fill-rule:nonzero;fill:#100f0d;fill-opacity:1;" d="M 68.269531 41.085938 C 67.964844 41.085938 67.71875 40.839844 67.71875 40.535156 C 67.71875 40.230469 67.964844 39.984375 68.269531 39.984375 C 68.574219 39.984375 68.820312 40.230469 68.820312 40.535156 C 68.820312 40.839844 68.574219 41.085938 68.269531 41.085938 Z M 68.269531 39.628906 C 67.773438 39.628906 67.363281 40.035156 67.363281 40.535156 C 67.363281 41.03125 67.773438 41.4375 68.269531 41.4375 C 68.769531 41.4375 69.171875 41.03125 69.171875 40.535156 C 69.171875 40.035156 68.769531 39.628906 68.269531 39.628906 "/><path style=" stroke:none;fill-rule:nonzero;fill:#100f0d;fill-opacity:1;" d="M 43.128906 57.757812 L 43.089844 57.609375 C 43.09375 57.617188 43.089844 57.625 43.09375 57.632812 C 43.101562 57.675781 43.117188 57.714844 43.128906 57.757812 "/><path style=" stroke:none;fill-rule:nonzero;fill:#100f0d;fill-opacity:1;" d="M 46.890625 17.25 L 50.429688 17.25 L 50.429688 35.28125 L 46.890625 35.28125 Z M 46.535156 17.070312 L 46.535156 35.460938 C 46.535156 35.558594 46.613281 35.636719 46.710938 35.636719 L 50.605469 35.636719 C 50.699219 35.636719 50.78125 35.558594 50.78125 35.460938 L 50.78125 17.070312 C 50.78125 16.972656 50.699219 16.894531 50.605469 16.894531 L 46.714844 16.894531 C 46.613281 16.894531 46.535156 16.972656 46.535156 17.070312 "/><path style=" stroke:none;fill-rule:nonzero;fill:#100f0d;fill-opacity:1;" d="M 89.707031 24.675781 L 82.984375 24.675781 L 82.984375 17.601562 L 89.707031 17.601562 Z M 90.0625 17.25 L 82.628906 17.25 L 82.628906 25.027344 L 90.0625 25.027344 L 90.0625 17.25 "/><path style=" stroke:none;fill-rule:nonzero;fill:#100f0d;fill-opacity:1;" d="M 82.984375 26.441406 L 89.707031 26.441406 L 89.707031 33.515625 L 82.984375 33.515625 Z M 82.808594 33.867188 L 89.882812 33.867188 C 89.980469 33.867188 90.0625 33.792969 90.0625 33.691406 L 90.0625 26.265625 C 90.0625 26.167969 89.980469 26.089844 89.882812 26.089844 L 82.808594 26.089844 C 82.707031 26.089844 82.628906 26.167969 82.628906 26.265625 L 82.628906 33.691406 C 82.628906 33.792969 82.707031 33.867188 82.808594 33.867188 "/><path style=" stroke:none;fill-rule:nonzero;fill:#100f0d;fill-opacity:1;" d="M 83.335938 19.722656 L 85.105469 19.722656 L 85.105469 21.492188 L 83.335938 21.492188 L 83.335938 19.722656 "/><path style=" stroke:none;fill-rule:nonzero;fill:#100f0d;fill-opacity:1;" d="M 85.816406 20.078125 L 86.875 20.078125 L 86.875 21.136719 L 85.816406 21.136719 Z M 85.460938 21.492188 L 87.230469 21.492188 L 87.230469 19.722656 L 85.460938 19.722656 L 85.460938 21.492188 "/><path style=" stroke:none;fill-rule:nonzero;fill:#100f0d;fill-opacity:1;" d="M 83.691406 22.199219 L 84.753906 22.199219 L 84.753906 23.257812 L 83.691406 23.257812 Z M 83.335938 23.613281 L 85.105469 23.613281 L 85.105469 21.84375 L 83.335938 21.84375 L 83.335938 23.613281 "/><path style=" stroke:none;fill-rule:nonzero;fill:#100f0d;fill-opacity:1;" d="M 87.582031 19.722656 L 89.351562 19.722656 L 89.351562 21.492188 L 87.582031 21.492188 L 87.582031 19.722656 "/><path style=" stroke:none;fill-rule:nonzero;fill:#100f0d;fill-opacity:1;" d="M 85.460938 21.84375 L 87.230469 21.84375 L 87.230469 23.613281 L 85.460938 23.613281 L 85.460938 21.84375 "/><path style=" stroke:none;fill-rule:nonzero;fill:#100f0d;fill-opacity:1;" d="M 83.335938 18.664062 L 89.351562 18.664062 L 89.351562 19.015625 L 83.335938 19.015625 L 83.335938 18.664062 "/><g clip-rule="nonzero" clip-path="url(#b99c88d794)"><path style=" stroke:none;fill-rule:nonzero;fill:#100f0d;fill-opacity:1;" d="M 100.5 59.503906 L 100.238281 59.503906 C 99.824219 59.503906 99.410156 59.503906 98.992188 59.503906 C 97.472656 59.503906 95.957031 59.5 94.4375 59.5 C 83.710938 59.484375 72.984375 59.46875 62.257812 59.457031 C 61.230469 59.457031 60.210938 59.457031 59.183594 59.453125 C 61.28125 58.84375 62.890625 58.257812 63.453125 58.046875 C 63.457031 58.046875 63.457031 58.042969 63.457031 58.042969 C 63.804688 58.046875 64.148438 58.046875 64.496094 58.046875 C 65.558594 58.046875 66.621094 58.046875 67.683594 58.050781 C 67.636719 58.046875 67.597656 58.046875 67.550781 58.046875 C 67.59375 58.046875 67.636719 58.046875 67.683594 58.046875 C 67.726562 58.050781 67.765625 58.046875 67.808594 58.046875 C 77.179688 58.0625 86.554688 58.074219 95.929688 58.085938 C 97.210938 58.085938 98.492188 58.085938 99.777344 58.089844 L 100.5 58.089844 Z M 67.367188 58.042969 L 67.257812 58.039062 C 66.824219 58.03125 65.980469 58.015625 65.210938 58.003906 C 65.980469 58.015625 66.820312 58.03125 67.253906 58.039062 Z M 49.078125 60.832031 C 45.988281 60.832031 44.007812 59.707031 43.472656 57.671875 L 43.382812 57.304688 L 41.351562 48.902344 C 43.113281 48.582031 45.625 47.664062 47.746094 46.628906 C 47.746094 46.632812 47.746094 46.632812 47.75 46.636719 C 48.332031 48.347656 49.851562 52.789062 49.851562 52.789062 C 49.875 52.863281 49.941406 52.902344 50.023438 52.910156 L 62.929688 52.726562 C 62.96875 52.726562 63.007812 52.714844 63.039062 52.6875 C 63.355469 52.433594 64.257812 51.761719 64.671875 51.722656 C 65.089844 51.679688 65.578125 51.609375 65.886719 51.558594 L 65.53125 52.417969 C 65.503906 52.488281 65.519531 52.570312 65.582031 52.621094 C 65.636719 52.671875 65.722656 52.675781 65.785156 52.640625 L 67.484375 51.601562 C 67.695312 51.617188 68.519531 51.757812 68.507812 52.832031 C 68.507812 52.886719 68.53125 52.9375 68.570312 52.972656 C 68.601562 52.996094 69.351562 53.617188 68.9375 54.414062 C 68.898438 54.480469 68.914062 54.570312 68.96875 54.621094 C 68.988281 54.644531 69.5 55.15625 69.089844 56.1875 C 69.070312 56.230469 69.070312 56.285156 69.089844 56.328125 C 69.25 56.65625 69.261719 56.855469 69.136719 57.125 C 68.855469 57.734375 68.085938 57.710938 67.46875 57.691406 L 67.261719 57.683594 C 66.347656 57.671875 63.609375 57.621094 63.609375 57.621094 C 63.585938 57.621094 63.5625 57.625 63.542969 57.632812 C 63.460938 57.664062 55.367188 60.832031 49.078125 60.832031 Z M 43.183594 59.433594 L 43.15625 59.269531 L 43.03125 58.3125 C 43.117188 58.304688 43.210938 58.292969 43.296875 58.277344 C 43.300781 58.277344 43.300781 58.28125 43.300781 58.28125 C 43.476562 58.710938 43.714844 59.097656 44.011719 59.433594 Z M 44.414062 63.753906 L 44.4375 63.871094 L 44.554688 63.894531 C 44.578125 63.898438 46.78125 64.28125 47.925781 64.429688 C 48.3125 64.476562 48.703125 64.523438 49.09375 64.574219 C 52.371094 64.976562 55.761719 65.398438 58.265625 67.121094 C 59 67.628906 59.601562 68.195312 60.101562 68.796875 C 59.019531 69.992188 57.695312 70.976562 56.34375 71.832031 C 55.480469 72.378906 54.496094 72.957031 53.460938 73.289062 C 53.167969 73.074219 52.777344 72.898438 52.273438 72.75 C 52.160156 72.71875 52.046875 72.691406 51.933594 72.660156 C 50.765625 72.332031 49.578125 72.054688 48.410156 71.722656 C 45.886719 71.011719 42.574219 70.09375 41.109375 67.699219 C 40.21875 66.363281 39.910156 64.761719 39.777344 63.101562 C 39.738281 62.636719 39.71875 62.167969 39.699219 61.699219 C 39.683594 61.257812 39.671875 60.824219 39.65625 60.390625 L 42.996094 60.390625 C 43.226562 60.835938 44.195312 62.746094 44.414062 63.753906 Z M 61.039062 80.8125 C 61.03125 80.839844 61.019531 80.859375 61.015625 80.886719 C 61.015625 80.886719 61.011719 80.886719 61.011719 80.890625 C 61.003906 80.921875 60.988281 80.953125 60.976562 80.984375 C 59.960938 83.738281 58.117188 86.824219 56.488281 89.550781 C 56.207031 90.019531 55.933594 90.476562 55.671875 90.917969 C 55.398438 91.378906 55.109375 91.84375 54.804688 92.308594 C 54.339844 90.242188 53.828125 88.25 53.273438 86.320312 C 53.933594 85.417969 54.199219 84.101562 54.285156 82.050781 C 54.3125 81.359375 54.324219 80.589844 54.320312 79.722656 C 54.3125 78.308594 54.371094 76.886719 54.328125 75.472656 C 54.320312 75.207031 54.296875 74.964844 54.265625 74.746094 C 54.1875 74.242188 54.03125 73.859375 53.757812 73.554688 C 54.667969 73.230469 55.535156 72.734375 56.3125 72.265625 C 57.757812 71.398438 59.183594 70.332031 60.320312 69.082031 C 63.070312 72.75 62.054688 77.796875 61.039062 80.8125 Z M 52.816406 83.59375 C 52.648438 83.777344 52.484375 83.960938 52.226562 84.246094 C 52.089844 83.617188 52.292969 83.460938 52.816406 83.59375 Z M 50.289062 87.65625 C 50.378906 87.277344 50.425781 87.074219 50.46875 86.894531 C 50.617188 86.90625 50.664062 86.894531 50.679688 86.914062 C 50.863281 87.179688 50.863281 87.398438 50.289062 87.65625 Z M 56.632812 104.589844 L 55.21875 104.589844 C 53.378906 100.164062 51.53125 95.15625 49.746094 90.316406 C 49.492188 89.632812 49.242188 88.960938 48.996094 88.292969 C 50.949219 87.914062 52.203125 87.488281 53 86.648438 C 54.542969 92.070312 55.738281 97.984375 56.632812 104.589844 Z M 42.679688 104.238281 C 42.660156 104.121094 42.644531 104 42.625 103.882812 L 54.546875 103.882812 C 54.597656 104 54.648438 104.121094 54.691406 104.238281 Z M 43.175781 110.601562 L 41.765625 110.601562 C 39.941406 105.550781 38.101562 99.871094 36.328125 94.378906 C 35.765625 92.632812 35.214844 90.9375 34.675781 89.285156 C 36.214844 89.230469 37.761719 89.183594 39.304688 89.125 C 40.957031 95.554688 42.230469 102.625 43.175781 110.601562 Z M 36.5625 96.246094 C 36.722656 96.753906 36.890625 97.261719 37.054688 97.769531 C 36.644531 97.511719 36.300781 97.304688 36.117188 97.199219 C 36.253906 96.875 36.402344 96.5625 36.5625 96.246094 Z M 37.714844 101.761719 L 33.117188 101.761719 C 32.554688 101.761719 32.152344 101.011719 31.925781 100.59375 C 31.640625 100.078125 31.386719 99.5625 30.933594 99.167969 C 30.140625 98.480469 29.0625 98.402344 28.070312 98.242188 C 27.371094 98.125 26.679688 98.019531 25.972656 97.96875 C 26.085938 97.429688 26.226562 96.914062 26.378906 96.496094 C 26.675781 95.671875 27.042969 94.785156 27.425781 93.84375 C 27.988281 92.453125 28.582031 90.984375 29.085938 89.507812 C 30.03125 89.472656 30.972656 89.429688 31.90625 89.386719 C 32.703125 89.351562 33.503906 89.324219 34.308594 89.292969 C 34.859375 90.980469 35.417969 92.707031 35.992188 94.488281 C 36.128906 94.917969 36.265625 95.34375 36.410156 95.773438 C 36.15625 96.242188 35.925781 96.71875 35.734375 97.203125 C 35.699219 97.285156 35.734375 97.382812 35.808594 97.421875 C 35.816406 97.429688 36.410156 97.777344 37.121094 98.234375 C 37.175781 98.304688 37.226562 98.378906 37.277344 98.457031 C 37.503906 99.136719 37.726562 99.824219 37.949219 100.503906 C 38.027344 101.011719 38.164062 101.761719 37.714844 101.761719 Z M 29.195312 101.226562 C 29.691406 100.933594 29.800781 101.21875 29.929688 101.457031 C 29.894531 101.519531 29.863281 101.578125 29.832031 101.640625 C 29.648438 101.523438 29.464844 101.402344 29.195312 101.226562 Z M 29.839844 102.769531 C 29.65625 102.6875 29.511719 102.621094 29.355469 102.550781 C 29.46875 102.128906 29.675781 102.105469 30.007812 102.253906 C 29.953125 102.421875 29.90625 102.566406 29.839844 102.769531 Z M 28.265625 83.15625 C 28.824219 82.988281 29.382812 82.816406 29.945312 82.648438 C 29.496094 83.269531 28.890625 83.253906 28.265625 83.15625 Z M 30.035156 59.980469 C 29.90625 60.316406 29.777344 60.652344 29.625 61.054688 C 29.402344 60.980469 29.242188 60.925781 28.929688 60.820312 C 29.261719 60.40625 29.515625 60.09375 29.765625 59.78125 C 29.855469 59.847656 29.945312 59.914062 30.035156 59.980469 Z M 31.160156 58.203125 C 30.671875 58.164062 30.613281 57.90625 30.695312 57.445312 C 30.914062 57.5 31.078125 57.539062 31.308594 57.59375 C 31.253906 57.824219 31.210938 58 31.160156 58.203125 Z M 31.449219 76.632812 C 31.550781 76.867188 31.652344 77.105469 31.75 77.34375 C 31.664062 77.382812 31.578125 77.417969 31.492188 77.453125 C 31.402344 77.214844 31.316406 76.972656 31.226562 76.734375 C 31.300781 76.699219 31.375 76.664062 31.449219 76.632812 Z M 34.082031 88.109375 C 34.035156 88.207031 34.007812 88.324219 33.941406 88.398438 C 33.882812 88.457031 33.777344 88.460938 33.691406 88.488281 C 33.644531 88.425781 33.59375 88.363281 33.542969 88.300781 C 33.675781 88.1875 33.808594 88.078125 33.941406 87.964844 C 33.988281 88.015625 34.035156 88.0625 34.082031 88.109375 Z M 35.953125 72.035156 C 36.265625 71.746094 36.449219 71.578125 36.671875 71.371094 C 36.96875 71.871094 36.839844 72.171875 36.46875 72.664062 C 36.304688 72.460938 36.171875 72.296875 35.953125 72.035156 Z M 36.277344 76.777344 C 36.46875 76.917969 36.660156 77.058594 36.929688 77.253906 C 36.789062 77.417969 36.707031 77.515625 36.554688 77.699219 C 36.363281 77.371094 36.242188 77.164062 36.121094 76.953125 C 36.171875 76.894531 36.222656 76.835938 36.277344 76.777344 Z M 39.570312 58.617188 C 40.609375 58.574219 41.644531 58.496094 42.679688 58.363281 L 42.90625 60.035156 L 39.648438 60.035156 C 39.628906 59.554688 39.605469 59.082031 39.570312 58.617188 Z M 46.820312 100.59375 C 46.53125 100.363281 46.53125 100.363281 46.738281 100.027344 C 46.765625 100.199219 46.789062 100.375 46.820312 100.59375 Z M 47.917969 103.550781 C 47.679688 103.636719 47.507812 103.699219 47.183594 103.816406 C 47.332031 103.484375 47.417969 103.292969 47.539062 103.023438 C 47.691406 103.238281 47.777344 103.355469 47.917969 103.550781 Z M 53.835938 102.566406 C 53.558594 102.828125 53.394531 102.75 53.246094 102.40625 C 53.582031 102.257812 53.582031 102.257812 53.835938 102.566406 Z M 45.621094 88.730469 C 46.484375 88.652344 47.34375 88.558594 48.1875 88.441406 C 48.34375 88.417969 48.496094 88.390625 48.644531 88.359375 C 48.898438 89.046875 49.152344 89.734375 49.414062 90.441406 C 50.816406 94.234375 52.25 98.125 53.695312 101.761719 L 49.394531 101.761719 C 48.828125 101.761719 48.429688 101.011719 48.203125 100.59375 C 47.917969 100.078125 47.664062 99.5625 47.210938 99.167969 C 46.421875 98.476562 45.335938 98.402344 44.351562 98.242188 C 43.648438 98.125 42.957031 98.019531 42.25 97.96875 C 42.363281 97.429688 42.503906 96.910156 42.65625 96.496094 C 42.957031 95.671875 43.320312 94.785156 43.703125 93.84375 C 44.363281 92.207031 45.066406 90.46875 45.621094 88.730469 Z M 45.523438 75 C 45.632812 74.636719 45.679688 74.46875 45.746094 74.25 C 46.089844 74.699219 46.089844 74.699219 45.523438 75 Z M 45.746094 73.859375 C 45.625 73.738281 45.503906 73.613281 45.382812 73.492188 C 45.464844 73.410156 45.546875 73.328125 45.625 73.25 C 45.722656 73.402344 45.820312 73.550781 45.917969 73.703125 C 45.859375 73.753906 45.800781 73.808594 45.746094 73.859375 Z M 44.222656 86.914062 C 44.28125 86.984375 44.339844 87.054688 44.398438 87.125 C 44.128906 87.375 43.859375 87.621094 43.589844 87.867188 C 43.542969 87.804688 43.5 87.738281 43.453125 87.675781 C 43.710938 87.421875 43.964844 87.167969 44.222656 86.914062 Z M 44.511719 80.734375 C 44.515625 80.734375 44.519531 80.734375 44.527344 80.734375 C 44.5 80.5625 44.472656 80.394531 44.445312 80.222656 C 44.496094 80.199219 44.550781 80.175781 44.601562 80.148438 C 44.710938 80.300781 44.820312 80.449219 45 80.691406 C 44.761719 80.714844 44.640625 80.722656 44.527344 80.734375 C 44.527344 80.738281 44.527344 80.746094 44.527344 80.75 C 44.519531 80.75 44.511719 80.753906 44.507812 80.757812 C 44.476562 80.921875 44.445312 81.09375 44.402344 81.328125 C 44.035156 80.917969 44.246094 80.824219 44.507812 80.757812 C 44.507812 80.75 44.507812 80.742188 44.511719 80.734375 L 44.527344 80.75 Z M 40.675781 84.609375 C 40.777344 84.488281 40.871094 84.363281 40.96875 84.238281 C 41.015625 84.265625 41.058594 84.296875 41.105469 84.324219 C 41.023438 84.480469 40.945312 84.636719 40.863281 84.789062 C 40.804688 84.730469 40.742188 84.671875 40.675781 84.609375 Z M 40.902344 89.054688 C 41.472656 89.027344 42.035156 88.992188 42.601562 88.957031 C 42.53125 88.804688 42.441406 88.597656 42.28125 88.242188 C 42.773438 88.347656 43.078125 88.410156 43.414062 88.480469 C 43.664062 88.320312 43.9375 88.144531 44.304688 87.910156 C 44.253906 88.257812 44.21875 88.511719 44.183594 88.742188 C 43.789062 88.808594 43.433594 88.867188 43.046875 88.933594 C 43.785156 88.882812 44.511719 88.828125 45.238281 88.765625 C 44.695312 90.449219 44.015625 92.128906 43.375 93.710938 C 42.992188 94.65625 42.625 95.550781 42.320312 96.378906 C 42.09375 97.011719 41.898438 97.871094 41.757812 98.6875 C 41.238281 95.859375 40.660156 93.148438 40.027344 90.546875 C 40.320312 90.050781 40.609375 89.550781 40.902344 89.054688 Z M 39.707031 76.183594 C 39.707031 76.035156 39.707031 75.882812 39.707031 75.730469 C 39.765625 75.726562 39.824219 75.71875 39.878906 75.710938 C 39.90625 75.863281 39.933594 76.015625 39.960938 76.167969 C 39.875 76.175781 39.792969 76.179688 39.707031 76.183594 Z M 40.480469 89.074219 C 40.289062 89.402344 40.097656 89.730469 39.90625 90.054688 C 39.828125 89.738281 39.746094 89.421875 39.667969 89.109375 C 39.9375 89.101562 40.210938 89.085938 40.480469 89.074219 Z M 12.785156 47.261719 C 12.878906 46.445312 12.996094 45.617188 13.136719 44.796875 C 13.152344 44.699219 13.085938 44.609375 12.992188 44.589844 C 12.894531 44.574219 12.804688 44.640625 12.785156 44.734375 C 12.714844 45.164062 12.648438 45.589844 12.585938 46.019531 C 11.597656 45.507812 10.773438 45.003906 10.1875 44.550781 C 10.394531 42.453125 11.140625 40.285156 12.414062 38.101562 C 13.398438 36.414062 14.53125 34.671875 16.144531 33.363281 C 17.125 32.570312 18.203125 31.9375 19.359375 31.480469 C 19.953125 31.25 20.59375 31.101562 21.210938 30.960938 L 21.53125 30.886719 C 21.789062 30.828125 22.015625 30.746094 22.21875 30.640625 C 22.226562 30.648438 22.234375 30.65625 22.246094 30.664062 C 22.273438 30.675781 23.980469 31.515625 26.507812 31.515625 C 27.851562 31.515625 29.433594 31.277344 31.113281 30.550781 C 31.117188 30.550781 31.117188 30.546875 31.117188 30.546875 C 31.679688 30.960938 32.4375 30.992188 33.113281 31.019531 L 33.355469 31.027344 C 37.128906 31.203125 40.335938 32.40625 42.878906 34.613281 C 46.007812 37.332031 48.472656 41.175781 50.539062 44.585938 C 48.476562 46.164062 43.789062 48.15625 41.097656 48.59375 C 41.003906 48.605469 40.9375 48.699219 40.949219 48.792969 C 40.957031 48.820312 40.964844 48.839844 40.976562 48.863281 L 43.09375 57.605469 L 43.128906 57.757812 L 43.15625 57.882812 C 43.160156 57.898438 43.167969 57.90625 43.175781 57.917969 C 43.175781 57.921875 43.179688 57.929688 43.179688 57.933594 C 43.179688 57.929688 43.175781 57.921875 43.171875 57.917969 C 43.175781 57.925781 43.175781 57.933594 43.179688 57.9375 C 41.976562 58.125 40.757812 58.21875 39.542969 58.269531 C 39.515625 58.03125 39.492188 57.792969 39.460938 57.558594 C 39.222656 55.203125 39.320312 50.105469 38.378906 48.222656 C 36.960938 45.628906 34.269531 45.933594 31.4375 46.007812 C 24.558594 46.191406 18.929688 46.449219 12.785156 47.261719 Z M 26.945312 86.132812 C 26.675781 86.253906 26.566406 86.300781 26.394531 86.375 C 26.394531 86.160156 26.394531 86.003906 26.394531 85.703125 C 26.613281 85.875 26.726562 85.960938 26.945312 86.132812 Z M 26.042969 80.226562 C 26.636719 79.988281 27.03125 80.074219 27.410156 80.734375 C 26.910156 80.546875 26.53125 80.40625 26.042969 80.226562 Z M 24.820312 58.632812 C 25.019531 58.8125 25.195312 58.964844 25.496094 59.234375 C 25.289062 59.488281 25.191406 59.605469 25.097656 59.722656 C 24.582031 59.410156 24.390625 59.152344 24.820312 58.632812 Z M 24.832031 67.355469 C 24.878906 67.769531 24.878906 67.769531 24.484375 67.65625 C 24.585938 67.566406 24.691406 67.472656 24.832031 67.355469 Z M 26.941406 90.3125 C 25.15625 95.15625 23.304688 100.164062 21.464844 104.589844 L 20.054688 104.589844 C 20.78125 99.191406 21.714844 94.253906 22.875 89.675781 C 24.324219 89.664062 25.769531 89.625 27.214844 89.578125 C 27.125 89.824219 27.035156 90.066406 26.941406 90.3125 Z M 20.179688 79.359375 C 20.128906 79.175781 20.082031 78.992188 20.035156 78.804688 C 20.089844 78.785156 20.144531 78.765625 20.199219 78.742188 C 20.269531 78.921875 20.339844 79.101562 20.40625 79.28125 C 20.332031 79.308594 20.253906 79.332031 20.179688 79.359375 Z M 18.023438 78.382812 C 18.015625 78.324219 18.003906 78.265625 17.996094 78.207031 C 18.152344 78.167969 18.308594 78.125 18.464844 78.085938 C 18.484375 78.175781 18.503906 78.261719 18.523438 78.351562 C 18.355469 78.363281 18.1875 78.375 18.023438 78.382812 Z M 17.886719 85.492188 C 17.65625 85.429688 17.421875 85.367188 17.191406 85.304688 C 17.214844 85.207031 17.242188 85.105469 17.273438 85.007812 C 17.5 85.09375 17.726562 85.179688 17.953125 85.265625 C 17.929688 85.34375 17.910156 85.417969 17.886719 85.492188 Z M 16.230469 87.75 C 16.484375 87.652344 16.644531 87.589844 16.917969 87.484375 C 16.78125 88.015625 16.574219 87.929688 16.230469 87.75 Z M 16.003906 79.546875 C 16.445312 79.390625 16.570312 79.546875 16.484375 80.027344 C 16.074219 80.128906 15.925781 79.992188 16.003906 79.546875 Z M 14.183594 61.34375 C 14.554688 60.855469 14.867188 61.148438 15.402344 61.261719 C 14.78125 61.582031 14.78125 61.582031 14.183594 61.34375 Z M 14.234375 80.359375 C 14.234375 79.988281 14.234375 79.660156 14.234375 79.265625 C 14.882812 79.773438 14.878906 79.800781 14.234375 80.359375 Z M 12.964844 94.378906 C 11.191406 99.871094 9.355469 105.550781 7.53125 110.601562 L 6.121094 110.601562 C 7.070312 102.574219 8.355469 95.464844 10.019531 89.003906 C 10.800781 89.171875 11.675781 89.191406 12.582031 89.285156 C 13.242188 89.347656 13.902344 89.402344 14.566406 89.449219 C 14.042969 91.050781 13.515625 92.691406 12.964844 94.378906 Z M 12.207031 53.667969 C 12.207031 54.039062 12.207031 54.238281 12.207031 54.445312 C 12.082031 54.445312 12.003906 54.472656 11.964844 54.441406 C 11.644531 54.183594 11.710938 53.976562 12.207031 53.667969 Z M 12.636719 88.808594 C 12.636719 88.960938 12.636719 89.117188 12.636719 89.289062 C 12.617188 89.285156 12.601562 89.285156 12.585938 89.28125 C 12.53125 89.277344 12.476562 89.273438 12.421875 89.269531 C 12.355469 89.144531 12.425781 89.054688 12.636719 88.808594 Z M 12.421875 47.3125 C 12.15625 47.351562 11.890625 47.386719 11.621094 47.421875 C 11.25 47.484375 10.867188 47.535156 10.476562 47.582031 L 10.617188 45.289062 C 11.148438 45.644531 11.800781 46.015625 12.539062 46.390625 C 12.496094 46.699219 12.457031 47.003906 12.421875 47.3125 Z M 10.816406 75.875 C 10.5625 76.285156 10.351562 76.214844 10.066406 75.90625 C 10.328125 75.632812 10.535156 75.566406 10.816406 75.875 Z M 22.167969 30.425781 C 22.210938 30.339844 22.320312 30.304688 22.40625 30.347656 C 22.410156 30.347656 22.425781 30.355469 22.4375 30.363281 C 22.425781 30.355469 22.410156 30.347656 22.40625 30.347656 C 22.320312 30.304688 22.214844 30.339844 22.167969 30.425781 C 22.15625 30.453125 22.152344 30.480469 22.152344 30.511719 C 22.152344 30.480469 22.15625 30.453125 22.167969 30.425781 Z M 30.878906 30.292969 L 30.875 30.523438 C 30.875 30.523438 30.777344 30.503906 30.6875 30.476562 C 30.777344 30.503906 30.875 30.523438 30.875 30.523438 Z M 30.378906 24.457031 C 30.785156 24.84375 30.785156 24.84375 30.570312 25.304688 C 30.019531 25.097656 30.019531 25.089844 30.378906 24.457031 Z M 23.296875 29.273438 C 23.363281 28.984375 23.644531 27.578125 22.917969 27.253906 C 22.480469 26.921875 22.078125 26.589844 21.707031 26.261719 C 22.992188 26.976562 24.394531 27.460938 25.886719 27.371094 C 27.628906 27.265625 30.488281 26.390625 31.792969 24.832031 C 32.171875 24.382812 32.328125 23.847656 32.371094 23.722656 L 32.367188 23.722656 C 32.375 23.695312 32.378906 23.664062 32.367188 23.632812 C 32.339844 23.558594 32.253906 23.515625 32.179688 23.542969 C 31.804688 23.675781 31.285156 23.628906 30.996094 23.4375 C 30.457031 23.082031 30.164062 22.3125 30.285156 21.5625 C 30.390625 20.90625 30.761719 20.449219 31.308594 20.300781 C 31.605469 20.289062 31.988281 20.152344 32.347656 19.964844 C 32.699219 19.78125 33.03125 19.546875 33.234375 19.347656 C 34.457031 18.167969 34.855469 15.695312 34.589844 14.382812 C 34.726562 14.371094 34.871094 14.320312 35.007812 14.25 C 35.285156 14.152344 35.5625 14.027344 35.816406 13.875 C 36 14.472656 36.144531 15.105469 36.28125 15.691406 L 36.335938 15.921875 C 36.664062 17.347656 36.722656 19.027344 36.519531 20.914062 C 36.421875 21.785156 36.273438 22.6875 36.0625 23.671875 C 35.804688 24.871094 35.320312 25.945312 34.65625 26.773438 C 33.914062 27.707031 32.996094 28.394531 32.003906 28.769531 C 31 29.148438 30.085938 29.28125 29.128906 29.203125 C 29.027344 29.195312 28.945312 29.269531 28.933594 29.363281 C 28.925781 29.460938 29.003906 29.546875 29.097656 29.554688 C 29.285156 29.570312 29.46875 29.578125 29.652344 29.578125 L 29.683594 29.578125 C 29.832031 29.816406 30.128906 30.160156 30.449219 30.359375 C 30.472656 30.378906 30.503906 30.390625 30.53125 30.40625 C 30.546875 30.417969 30.5625 30.425781 30.582031 30.433594 C 30.601562 30.445312 30.628906 30.457031 30.65625 30.464844 C 30.628906 30.457031 30.601562 30.445312 30.582031 30.433594 C 30.5625 30.425781 30.546875 30.417969 30.53125 30.40625 C 26.851562 31.824219 23.769531 30.890625 22.757812 30.496094 C 22.679688 30.46875 22.617188 30.441406 22.5625 30.417969 C 22.535156 30.40625 22.515625 30.398438 22.496094 30.386719 C 22.515625 30.398438 22.535156 30.40625 22.5625 30.417969 C 22.9375 30.128906 23.1875 29.75 23.296875 29.273438 Z M 26.484375 8.132812 C 26.519531 8.507812 26.542969 8.742188 26.578125 9.132812 C 26.289062 8.945312 26.132812 8.84375 25.910156 8.699219 C 26.105469 8.507812 26.242188 8.375 26.484375 8.132812 Z M 30.851562 14.949219 C 30.40625 15.597656 30.113281 15.679688 29.605469 15.292969 C 30.070312 14.65625 30.375 14.570312 30.851562 14.949219 Z M 33.082031 12.417969 C 33.019531 12.5 32.832031 12.464844 32.703125 12.484375 C 32.664062 12.429688 32.621094 12.375 32.582031 12.316406 C 32.691406 12.109375 32.796875 11.90625 32.9375 11.632812 C 33.234375 11.945312 33.257812 12.195312 33.082031 12.417969 Z M 33.875 8.386719 C 34.816406 9.070312 35.671875 9.960938 36.230469 10.984375 C 36.742188 11.917969 36.589844 12.695312 36.015625 13.261719 C 36.15625 13.023438 36.246094 12.78125 36.261719 12.570312 C 36.316406 11.355469 35.257812 10.066406 34.53125 9.230469 C 33.863281 8.46875 32.957031 7.859375 31.949219 7.394531 C 32.628906 7.644531 33.28125 7.960938 33.875 8.386719 Z M 31.308594 30.371094 C 31.304688 30.410156 31.292969 30.441406 31.265625 30.46875 C 31.292969 30.441406 31.304688 30.410156 31.308594 30.371094 Z M 31.300781 30.277344 C 31.308594 30.296875 31.3125 30.320312 31.3125 30.34375 C 31.3125 30.320312 31.308594 30.296875 31.300781 30.277344 C 31.292969 30.265625 31.285156 30.257812 31.28125 30.25 C 31.285156 30.257812 31.292969 30.265625 31.300781 30.277344 Z M 55.011719 15.480469 L 90.0625 15.480469 C 90.15625 15.480469 90.238281 15.402344 90.238281 15.304688 C 90.238281 15.207031 90.15625 15.128906 90.0625 15.128906 L 46.890625 15.128906 C 46.789062 15.128906 46.714844 15.207031 46.714844 15.304688 C 46.714844 15.402344 46.789062 15.480469 46.890625 15.480469 L 54.667969 15.480469 C 54.324219 18.238281 57.726562 20.609375 59.914062 21.507812 C 63.296875 22.890625 67.09375 22.585938 70.253906 24.628906 C 71.792969 25.625 72.984375 27.097656 73.53125 28.851562 C 73.929688 30.113281 73.828125 31.46875 74.722656 32.546875 C 75.585938 33.578125 76.835938 34.039062 78.03125 34.574219 C 79.679688 35.320312 80.855469 36.632812 80.925781 38.464844 L 46.894531 38.464844 C 46.441406 37.867188 45.964844 37.285156 45.472656 36.722656 L 45.472656 13.199219 C 45.472656 12.730469 45.757812 12.652344 46.617188 12.652344 L 90.324219 12.652344 C 91.019531 12.652344 91.121094 12.6875 91.121094 13.199219 L 91.121094 38.464844 L 81.273438 38.464844 C 81.234375 37.21875 80.753906 36.15625 79.820312 35.296875 C 78.730469 34.300781 77.242188 33.964844 76.003906 33.199219 C 74.714844 32.402344 74.3125 31.164062 74.085938 29.742188 C 73.84375 28.222656 73.167969 26.902344 72.140625 25.761719 C 69.878906 23.246094 66.621094 22.703125 63.46875 22.101562 C 61.578125 21.738281 59.722656 21.242188 58.105469 20.160156 C 56.714844 19.222656 54.757812 17.363281 55.015625 15.527344 C 55.015625 15.507812 55.011719 15.496094 55.011719 15.480469 Z M 43.707031 12.121094 C 43.707031 11.246094 44.421875 10.53125 45.296875 10.53125 L 91.300781 10.53125 C 92.175781 10.53125 92.890625 11.246094 92.890625 12.121094 L 92.890625 40.410156 C 92.890625 41.289062 92.175781 42 91.300781 42 L 49.347656 42 C 48.667969 40.933594 47.9375 39.859375 47.164062 38.820312 L 91.300781 38.820312 C 91.394531 38.820312 91.476562 38.742188 91.476562 38.644531 L 91.476562 13.199219 C 91.476562 12.296875 90.941406 12.296875 90.324219 12.296875 L 46.617188 12.296875 C 45.984375 12.296875 45.121094 12.296875 45.121094 13.199219 L 45.121094 36.328125 C 44.664062 35.828125 44.195312 35.339844 43.707031 34.882812 Z M 79.976562 47.304688 C 80.460938 47.304688 80.859375 47.703125 80.859375 48.191406 L 80.859375 48.542969 C 80.859375 49.03125 80.460938 49.429688 79.976562 49.429688 L 68.976562 49.429688 C 69.453125 48.71875 69.917969 48 70.367188 47.304688 Z M 66.328125 51.425781 C 66.898438 50.5625 67.480469 49.703125 68.054688 48.863281 C 68.917969 47.597656 69.8125 46.289062 70.640625 44.96875 C 70.730469 44.832031 70.855469 44.800781 70.945312 44.808594 C 71.09375 44.816406 71.246094 44.902344 71.304688 45.015625 C 71.339844 45.089844 71.335938 45.164062 71.277344 45.246094 L 70.890625 45.84375 C 69.789062 47.558594 68.484375 49.578125 67.25 51.324219 L 66.070312 52.050781 Z M 67.003906 49.78125 C 66.6875 50.242188 66.382812 50.707031 66.070312 51.175781 C 65.855469 51.210938 65.183594 51.316406 64.636719 51.367188 C 64.089844 51.425781 63.113281 52.175781 62.863281 52.375 L 50.144531 52.558594 C 50.019531 52.1875 49.625 51.027344 49.199219 49.78125 Z M 68.683594 47.304688 C 68.375 47.761719 68.070312 48.21875 67.761719 48.664062 C 67.589844 48.917969 67.414062 49.171875 67.242188 49.429688 L 56.269531 49.429688 C 55.777344 49.429688 55.382812 49.03125 55.382812 48.542969 L 55.382812 48.1875 C 55.382812 47.703125 55.777344 47.304688 56.269531 47.304688 Z M 50.925781 44.539062 C 50.492188 43.828125 50.042969 43.09375 49.578125 42.355469 L 61.042969 42.355469 L 61.042969 46.953125 L 56.269531 46.953125 C 55.585938 46.953125 55.027344 47.507812 55.027344 48.1875 L 55.027344 48.542969 C 55.027344 48.890625 55.171875 49.199219 55.398438 49.429688 L 49.078125 49.429688 C 48.691406 48.300781 48.296875 47.152344 48.070312 46.472656 C 49.203125 45.902344 50.207031 45.308594 50.882812 44.769531 C 50.953125 44.714844 50.96875 44.613281 50.925781 44.539062 Z M 91.300781 49.78125 C 92.175781 49.78125 92.890625 50.496094 92.890625 51.371094 L 92.890625 57.726562 C 88.445312 57.722656 83.996094 57.714844 79.546875 57.710938 C 76.074219 57.707031 72.601562 57.703125 69.125 57.699219 C 69.257812 57.589844 69.375 57.453125 69.457031 57.273438 C 69.644531 56.878906 69.589844 56.570312 69.445312 56.246094 C 69.796875 55.289062 69.46875 54.691406 69.300781 54.464844 C 69.621094 53.71875 69.191406 53.054688 68.859375 52.75 C 68.832031 51.691406 68.117188 51.375 67.714844 51.285156 C 68.054688 50.796875 68.398438 50.289062 68.742188 49.78125 Z M 5.851562 72.261719 C 5.667969 72.480469 5.550781 72.617188 5.28125 72.9375 C 5.21875 72.421875 5.175781 72.09375 5.121094 71.648438 C 6.132812 71.902344 6.546875 72.621094 6.914062 73.40625 C 6.5625 73.027344 6.210938 72.648438 5.851562 72.261719 Z M 3.796875 58.183594 C 3.820312 58.578125 3.84375 58.980469 3.867188 59.394531 C 2.800781 59.394531 1.730469 59.394531 0.660156 59.390625 L -1.058594 59.390625 L -1.058594 57.980469 C -1.058594 57.976562 -1.058594 57.976562 -1.058594 57.976562 L 0.429688 57.976562 C 1.546875 57.976562 2.664062 57.976562 3.785156 57.976562 C 3.777344 57.859375 3.773438 57.742188 3.765625 57.625 C 3.792969 57.621094 3.820312 57.621094 3.847656 57.617188 C 3.878906 57.796875 3.910156 57.972656 3.949219 58.183594 C 3.882812 58.183594 3.835938 58.183594 3.796875 58.183594 Z M 19.109375 2.234375 C 19.128906 2.191406 19.144531 2.148438 19.164062 2.109375 C 19.265625 2.132812 19.382812 2.128906 19.460938 2.191406 C 19.515625 2.234375 19.515625 2.363281 19.589844 2.65625 C 19.332031 2.429688 19.222656 2.332031 19.109375 2.234375 Z M 17.765625 9.382812 C 18.054688 9.175781 18.269531 9.316406 18.601562 9.546875 C 18.183594 9.8125 17.941406 9.84375 17.765625 9.382812 Z M 13.554688 7.757812 C 13.1875 6.753906 13.105469 5.703125 13.269531 4.707031 C 13.261719 6 13.660156 7.328125 14.316406 8.410156 C 14.992188 9.53125 16.023438 10.554688 17.210938 11.3125 C 15.480469 11.097656 14.175781 9.46875 13.554688 7.757812 Z M 16.992188 7.953125 C 17.066406 8.21875 17.109375 8.367188 17.171875 8.59375 C 16.980469 8.5625 16.875 8.546875 16.765625 8.53125 C 16.710938 8.453125 16.652344 8.375 16.597656 8.296875 C 16.699219 8.210938 16.796875 8.121094 16.992188 7.953125 Z M 15.628906 18.519531 C 15.558594 18.316406 15.492188 18.109375 15.433594 17.90625 C 15.324219 17.5 15.277344 17.09375 15.277344 16.683594 C 15.277344 16.171875 15.355469 15.667969 15.496094 15.175781 C 15.769531 14.226562 16.269531 13.332031 16.890625 12.558594 C 15.957031 14.394531 15.394531 16.507812 15.628906 18.519531 Z M 16.53125 19.871094 C 16.453125 19.769531 16.378906 19.664062 16.300781 19.558594 C 16.371094 19.515625 16.441406 19.46875 16.511719 19.425781 C 16.566406 19.539062 16.621094 19.65625 16.675781 19.769531 C 16.628906 19.804688 16.578125 19.839844 16.53125 19.871094 Z M 100.675781 57.738281 L 93.246094 57.726562 L 93.246094 51.371094 C 93.246094 50.300781 92.371094 49.429688 91.300781 49.429688 L 80.839844 49.429688 C 81.070312 49.199219 81.214844 48.890625 81.214844 48.542969 L 81.214844 48.1875 C 81.214844 47.507812 80.660156 46.953125 79.976562 46.953125 L 75.199219 46.953125 L 75.199219 42.355469 L 91.300781 42.355469 C 92.371094 42.355469 93.246094 41.480469 93.246094 40.410156 L 93.246094 12.121094 C 93.246094 11.050781 92.371094 10.175781 91.300781 10.175781 L 45.296875 10.175781 C 44.226562 10.175781 43.351562 11.050781 43.351562 12.121094 L 43.351562 34.566406 C 43.269531 34.492188 43.1875 34.417969 43.105469 34.347656 C 40.503906 32.085938 37.226562 30.851562 33.371094 30.675781 L 33.121094 30.664062 C 32.472656 30.640625 31.734375 30.613281 31.261719 30.21875 C 31.261719 30.222656 31.261719 30.222656 31.261719 30.226562 C 31.265625 30.226562 31.265625 30.230469 31.265625 30.230469 C 31.253906 30.214844 31.238281 30.207031 31.222656 30.199219 C 31.226562 30.199219 31.230469 30.199219 31.230469 30.203125 C 31.238281 30.203125 31.246094 30.207031 31.25 30.210938 C 31.035156 30.027344 30.996094 29.738281 31 29.429688 C 31.371094 29.347656 31.742188 29.242188 32.128906 29.101562 C 33.179688 28.707031 34.152344 27.976562 34.933594 27 C 35.632812 26.121094 36.140625 25 36.410156 23.746094 C 36.621094 22.746094 36.773438 21.835938 36.871094 20.949219 C 37.082031 19.027344 37.019531 17.308594 36.679688 15.839844 L 36.625 15.613281 C 36.484375 14.988281 36.328125 14.308594 36.125 13.667969 C 36.667969 13.253906 37.023438 12.679688 36.902344 11.898438 C 36.707031 10.59375 35.710938 9.511719 34.765625 8.660156 C 33.707031 7.703125 32.519531 7.183594 31.164062 6.773438 C 29.398438 6.242188 27.355469 5.875 25.539062 6.355469 C 25.503906 6.367188 25.476562 6.386719 25.457031 6.40625 C 25.4375 6.40625 25.425781 6.410156 25.40625 6.410156 C 24.929688 4.78125 24.363281 3.234375 23.179688 2.058594 C 21.261719 0.152344 18.070312 -1.054688 15.464844 0.535156 C 14.734375 0.992188 14.210938 1.582031 13.859375 2.25 C 12.761719 3.925781 12.558594 6.058594 13.285156 8.050781 C 13.917969 9.789062 15.296875 11.355469 17.027344 11.644531 C 17.089844 11.65625 17.144531 11.660156 17.207031 11.664062 C 16.949219 11.925781 16.710938 12.203125 16.492188 12.492188 C 15.347656 13.992188 14.6875 15.871094 15.035156 17.753906 C 15.097656 18.078125 15.1875 18.40625 15.300781 18.726562 C 15.496094 19.269531 15.757812 19.792969 16.078125 20.289062 C 16.105469 20.367188 16.132812 20.441406 16.164062 20.515625 C 16.996094 22.421875 18.4375 24.03125 20.109375 25.238281 C 20.171875 25.28125 20.238281 25.324219 20.300781 25.371094 C 20.851562 25.980469 21.492188 26.578125 22.238281 27.171875 C 22.394531 27.296875 22.546875 27.417969 22.710938 27.539062 C 22.71875 27.546875 22.726562 27.546875 22.734375 27.554688 C 22.742188 27.558594 22.746094 27.558594 22.757812 27.5625 C 23.171875 27.722656 23.070312 28.699219 22.953125 29.191406 C 22.792969 29.894531 22.285156 30.347656 21.453125 30.542969 L 21.132812 30.617188 C 20.503906 30.761719 19.847656 30.914062 19.230469 31.152344 C 18.039062 31.625 16.929688 32.273438 15.921875 33.085938 C 14.265625 34.429688 13.105469 36.207031 12.105469 37.925781 C 10.789062 40.183594 10.019531 42.4375 9.828125 44.613281 C 9.820312 44.675781 9.84375 44.730469 9.890625 44.769531 C 10.007812 44.863281 10.136719 44.957031 10.273438 45.054688 L 10.121094 47.621094 C 7.648438 47.898438 5.050781 48.105469 4.074219 50.25 C 3.613281 51.09375 3.578125 53.929688 3.765625 57.625 C 2.097656 57.625 0.433594 57.621094 -1.234375 57.621094 C -1.332031 57.621094 -1.410156 57.703125 -1.410156 57.796875 L -1.410156 59.566406 C -1.410156 59.660156 -1.332031 59.742188 -1.234375 59.742188 C -0.410156 59.742188 0.414062 59.742188 1.242188 59.746094 L 1.242188 104.945312 L 1.597656 104.945312 L 1.597656 59.746094 L 3.894531 59.746094 C 4.402344 67.320312 5.613281 77.242188 6.195312 81.605469 C 6.585938 83.347656 7.015625 85.113281 7.570312 86.8125 C 7.988281 88.097656 8.742188 88.648438 9.679688 88.917969 C 7.992188 95.449219 6.703125 102.636719 5.746094 110.757812 L 5.722656 110.957031 L 7.777344 110.957031 L 7.820312 110.839844 C 9.664062 105.75 11.515625 100.027344 13.304688 94.488281 C 13.855469 92.773438 14.398438 91.105469 14.929688 89.476562 C 17.433594 89.648438 19.972656 89.695312 22.503906 89.679688 C 21.339844 94.304688 20.402344 99.289062 19.679688 104.746094 L 19.648438 104.945312 L 21.703125 104.945312 L 21.75 104.835938 C 23.605469 100.375 25.472656 95.324219 27.277344 90.4375 C 27.386719 90.144531 27.492188 89.855469 27.597656 89.5625 C 27.96875 89.550781 28.335938 89.539062 28.710938 89.523438 C 28.214844 90.949219 27.640625 92.367188 27.097656 93.710938 C 26.714844 94.660156 26.347656 95.550781 26.046875 96.378906 C 25.546875 97.734375 25.226562 100.207031 25.226562 101.003906 C 25.226562 102.382812 25.324219 103.285156 25.449219 103.882812 L 39.066406 103.882812 C 39.105469 104 39.148438 104.121094 39.1875 104.238281 L 25.542969 104.238281 C 25.714844 104.816406 25.921875 105.019531 26.0625 105.175781 L 27.851562 105.175781 C 30.582031 105.152344 34.195312 105.09375 37.085938 105.042969 C 37.921875 105.035156 38.71875 105.027344 39.449219 105.019531 C 40.125 107.019531 40.800781 108.972656 41.476562 110.839844 L 41.519531 110.957031 L 43.574219 110.957031 L 43.550781 110.757812 C 43.316406 108.777344 43.0625 106.855469 42.789062 104.980469 C 42.84375 104.976562 42.894531 104.976562 42.925781 104.976562 C 43 104.976562 43.070312 104.960938 43.144531 104.945312 L 57.035156 104.945312 C 58.183594 104.960938 58.988281 104.96875 59.203125 104.96875 C 59.652344 104.96875 60.085938 104.699219 60.125 104.15625 C 60.09375 104.207031 60.042969 104.238281 59.984375 104.238281 L 56.941406 104.238281 C 56.921875 104.121094 56.90625 104 56.890625 103.882812 L 59.984375 103.882812 C 60.042969 103.882812 60.09375 103.917969 60.125 103.960938 C 60.058594 103.207031 59.320312 102.023438 57.191406 100.386719 C 56.953125 100.203125 56.628906 99.980469 56.261719 99.738281 C 55.859375 97.332031 55.414062 95.019531 54.917969 92.792969 C 55.28125 92.230469 55.644531 91.660156 55.976562 91.09375 C 56.238281 90.65625 56.511719 90.199219 56.789062 89.730469 C 58.445312 86.957031 60.324219 83.816406 61.347656 81.003906 L 61.347656 81 C 61.894531 79.390625 62.449219 77.199219 62.449219 74.933594 C 62.449219 72.003906 61.527344 68.941406 58.460938 66.828125 C 55.890625 65.054688 52.457031 64.632812 49.136719 64.222656 C 48.746094 64.171875 48.359375 64.125 47.972656 64.074219 C 46.984375 63.945312 45.203125 63.644531 44.730469 63.566406 C 44.652344 63.246094 44.519531 62.867188 44.359375 62.476562 C 43.945312 61.441406 43.375 60.34375 43.277344 60.160156 L 43.273438 60.128906 L 43.226562 59.789062 L 44.371094 59.789062 C 45.417969 60.699219 47.015625 61.183594 49.078125 61.183594 C 51.960938 61.183594 55.21875 60.527344 57.925781 59.804688 C 59.984375 59.808594 62.050781 59.808594 64.121094 59.8125 C 74.628906 59.828125 85.140625 59.839844 95.648438 59.851562 C 96.382812 59.851562 97.113281 59.855469 97.847656 59.855469 L 97.847656 104.945312 L 98.199219 104.945312 L 98.199219 59.855469 C 99.023438 59.855469 99.847656 59.859375 100.675781 59.859375 C 100.773438 59.859375 100.855469 59.777344 100.855469 59.683594 L 100.855469 57.914062 C 100.855469 57.820312 100.773438 57.738281 100.675781 57.738281 "/></g><g style="fill:#000000;fill-opacity:1;"><g transform="translate(54.296181, 38.155419)"><path style="stroke:none" d="M 1.25 0.046875 C 1.0625 0.046875 0.894531 0.0195312 0.75 -0.03125 C 0.613281 -0.0820312 0.5 -0.144531 0.40625 -0.21875 C 0.3125 -0.300781 0.238281 -0.390625 0.1875 -0.484375 L 0.375 -0.703125 L 0.421875 -0.703125 C 0.597656 -0.410156 0.875 -0.265625 1.25 -0.265625 C 1.457031 -0.265625 1.613281 -0.304688 1.71875 -0.390625 C 1.820312 -0.484375 1.875 -0.609375 1.875 -0.765625 C 1.875 -0.859375 1.859375 -0.9375 1.828125 -1 C 1.796875 -1.070312 1.738281 -1.128906 1.65625 -1.171875 C 1.570312 -1.210938 1.460938 -1.253906 1.328125 -1.296875 L 1 -1.375 C 0.75 -1.4375 0.566406 -1.53125 0.453125 -1.65625 C 0.335938 -1.789062 0.28125 -1.957031 0.28125 -2.15625 C 0.28125 -2.289062 0.316406 -2.414062 0.390625 -2.53125 C 0.460938 -2.644531 0.566406 -2.734375 0.703125 -2.796875 C 0.847656 -2.859375 1.015625 -2.890625 1.203125 -2.890625 C 1.421875 -2.890625 1.601562 -2.859375 1.75 -2.796875 C 1.894531 -2.734375 2.007812 -2.640625 2.09375 -2.515625 L 1.9375 -2.296875 L 1.890625 -2.296875 C 1.804688 -2.398438 1.707031 -2.472656 1.59375 -2.515625 C 1.488281 -2.566406 1.359375 -2.59375 1.203125 -2.59375 C 1.003906 -2.59375 0.851562 -2.550781 0.75 -2.46875 C 0.65625 -2.394531 0.609375 -2.289062 0.609375 -2.15625 C 0.609375 -2.03125 0.644531 -1.925781 0.71875 -1.84375 C 0.789062 -1.769531 0.914062 -1.710938 1.09375 -1.671875 L 1.4375 -1.59375 C 1.707031 -1.53125 1.90625 -1.429688 2.03125 -1.296875 C 2.15625 -1.160156 2.21875 -0.988281 2.21875 -0.78125 C 2.21875 -0.625 2.179688 -0.484375 2.109375 -0.359375 C 2.035156 -0.234375 1.925781 -0.132812 1.78125 -0.0625 C 1.632812 0.0078125 1.457031 0.046875 1.25 0.046875 Z M 1.25 0.046875 "/></g></g><g style="fill:#000000;fill-opacity:1;"><g transform="translate(56.734562, 38.155419)"><path style="stroke:none" d=""/></g></g></g></svg>