<svg xmlns="http://www.w3.org/2000/svg" xmlns:xlink="http://www.w3.org/1999/xlink" width="150" zoomAndPan="magnify" viewBox="0 0 112.5 112.499997" height="150" preserveAspectRatio="xMidYMid meet" version="1.2"><defs><clipPath id="bf9f4ba3e8"><path d="M 0 0 L 50.773438 0 L 50.773438 112 L 0 112 Z M 0 0 "/></clipPath><clipPath id="25d8e029e5"><path d="M 0.0625 0 L 50.707031 0 L 50.707031 112.003906 L 0.0625 112.003906 Z M 0.0625 0 "/></clipPath></defs><g id="2a458d9117"><g clip-rule="nonzero" clip-path="url(#bf9f4ba3e8)"><path style=" stroke:none;fill-rule:nonzero;fill:#ffffff;fill-opacity:1;" d="M 35.523438 21.101562 C 34.835938 21.09375 34.296875 20.851562 33.78125 20.320312 C 33.414062 19.941406 33.363281 19.367188 33.316406 18.859375 C 33.304688 18.746094 33.296875 18.636719 33.273438 18.523438 L 33.113281 18.40625 L 33.277344 18.292969 C 33.640625 18.039062 33.992188 17.765625 34.328125 17.472656 L 34.554688 17.273438 L 34.5625 17.574219 C 34.578125 18.097656 34.695312 19.878906 35.628906 20.859375 L 35.859375 21.105469 Z M 27.808594 21.265625 C 27.757812 21.324219 27.695312 21.378906 27.628906 21.429688 L 27.613281 21.441406 L 27.589844 21.449219 L 27.578125 21.464844 L 27.5625 21.476562 C 27.191406 21.726562 26.675781 21.824219 26.300781 21.894531 L 25.875 21.972656 L 26.050781 21.695312 C 26.164062 21.515625 26.261719 21.289062 26.332031 21.023438 C 26.441406 20.621094 26.511719 20.175781 26.542969 19.664062 L 26.554688 19.472656 L 26.734375 19.539062 C 26.902344 19.601562 27.066406 19.65625 27.226562 19.695312 C 27.34375 19.726562 27.503906 19.746094 27.6875 19.753906 L 27.796875 19.757812 L 27.863281 20.097656 C 27.871094 20.136719 27.878906 20.179688 27.890625 20.222656 C 27.964844 20.558594 28.058594 20.972656 27.808594 21.265625 Z M 23.449219 22.269531 C 23.398438 22.429688 23.332031 22.59375 23.257812 22.773438 L 23.242188 22.832031 L 23.191406 22.863281 C 23.167969 22.878906 23.074219 22.933594 23.054688 22.945312 C 22.777344 23.128906 21.875 23.804688 19.171875 25.992188 L 19.082031 26.0625 L 18.992188 25.992188 C 17.710938 24.9375 16.234375 23.585938 14.980469 21.550781 L 14.84375 21.332031 L 15.160156 21.335938 C 15.695312 21.34375 16.210938 21.351562 16.710938 21.355469 L 16.792969 21.367188 C 17.988281 21.53125 21.015625 21.929688 23.324219 22.082031 L 23.507812 22.09375 Z M 14.605469 11.164062 L 14.882812 11.378906 C 15.109375 11.554688 15.394531 11.644531 15.722656 11.644531 C 16.085938 11.644531 16.480469 11.535156 16.828125 11.335938 L 16.917969 11.28125 L 16.992188 11.355469 C 17.253906 11.597656 17.597656 11.730469 17.980469 11.730469 C 18.300781 11.730469 18.636719 11.632812 18.917969 11.460938 L 19.007812 11.402344 L 19.085938 11.476562 C 19.339844 11.703125 19.71875 11.832031 20.121094 11.832031 C 20.195312 11.832031 20.273438 11.828125 20.347656 11.820312 L 20.484375 11.800781 L 20.503906 11.9375 C 20.578125 12.363281 20.679688 12.789062 20.800781 13.199219 L 20.847656 13.363281 L 20.675781 13.378906 C 19.246094 13.519531 17.941406 13.648438 17.546875 13.6875 L 17.410156 13.699219 C 16.710938 13.683594 15.941406 13.640625 15.058594 13.558594 L 14.980469 13.550781 L 14.945312 13.476562 L 14.921875 13.425781 L 14.929688 13.398438 C 14.835938 12.769531 14.742188 12.136719 14.652344 11.511719 Z M 50.5625 108.582031 L 50.5625 108.542969 C 50.542969 107.09375 50.289062 106.214844 50.289062 106.207031 L 50.285156 106.203125 L 50.257812 106.203125 L 50.15625 105.300781 C 50 103.722656 49.820312 101.78125 49.628906 99.726562 L 49.609375 99.480469 C 48.992188 92.777344 48.496094 87.601562 48.199219 86.949219 L 48.1875 86.929688 L 48.183594 86.910156 C 47.683594 83.375 47.394531 79.523438 47.28125 74.78125 L 47.28125 74.695312 L 47.355469 74.652344 C 47.769531 74.417969 48.054688 74.085938 48.222656 73.640625 C 48.566406 72.71875 48.441406 71.601562 48.332031 70.613281 L 48.296875 70.316406 C 48.210938 69.519531 48.136719 68.710938 48.0625 67.925781 C 47.96875 66.921875 47.875 65.882812 47.75 64.863281 C 47.257812 60.746094 46.398438 56.691406 45.195312 52.816406 C 44.96875 52.089844 44.746094 51.363281 44.523438 50.640625 C 44 48.949219 43.460938 47.199219 42.910156 45.484375 C 42.328125 43.664062 41.722656 41.78125 40.726562 40.054688 L 40.613281 40.007812 L 40.648438 39.886719 C 40.480469 39.082031 40.316406 38.226562 40.117188 37.121094 C 39.742188 35.058594 39.40625 32.9375 39.089844 30.632812 L 39.082031 30.589844 L 39.125 30.503906 C 39.148438 30.460938 39.171875 30.414062 39.191406 30.367188 C 39.414062 29.886719 39.601562 29.398438 39.753906 28.917969 L 39.824219 28.691406 L 39.992188 28.859375 C 40.644531 29.515625 41.449219 29.878906 42.253906 29.878906 C 42.804688 29.878906 43.339844 29.71875 43.851562 29.398438 C 45.097656 28.621094 45.726562 27.007812 45.378906 25.480469 C 44.914062 23.429688 42.75 21.789062 41.160156 20.582031 C 41.003906 20.464844 40.84375 20.347656 40.6875 20.230469 C 39.898438 19.644531 39.078125 19.035156 38.40625 18.257812 C 38.050781 17.847656 37.738281 17.363281 37.425781 16.734375 L 37.351562 16.589844 C 37.054688 16 36.71875 15.332031 36.742188 14.675781 L 36.742188 14.605469 L 36.761719 14.570312 C 38.335938 11.972656 38.832031 9.078125 38.152344 6.417969 C 37.585938 4.191406 36.046875 2.285156 33.820312 1.050781 C 32.730469 0.449219 31.597656 0.144531 30.453125 0.144531 C 28.910156 0.144531 27.4375 0.710938 26.203125 1.769531 L 26.257812 1.988281 L 26.039062 1.945312 C 25.878906 1.917969 25.71875 1.902344 25.558594 1.902344 C 24.078125 1.902344 22.808594 3.1875 22.007812 4.265625 C 21.078125 5.511719 20.546875 7.160156 20.378906 9.308594 C 20.355469 9.589844 20.347656 9.847656 20.347656 10.09375 L 20.347656 10.246094 L 20.195312 10.238281 C 18.953125 10.167969 17.714844 10.097656 16.472656 10.027344 L 16.320312 10.019531 L 16.339844 9.867188 C 16.402344 9.347656 16.289062 9.050781 16.003906 8.988281 C 15.6875 8.921875 15.335938 8.898438 15 8.875 C 14.808594 8.859375 14.617188 8.847656 14.433594 8.828125 C 13.191406 8.6875 11.945312 8.539062 10.699219 8.390625 L 10.558594 8.375 L 10.578125 8.230469 C 10.621094 7.871094 10.59375 7.601562 10.496094 7.429688 C 10.320312 7.121094 10.03125 7.070312 9.664062 7.011719 L 9.605469 7 C 8.816406 6.859375 8.03125 6.777344 7.296875 6.707031 L 7.265625 6.699219 L 7.238281 6.6875 L 6.984375 6.652344 C 6.40625 6.566406 5.753906 6.472656 3.765625 6.316406 C 3.675781 6.316406 3.597656 6.347656 3.53125 6.40625 C 3.246094 6.667969 3.1875 7.414062 3.183594 7.597656 C 3.09375 8.417969 3.367188 8.527344 3.925781 8.746094 C 4.097656 8.8125 4.296875 8.890625 4.519531 9.003906 C 4.839844 9.175781 4.996094 9.425781 5.140625 9.644531 C 5.335938 9.945312 5.519531 10.226562 6.046875 10.339844 L 8.320312 10.625 L 8.339844 10.625 L 8.355469 10.628906 C 8.902344 10.773438 9.59375 10.78125 10.148438 10.789062 C 10.378906 10.792969 10.585938 10.796875 10.757812 10.808594 C 11.28125 10.84375 11.796875 10.878906 12.320312 10.914062 L 12.4375 10.921875 L 12.738281 13.332031 L 12.554688 13.308594 L 12.4375 13.296875 L 12.398438 13.296875 C 11.582031 13.210938 10.910156 13.15625 10.296875 13.121094 C 9.085938 13.070312 8.359375 13.027344 7.242188 12.882812 L 7.121094 12.867188 L 7.117188 12.742188 C 7.09375 11.839844 5.84375 11.730469 5.015625 11.65625 L 4.816406 11.636719 L 4.234375 11.601562 C 3.535156 11.558594 2.8125 11.511719 2.105469 11.511719 C 1.945312 11.511719 1.789062 11.511719 1.632812 11.519531 C 1.222656 11.535156 0.9375 11.78125 0.886719 12.167969 C 0.78125 12.96875 0.714844 13.792969 0.652344 14.589844 C 0.617188 15.039062 0.582031 15.484375 0.539062 15.929688 C 0.503906 16.265625 0.472656 16.601562 0.4375 16.9375 C 0.355469 17.746094 0.273438 18.578125 0.214844 19.398438 C 0.160156 20.210938 0.347656 20.734375 0.804688 21.054688 C 1.121094 21.273438 1.628906 21.324219 2.074219 21.367188 L 2.277344 21.386719 C 2.671875 21.453125 3.164062 21.535156 3.613281 21.535156 C 3.703125 21.535156 3.792969 21.535156 3.902344 21.527344 L 4.203125 21.550781 C 4.449219 21.574219 4.730469 21.601562 5.003906 21.601562 C 5.816406 21.601562 6.234375 21.371094 6.359375 20.863281 L 6.390625 20.734375 L 6.523438 20.757812 C 6.523438 20.757812 6.597656 20.769531 6.617188 20.773438 L 6.703125 20.789062 L 6.726562 20.875 C 6.753906 20.976562 6.773438 21.074219 6.792969 21.148438 C 7.535156 24.203125 10.589844 34.386719 18.660156 37.152344 C 19.066406 37.289062 19.480469 37.398438 19.890625 37.480469 L 20.011719 37.507812 L 20.003906 37.632812 C 19.96875 38.210938 19.933594 38.792969 19.894531 39.371094 C 19.851562 40.023438 19.808594 40.679688 19.773438 41.332031 L 19.769531 41.386719 L 19.730469 41.421875 C 15.214844 45.921875 13.371094 52.472656 12.046875 58.882812 C 11.375 62.148438 10.890625 65.457031 10.425781 68.65625 C 10.394531 68.867188 10.355469 69.078125 10.316406 69.292969 C 10.226562 69.761719 10.136719 70.242188 10.148438 70.6875 C 10.160156 71.246094 10.328125 71.675781 10.679688 72.035156 C 11.347656 72.71875 12.421875 73.023438 13.386719 73.234375 L 13.511719 73.261719 L 13.5 73.386719 C 13.394531 74.578125 13.339844 75.488281 13.320312 76.339844 C 13.257812 79.339844 13.550781 82.382812 13.835938 85.328125 L 13.871094 85.703125 L 13.832031 85.75 C 13.683594 85.929688 13.660156 86.28125 13.640625 86.5625 C 13.640625 86.625 13.632812 86.683594 13.628906 86.738281 C 13.480469 88.316406 13.503906 89.945312 13.527344 91.519531 L 13.539062 92.21875 C 13.578125 95.894531 13.71875 99.5625 13.832031 102.34375 L 13.886719 103.625 C 13.890625 103.738281 13.894531 103.847656 13.902344 103.964844 L 13.902344 103.992188 L 13.621094 104.015625 C 13.625 104.042969 13.664062 104.09375 13.730469 104.09375 L 13.769531 104.085938 C 13.757812 104.09375 13.742188 104.105469 13.722656 104.121094 C 13.679688 104.152344 13.621094 104.191406 13.550781 104.230469 C 13.351562 104.34375 13.148438 104.457031 12.949219 104.570312 C 12.5625 104.785156 10.585938 105.878906 9.800781 106.488281 C 8.4375 107.542969 7.632812 108.480469 7.507812 109.140625 C 7.527344 109.136719 7.550781 109.132812 7.574219 109.132812 L 7.605469 109.132812 L 7.507812 109.140625 C 7.5 109.304688 7.558594 109.539062 7.605469 109.675781 L 8.726562 109.703125 L 7.617188 109.703125 C 7.746094 109.863281 7.960938 109.957031 8.21875 109.957031 C 8.355469 109.957031 8.839844 109.957031 9.558594 109.960938 L 10.226562 109.96875 C 14.140625 110.03125 18.1875 110.09375 22.167969 110.109375 C 22.167969 110.109375 22.433594 110.113281 22.480469 110.113281 C 22.683594 110.113281 22.777344 110.089844 22.855469 110.023438 L 22.875 110.015625 L 22.886719 110 C 22.941406 109.941406 22.988281 109.863281 23.027344 109.761719 C 23.035156 109.742188 23.042969 109.722656 23.050781 109.703125 L 23.230469 109.140625 C 23.386719 108.496094 23.429688 107.710938 23.359375 106.75 C 23.332031 105.425781 23.101562 104.621094 23.089844 104.570312 L 23 104.574219 L 22.984375 104.445312 C 22.929688 104.074219 22.933594 103.796875 22.992188 103.570312 C 23.09375 103.203125 23.191406 102.832031 23.289062 102.460938 L 23.351562 102.234375 C 24.414062 98.21875 25.183594 95.109375 25.847656 92.152344 C 26.214844 90.503906 26.535156 89.011719 26.75 87.476562 C 26.753906 87.425781 26.769531 87.355469 26.78125 87.269531 C 26.839844 86.925781 26.941406 86.351562 26.871094 85.972656 L 26.867188 85.953125 L 26.871094 85.933594 C 27.230469 82.320312 28.078125 75.042969 28.085938 74.96875 L 28.101562 74.84375 L 28.253906 74.84375 L 28.605469 74.859375 L 28.644531 74.925781 C 28.757812 75.109375 29.082031 75.609375 29.253906 75.777344 C 29.886719 76.074219 30.691406 76.128906 31.398438 76.15625 L 31.507812 76.160156 L 31.53125 76.269531 C 31.859375 77.789062 32.128906 78.957031 32.394531 80.046875 C 33.152344 83.195312 34.035156 86.539062 35.332031 89.664062 L 35.34375 89.6875 L 35.34375 89.710938 C 35.445312 91.082031 38.707031 100.617188 40.859375 105.539062 L 40.914062 105.660156 L 40.742188 105.753906 C 40.609375 105.828125 40.410156 105.941406 40.171875 106.078125 L 40.035156 106.160156 C 40.007812 106.171875 37.617188 107.472656 36.726562 108.164062 C 35.03125 109.480469 34.183594 110.613281 34.40625 111.269531 C 34.496094 111.53125 34.757812 111.683594 35.113281 111.683594 L 35.707031 111.683594 L 35.847656 111.695312 L 35.878906 111.695312 C 35.9375 111.699219 46 111.859375 49.953125 111.859375 L 49.957031 111.859375 C 50.019531 111.84375 50.5625 111.65625 50.558594 109.054688 C 50.558594 108.9375 50.5625 108.816406 50.5625 108.691406 L 50.5625 108.582031 "/></g><g clip-rule="nonzero" clip-path="url(#25d8e029e5)"><path style=" stroke:none;fill-rule:nonzero;fill:#100f0d;fill-opacity:1;" d="M 50.195312 111.273438 L 34.609375 111.273438 C 34.53125 111.273438 34.46875 111.210938 34.46875 111.128906 C 34.46875 111.050781 34.53125 110.988281 34.609375 110.988281 L 50.195312 110.988281 C 50.273438 110.988281 50.335938 111.050781 50.335938 111.128906 C 50.335938 111.210938 50.273438 111.273438 50.195312 111.273438 Z M 37.746094 108.875 C 38.085938 109.011719 38.398438 109.140625 38.753906 109.285156 C 38.65625 109.472656 38.601562 109.578125 38.53125 109.71875 C 38.390625 109.617188 38.28125 109.539062 38.175781 109.464844 C 38.101562 109.582031 38.046875 109.667969 38 109.742188 C 37.785156 109.582031 37.675781 109.496094 37.5 109.371094 C 37.59375 109.179688 37.65625 109.054688 37.746094 108.875 Z M 39.300781 107.929688 L 39.351562 108.074219 C 39.265625 108.179688 39.191406 108.351562 39.046875 108.035156 C 39.132812 108 39.214844 107.964844 39.300781 107.929688 Z M 44.894531 109.90625 C 44.78125 110.28125 44.660156 110.21875 44.410156 109.984375 C 44.625 109.949219 44.734375 109.933594 44.894531 109.90625 Z M 46.445312 109.265625 C 46.28125 109.488281 46.1875 109.605469 46.039062 109.804688 C 45.945312 109.394531 46.074219 109.308594 46.445312 109.265625 Z M 49.917969 109.828125 C 49.734375 109.917969 49.605469 109.980469 49.472656 110.042969 C 49.445312 109.992188 49.417969 109.9375 49.386719 109.882812 C 49.503906 109.816406 49.617188 109.742188 49.734375 109.691406 C 49.757812 109.675781 49.816406 109.75 49.917969 109.828125 Z M 40.984375 105.785156 L 41.097656 105.722656 L 41.046875 105.605469 C 39.476562 102.054688 37.5 96.523438 36.375 92.972656 C 38.359375 92.269531 40.410156 91.757812 42.46875 91.34375 C 44.484375 90.941406 46.546875 90.617188 48.601562 90.597656 C 48.878906 93.101562 49.191406 96.503906 49.46875 99.492188 C 49.664062 101.644531 49.851562 103.675781 50.015625 105.316406 L 50.09375 106.082031 C 49.5625 106.113281 49.039062 106.199219 48.53125 106.285156 L 48.40625 106.308594 C 47.578125 106.445312 47.257812 106.539062 46.613281 107.105469 C 46.277344 107.398438 46.074219 107.785156 45.875 108.160156 L 45.761719 108.371094 C 45.589844 108.6875 45.308594 109.210938 44.492188 109.253906 C 44.425781 109.042969 44.226562 108.570312 43.734375 107.960938 C 42.566406 106.503906 41.234375 106.125 40.542969 106.03125 C 40.808594 105.878906 40.980469 105.785156 40.984375 105.785156 Z M 35.871094 91.3125 C 39.832031 89.847656 44.175781 88.925781 48.402344 88.886719 C 48.457031 89.308594 48.511719 89.789062 48.570312 90.3125 C 46.644531 90.335938 44.722656 90.628906 42.832031 90.984375 C 40.621094 91.398438 38.417969 91.945312 36.289062 92.703125 C 36.128906 92.1875 35.988281 91.722656 35.871094 91.3125 Z M 35.484375 89.714844 C 35.488281 89.703125 35.484375 89.691406 35.484375 89.679688 C 35.484375 89.667969 35.488281 89.632812 35.546875 89.570312 C 36.523438 88.535156 44.714844 86.902344 47.328125 86.902344 C 47.941406 86.902344 48.054688 86.988281 48.0625 86.996094 C 48.066406 87.007812 48.070312 87.019531 48.078125 87.027344 C 48.15625 87.214844 48.253906 87.777344 48.367188 88.601562 C 44.125 88.644531 39.765625 89.566406 35.792969 91.039062 C 35.613281 90.398438 35.507812 89.941406 35.484375 89.714844 Z M 32.527344 80.007812 C 32.226562 78.777344 31.949219 77.546875 31.683594 76.3125 C 31.878906 76.316406 32.070312 76.324219 32.253906 76.332031 C 34.417969 76.460938 36.601562 76.398438 38.765625 76.238281 C 40.878906 76.082031 42.980469 75.792969 45.0625 75.390625 C 45.765625 75.253906 46.519531 75.175781 47.148438 74.910156 C 47.242188 78.851562 47.476562 82.789062 48.015625 86.675781 C 47.867188 86.640625 47.652344 86.617188 47.328125 86.617188 C 44.546875 86.617188 36.488281 88.230469 35.363281 89.355469 C 34.136719 86.339844 33.300781 83.167969 32.527344 80.007812 Z M 32.820312 45.648438 C 32.800781 45.683594 32.78125 45.714844 32.761719 45.75 C 32.6875 45.746094 32.613281 45.738281 32.507812 45.730469 C 32.527344 45.621094 32.539062 45.546875 32.566406 45.390625 C 32.679688 45.507812 32.75 45.578125 32.820312 45.648438 Z M 34.03125 71.449219 C 33.898438 71.585938 33.8125 71.671875 33.710938 71.769531 C 33.621094 71.691406 33.5625 71.636719 33.492188 71.574219 C 33.605469 71.324219 33.753906 71.300781 34.03125 71.449219 Z M 35 68.421875 C 34.890625 68.515625 34.828125 68.566406 34.761719 68.625 C 34.53125 68.53125 34.425781 68.402344 34.558594 68.078125 C 34.722656 68.203125 34.847656 68.300781 35 68.421875 Z M 35.726562 74.894531 C 35.667969 75.136719 35.667969 75.136719 35.421875 75.050781 C 35.515625 75.003906 35.605469 74.957031 35.726562 74.894531 Z M 35.011719 61.039062 C 35.183594 61.191406 35.261719 61.257812 35.359375 61.34375 C 35.28125 61.425781 35.230469 61.480469 35.097656 61.617188 C 35.0625 61.394531 35.046875 61.277344 35.011719 61.039062 Z M 35.085938 64.816406 C 35.128906 64.8125 35.175781 64.808594 35.21875 64.808594 C 35.28125 64.917969 35.34375 65.03125 35.4375 65.191406 C 35.308594 65.242188 35.21875 65.273438 35.042969 65.347656 C 35.0625 65.117188 35.070312 64.964844 35.085938 64.816406 Z M 37.128906 49.023438 C 37.011719 49.152344 36.9375 49.230469 36.863281 49.308594 C 36.820312 49.261719 36.78125 49.234375 36.78125 49.210938 C 36.792969 49.046875 36.855469 48.945312 37.128906 49.023438 Z M 38.566406 47.058594 C 38.613281 47.121094 38.65625 47.1875 38.71875 47.273438 C 38.621094 47.363281 38.539062 47.4375 38.40625 47.554688 C 38.296875 47.265625 38.335938 47.132812 38.566406 47.058594 Z M 38.304688 46.292969 C 38.257812 46.277344 38.210938 46.261719 38.164062 46.246094 C 38.085938 46.066406 38.074219 45.914062 38.421875 45.851562 C 38.371094 46.039062 38.339844 46.164062 38.304688 46.292969 Z M 37.972656 54.265625 C 38.015625 54.03125 38.015625 54.03125 38.34375 54.066406 C 38.15625 54.164062 38.078125 54.207031 37.972656 54.265625 Z M 38.195312 69.300781 C 38.140625 69.460938 38.097656 69.570312 38.050781 69.707031 C 37.792969 69.546875 37.652344 69.398438 37.859375 69.078125 C 37.972656 69.15625 38.066406 69.214844 38.195312 69.300781 Z M 38.035156 61.492188 C 38.085938 61.328125 38.128906 61.195312 38.203125 60.953125 C 38.390625 61.414062 38.390625 61.414062 38.035156 61.492188 Z M 39.355469 41.96875 C 39.304688 42.078125 39.269531 42.152344 39.203125 42.289062 C 39.140625 42.152344 39.109375 42.082031 39.042969 41.929688 C 39.195312 41.949219 39.253906 41.957031 39.355469 41.96875 Z M 29.542969 42.933594 C 26.949219 43.164062 24.117188 43.277344 21.617188 42.402344 C 21.070312 42.210938 20.242188 41.886719 19.914062 41.34375 C 19.925781 41.074219 19.941406 40.804688 19.957031 40.535156 C 20.019531 39.363281 20.085938 38.191406 20.152344 37.019531 C 20.316406 37.152344 20.480469 37.28125 20.648438 37.410156 C 20.679688 37.429688 20.710938 37.453125 20.738281 37.476562 C 20.703125 37.472656 20.671875 37.46875 20.636719 37.464844 L 20.574219 37.742188 C 20.785156 37.769531 20.992188 37.792969 21.199219 37.808594 C 22.390625 38.628906 23.722656 39.289062 25.199219 39.703125 C 26.117188 39.945312 27.035156 40.074219 27.929688 40.074219 C 29.429688 40.074219 30.773438 39.730469 31.917969 39.054688 C 33.152344 38.332031 34.15625 37.238281 35.132812 36.183594 L 35.367188 35.929688 C 36.285156 34.9375 37.027344 34.050781 37.65625 33.195312 C 37.671875 33.183594 37.6875 33.164062 37.695312 33.140625 C 38.105469 32.574219 38.464844 32.019531 38.789062 31.460938 C 38.863281 31.328125 38.9375 31.191406 39.007812 31.054688 C 39.421875 34.03125 39.910156 36.996094 40.511719 39.933594 C 40.515625 39.964844 40.53125 39.984375 40.550781 40 C 39.808594 40.511719 38.925781 40.855469 38.097656 41.164062 C 35.367188 42.195312 32.4375 42.675781 29.542969 42.933594 Z M 30.882812 47.652344 C 31.234375 47.6875 31.234375 47.6875 31.265625 48.058594 C 31.070312 47.988281 30.90625 47.910156 30.882812 47.652344 Z M 28.507812 47.527344 C 28.351562 47.445312 28.210938 47.375 28.074219 47.308594 C 28.15625 47.070312 28.273438 47.011719 28.445312 47.09375 C 28.589844 47.167969 28.640625 47.285156 28.507812 47.527344 Z M 28.167969 52.210938 C 28.0625 52.148438 27.953125 52.085938 27.804688 52 C 27.882812 51.882812 27.941406 51.796875 28.058594 51.625 C 28.148438 51.855469 28.199219 52.003906 28.253906 52.148438 C 28.226562 52.171875 28.199219 52.191406 28.167969 52.210938 Z M 27.730469 48.382812 C 27.828125 48.355469 27.929688 48.332031 28.042969 48.304688 C 28.074219 48.375 28.121094 48.4375 28.105469 48.460938 C 28.058594 48.550781 27.996094 48.691406 27.921875 48.699219 C 27.757812 48.714844 27.707031 48.578125 27.730469 48.382812 Z M 25.691406 68.28125 C 25.558594 68.242188 25.433594 68.203125 25.277344 68.160156 C 25.300781 68.039062 25.320312 67.945312 25.335938 67.859375 C 25.398438 67.855469 25.445312 67.839844 25.460938 67.851562 C 25.558594 67.96875 25.792969 68 25.691406 68.28125 Z M 24.515625 51.664062 C 24.671875 51.722656 24.804688 51.769531 24.976562 51.832031 C 24.917969 51.96875 24.878906 52.0625 24.832031 52.175781 C 24.597656 52.085938 24.464844 51.972656 24.515625 51.664062 Z M 22.511719 45.59375 C 22.597656 45.476562 22.664062 45.394531 22.75 45.285156 C 22.851562 45.390625 22.925781 45.472656 23.011719 45.5625 C 22.878906 45.796875 22.738281 45.789062 22.511719 45.59375 Z M 20.738281 43.71875 L 20.738281 43.730469 C 20.738281 43.726562 20.734375 43.722656 20.730469 43.722656 C 20.65625 43.871094 20.585938 44.019531 20.492188 44.207031 C 20.210938 43.933594 20.347656 43.765625 20.472656 43.542969 C 20.578125 43.617188 20.65625 43.667969 20.730469 43.722656 C 20.734375 43.722656 20.738281 43.722656 20.738281 43.71875 C 20.757812 43.566406 20.773438 43.410156 20.792969 43.195312 C 20.960938 43.300781 21.09375 43.382812 21.234375 43.472656 C 21.148438 43.789062 20.90625 43.664062 20.738281 43.71875 Z M 21.75 67.964844 C 21.597656 68.035156 21.484375 68.085938 21.351562 68.144531 C 21.253906 67.84375 21.386719 67.769531 21.554688 67.683594 C 21.617188 67.769531 21.660156 67.835938 21.75 67.964844 Z M 21.070312 54.296875 C 21.277344 54.03125 21.429688 54.207031 21.644531 54.390625 C 21.363281 54.5 21.363281 54.5 21.070312 54.296875 Z M 27.941406 74.984375 C 27.625 78.511719 27.132812 82.03125 26.765625 85.550781 C 26.765625 85.550781 26.765625 85.550781 26.761719 85.550781 C 26.753906 85.546875 26.746094 85.539062 26.738281 85.535156 C 26.191406 85.359375 25.539062 85.390625 24.972656 85.367188 C 23.859375 85.320312 22.746094 85.3125 21.632812 85.3125 C 19.386719 85.308594 17.136719 85.324219 14.894531 85.464844 C 14.699219 85.476562 14.289062 85.449219 13.996094 85.519531 C 13.71875 82.550781 13.4375 79.582031 13.460938 76.59375 C 13.464844 75.539062 13.539062 74.484375 13.628906 73.433594 C 14.074219 73.523438 14.507812 73.597656 14.886719 73.683594 C 19.164062 74.609375 23.574219 74.941406 27.941406 74.984375 Z M 26.675781 86.894531 C 26.644531 87.234375 26.597656 87.574219 26.546875 87.910156 C 22.292969 87.363281 17.980469 87.699219 13.710938 87.617188 C 13.730469 87.121094 13.753906 86.617188 13.847656 86.128906 C 13.929688 85.703125 14.234375 85.800781 14.640625 85.765625 C 16.8125 85.601562 19.003906 85.601562 21.183594 85.597656 C 22.332031 85.59375 23.484375 85.601562 24.632812 85.640625 C 25.269531 85.660156 26.023438 85.613281 26.640625 85.808594 C 26.828125 85.925781 26.691406 86.738281 26.675781 86.894531 Z M 26.289062 89.351562 C 26.269531 89.445312 26.25 89.53125 26.234375 89.621094 C 22.070312 89.085938 17.855469 89.40625 13.671875 89.328125 C 13.675781 88.882812 13.683594 88.4375 13.699219 87.992188 C 13.699219 87.960938 13.699219 87.933594 13.699219 87.902344 C 17.960938 87.984375 22.261719 87.652344 26.5 88.191406 C 26.4375 88.582031 26.363281 88.96875 26.289062 89.351562 Z M 24.808594 95.953125 C 24.328125 97.925781 23.820312 99.894531 23.300781 101.859375 C 23.066406 102.757812 22.757812 103.527344 22.894531 104.441406 C 22.378906 104.476562 21.863281 104.558594 21.367188 104.640625 L 21.246094 104.664062 C 20.433594 104.800781 20.117188 104.890625 19.484375 105.445312 C 19.160156 105.734375 18.957031 106.113281 18.765625 106.476562 L 18.652344 106.6875 C 18.484375 106.996094 18.210938 107.511719 17.414062 107.554688 C 17.34375 107.347656 17.152344 106.882812 16.671875 106.28125 C 15.523438 104.855469 14.21875 104.484375 13.542969 104.390625 C 13.6875 104.3125 13.832031 104.234375 13.976562 104.15625 C 14.019531 104.136719 14.050781 104.082031 14.046875 104.035156 C 13.894531 100.804688 13.785156 97.566406 13.710938 94.332031 C 13.679688 92.757812 13.648438 91.1875 13.664062 89.613281 C 17.832031 89.691406 22.03125 89.371094 26.175781 89.902344 C 25.777344 91.929688 25.300781 93.945312 24.808594 95.953125 Z M 14.722656 107.761719 C 14.632812 107.753906 14.554688 107.582031 14.492188 107.46875 C 14.476562 107.4375 14.535156 107.359375 14.570312 107.273438 C 14.710938 107.308594 14.835938 107.339844 14.960938 107.371094 C 14.988281 107.613281 14.925781 107.785156 14.722656 107.761719 Z M 14.074219 105.777344 C 14.28125 105.671875 14.429688 105.742188 14.535156 106.035156 C 14.359375 106.125 14.1875 106.210938 13.996094 106.304688 C 13.832031 106.007812 13.894531 105.863281 14.074219 105.777344 Z M 13.074219 69.285156 C 13.050781 69.121094 13.03125 68.984375 13.007812 68.796875 C 13.265625 68.859375 13.378906 68.976562 13.394531 69.273438 C 13.269531 69.277344 13.175781 69.28125 13.074219 69.285156 Z M 13.210938 56.609375 C 13.410156 56.667969 13.578125 56.71875 13.785156 56.78125 C 13.566406 57.113281 13.320312 57.046875 12.988281 57.023438 C 13.089844 56.835938 13.144531 56.726562 13.210938 56.609375 Z M 14.128906 51.503906 C 14.140625 51.511719 14.148438 51.519531 14.160156 51.53125 C 14.140625 51.546875 14.125 51.554688 14.105469 51.566406 C 14.113281 51.546875 14.121094 51.523438 14.128906 51.503906 Z M 16.683594 49.445312 C 16.75 49.625 16.789062 49.722656 16.84375 49.867188 C 16.703125 49.886719 16.613281 49.898438 16.515625 49.914062 C 16.492188 49.875 16.46875 49.839844 16.445312 49.800781 C 16.511719 49.707031 16.574219 49.609375 16.683594 49.445312 Z M 18.25 70.84375 C 18.296875 71.050781 18.1875 71.125 17.980469 71.140625 C 17.960938 70.996094 17.941406 70.855469 17.925781 70.730469 C 18.109375 70.621094 18.210938 70.667969 18.25 70.84375 Z M 18.703125 37.019531 C 10.707031 34.277344 7.671875 24.148438 6.929688 21.113281 C 6.917969 21.066406 6.90625 21.015625 6.890625 20.957031 C 7.082031 20.984375 7.28125 21.007812 7.488281 21.035156 C 7.484375 21.058594 7.480469 21.078125 7.488281 21.105469 C 7.613281 21.539062 8.351562 22.023438 8.4375 22.078125 C 8.738281 22.265625 9.367188 22.359375 10.308594 22.359375 C 10.921875 22.359375 11.511719 22.316406 11.753906 22.296875 C 11.859375 22.667969 12.191406 23.824219 12.335938 24.316406 C 13.035156 26.597656 15.289062 32.875 19.902344 36.816406 C 19.898438 36.984375 19.886719 37.160156 19.875 37.332031 C 19.488281 37.25 19.097656 37.144531 18.703125 37.019531 Z M 6.414062 20.59375 L 6.40625 20.59375 C 6.328125 20.589844 6.261719 20.636719 6.25 20.710938 C 6.25 20.71875 6.25 20.722656 6.25 20.726562 C 6.25 20.730469 6.25 20.734375 6.25 20.738281 C 6.15625 21.484375 5.320312 21.507812 4.628906 21.449219 C 4.691406 21.414062 4.75 21.375 4.800781 21.324219 C 5.261719 20.898438 5.371094 20.300781 5.441406 19.699219 C 5.578125 18.511719 5.65625 17.324219 5.765625 16.136719 C 5.867188 15.003906 5.96875 13.871094 6.082031 12.738281 C 6.121094 12.335938 5.964844 12.046875 5.664062 11.859375 C 6.320312 11.953125 7.011719 12.167969 6.980469 12.839844 L 6.980469 12.84375 C 6.980469 12.84375 6.976562 12.847656 6.976562 12.847656 C 6.96875 12.929688 7.023438 13 7.097656 13.007812 C 7.101562 13.007812 7.105469 13.007812 7.105469 13.011719 C 7.902344 13.113281 8.503906 13.171875 9.171875 13.210938 C 9.109375 13.1875 9.070312 13.128906 9.078125 13.066406 C 9.082031 13.027344 9.101562 12.992188 9.128906 12.96875 C 9.101562 12.992188 9.082031 13.027344 9.078125 13.066406 C 9.070312 13.128906 9.113281 13.1875 9.167969 13.210938 C 9.179688 13.214844 9.191406 13.21875 9.207031 13.21875 C 9.84375 13.28125 10.382812 14.882812 10.171875 17.171875 C 10.167969 17.207031 10.164062 17.238281 10.160156 17.269531 C 10.078125 17.316406 10.015625 17.386719 9.96875 17.484375 C 9.804688 17.855469 9.832031 18.1875 9.964844 18.484375 C 10.015625 18.609375 10.085938 18.722656 10.171875 18.832031 C 10.453125 19.207031 10.867188 19.5 11.160156 19.707031 C 11.222656 19.75 11.285156 19.792969 11.339844 19.835938 C 11.234375 19.828125 11.140625 19.824219 11.050781 19.816406 C 10.597656 19.78125 10.285156 19.75 9.761719 19.988281 C 9.917969 19.652344 10.058594 19.261719 10.167969 18.832031 C 10.085938 18.722656 10.015625 18.605469 9.960938 18.484375 C 9.84375 19.007812 9.6875 19.488281 9.496094 19.882812 C 9.433594 20.015625 9.363281 20.136719 9.296875 20.246094 C 9.296875 20.246094 9.292969 20.246094 9.292969 20.246094 C 9.210938 20.300781 9.148438 20.347656 9.097656 20.386719 C 8.921875 20.519531 8.8125 20.601562 8.039062 20.808594 C 7.445312 20.746094 6.894531 20.675781 6.414062 20.59375 Z M 2.390625 18.5 L 2.390625 18.597656 L 2.132812 18.597656 L 2.132812 18.464844 C 2.214844 18.476562 2.304688 18.488281 2.390625 18.5 Z M 3.785156 15.238281 C 3.929688 15.339844 4.015625 15.402344 4.183594 15.515625 C 4.011719 15.601562 3.933594 15.640625 3.808594 15.703125 C 3.804688 15.539062 3.796875 15.429688 3.785156 15.238281 Z M 4.207031 18.785156 C 4.210938 18.941406 4.214844 19.074219 4.214844 19.273438 C 4.058594 19.214844 3.945312 19.171875 3.824219 19.125 C 3.761719 19.191406 3.683594 19.277344 3.570312 19.398438 C 3.292969 18.933594 3.746094 18.90625 3.78125 18.640625 C 3.945312 18.691406 4.0625 18.734375 4.207031 18.785156 Z M 4.773438 14.339844 C 4.839844 14.121094 4.886719 13.964844 4.96875 13.710938 C 5.089844 13.980469 5.175781 14.171875 5.265625 14.359375 C 5.238281 14.40625 5.214844 14.449219 5.1875 14.496094 C 5.054688 14.445312 4.921875 14.398438 4.773438 14.339844 Z M 5.113281 20.082031 C 5.105469 20.128906 5.09375 20.183594 5.082031 20.226562 C 4.953125 20.265625 4.832031 20.304688 4.683594 20.347656 C 4.828125 19.957031 4.878906 19.894531 5.113281 20.082031 Z M 4.414062 15.265625 C 4.496094 15.375 4.578125 15.488281 4.679688 15.636719 C 4.371094 15.636719 4.371094 15.636719 4.414062 15.265625 Z M 4.726562 16.683594 C 4.625 16.660156 4.523438 16.640625 4.34375 16.605469 C 4.539062 16.40625 4.644531 16.425781 4.726562 16.683594 Z M 3.835938 21.375 C 3.296875 21.339844 2.75 21.304688 2.210938 21.234375 C 1.976562 21.191406 1.761719 21.15625 1.597656 21.132812 C 1.59375 21.132812 1.59375 21.132812 1.589844 21.132812 C 1.46875 21.113281 1.347656 21.085938 1.226562 21.054688 C 0.351562 20.835938 0.316406 19.976562 0.367188 19.21875 C 0.441406 18.203125 0.558594 17.1875 0.65625 16.171875 C 0.746094 15.230469 0.832031 14.289062 0.917969 13.34375 C 0.964844 12.859375 0.851562 11.925781 1.417969 11.695312 C 1.613281 11.613281 1.925781 11.65625 2.132812 11.660156 C 2.25 11.664062 2.367188 11.667969 2.480469 11.671875 C 3.28125 11.742188 4.082031 11.820312 4.878906 11.933594 C 5.042969 11.953125 5.203125 11.980469 5.359375 12.019531 C 5.714844 12.109375 5.804688 12.367188 5.804688 12.648438 C 5.449219 12.625 3.234375 12.488281 2.84375 12.523438 C 2.414062 12.558594 2.3125 12.875 2.292969 13.109375 C 2.128906 15.019531 1.964844 16.621094 1.789062 18.527344 C 1.738281 19.066406 1.695312 19.800781 2.230469 20.109375 C 2.539062 20.28125 3.46875 20.394531 4.199219 20.457031 C 4.253906 20.382812 4.3125 20.304688 4.410156 20.179688 C 4.457031 20.324219 4.484375 20.394531 4.515625 20.484375 C 4.714844 20.5 4.882812 20.511719 4.996094 20.519531 C 4.925781 20.695312 4.839844 20.863281 4.71875 21.011719 C 4.53125 21.25 4.207031 21.347656 3.835938 21.375 Z M 9.589844 13.082031 C 9.496094 13.015625 9.394531 12.96875 9.292969 12.949219 C 9.398438 12.96875 9.496094 13.011719 9.589844 13.082031 Z M 12.410156 13.4375 C 13.097656 13.507812 13.5 15.273438 13.308594 17.375 C 13.257812 17.894531 13.175781 18.394531 13.0625 18.851562 C 12.898438 18.765625 12.730469 18.679688 12.574219 18.605469 C 12.140625 18.390625 11.734375 18.1875 11.480469 17.984375 C 11.449219 17.960938 11.414062 17.925781 11.367188 17.878906 C 11.367188 17.875 11.363281 17.875 11.359375 17.875 C 11.351562 17.863281 11.339844 17.855469 11.332031 17.84375 C 11.339844 17.855469 11.351562 17.863281 11.363281 17.875 C 11.363281 17.875 11.363281 17.878906 11.367188 17.878906 L 12.613281 17.996094 C 12.617188 17.996094 12.621094 17.996094 12.625 17.996094 C 12.699219 17.996094 12.757812 17.941406 12.765625 17.867188 C 12.773438 17.789062 12.714844 17.71875 12.636719 17.710938 L 11.023438 17.558594 C 11.03125 17.566406 11.035156 17.574219 11.042969 17.578125 C 11.035156 17.574219 11.027344 17.566406 11.019531 17.558594 C 10.828125 17.398438 10.632812 17.265625 10.449219 17.230469 C 10.449219 17.21875 10.453125 17.207031 10.453125 17.199219 C 10.621094 15.398438 10.328125 13.871094 9.765625 13.242188 C 9.933594 13.246094 10.101562 13.253906 10.285156 13.265625 C 10.996094 13.304688 11.707031 13.367188 12.410156 13.4375 Z M 8.8125 10.535156 C 8.121094 10.484375 7.777344 10.210938 7.390625 9.648438 C 7.027344 9.125 6.417969 9.003906 5.878906 8.742188 C 5.597656 8.601562 5.550781 8.257812 5.570312 7.914062 L 10.542969 8.515625 C 10.546875 8.515625 10.554688 8.515625 10.558594 8.515625 C 11.523438 8.632812 12.488281 8.746094 13.453125 8.855469 C 14.101562 8.933594 14.75 9.007812 15.398438 9.078125 C 15.570312 9.09375 15.746094 9.113281 15.917969 9.125 C 16.300781 9.15625 16.230469 9.707031 16.183594 9.980469 C 16.167969 10.074219 16.21875 10.15625 16.320312 10.160156 C 19.632812 10.347656 22.945312 10.535156 26.257812 10.722656 C 25.796875 10.875 25.425781 11.117188 25.167969 11.445312 C 24.957031 11.714844 24.828125 12 24.777344 12.316406 C 24.746094 12.515625 24.761719 12.800781 24.820312 13.09375 C 24.691406 13.085938 24.566406 13.074219 24.4375 13.066406 C 24.191406 13.042969 23.941406 13.023438 23.691406 13.003906 C 23.613281 13 23.535156 12.992188 23.453125 12.988281 C 23.359375 12.527344 23.261719 12.0625 23.167969 11.601562 C 23.15625 11.535156 23.089844 11.5 23.03125 11.496094 C 19.546875 11.261719 16.0625 11.023438 12.582031 10.789062 C 11.328125 10.703125 10.066406 10.621094 8.8125 10.535156 Z M 6.074219 10.199219 C 5.605469 10.101562 5.445312 9.851562 5.257812 9.5625 C 5.105469 9.328125 4.933594 9.066406 4.582031 8.878906 C 4.351562 8.757812 4.144531 8.675781 3.96875 8.609375 C 3.429688 8.394531 3.246094 8.324219 3.324219 7.601562 C 3.332031 7.367188 3.398438 6.722656 3.628906 6.511719 C 3.671875 6.46875 3.71875 6.453125 3.773438 6.453125 C 4.617188 6.523438 5.21875 6.582031 5.679688 6.628906 C 5.425781 6.867188 5.351562 7.332031 5.320312 7.730469 C 5.320312 7.734375 5.320312 7.734375 5.316406 7.738281 C 5.316406 7.742188 5.320312 7.746094 5.320312 7.75 C 5.308594 7.863281 5.300781 7.972656 5.292969 8.070312 C 5.261719 8.46875 5.398438 8.785156 5.738281 8.988281 C 5.980469 9.132812 6.28125 9.214844 6.539062 9.328125 C 7 9.53125 7.1875 9.890625 7.476562 10.273438 C 7.507812 10.316406 7.542969 10.351562 7.582031 10.390625 Z M 9.425781 7.113281 C 9.664062 7.148438 9.898438 7.191406 10.128906 7.257812 C 10.472656 7.363281 10.480469 7.882812 10.4375 8.214844 L 5.605469 7.628906 C 5.625 7.492188 5.652344 7.367188 5.675781 7.261719 C 5.835938 6.527344 6.570312 6.78125 7.121094 6.835938 C 7.890625 6.910156 8.660156 6.992188 9.425781 7.113281 Z M 21.394531 5.59375 C 22.179688 3.832031 24.183594 1.480469 26.332031 2.167969 C 26.503906 2.222656 26.578125 1.949219 26.40625 1.890625 C 26.375 1.882812 26.347656 1.875 26.320312 1.871094 C 28.746094 -0.222656 31.71875 -0.0898438 34.363281 1.535156 C 36.3125 2.734375 37.652344 4.71875 38.128906 6.949219 C 38.925781 10.664062 37.230469 14.589844 34.503906 17.125 C 34.472656 17.136719 34.445312 17.160156 34.433594 17.191406 C 34.035156 17.554688 33.617188 17.886719 33.183594 18.183594 C 33.09375 18.246094 33.109375 18.359375 33.167969 18.417969 C 33.144531 18.4375 33.132812 18.472656 33.140625 18.515625 C 33.191406 18.933594 33.15625 19.53125 33.339844 19.914062 C 33.445312 20.128906 33.585938 20.320312 33.75 20.488281 C 33.085938 21.292969 31.96875 21.671875 30.992188 21.886719 C 29.988281 22.105469 28.648438 22.164062 27.808594 21.460938 C 27.847656 21.425781 27.882812 21.394531 27.914062 21.359375 C 28.058594 21.195312 28.105469 21.007812 28.109375 20.8125 C 28.128906 20.804688 28.148438 20.792969 28.160156 20.785156 C 28.4375 20.59375 28.667969 20.226562 28.769531 19.992188 C 28.796875 19.929688 28.820312 19.859375 28.839844 19.792969 C 29.855469 19.566406 30.945312 18.972656 31.691406 17.824219 C 31.734375 17.757812 31.714844 17.667969 31.648438 17.625 C 31.589844 17.589844 31.511719 17.601562 31.46875 17.65625 C 31.464844 17.65625 31.457031 17.664062 31.453125 17.667969 C 30.261719 19.507812 28.320312 19.625 27.808594 19.621094 C 27.800781 19.621094 27.796875 19.621094 27.789062 19.617188 L 27.75 19.617188 C 27.5625 19.613281 27.394531 19.589844 27.261719 19.558594 C 27.070312 19.511719 26.886719 19.449219 26.703125 19.375 C 26.707031 19.242188 26.710938 19.109375 26.710938 18.988281 C 26.71875 18.535156 26.71875 17.8125 26.714844 17.085938 C 26.714844 16.988281 26.714844 16.898438 26.710938 16.800781 C 26.703125 16.082031 26.6875 15.40625 26.664062 15.023438 C 26.816406 15.058594 26.988281 15.082031 27.179688 15.082031 C 27.550781 15.082031 27.960938 15.015625 28.375 14.898438 C 29.222656 14.664062 30.074219 14.207031 30.582031 13.632812 C 30.71875 13.480469 30.832031 13.320312 30.914062 13.152344 C 31.128906 12.699219 31.097656 12.230469 30.835938 11.789062 C 30.789062 11.707031 30.734375 11.621094 30.667969 11.542969 C 30.226562 11.007812 29.007812 10.578125 27.824219 10.527344 C 27.824219 10.523438 27.824219 10.523438 27.824219 10.523438 L 27.816406 10.523438 C 26.398438 10.445312 24.980469 10.363281 23.566406 10.285156 C 23.414062 10.222656 23.257812 10.199219 23.105469 10.210938 C 23.042969 10.214844 22.984375 10.230469 22.921875 10.25 C 22.808594 10.242188 22.695312 10.234375 22.582031 10.230469 C 22.578125 10.230469 22.570312 10.230469 22.566406 10.230469 C 22.570312 10.230469 22.578125 10.230469 22.582031 10.230469 C 22.589844 10.074219 22.597656 9.921875 22.613281 9.773438 C 22.617188 9.738281 22.617188 9.703125 22.621094 9.667969 C 22.621094 9.667969 22.621094 9.664062 22.621094 9.660156 C 22.621094 9.660156 22.621094 9.65625 22.621094 9.652344 C 22.59375 8.148438 23.242188 6.273438 24.777344 5.769531 C 25.238281 7.085938 26.660156 7.980469 27.898438 8.441406 C 29.375 8.992188 31.386719 9.367188 31.828125 11.148438 C 31.835938 11.175781 31.851562 11.199219 31.871094 11.214844 C 31.867188 11.226562 31.867188 11.234375 31.867188 11.246094 C 31.878906 11.308594 31.9375 11.355469 32.003906 11.347656 C 32.453125 11.277344 32.875 11.496094 33.160156 11.945312 C 33.492188 12.460938 33.53125 13.125 33.25 13.5625 C 33.097656 13.796875 32.734375 14 32.417969 14.023438 C 32.351562 14.027344 32.304688 14.085938 32.308594 14.152344 C 32.3125 14.191406 32.335938 14.222656 32.367188 14.242188 C 32.367188 14.25 32.367188 14.257812 32.367188 14.265625 C 32.492188 15.171875 32.355469 16.050781 31.84375 16.824219 C 31.742188 16.980469 31.988281 17.121094 32.089844 16.96875 C 32.636719 16.136719 32.773438 15.199219 32.648438 14.226562 C 32.867188 14.171875 33.078125 14.0625 33.246094 13.917969 C 33.328125 13.851562 33.394531 13.773438 33.449219 13.691406 C 33.78125 13.171875 33.746094 12.417969 33.359375 11.816406 C 33.054688 11.335938 32.589844 11.082031 32.105469 11.101562 C 32.101562 11.089844 32.105469 11.082031 32.101562 11.074219 C 31.277344 7.761719 26.105469 8.90625 25.039062 5.664062 C 25.109375 5.570312 25.035156 5.398438 24.890625 5.433594 C 23.097656 5.867188 22.308594 7.957031 22.339844 9.648438 C 22.316406 9.832031 22.304688 10.023438 22.296875 10.214844 C 21.691406 10.179688 21.085938 10.144531 20.484375 10.113281 C 20.480469 8.566406 20.777344 6.984375 21.394531 5.59375 Z M 37.398438 17 C 37.796875 17.796875 38.363281 18.484375 39.003906 19.089844 C 40.578125 20.574219 42.480469 21.601562 43.917969 23.257812 C 45.265625 24.804688 45.933594 26.832031 44.542969 28.585938 C 43.300781 30.152344 41.273438 30.027344 39.984375 28.644531 C 40.582031 26.535156 40.46875 24.507812 39.609375 22.914062 C 39.367188 22.460938 38.65625 21.5 38.183594 21.207031 C 38.183594 21.207031 38.179688 21.207031 38.179688 21.207031 C 38.179688 21.207031 38.183594 21.207031 38.183594 21.210938 C 38.171875 21.175781 38.140625 21.148438 38.097656 21.132812 C 38.046875 21.121094 37.996094 21.109375 37.945312 21.097656 C 37.945312 21.097656 37.945312 21.09375 37.941406 21.09375 C 37.816406 21.050781 37.753906 21.039062 37.671875 21.035156 C 37.292969 20.96875 36.925781 20.953125 36.550781 20.953125 C 36.347656 20.953125 36.144531 20.957031 35.9375 20.960938 C 34.992188 20.234375 34.695312 18.472656 34.699219 17.328125 C 35.429688 16.652344 36.078125 15.886719 36.625 15.054688 C 36.722656 15.734375 37.105469 16.414062 37.398438 17 Z M 13.128906 13.351562 C 13.117188 13.34375 13.105469 13.339844 13.09375 13.335938 C 13.105469 13.339844 13.117188 13.34375 13.128906 13.351562 Z M 12.878906 13.269531 C 12.875 13.273438 12.875 13.273438 12.871094 13.277344 C 12.871094 13.277344 12.871094 13.273438 12.871094 13.273438 C 12.875 13.273438 12.875 13.273438 12.878906 13.269531 Z M 14.785156 13.390625 C 14.3125 13.347656 13.839844 13.296875 13.371094 13.25 C 13.203125 13.230469 13.03125 13.214844 12.859375 13.195312 C 12.863281 13.210938 12.863281 13.222656 12.867188 13.238281 C 12.863281 13.222656 12.859375 13.207031 12.859375 13.195312 C 12.769531 12.488281 12.683594 11.78125 12.597656 11.074219 C 13.21875 11.117188 13.847656 11.160156 14.46875 11.203125 C 14.570312 11.933594 14.675781 12.664062 14.785156 13.390625 C 14.789062 13.394531 14.789062 13.402344 14.789062 13.40625 C 14.789062 13.402344 14.789062 13.398438 14.785156 13.390625 Z M 20.664062 13.238281 C 18.996094 13.402344 17.5 13.550781 17.414062 13.558594 C 16.632812 13.539062 15.847656 13.488281 15.070312 13.414062 C 15.070312 13.410156 15.070312 13.40625 15.070312 13.402344 C 14.976562 12.765625 14.882812 12.125 14.796875 11.488281 C 15.382812 11.949219 16.253906 11.828125 16.898438 11.457031 C 17.46875 11.996094 18.34375 11.980469 18.992188 11.582031 C 19.339844 11.890625 19.867188 12.023438 20.367188 11.960938 C 20.441406 12.390625 20.539062 12.820312 20.664062 13.238281 Z M 22.523438 13.054688 C 22.007812 13.109375 21.460938 13.160156 20.925781 13.210938 C 20.796875 12.785156 20.695312 12.351562 20.625 11.90625 C 20.800781 11.859375 20.964844 11.785156 21.105469 11.6875 C 21.484375 11.988281 21.921875 12.058594 22.363281 11.992188 C 22.402344 12.335938 22.453125 12.691406 22.523438 13.054688 Z M 22.804688 13.03125 C 22.734375 12.652344 22.679688 12.285156 22.640625 11.929688 C 22.738281 11.902344 22.832031 11.871094 22.925781 11.835938 C 22.9375 11.894531 22.953125 11.957031 22.964844 12.019531 C 23.03125 12.34375 23.101562 12.671875 23.164062 12.992188 C 23.050781 13.003906 22.925781 13.019531 22.804688 13.03125 Z M 24.320312 13.34375 C 24.3125 13.339844 24.308594 13.339844 24.300781 13.339844 L 24.320312 13.339844 C 24.320312 13.339844 24.320312 13.339844 24.320312 13.34375 Z M 25.125 13.933594 C 25.128906 14.257812 24.855469 14.230469 24.777344 14.5 C 24.699219 14.3125 24.664062 14.226562 24.617188 14.113281 C 24.792969 14.050781 24.9375 13.996094 25.125 13.933594 Z M 26.414062 14.472656 C 26.1875 13.734375 25.917969 13.058594 25.101562 12.851562 C 24.925781 12.804688 25 12.527344 25.179688 12.574219 C 26.089844 12.808594 26.429688 13.558594 26.683594 14.398438 C 26.738281 14.574219 26.464844 14.652344 26.414062 14.472656 Z M 26.566406 19.105469 C 26.5625 19.273438 26.558594 19.4375 26.546875 19.605469 C 26.488281 19.675781 26.425781 19.746094 26.371094 19.8125 C 26.339844 19.792969 26.308594 19.78125 26.277344 19.761719 C 26.316406 19.546875 26.359375 19.335938 26.414062 19.0625 C 26.46875 19.074219 26.515625 19.09375 26.566406 19.105469 Z M 26.347656 18.957031 C 26.3125 18.925781 26.28125 18.894531 26.25 18.863281 C 26.300781 18.785156 26.351562 18.707031 26.40625 18.628906 C 26.4375 18.648438 26.46875 18.675781 26.5 18.699219 C 26.449219 18.785156 26.398438 18.871094 26.347656 18.957031 Z M 19.675781 25.765625 C 20.511719 25.851562 20.859375 26.667969 21.152344 27.359375 C 21.140625 27.386719 21.128906 27.417969 21.121094 27.449219 C 21.117188 27.457031 21.117188 27.464844 21.109375 27.472656 C 20.488281 26.996094 19.882812 26.535156 19.304688 26.066406 C 19.429688 25.964844 19.554688 25.863281 19.675781 25.765625 Z M 23.21875 23.015625 C 22.941406 23.371094 22.71875 23.769531 22.503906 24.171875 C 22.027344 25.070312 21.628906 26.011719 21.289062 26.96875 C 21 26.332031 20.636719 25.726562 19.964844 25.535156 C 21.699219 24.136719 22.789062 23.289062 23.132812 23.066406 C 23.160156 23.050781 23.191406 23.03125 23.21875 23.015625 Z M 16.691406 21.496094 C 16.746094 21.503906 20.53125 22.039062 23.316406 22.222656 C 23.265625 22.382812 23.203125 22.539062 23.128906 22.695312 C 23.121094 22.710938 23.121094 22.730469 23.117188 22.742188 C 23.070312 22.769531 23.023438 22.796875 22.980469 22.824219 C 22.578125 23.085938 21.265625 24.113281 19.082031 25.882812 C 17.578125 24.644531 16.238281 23.324219 15.101562 21.476562 C 15.65625 21.484375 16.191406 21.492188 16.691406 21.496094 Z M 18.257812 21.144531 C 18.25 21.21875 18.1875 21.273438 18.117188 21.273438 L 18.109375 21.273438 L 17.964844 21.261719 C 17.886719 21.257812 17.828125 21.1875 17.832031 21.113281 C 17.839844 21.03125 17.90625 20.972656 17.984375 20.980469 L 18.125 20.988281 C 18.203125 20.996094 18.261719 21.0625 18.257812 21.144531 Z M 18.847656 15.171875 C 18.777344 15.171875 18.726562 15.175781 18.675781 15.179688 C 18.625 15.042969 18.570312 14.90625 18.515625 14.777344 C 18.523438 14.746094 18.53125 14.722656 18.539062 14.691406 C 18.65625 14.875 18.726562 14.980469 18.847656 15.171875 Z M 19.46875 21.234375 C 19.460938 21.308594 19.398438 21.367188 19.324219 21.367188 L 19.316406 21.367188 L 19.011719 21.34375 C 18.933594 21.335938 18.875 21.269531 18.878906 21.191406 C 18.886719 21.113281 18.949219 21.050781 19.035156 21.058594 L 19.335938 21.082031 C 19.414062 21.089844 19.472656 21.15625 19.46875 21.234375 Z M 22.953125 19.523438 C 22.933594 19.5 22.910156 19.472656 22.890625 19.449219 C 22.941406 19.398438 22.996094 19.347656 23.050781 19.300781 C 23.070312 19.324219 23.089844 19.351562 23.113281 19.378906 C 23.058594 19.425781 23.007812 19.476562 22.953125 19.523438 Z M 22.65625 21.332031 L 22.960938 21.359375 C 23.042969 21.363281 23.097656 21.429688 23.089844 21.511719 C 23.085938 21.585938 23.023438 21.644531 22.949219 21.644531 L 22.941406 21.644531 L 22.640625 21.621094 C 22.558594 21.613281 22.503906 21.546875 22.507812 21.464844 C 22.515625 21.386719 22.582031 21.328125 22.65625 21.332031 Z M 22.347656 19.824219 C 22.421875 19.917969 22.476562 19.988281 22.582031 20.121094 C 22.40625 20.128906 22.300781 20.136719 22.199219 20.140625 C 22.1875 20.109375 22.171875 20.070312 22.164062 20.035156 C 22.214844 19.972656 22.265625 19.914062 22.347656 19.824219 Z M 20.675781 21.324219 C 20.667969 21.402344 20.605469 21.460938 20.53125 21.460938 L 20.519531 21.460938 L 20.222656 21.433594 C 20.140625 21.429688 20.085938 21.359375 20.089844 21.28125 C 20.097656 21.203125 20.160156 21.144531 20.242188 21.152344 L 20.542969 21.175781 C 20.625 21.179688 20.679688 21.25 20.675781 21.324219 Z M 21.339844 18.851562 C 20.398438 18.851562 19.625 18.074219 19.625 17.125 C 19.625 16.171875 20.398438 15.402344 21.339844 15.402344 C 22.285156 15.402344 23.054688 16.171875 23.054688 17.125 C 23.054688 18.074219 22.285156 18.851562 21.339844 18.851562 Z M 20.796875 20.25 C 20.949219 20.082031 21.035156 19.992188 21.15625 19.859375 C 21.304688 20.121094 21.40625 20.304688 21.53125 20.519531 C 21.234375 20.601562 21.109375 20.371094 20.796875 20.25 Z M 21.453125 21.242188 L 21.753906 21.265625 C 21.832031 21.273438 21.890625 21.339844 21.882812 21.417969 C 21.878906 21.492188 21.816406 21.550781 21.742188 21.550781 L 21.730469 21.550781 L 21.429688 21.527344 C 21.351562 21.523438 21.292969 21.453125 21.296875 21.375 C 21.304688 21.292969 21.375 21.238281 21.453125 21.242188 Z M 25.347656 21.683594 C 25.34375 21.757812 25.28125 21.8125 25.207031 21.8125 L 25.195312 21.8125 L 25.054688 21.800781 C 24.976562 21.796875 24.917969 21.726562 24.925781 21.648438 C 24.929688 21.570312 25.007812 21.511719 25.074219 21.515625 L 25.21875 21.527344 C 25.296875 21.535156 25.351562 21.601562 25.347656 21.683594 Z M 24.796875 18.566406 L 25.640625 18.644531 C 25.796875 18.660156 25.914062 18.800781 25.898438 18.957031 C 25.882812 19.113281 25.746094 19.230469 25.589844 19.210938 L 24.742188 19.136719 C 24.589844 19.121094 24.476562 18.980469 24.488281 18.824219 C 24.503906 18.667969 24.640625 18.550781 24.796875 18.566406 Z M 25.535156 18.042969 C 25.527344 18.070312 25.527344 18.101562 25.519531 18.132812 C 25.445312 18.117188 25.371094 18.097656 25.300781 18.078125 C 25.304688 18.050781 25.3125 18.023438 25.316406 17.992188 C 25.390625 18.007812 25.464844 18.023438 25.535156 18.042969 Z M 24.902344 17.429688 C 24.746094 17.414062 24.628906 17.273438 24.644531 17.117188 C 24.660156 16.960938 24.796875 16.847656 24.953125 16.863281 L 25.800781 16.941406 C 25.957031 16.957031 26.070312 17.09375 26.054688 17.253906 C 26.042969 17.410156 25.902344 17.523438 25.746094 17.507812 Z M 23.597656 22.242188 C 23.789062 22.253906 23.972656 22.265625 24.148438 22.269531 C 24.085938 22.292969 24.027344 22.3125 23.96875 22.335938 C 23.941406 22.332031 23.914062 22.339844 23.882812 22.359375 C 23.875 22.363281 23.867188 22.371094 23.855469 22.378906 C 23.734375 22.425781 23.617188 22.480469 23.5 22.539062 C 23.535156 22.4375 23.570312 22.339844 23.597656 22.242188 Z M 23.503906 15.78125 C 23.472656 15.769531 23.441406 15.761719 23.414062 15.753906 C 23.429688 15.683594 23.441406 15.613281 23.460938 15.542969 C 23.488281 15.550781 23.519531 15.558594 23.550781 15.566406 C 23.535156 15.636719 23.519531 15.710938 23.503906 15.78125 Z M 23.867188 21.425781 L 24.171875 21.449219 C 24.246094 21.453125 24.308594 21.523438 24.300781 21.601562 C 24.296875 21.675781 24.234375 21.734375 24.160156 21.734375 L 24.148438 21.734375 L 23.84375 21.710938 C 23.769531 21.707031 23.710938 21.636719 23.714844 21.558594 C 23.722656 21.480469 23.785156 21.417969 23.867188 21.425781 Z M 23.683594 18.011719 C 23.582031 17.894531 23.503906 17.804688 23.433594 17.71875 C 23.449219 17.6875 23.460938 17.65625 23.480469 17.621094 C 23.589844 17.636719 23.695312 17.65625 23.847656 17.683594 C 23.785156 17.8125 23.75 17.882812 23.683594 18.011719 Z M 24.941406 14.570312 C 24.941406 14.347656 25.121094 14.167969 25.34375 14.167969 C 25.363281 14.167969 25.382812 14.171875 25.402344 14.175781 C 25.496094 14.253906 25.601562 14.339844 25.714844 14.421875 C 25.730469 14.46875 25.742188 14.519531 25.742188 14.570312 C 25.742188 14.792969 25.5625 14.972656 25.34375 14.972656 C 25.121094 14.972656 24.941406 14.792969 24.941406 14.570312 Z M 18.933594 13.851562 C 19.140625 13.886719 19.214844 13.96875 19.105469 14.183594 C 18.863281 14.171875 18.875 14.035156 18.933594 13.851562 Z M 23.898438 14.167969 C 23.96875 14.160156 24.023438 14.203125 24.042969 14.261719 C 24.226562 14.804688 24.546875 15.390625 24.730469 15.410156 C 25.382812 15.460938 26.214844 15.546875 26.214844 15.546875 L 26.1875 15.832031 C 26.1875 15.832031 25.355469 15.746094 24.707031 15.691406 C 24.296875 15.65625 23.949219 14.839844 23.8125 14.460938 L 18.796875 14.851562 C 18.722656 14.859375 18.652344 14.800781 18.644531 14.722656 C 18.640625 14.644531 18.695312 14.574219 18.777344 14.566406 Z M 15.507812 20.332031 C 15.855469 19.609375 16.105469 18.628906 16.203125 17.578125 C 16.300781 16.523438 16.238281 15.515625 16.023438 14.742188 C 15.902344 14.304688 15.738281 13.96875 15.546875 13.742188 C 16.167969 13.792969 16.789062 13.828125 17.402344 13.839844 C 18.039062 13.953125 18.691406 15.6875 18.777344 17.027344 C 18.867188 18.355469 18.550781 20.9375 16.71875 21.210938 C 16.585938 21.210938 16.449219 21.207031 16.3125 21.207031 C 15.871094 21.207031 15.40625 21.199219 14.929688 21.1875 C 14.929688 21.183594 14.925781 21.179688 14.921875 21.175781 C 15.128906 20.988281 15.328125 20.699219 15.507812 20.332031 Z M 14.847656 13.636719 C 14.847656 13.640625 14.847656 13.640625 14.847656 13.640625 C 14.847656 13.640625 14.847656 13.640625 14.847656 13.636719 Z M 14.820312 13.53125 C 14.816406 13.53125 14.816406 13.523438 14.816406 13.519531 C 14.816406 13.523438 14.816406 13.53125 14.820312 13.53125 Z M 13.351562 13.535156 C 13.289062 13.46875 13.222656 13.414062 13.15625 13.371094 C 13.222656 13.414062 13.289062 13.464844 13.351562 13.535156 C 13.871094 13.589844 14.402344 13.640625 14.933594 13.691406 C 14.933594 13.691406 14.933594 13.691406 14.9375 13.691406 C 14.9375 13.691406 14.941406 13.695312 14.949219 13.695312 C 15.269531 13.722656 15.5625 14.132812 15.75 14.820312 C 15.953125 15.558594 16.011719 16.527344 15.917969 17.546875 C 15.828125 18.570312 15.589844 19.515625 15.25 20.207031 C 15.113281 20.496094 14.960938 20.71875 14.808594 20.882812 C 14.867188 20.164062 14.363281 19.644531 13.71875 19.226562 C 13.867188 18.699219 13.980469 18.109375 14.035156 17.488281 C 14.199219 15.699219 13.90625 14.136719 13.351562 13.535156 Z M 31.609375 26.640625 C 31.480469 26.570312 31.550781 26.34375 31.71875 26.378906 C 31.734375 26.382812 31.746094 26.390625 31.761719 26.394531 C 31.746094 26.390625 31.730469 26.386719 31.714844 26.382812 C 31.554688 26.34375 31.480469 26.570312 31.609375 26.640625 Z M 33.882812 20.222656 C 33.472656 19.800781 33.496094 19.074219 33.421875 18.515625 C 33.414062 18.46875 33.390625 18.433594 33.359375 18.410156 C 33.726562 18.152344 34.082031 17.878906 34.421875 17.578125 C 34.453125 18.703125 34.75 20.140625 35.527344 20.960938 C 34.851562 20.953125 34.355469 20.710938 33.882812 20.222656 Z M 33.953125 20.679688 C 34.070312 20.777344 34.191406 20.875 34.320312 20.964844 C 34.738281 21.246094 35.308594 21.246094 35.789062 21.246094 L 35.867188 21.246094 C 35.886719 21.25 35.90625 21.25 35.921875 21.246094 L 35.949219 21.246094 C 34.582031 21.8125 33.503906 23.242188 32.757812 24.378906 C 32.496094 24.773438 32.242188 25.171875 31.988281 25.566406 C 30.84375 27.355469 29.765625 29.042969 28.25 30.492188 C 27.867188 30.859375 27.507812 31.167969 27.15625 31.429688 C 25.859375 31.355469 24.554688 30.238281 23.683594 29.496094 C 23.316406 29.191406 22.953125 28.898438 22.59375 28.621094 C 22.171875 28.285156 21.757812 27.964844 21.351562 27.65625 C 21.625 26.804688 21.953125 25.976562 22.328125 25.164062 C 22.722656 24.308594 23.15625 23.320312 23.90625 22.707031 C 23.9375 22.679688 23.960938 22.65625 23.992188 22.632812 C 24.34375 22.496094 24.722656 22.382812 25.136719 22.285156 C 25.246094 22.257812 25.355469 22.234375 25.46875 22.210938 C 25.355469 22.234375 25.246094 22.257812 25.136719 22.285156 C 25.269531 22.28125 25.398438 22.277344 25.519531 22.269531 C 25.632812 22.242188 25.734375 22.199219 25.832031 22.132812 C 25.832031 22.132812 25.835938 22.132812 25.835938 22.132812 C 25.933594 22.113281 26.03125 22.089844 26.132812 22.070312 L 26.324219 22.03125 C 26.746094 21.953125 27.210938 21.867188 27.582031 21.636719 C 28.421875 22.382812 29.675781 22.371094 30.730469 22.222656 C 31.871094 22.054688 33.179688 21.585938 33.953125 20.679688 Z M 27.679688 19.894531 L 27.714844 20.074219 C 27.726562 20.128906 27.734375 20.195312 27.75 20.253906 C 27.828125 20.589844 27.902344 20.9375 27.703125 21.167969 C 27.652344 21.222656 27.601562 21.273438 27.542969 21.316406 C 27.519531 21.324219 27.5 21.335938 27.480469 21.359375 C 27.148438 21.585938 26.6875 21.675781 26.273438 21.753906 L 26.167969 21.773438 C 26.289062 21.585938 26.390625 21.347656 26.46875 21.058594 C 26.597656 20.585938 26.65625 20.109375 26.683594 19.675781 C 26.851562 19.738281 27.023438 19.792969 27.191406 19.832031 C 27.328125 19.867188 27.496094 19.886719 27.679688 19.894531 Z M 27.273438 13.761719 C 27.273438 13.945312 26.992188 13.945312 26.992188 13.761719 C 26.992188 13.296875 26.984375 12.835938 26.992188 12.375 C 26.992188 12.1875 27.273438 12.1875 27.273438 12.375 C 27.273438 12.375 27.273438 12.375 27.273438 12.378906 C 27.273438 12.53125 27.273438 12.683594 27.273438 12.839844 C 27.273438 13.148438 27.273438 13.457031 27.273438 13.761719 Z M 27.816406 11.777344 C 27.960938 11.78125 28.078125 11.832031 28.167969 11.925781 C 28.367188 12.140625 28.355469 12.515625 28.34375 12.851562 C 28.339844 12.921875 28.335938 12.992188 28.335938 13.054688 C 28.339844 13.226562 28.34375 13.386719 28.34375 13.53125 C 28.355469 14.25 28.367188 14.609375 28.074219 14.632812 L 28.0625 14.632812 C 27.988281 14.632812 27.925781 14.574219 27.921875 14.496094 C 27.917969 14.429688 27.960938 14.363281 28.027344 14.351562 C 28.074219 14.257812 28.066406 13.890625 28.0625 13.535156 C 28.058594 13.394531 28.058594 13.234375 28.054688 13.058594 C 28.054688 12.992188 28.058594 12.917969 28.058594 12.839844 C 28.066406 12.578125 28.078125 12.25 27.960938 12.125 C 27.9375 12.097656 27.894531 12.066406 27.808594 12.0625 L 27.496094 12.054688 L 25.125 12.011719 C 25.042969 12.007812 24.980469 11.945312 24.984375 11.867188 C 24.984375 11.785156 25.054688 11.726562 25.128906 11.726562 Z M 13.003906 13.496094 C 12.988281 13.476562 12.96875 13.453125 12.949219 13.433594 C 12.949219 13.433594 12.949219 13.433594 12.953125 13.433594 C 12.96875 13.453125 12.988281 13.476562 13.003906 13.5 C 13.042969 13.503906 13.082031 13.507812 13.121094 13.511719 C 13.085938 13.488281 13.050781 13.46875 13.015625 13.457031 C 13.050781 13.46875 13.085938 13.484375 13.121094 13.507812 C 13.71875 13.921875 14.070312 15.59375 13.894531 17.476562 C 13.839844 18.074219 13.734375 18.640625 13.59375 19.148438 C 13.503906 19.09375 13.410156 19.039062 13.316406 18.988281 C 13.445312 18.5 13.535156 17.960938 13.585938 17.402344 C 13.734375 15.816406 13.5625 14.191406 13.003906 13.496094 Z M 9.605469 20.386719 C 10.257812 20.015625 10.542969 20.0625 11.027344 20.097656 C 11.230469 20.113281 11.453125 20.128906 11.738281 20.128906 C 11.792969 20.128906 11.84375 20.097656 11.867188 20.050781 C 11.894531 20 11.886719 19.9375 11.851562 19.894531 C 11.78125 19.8125 11.695312 19.75 11.621094 19.695312 C 11.550781 19.632812 11.445312 19.558594 11.320312 19.472656 C 10.578125 18.945312 9.882812 18.371094 10.226562 17.601562 C 10.273438 17.503906 10.324219 17.503906 10.347656 17.503906 C 10.578125 17.503906 10.972656 17.890625 11.164062 18.074219 C 11.214844 18.128906 11.261719 18.171875 11.296875 18.203125 C 11.582031 18.429688 12 18.640625 12.445312 18.859375 C 13.5 19.378906 14.695312 19.972656 14.515625 20.976562 C 14.507812 21.003906 14.515625 21.039062 14.53125 21.070312 C 16.238281 24.113281 18.429688 25.785156 20.964844 27.71875 C 21.78125 28.34375 22.628906 28.988281 23.503906 29.714844 C 24.410156 30.492188 25.785156 31.664062 27.195312 31.71875 C 27.230469 31.71875 27.257812 31.707031 27.28125 31.6875 C 27.65625 31.414062 28.039062 31.085938 28.449219 30.699219 C 29.710938 29.492188 30.703125 28.074219 31.628906 26.652344 C 31.632812 26.652344 31.636719 26.65625 31.640625 26.65625 C 33.089844 26.996094 34.15625 28.199219 35.097656 29.28125 C 36.035156 30.359375 37.226562 31.554688 37.410156 33.046875 C 37.414062 33.058594 37.414062 33.070312 37.417969 33.085938 C 37.425781 33.167969 37.488281 33.207031 37.550781 33.214844 C 37.488281 33.207031 37.425781 33.167969 37.414062 33.085938 C 37.414062 33.070312 37.414062 33.0625 37.410156 33.046875 C 36.796875 33.886719 36.0625 34.761719 35.160156 35.738281 L 34.925781 35.992188 C 33.964844 37.027344 32.96875 38.105469 31.777344 38.804688 C 30.675781 39.457031 29.378906 39.785156 27.929688 39.785156 C 27.058594 39.785156 26.164062 39.667969 25.269531 39.425781 C 17.132812 37.152344 13.523438 27.222656 12.609375 24.230469 C 12.429688 23.648438 11.996094 22.121094 11.992188 22.105469 C 11.976562 22.042969 11.921875 22.003906 11.855469 22.003906 L 11.84375 22.003906 C 11.835938 22.003906 11.097656 22.074219 10.308594 22.074219 C 9.203125 22.074219 8.761719 21.945312 8.585938 21.835938 C 8.34375 21.679688 7.984375 21.398438 7.828125 21.160156 C 8.917969 20.878906 9.039062 20.789062 9.269531 20.617188 C 9.347656 20.550781 9.441406 20.484375 9.605469 20.386719 Z M 38.542969 31.316406 C 38.273438 31.789062 37.972656 32.253906 37.640625 32.726562 C 37.648438 32.761719 37.648438 32.796875 37.65625 32.832031 C 37.648438 32.796875 37.648438 32.761719 37.640625 32.726562 C 37.347656 31.355469 36.316406 30.277344 35.4375 29.238281 C 34.453125 28.082031 33.3125 26.792969 31.792969 26.402344 C 31.9375 26.175781 32.082031 25.949219 32.226562 25.726562 C 32.480469 25.328125 32.734375 24.933594 32.992188 24.539062 C 33.910156 23.140625 35.339844 21.28125 37.148438 21.28125 C 37.277344 21.28125 37.410156 21.292969 37.539062 21.308594 C 37.585938 21.316406 37.621094 21.320312 37.65625 21.320312 C 37.726562 21.324219 37.777344 21.324219 37.980469 21.417969 C 38.316406 21.578125 39.058594 22.484375 39.359375 23.050781 C 40.550781 25.261719 40.242188 28.355469 38.542969 31.316406 Z M 41.664062 45.1875 C 41.585938 45.183594 41.5 45.183594 41.382812 45.179688 C 41.460938 44.9375 41.5625 44.988281 41.664062 45.1875 Z M 42.691406 68.617188 C 42.722656 68.652344 42.757812 68.683594 42.792969 68.714844 C 42.703125 68.828125 42.617188 68.945312 42.53125 69.058594 C 42.359375 68.691406 42.535156 68.664062 42.691406 68.617188 Z M 43.9375 54.867188 C 44.058594 54.984375 44.167969 55.035156 44.171875 55.097656 C 44.175781 55.164062 44.085938 55.238281 44.039062 55.308594 C 44 55.285156 43.964844 55.265625 43.929688 55.246094 C 43.929688 55.152344 43.933594 55.054688 43.9375 54.867188 Z M 46.226562 73.027344 C 46.347656 73.175781 46.429688 73.28125 46.546875 73.429688 C 46.199219 73.433594 46.199219 73.433594 46.226562 73.027344 Z M 10.570312 106.96875 C 10.613281 106.507812 10.613281 106.507812 11.050781 106.464844 C 11.019531 106.785156 10.8125 106.882812 10.570312 106.96875 Z M 11.777344 68.632812 C 11.675781 68.582031 11.605469 68.546875 11.515625 68.503906 C 11.554688 68.386719 11.585938 68.296875 11.609375 68.222656 C 11.832031 68.175781 11.878906 68.285156 11.777344 68.632812 Z M 50.703125 108.539062 C 50.6875 107.085938 50.433594 106.203125 50.421875 106.164062 L 50.390625 106.0625 L 50.386719 106.0625 L 50.296875 105.289062 C 50.132812 103.648438 49.945312 101.617188 49.75 99.464844 C 49.109375 92.535156 48.632812 87.566406 48.328125 86.886719 C 47.757812 82.890625 47.519531 78.832031 47.425781 74.777344 C 47.828125 74.550781 48.160156 74.214844 48.355469 73.691406 C 48.746094 72.644531 48.554688 71.378906 48.4375 70.300781 C 48.242188 68.484375 48.109375 66.660156 47.890625 64.84375 C 47.398438 60.746094 46.550781 56.714844 45.332031 52.773438 C 44.570312 50.328125 43.824219 47.878906 43.046875 45.441406 C 42.4375 43.542969 41.84375 41.707031 40.847656 39.980469 C 40.832031 39.949219 40.808594 39.9375 40.78125 39.925781 C 40.789062 39.902344 40.789062 39.882812 40.785156 39.859375 C 40.59375 38.941406 40.421875 38.019531 40.253906 37.09375 C 39.863281 34.941406 39.527344 32.78125 39.230469 30.613281 C 39.261719 30.550781 39.292969 30.488281 39.320312 30.429688 C 39.546875 29.9375 39.738281 29.445312 39.890625 28.957031 C 41 30.078125 42.527344 30.394531 43.925781 29.519531 C 45.28125 28.671875 45.863281 26.976562 45.519531 25.449219 C 45.039062 23.34375 42.855469 21.691406 41.246094 20.46875 C 40.285156 19.746094 39.304688 19.082031 38.511719 18.164062 C 38.121094 17.714844 37.816406 17.199219 37.550781 16.671875 C 37.25 16.066406 36.851562 15.347656 36.886719 14.660156 C 36.886719 14.652344 36.882812 14.652344 36.882812 14.644531 C 38.375 12.183594 39.015625 9.222656 38.289062 6.378906 C 37.683594 4 36 2.097656 33.886719 0.925781 C 31.277344 -0.515625 28.367188 -0.28125 26.105469 1.679688 C 26.0625 1.71875 26.054688 1.761719 26.066406 1.804688 C 24.347656 1.480469 22.863281 2.878906 21.894531 4.179688 C 20.804688 5.640625 20.378906 7.503906 20.234375 9.296875 C 20.214844 9.5625 20.203125 9.828125 20.203125 10.09375 C 18.964844 10.027344 17.722656 9.953125 16.480469 9.882812 C 16.527344 9.46875 16.496094 8.953125 16.035156 8.847656 C 15.527344 8.738281 14.964844 8.742188 14.449219 8.683594 C 13.207031 8.546875 11.960938 8.398438 10.71875 8.25 C 10.753906 7.953125 10.761719 7.605469 10.617188 7.355469 C 10.398438 6.972656 10.035156 6.929688 9.628906 6.859375 C 8.863281 6.722656 8.085938 6.636719 7.308594 6.5625 C 7.292969 6.554688 7.277344 6.546875 7.261719 6.546875 L 7.046875 6.515625 C 6.46875 6.433594 5.820312 6.335938 3.796875 6.171875 C 3.664062 6.164062 3.539062 6.207031 3.433594 6.300781 C 3.078125 6.628906 3.042969 7.496094 3.042969 7.582031 C 2.941406 8.511719 3.308594 8.65625 3.867188 8.875 C 4.039062 8.941406 4.234375 9.019531 4.453125 9.128906 C 4.734375 9.28125 4.875 9.492188 5.019531 9.71875 C 5.222656 10.03125 5.429688 10.355469 6.027344 10.480469 L 8.292969 10.765625 L 8.320312 10.765625 C 9.109375 10.972656 10.152344 10.910156 10.75 10.949219 C 11.269531 10.984375 11.789062 11.019531 12.3125 11.054688 C 12.398438 11.761719 12.484375 12.460938 12.574219 13.167969 C 12.527344 13.160156 12.484375 13.160156 12.4375 13.152344 L 12.414062 13.152344 C 11.714844 13.082031 11.007812 13.019531 10.300781 12.976562 C 9.128906 12.929688 8.390625 12.882812 7.261719 12.738281 C 7.230469 11.621094 5.648438 11.574219 4.828125 11.496094 C 3.761719 11.433594 2.691406 11.339844 1.628906 11.375 C 1.164062 11.394531 0.808594 11.679688 0.746094 12.148438 C 0.585938 13.398438 0.515625 14.664062 0.398438 15.917969 C 0.285156 17.070312 0.15625 18.230469 0.0742188 19.386719 C 0.0273438 20.078125 0.132812 20.757812 0.726562 21.171875 C 1.121094 21.449219 1.761719 21.472656 2.253906 21.523438 C 2.769531 21.613281 3.371094 21.710938 3.890625 21.667969 C 3.953125 21.671875 4.015625 21.675781 4.078125 21.683594 C 4.933594 21.757812 6.246094 21.925781 6.5 20.898438 C 6.53125 20.902344 6.5625 20.90625 6.589844 20.910156 C 6.613281 21.011719 6.636719 21.105469 6.65625 21.179688 C 7.402344 24.253906 10.480469 34.5 18.613281 37.289062 C 19.03125 37.425781 19.449219 37.535156 19.863281 37.621094 C 19.792969 38.855469 19.699219 40.089844 19.632812 41.320312 C 15.042969 45.890625 13.183594 52.679688 11.910156 58.855469 C 11.242188 62.089844 10.761719 65.367188 10.289062 68.632812 C 10.1875 69.3125 9.988281 70.023438 10.007812 70.691406 C 10.019531 71.214844 10.164062 71.707031 10.578125 72.132812 C 11.25 72.824219 12.320312 73.148438 13.359375 73.371094 C 13.269531 74.359375 13.199219 75.347656 13.179688 76.335938 C 13.117188 79.453125 13.425781 82.558594 13.726562 85.660156 C 13.507812 85.917969 13.515625 86.410156 13.488281 86.722656 C 13.316406 88.542969 13.371094 90.398438 13.394531 92.222656 C 13.433594 95.601562 13.550781 98.976562 13.691406 102.347656 C 13.710938 102.777344 13.726562 103.203125 13.746094 103.628906 C 13.75 103.742188 13.753906 103.851562 13.761719 103.964844 L 13.761719 103.992188 C 13.742188 103.886719 13.671875 104 13.484375 104.105469 C 13.28125 104.21875 13.082031 104.332031 12.882812 104.445312 C 12.378906 104.722656 10.484375 105.773438 9.714844 106.375 C 7.976562 107.722656 7.148438 108.859375 7.390625 109.578125 C 7.5 109.898438 7.816406 110.101562 8.21875 110.101562 C 8.355469 110.101562 8.84375 110.101562 9.554688 110.101562 C 13.757812 110.167969 17.964844 110.238281 22.164062 110.25 C 22.535156 110.253906 22.765625 110.289062 22.949219 110.128906 L 22.976562 110.128906 L 22.992188 110.097656 C 23.050781 110.03125 23.105469 109.945312 23.15625 109.820312 C 23.203125 109.71875 23.242188 109.609375 23.273438 109.496094 C 23.25 109.535156 23.210938 109.558594 23.160156 109.558594 L 7.574219 109.558594 C 7.496094 109.558594 7.433594 109.496094 7.433594 109.417969 C 7.433594 109.335938 7.496094 109.273438 7.574219 109.273438 L 23.160156 109.273438 C 23.242188 109.273438 23.304688 109.335938 23.304688 109.417969 C 23.550781 108.59375 23.566406 107.628906 23.5 106.746094 C 23.472656 105.390625 23.238281 104.566406 23.226562 104.53125 L 23.199219 104.421875 L 23.125 104.425781 C 23.082031 104.125 23.070312 103.839844 23.128906 103.605469 C 23.25 103.160156 23.371094 102.714844 23.488281 102.269531 C 24.375 98.921875 25.230469 95.566406 25.984375 92.1875 C 26.332031 90.632812 26.671875 89.074219 26.890625 87.496094 C 26.925781 87.238281 27.101562 86.445312 27.011719 85.945312 C 27.378906 82.296875 27.894531 78.648438 28.226562 74.988281 L 28.25 74.988281 C 28.144531 74.703125 28.066406 74.40625 27.992188 74.09375 C 27.515625 72.050781 27.152344 69.96875 26.882812 67.890625 C 26.230469 62.742188 25.695312 57.566406 25.6875 52.371094 C 25.6875 52.324219 25.707031 52.289062 25.730469 52.265625 C 25.8125 52.199219 25.972656 52.230469 25.972656 52.371094 C 25.980469 57.03125 26.410156 61.683594 26.972656 66.308594 C 27.226562 68.421875 27.542969 70.527344 27.964844 72.617188 C 28.125 73.425781 28.222656 74.421875 28.605469 75.164062 C 28.757812 75.457031 28.953125 75.695312 29.171875 75.898438 C 29.824219 76.210938 30.640625 76.269531 31.394531 76.300781 C 31.667969 77.5625 31.949219 78.828125 32.257812 80.082031 C 33.046875 83.34375 33.917969 86.621094 35.203125 89.722656 C 35.304688 91.109375 38.574219 100.675781 40.734375 105.597656 C 40.605469 105.667969 40.378906 105.792969 40.101562 105.953125 C 40.058594 105.980469 40.011719 106.007812 39.96875 106.035156 C 39.671875 106.195312 37.492188 107.394531 36.640625 108.050781 C 34.867188 109.425781 34.023438 110.585938 34.273438 111.316406 C 34.382812 111.640625 34.707031 111.828125 35.113281 111.828125 L 35.707031 111.828125 L 35.707031 111.835938 L 35.875 111.839844 C 35.972656 111.84375 46.019531 112.003906 49.953125 112.003906 L 49.96875 112.003906 C 50.132812 111.980469 50.648438 111.695312 50.699219 109.058594 C 50.703125 108.9375 50.707031 108.820312 50.707031 108.691406 L 50.707031 108.597656 C 50.707031 108.582031 50.703125 108.558594 50.703125 108.539062 "/></g><path style=" stroke:none;fill-rule:nonzero;fill:#100f0d;fill-opacity:1;" d="M 28.050781 16.019531 C 27.816406 16.523438 27.265625 16.769531 26.710938 16.800781 C 26.710938 16.894531 26.714844 16.988281 26.714844 17.085938 C 27.363281 17.050781 28.019531 16.753906 28.296875 16.164062 C 28.375 16 28.128906 15.855469 28.050781 16.019531 "/><path style=" stroke:none;fill-rule:nonzero;fill:#100f0d;fill-opacity:1;" d="M 27.960938 9.703125 C 27.558594 9.578125 27.132812 9.617188 26.765625 9.8125 C 26.6875 9.851562 26.246094 10.097656 26.398438 10.265625 C 26.449219 10.320312 26.515625 10.335938 26.578125 10.335938 C 26.710938 10.332031 26.835938 10.265625 26.964844 10.230469 C 27.117188 10.183594 27.277344 10.164062 27.433594 10.140625 C 27.628906 10.117188 27.824219 10.109375 28.015625 10.167969 C 28.125 10.199219 28.230469 10.246094 28.339844 10.265625 C 28.40625 10.277344 28.53125 10.300781 28.5625 10.207031 C 28.660156 9.953125 28.082031 9.742188 27.960938 9.703125 "/><path style=" stroke:none;fill-rule:nonzero;fill:#100f0d;fill-opacity:1;" d="M 21.339844 18.140625 C 20.785156 18.140625 20.335938 17.6875 20.335938 17.125 C 20.335938 16.566406 20.785156 16.113281 21.339844 16.113281 C 21.894531 16.113281 22.347656 16.566406 22.347656 17.125 C 22.347656 17.6875 21.894531 18.140625 21.339844 18.140625 Z M 21.339844 15.6875 C 20.550781 15.6875 19.910156 16.332031 19.910156 17.125 C 19.910156 17.917969 20.550781 18.566406 21.339844 18.566406 C 22.132812 18.566406 22.773438 17.917969 22.773438 17.125 C 22.773438 16.332031 22.132812 15.6875 21.339844 15.6875 "/><path style=" stroke:none;fill-rule:nonzero;fill:#100f0d;fill-opacity:1;" d="M 21.339844 16.253906 C 20.863281 16.253906 20.476562 16.644531 20.476562 17.125 C 20.476562 17.605469 20.863281 17.996094 21.339844 17.996094 C 21.816406 17.996094 22.207031 17.605469 22.207031 17.125 C 22.207031 16.644531 21.816406 16.253906 21.339844 16.253906 "/><path style=" stroke:none;fill-rule:nonzero;fill:#100f0d;fill-opacity:1;" d="M 7.273438 13.3125 C 7.261719 13.210938 7.167969 13.164062 7.089844 13.179688 C 7.03125 13.191406 6.980469 13.230469 6.988281 13.3125 C 7.007812 13.496094 7.015625 13.683594 7.023438 13.867188 C 7.132812 15.730469 6.878906 17.613281 6.507812 19.441406 C 6.457031 19.695312 6.40625 19.949219 6.351562 20.199219 C 6.335938 20.273438 6.371094 20.328125 6.425781 20.355469 C 6.5 20.398438 6.601562 20.382812 6.625 20.277344 C 7.117188 18.007812 7.503906 15.636719 7.273438 13.3125 "/><path style=" stroke:none;fill-rule:nonzero;fill:#100f0d;fill-opacity:1;" d="M 8.695312 20.492188 C 8.765625 20.492188 8.828125 20.4375 8.835938 20.363281 C 8.839844 20.285156 8.785156 20.214844 8.707031 20.207031 L 7.011719 20.050781 C 6.933594 20.042969 6.867188 20.101562 6.859375 20.179688 C 6.851562 20.257812 6.910156 20.324219 6.988281 20.332031 L 8.679688 20.492188 C 8.683594 20.492188 8.691406 20.492188 8.695312 20.492188 "/><path style=" stroke:none;fill-rule:nonzero;fill:#100f0d;fill-opacity:1;" d="M 9.042969 19.667969 L 7.066406 19.480469 C 6.992188 19.472656 6.917969 19.53125 6.914062 19.609375 C 6.90625 19.6875 6.960938 19.757812 7.039062 19.765625 L 9.015625 19.949219 C 9.019531 19.953125 9.023438 19.953125 9.027344 19.953125 C 9.101562 19.953125 9.164062 19.894531 9.167969 19.820312 C 9.175781 19.742188 9.121094 19.675781 9.042969 19.667969 "/><path style=" stroke:none;fill-rule:nonzero;fill:#100f0d;fill-opacity:1;" d="M 7.53125 17.519531 L 9.507812 17.707031 C 9.511719 17.707031 9.515625 17.707031 9.519531 17.707031 C 9.59375 17.707031 9.65625 17.648438 9.664062 17.574219 C 9.667969 17.496094 9.613281 17.425781 9.535156 17.421875 L 7.558594 17.234375 C 7.480469 17.230469 7.410156 17.285156 7.40625 17.363281 C 7.398438 17.441406 7.453125 17.511719 7.53125 17.519531 "/><path style=" stroke:none;fill-rule:nonzero;fill:#100f0d;fill-opacity:1;" d="M 7.636719 16.382812 C 7.558594 16.375 7.492188 16.433594 7.484375 16.511719 C 7.476562 16.589844 7.535156 16.660156 7.613281 16.667969 L 9.585938 16.851562 C 9.589844 16.851562 9.59375 16.851562 9.597656 16.851562 C 9.671875 16.851562 9.734375 16.796875 9.742188 16.722656 C 9.746094 16.644531 9.691406 16.574219 9.613281 16.570312 L 7.636719 16.382812 "/><path style=" stroke:none;fill-rule:nonzero;fill:#100f0d;fill-opacity:1;" d="M 7.539062 14.371094 L 9.515625 14.554688 C 9.519531 14.554688 9.523438 14.554688 9.527344 14.554688 C 9.601562 14.554688 9.664062 14.5 9.667969 14.425781 C 9.675781 14.347656 9.617188 14.277344 9.539062 14.269531 L 7.566406 14.085938 C 7.488281 14.078125 7.417969 14.136719 7.410156 14.214844 C 7.40625 14.292969 7.460938 14.363281 7.539062 14.371094 "/><path style=" stroke:none;fill-rule:nonzero;fill:#100f0d;fill-opacity:1;" d="M 7.589844 13.800781 L 9.285156 13.960938 C 9.289062 13.960938 9.292969 13.960938 9.300781 13.960938 C 9.371094 13.960938 9.433594 13.90625 9.441406 13.832031 C 9.445312 13.753906 9.390625 13.683594 9.3125 13.675781 L 7.617188 13.515625 C 7.542969 13.507812 7.472656 13.566406 7.464844 13.644531 C 7.457031 13.722656 7.515625 13.792969 7.589844 13.800781 "/><path style=" stroke:none;fill-rule:nonzero;fill:#100f0d;fill-opacity:1;" d="M 11.023438 16.703125 C 10.945312 16.695312 10.875 16.75 10.871094 16.832031 C 10.863281 16.90625 10.917969 16.976562 10.996094 16.984375 L 12.691406 17.144531 C 12.695312 17.144531 12.699219 17.144531 12.703125 17.144531 C 12.777344 17.144531 12.835938 17.089844 12.84375 17.015625 C 12.851562 16.9375 12.792969 16.867188 12.714844 16.859375 L 11.023438 16.703125 "/><path style=" stroke:none;fill-rule:nonzero;fill:#100f0d;fill-opacity:1;" d="M 10.796875 14.53125 C 10.789062 14.609375 10.847656 14.679688 10.925781 14.6875 L 12.617188 14.84375 C 12.621094 14.84375 12.628906 14.84375 12.632812 14.84375 C 12.703125 14.84375 12.765625 14.789062 12.773438 14.714844 C 12.78125 14.636719 12.722656 14.566406 12.644531 14.5625 L 10.953125 14.402344 C 10.875 14.398438 10.804688 14.453125 10.796875 14.53125 "/><path style=" stroke:none;fill-rule:nonzero;fill:#100f0d;fill-opacity:1;" d="M 10.695312 14.09375 L 12.390625 14.25 C 12.394531 14.25 12.398438 14.25 12.402344 14.25 C 12.472656 14.25 12.535156 14.195312 12.542969 14.121094 C 12.550781 14.042969 12.492188 13.972656 12.414062 13.964844 L 10.722656 13.808594 C 10.644531 13.800781 10.574219 13.859375 10.566406 13.9375 C 10.558594 14.015625 10.617188 14.085938 10.695312 14.09375 "/><path style=" stroke:none;fill-rule:nonzero;fill:#100f0d;fill-opacity:1;" d="M 15.734375 21.152344 L 16.296875 21.207031 C 16.304688 21.207031 16.308594 21.207031 16.3125 21.207031 C 16.386719 21.207031 16.445312 21.152344 16.453125 21.078125 C 16.460938 21 16.402344 20.929688 16.324219 20.921875 L 15.761719 20.871094 C 15.683594 20.863281 15.613281 20.917969 15.605469 21 C 15.597656 21.078125 15.65625 21.148438 15.734375 21.152344 "/><path style=" stroke:none;fill-rule:nonzero;fill:#100f0d;fill-opacity:1;" d="M 15.785156 20.585938 L 17.199219 20.71875 C 17.203125 20.71875 17.207031 20.71875 17.210938 20.71875 C 17.285156 20.71875 17.34375 20.664062 17.351562 20.589844 C 17.359375 20.511719 17.300781 20.441406 17.222656 20.433594 L 15.8125 20.300781 C 15.730469 20.292969 15.664062 20.351562 15.660156 20.429688 C 15.652344 20.507812 15.707031 20.578125 15.785156 20.585938 "/><path style=" stroke:none;fill-rule:nonzero;fill:#100f0d;fill-opacity:1;" d="M 16.28125 18.339844 L 17.972656 18.5 C 17.976562 18.5 17.980469 18.5 17.984375 18.5 C 18.058594 18.5 18.121094 18.445312 18.125 18.371094 C 18.132812 18.292969 18.078125 18.222656 18 18.214844 L 16.304688 18.054688 C 16.230469 18.050781 16.160156 18.105469 16.152344 18.183594 C 16.144531 18.261719 16.203125 18.332031 16.28125 18.339844 "/><path style=" stroke:none;fill-rule:nonzero;fill:#100f0d;fill-opacity:1;" d="M 16.359375 17.488281 L 18.050781 17.644531 C 18.054688 17.648438 18.058594 17.648438 18.0625 17.648438 C 18.136719 17.648438 18.199219 17.589844 18.203125 17.519531 C 18.210938 17.4375 18.15625 17.371094 18.078125 17.363281 L 16.382812 17.203125 C 16.304688 17.195312 16.238281 17.253906 16.230469 17.332031 C 16.222656 17.410156 16.28125 17.480469 16.359375 17.488281 "/><path style=" stroke:none;fill-rule:nonzero;fill:#100f0d;fill-opacity:1;" d="M 17.980469 15.347656 C 17.984375 15.347656 17.988281 15.347656 17.992188 15.347656 C 18.066406 15.347656 18.125 15.292969 18.132812 15.21875 C 18.140625 15.140625 18.082031 15.070312 18.003906 15.0625 L 16.3125 14.90625 C 16.230469 14.898438 16.164062 14.957031 16.15625 15.035156 C 16.152344 15.113281 16.207031 15.179688 16.285156 15.1875 L 17.980469 15.347656 "/><path style=" stroke:none;fill-rule:nonzero;fill:#100f0d;fill-opacity:1;" d="M 16.339844 14.621094 L 17.46875 14.726562 C 17.472656 14.726562 17.476562 14.726562 17.480469 14.726562 C 17.554688 14.726562 17.613281 14.671875 17.621094 14.597656 C 17.628906 14.519531 17.570312 14.449219 17.492188 14.441406 L 16.363281 14.335938 C 16.289062 14.332031 16.21875 14.386719 16.210938 14.464844 C 16.203125 14.542969 16.261719 14.613281 16.339844 14.621094 "/><path style=" stroke:none;fill-rule:nonzero;fill:#100f0d;fill-opacity:1;" d="M 15.800781 10.125 C 15.871094 10.125 15.933594 10.070312 15.941406 9.996094 C 15.949219 9.917969 15.890625 9.847656 15.8125 9.839844 L 7.707031 9.101562 C 7.636719 9.09375 7.558594 9.152344 7.550781 9.230469 C 7.546875 9.308594 7.601562 9.378906 7.679688 9.382812 L 15.789062 10.125 C 15.792969 10.125 15.796875 10.125 15.800781 10.125 "/><path style=" stroke:none;fill-rule:nonzero;fill:#100f0d;fill-opacity:1;" d="M 24.1875 11.195312 C 24.261719 11.195312 24.320312 11.257812 24.328125 11.332031 L 24.386719 12.183594 C 24.390625 12.261719 24.335938 12.328125 24.257812 12.335938 L 24.246094 12.476562 L 24.246094 12.335938 C 24.171875 12.335938 24.109375 12.277344 24.105469 12.203125 L 24.046875 11.351562 C 24.039062 11.269531 24.097656 11.203125 24.1875 11.195312 Z M 24.246094 12.621094 L 24.277344 12.621094 C 24.390625 12.613281 24.496094 12.558594 24.570312 12.472656 C 24.640625 12.386719 24.679688 12.277344 24.671875 12.164062 L 24.609375 11.308594 C 24.597656 11.085938 24.410156 10.910156 24.1875 10.910156 L 24.15625 10.914062 C 23.921875 10.929688 23.746094 11.132812 23.761719 11.371094 L 23.824219 12.222656 C 23.835938 12.445312 24.023438 12.621094 24.246094 12.621094 "/><path style=" stroke:none;fill-rule:nonzero;fill:#100f0d;fill-opacity:1;" d="M 5.089844 7.53125 L 3.628906 7.359375 C 3.550781 7.351562 3.484375 7.40625 3.472656 7.484375 C 3.464844 7.5625 3.519531 7.632812 3.597656 7.640625 L 5.058594 7.816406 C 5.0625 7.816406 5.070312 7.816406 5.074219 7.816406 C 5.144531 7.816406 5.207031 7.761719 5.214844 7.691406 C 5.226562 7.613281 5.167969 7.539062 5.089844 7.53125 "/></g></svg>