<svg xmlns="http://www.w3.org/2000/svg" xmlns:xlink="http://www.w3.org/1999/xlink" width="150" zoomAndPan="magnify" viewBox="0 0 113.04 120.96" height="150" preserveAspectRatio="xMidYMid meet" version="1.2"><defs><clipPath id="c1d3dbf79e"><path d="M 0 0.488281 L 72.136719 0.488281 L 72.136719 112 L 0 112 Z M 0 0.488281 "/></clipPath><clipPath id="73a5a9ac66"><path d="M 2 0.488281 L 69 0.488281 L 69 112 L 2 112 Z M 2 0.488281 "/></clipPath></defs><g id="4fc06ff7f9"><path style=" stroke:none;fill-rule:nonzero;fill:#ffffff;fill-opacity:1;" d="M 24.707031 58.429688 L 24.667969 58.355469 C 24.621094 58.273438 24.585938 58.183594 24.554688 58.089844 C 24.570312 58.136719 24.585938 58.183594 24.605469 58.230469 L 24.6875 58.429688 L 24.707031 58.429688 "/><path style=" stroke:none;fill-rule:nonzero;fill:#ffffff;fill-opacity:1;" d="M 24.890625 58.636719 L 24.980469 58.691406 C 24.988281 58.699219 24.996094 58.699219 25.003906 58.707031 C 24.964844 58.683594 24.925781 58.664062 24.890625 58.636719 "/><path style=" stroke:none;fill-rule:nonzero;fill:#ffffff;fill-opacity:1;" d="M 26.59375 58.179688 C 26.570312 58.242188 26.542969 58.300781 26.511719 58.355469 L 26.472656 58.429688 L 26.5 58.429688 L 26.578125 58.230469 C 26.585938 58.214844 26.585938 58.199219 26.59375 58.179688 "/><path style=" stroke:none;fill-rule:nonzero;fill:#ffffff;fill-opacity:1;" d="M 26.175781 58.707031 C 26.183594 58.699219 26.191406 58.699219 26.199219 58.691406 L 26.289062 58.636719 C 26.253906 58.664062 26.214844 58.683594 26.175781 58.707031 "/><path style=" stroke:none;fill-rule:nonzero;fill:#ffffff;fill-opacity:1;" d="M 25.816406 58.839844 C 25.890625 58.828125 25.960938 58.804688 26.027344 58.78125 C 25.960938 58.808594 25.890625 58.828125 25.816406 58.839844 "/><path style=" stroke:none;fill-rule:nonzero;fill:#ffffff;fill-opacity:1;" d="M 25.363281 58.839844 C 25.289062 58.828125 25.21875 58.808594 25.152344 58.78125 C 25.21875 58.804688 25.289062 58.828125 25.363281 58.839844 "/><g clip-rule="nonzero" clip-path="url(#c1d3dbf79e)"><path style=" stroke:none;fill-rule:nonzero;fill:#ffffff;fill-opacity:1;" d="M 56.769531 36.410156 C 56.539062 35.832031 56.296875 35.234375 56.078125 34.636719 C 55.683594 33.542969 55.273438 32.339844 54.832031 30.949219 L 55.070312 30.804688 C 57.582031 33.347656 59.351562 36.675781 60.335938 40.695312 C 60.949219 43.195312 61.171875 45.730469 61.378906 48.542969 C 61.433594 49.292969 61.484375 50.046875 61.535156 50.796875 L 61.253906 50.847656 C 60.960938 49.894531 60.664062 48.949219 60.363281 47.996094 L 60.097656 47.148438 L 60.089844 47.121094 C 59.449219 44.714844 58.667969 41.875 57.757812 39.050781 C 57.46875 38.15625 57.113281 37.269531 56.769531 36.410156 Z M 2.957031 55.417969 C 2.957031 55.414062 2.957031 55.410156 2.957031 55.410156 C 2.957031 55.410156 2.957031 55.40625 2.957031 55.40625 L 3.101562 55.402344 Z M 34.730469 2.847656 C 34.730469 2.847656 34.726562 2.847656 34.726562 2.851562 L 34.703125 2.804688 L 34.761719 2.8125 Z M 70.660156 56.808594 L 66.992188 56.84375 C 67.066406 56.269531 67.066406 55.664062 66.914062 54.976562 C 67.128906 54.765625 67.792969 54.03125 67.605469 53.277344 C 67.578125 53.171875 67.496094 53.074219 67.378906 52.980469 C 67.308594 52.921875 67.21875 52.867188 67.125 52.816406 C 66.644531 52.550781 65.914062 52.34375 65.414062 52.222656 C 64.890625 52.09375 64.246094 51.972656 63.617188 51.894531 L 63.632812 51.753906 C 64.230469 51.824219 64.875 51.941406 65.449219 52.082031 C 65.976562 52.210938 66.710938 52.421875 67.195312 52.6875 C 67.226562 52.707031 67.257812 52.726562 67.289062 52.742188 C 67.835938 50.378906 68.707031 46.285156 68.753906 43.882812 C 68.851562 39.273438 68.746094 33.988281 66.289062 29.640625 C 65.203125 27.722656 63.632812 25.78125 61.746094 24.019531 L 61.695312 23.980469 L 61.6875 23.921875 L 61.636719 23.917969 L 61.597656 23.882812 C 59.519531 21.972656 57.253906 20.449219 55.042969 19.484375 C 53.859375 18.96875 51.882812 18.421875 49.871094 18.421875 C 49.207031 18.421875 48.589844 18.484375 48.042969 18.605469 L 47.871094 18.644531 C 47.507812 18.726562 47.136719 18.8125 46.789062 18.8125 C 46.257812 18.8125 45.882812 18.609375 45.636719 18.1875 C 45.523438 18 44.988281 17.035156 45.421875 16.691406 L 45.449219 16.632812 L 45.511719 16.613281 C 45.851562 16.179688 46.164062 15.742188 46.445312 15.304688 C 46.886719 14.730469 47.46875 13.898438 47.726562 13.199219 L 47.773438 13.066406 L 47.910156 13.113281 C 48.066406 13.167969 48.214844 13.210938 48.351562 13.238281 C 48.441406 13.257812 48.539062 13.265625 48.636719 13.265625 C 49.414062 13.265625 50.203125 12.714844 50.398438 12.035156 C 50.453125 11.855469 50.390625 11.730469 50.292969 11.542969 L 50.242188 11.441406 L 50.160156 11.265625 L 50.351562 11.238281 C 51.753906 11.03125 53.226562 10.257812 53.351562 8.992188 L 53.355469 8.949219 L 53.386719 8.914062 C 53.578125 8.691406 53.6875 8.4375 53.71875 8.136719 C 53.792969 7.414062 53.214844 6.621094 52.609375 6.160156 C 51.910156 5.621094 51.078125 5.421875 50.199219 5.207031 C 49.761719 5.101562 49.308594 4.992188 48.878906 4.839844 C 48.421875 4.679688 47.988281 4.429688 47.605469 4.195312 C 47.460938 4.078125 47.320312 3.960938 47.175781 3.84375 C 46.15625 3.003906 45.191406 2.214844 43.875 1.730469 C 42.175781 1.105469 40.863281 0.824219 39.609375 0.824219 C 39.371094 0.824219 39.128906 0.835938 38.894531 0.859375 C 38.890625 0.859375 38.890625 0.859375 38.886719 0.859375 C 38.886719 0.804688 38.882812 0.757812 38.882812 0.714844 C 38.820312 0.71875 38.757812 0.726562 38.695312 0.734375 C 38.746094 0.773438 38.796875 0.8125 38.859375 0.859375 C 38.8125 0.867188 38.761719 0.871094 38.714844 0.875 L 38.726562 0.828125 L 38.691406 0.871094 L 38.714844 0.878906 C 38.703125 0.878906 38.691406 0.882812 38.683594 0.882812 L 38.671875 0.894531 L 38.65625 0.886719 C 38.117188 0.953125 37.613281 1.070312 37.105469 1.246094 C 36.054688 1.535156 35.429688 2.0625 34.761719 2.8125 L 34.773438 2.691406 L 34.671875 2.746094 L 34.652344 2.714844 C 34.632812 2.742188 34.609375 2.765625 34.589844 2.789062 L 34.585938 2.792969 C 34.542969 2.839844 34.5 2.890625 34.453125 2.945312 C 34.464844 2.957031 34.476562 2.96875 34.488281 2.984375 L 34.382812 3.058594 L 34.4375 3.089844 C 34.347656 3.078125 34.257812 3.074219 34.171875 3.074219 C 31.996094 3.074219 31.660156 6.152344 31.390625 8.625 C 31.300781 9.453125 31.222656 10.167969 31.082031 10.691406 C 30.972656 11.007812 30.820312 11.359375 30.65625 11.734375 C 30.070312 13.074219 29.34375 14.738281 30.167969 15.945312 C 30.207031 16.003906 30.253906 16.0625 30.304688 16.121094 L 30.316406 16.121094 L 30.316406 16.136719 C 30.328125 16.152344 30.339844 16.164062 30.351562 16.179688 L 30.3125 16.191406 L 30.308594 16.265625 C 30.285156 16.265625 30.261719 16.261719 30.242188 16.261719 C 30.242188 16.265625 30.242188 16.265625 30.242188 16.269531 C 30.261719 16.292969 30.28125 16.3125 30.304688 16.335938 L 30.300781 16.339844 L 30.304688 16.339844 C 30.332031 16.367188 30.355469 16.394531 30.378906 16.417969 C 30.390625 16.371094 30.398438 16.320312 30.40625 16.273438 C 30.398438 16.273438 30.390625 16.269531 30.382812 16.269531 L 30.347656 16.175781 C 30.386719 16.21875 30.425781 16.257812 30.484375 16.320312 C 31.136719 17.003906 32.046875 17.425781 32.859375 17.425781 C 33.410156 17.425781 33.890625 17.234375 34.25 16.867188 L 34.378906 16.734375 L 34.476562 16.894531 C 34.902344 17.609375 35.433594 18.21875 36.011719 18.65625 C 36.804688 19.25 37.6875 19.613281 38.570312 19.707031 C 38.59375 19.710938 38.617188 19.710938 38.640625 19.714844 C 38.667969 19.714844 38.695312 19.71875 38.722656 19.71875 L 38.871094 19.738281 L 38.847656 19.886719 C 38.816406 20.078125 38.738281 20.222656 38.613281 20.328125 C 38.171875 20.703125 37.496094 20.75 36.957031 20.75 C 36.777344 20.75 36.601562 20.746094 36.433594 20.738281 L 36.398438 20.738281 C 36.316406 20.734375 36.238281 20.734375 36.152344 20.734375 L 35.65625 20.71875 C 35.363281 20.707031 35.066406 20.699219 34.765625 20.699219 C 34.160156 20.699219 33.675781 20.742188 33.238281 20.828125 C 31.542969 21.183594 29.734375 22.128906 27.867188 23.640625 C 27.226562 24.15625 26.640625 24.8125 26.074219 25.445312 L 26.03125 25.492188 C 25.695312 25.867188 25.347656 26.257812 24.992188 26.605469 L 24.957031 26.640625 L 24.949219 26.644531 C 23.957031 27.621094 23.082031 28.472656 22.289062 29.238281 L 22.246094 29.285156 C 18.722656 32.6875 16.785156 34.566406 13.0625 39.722656 C 11.585938 41.761719 9.773438 44.070312 8.453125 45.714844 C 8.488281 45.722656 8.523438 45.738281 8.558594 45.753906 C 9.460938 46.148438 10.558594 48.234375 11.011719 49.28125 C 11.078125 49.429688 11.148438 49.605469 11.21875 49.789062 L 11.085938 49.839844 C 11.015625 49.65625 10.945312 49.488281 10.878906 49.339844 C 10.332031 48.074219 9.292969 46.234375 8.5 45.886719 C 8.429688 45.855469 8.355469 45.832031 8.289062 45.824219 C 8.253906 45.824219 8.214844 45.828125 8.179688 45.828125 C 7.195312 45.863281 6.675781 47.382812 6.546875 47.816406 C 5.824219 47.828125 4.234375 48.492188 2.753906 49.15625 C 2.566406 49.238281 2.429688 49.300781 2.355469 49.328125 C 1.503906 49.675781 0.832031 50.199219 0.414062 50.847656 C 0.117188 51.308594 -0.00390625 51.78125 0.0625 52.214844 C 0.0976562 52.441406 0.183594 52.667969 0.324219 52.90625 C 0.421875 53.074219 0.554688 53.300781 0.710938 53.472656 C 0.71875 53.476562 0.726562 53.480469 0.734375 53.488281 C 0.792969 53.785156 0.992188 54.148438 1.554688 54.40625 C 1.554688 54.417969 1.546875 54.429688 1.546875 54.445312 C 1.53125 54.816406 1.773438 55.164062 2.140625 55.289062 C 2.246094 55.328125 2.355469 55.34375 2.460938 55.34375 C 2.535156 55.34375 2.605469 55.332031 2.675781 55.316406 C 2.667969 55.363281 2.667969 55.40625 2.671875 55.445312 C 2.710938 55.742188 2.824219 55.929688 3.007812 56.003906 C 3.0625 56.023438 3.121094 56.035156 3.179688 56.035156 C 3.507812 56.035156 3.910156 55.746094 4.277344 55.453125 L 5.707031 57.9375 L 5.949219 57.78125 L 4.933594 56.019531 L 5.058594 55.949219 L 6.074219 57.707031 L 6.140625 57.824219 L 5.902344 57.984375 L 3.308594 59.652344 C 3.035156 59.824219 2.890625 60.035156 2.910156 60.226562 C 2.925781 60.417969 3.105469 60.597656 3.40625 60.71875 L 11.792969 64.171875 C 11.945312 64.238281 12.082031 64.269531 12.195312 64.269531 C 12.308594 64.269531 12.390625 64.238281 12.433594 64.171875 C 12.511719 64.058594 12.492188 63.84375 12.386719 63.578125 L 11.460938 61.320312 L 11.707031 61.179688 C 12.503906 62.207031 13.714844 62.769531 15.117188 62.769531 L 15.164062 62.769531 C 16.308594 62.761719 17.195312 62.003906 18.054688 61.273438 C 18.429688 60.957031 18.816406 60.628906 19.214844 60.371094 C 19.550781 60.15625 19.882812 60.050781 20.234375 60.050781 C 20.59375 60.050781 20.925781 60.152344 21.277344 60.265625 C 21.480469 60.328125 21.691406 60.390625 21.910156 60.441406 C 22.042969 60.46875 22.167969 60.480469 22.292969 60.480469 C 22.726562 60.480469 23.117188 60.304688 23.453125 59.964844 C 23.757812 59.648438 23.933594 59.179688 23.972656 58.5625 L 23.984375 58.429688 L 23.976562 58.429688 L 23.964844 58.296875 C 23.855469 57.179688 23.183594 56.488281 22.207031 56.488281 C 22.050781 56.488281 21.886719 56.503906 21.71875 56.542969 C 21.535156 56.578125 21.359375 56.652344 21.175781 56.730469 C 21.0625 56.78125 20.949219 56.828125 20.832031 56.867188 C 20.683594 56.917969 20.527344 56.941406 20.371094 56.941406 C 19.859375 56.941406 19.386719 56.679688 19.03125 56.449219 C 18.65625 56.207031 18.324219 55.914062 18 55.632812 C 17.664062 55.339844 17.316406 55.035156 16.933594 54.796875 C 16.296875 54.402344 15.578125 54.195312 14.847656 54.195312 C 12.820312 54.195312 11.101562 55.730469 10.847656 57.769531 C 10.792969 58.214844 10.796875 58.65625 10.855469 59.085938 L 10.582031 59.160156 L 9.703125 57.011719 C 9.53125 56.59375 9.183594 56.34375 8.769531 56.34375 C 8.578125 56.34375 8.378906 56.402344 8.199219 56.511719 L 8.167969 56.527344 L 8.074219 56.585938 L 8.082031 56.597656 L 7.824219 56.722656 L 7.515625 56.1875 C 7.445312 56.207031 7.378906 56.21875 7.3125 56.21875 L 7.308594 56.074219 C 7.402344 56.074219 7.492188 56.050781 7.582031 56.015625 L 7.882812 56.539062 L 8.085938 56.40625 C 8.097656 56.398438 8.113281 56.394531 8.125 56.386719 L 7.824219 55.863281 C 8.140625 55.617188 8.359375 55.226562 8.398438 55.15625 C 8.980469 54.082031 9.289062 53.285156 9.480469 52.328125 C 9.519531 52.285156 9.558594 52.25 9.597656 52.203125 C 9.894531 52.246094 10.878906 52.335938 11.367188 51.726562 C 11.53125 51.519531 11.472656 51.0625 11.332031 50.570312 C 11.332031 50.558594 11.328125 50.550781 11.324219 50.539062 L 11.417969 50.519531 L 11.308594 50.484375 C 11.300781 50.464844 11.292969 50.441406 11.289062 50.421875 C 15.402344 46.742188 28.914062 34.695312 33.375 30.996094 L 33.417969 30.960938 L 33.613281 30.960938 L 33.609375 31.105469 C 33.578125 34.214844 33.507812 37.246094 33.425781 40.605469 L 33.4375 40.644531 L 33.429688 40.683594 C 33.25 41.492188 33.121094 42.101562 33.042969 42.496094 C 32.417969 45.472656 31.042969 48.800781 29.585938 52.328125 C 28.714844 54.425781 27.933594 56.324219 27.1875 58.335938 L 27.085938 58.621094 C 26.648438 59.8125 26.246094 60.996094 25.890625 62.140625 L 25.609375 62.097656 L 25.613281 63.074219 L 25.605469 63.09375 C 24.914062 65.476562 24.433594 67.703125 24.136719 69.90625 L 24.121094 70.03125 L 23.996094 70.03125 C 21.363281 70.023438 18.734375 70.019531 16.105469 70.015625 C 12.539062 70.007812 8.976562 70 5.421875 69.992188 L 5.417969 69.996094 L 5.417969 71.429688 L 7.625 71.433594 L 7.625 75.648438 L 23.789062 75.648438 L 23.792969 75.789062 C 23.800781 76.386719 23.832031 77.015625 23.875 77.65625 L 23.875 77.660156 C 25.367188 78.390625 27.1875 78.976562 29.292969 79.390625 L 29.414062 79.417969 L 29.40625 79.542969 C 29.101562 83.613281 30.019531 87.765625 30.90625 91.785156 C 31.855469 96.082031 33.089844 100.574219 34.578125 105.144531 L 34.582031 105.167969 L 34.582031 105.421875 L 34.460938 105.441406 C 32.609375 105.746094 30.808594 106.90625 29.652344 108.542969 C 29.242188 109.125 28.957031 110.199219 28.816406 110.808594 L 28.417969 110.808594 C 28.339844 110.808594 28.273438 110.875 28.273438 110.953125 C 28.273438 111.03125 28.339844 111.097656 28.417969 111.097656 L 28.980469 111.097656 L 28.722656 111.242188 C 28.707031 111.328125 28.691406 111.410156 28.675781 111.496094 L 28.664062 111.554688 L 28.695312 111.566406 C 28.765625 111.566406 28.992188 111.570312 29.34375 111.578125 C 30.3125 111.597656 32.226562 111.632812 34.441406 111.671875 L 34.582031 111.675781 L 34.582031 111.671875 L 34.730469 111.675781 C 37.121094 111.714844 42.953125 111.816406 45.5 111.816406 L 45.503906 111.707031 C 45.503906 111.648438 45.507812 111.484375 45.515625 111.238281 L 45.078125 111.097656 L 45.625 111.097656 C 45.636719 111.097656 45.652344 111.09375 45.660156 111.089844 C 45.722656 111.074219 45.769531 111.019531 45.769531 110.953125 C 45.769531 110.886719 45.726562 110.835938 45.667969 110.816406 C 45.652344 110.8125 45.640625 110.808594 45.625 110.808594 L 45.523438 110.808594 C 45.535156 110.261719 45.546875 109.398438 45.546875 108.375 C 45.546875 106.511719 44.1875 104.683594 44.035156 104.480469 L 43.96875 104.394531 L 44.035156 104.308594 C 44.035156 96.613281 43.976562 88.789062 43.921875 81.222656 L 43.921875 80.101562 L 43.445312 79.878906 L 43.96875 79.828125 C 46.03125 79.628906 48.066406 79.339844 50.019531 78.964844 L 50.222656 78.925781 L 50.1875 79.128906 C 49.914062 80.722656 50.148438 82.410156 50.382812 83.867188 C 50.777344 86.308594 51.4375 88.730469 52.089844 90.984375 C 53.011719 94.15625 54.09375 97.335938 55.140625 100.410156 C 55.675781 101.992188 56.230469 103.625 56.757812 105.238281 L 56.8125 105.398438 L 56.644531 105.421875 C 54.757812 105.699219 52.921875 106.867188 51.738281 108.542969 C 51.328125 109.125 51.039062 110.199219 50.898438 110.808594 L 50.5 110.808594 C 50.421875 110.808594 50.359375 110.875 50.359375 110.953125 C 50.359375 111.03125 50.421875 111.097656 50.5 111.097656 L 51.066406 111.097656 L 50.789062 111.238281 C 50.769531 111.328125 50.753906 111.410156 50.742188 111.492188 L 50.730469 111.554688 L 50.761719 111.566406 C 51.347656 111.578125 63.691406 111.8125 67.566406 111.8125 L 67.566406 111.707031 C 67.570312 111.648438 67.574219 111.484375 67.582031 111.238281 L 67.339844 111.097656 L 67.707031 111.097656 C 67.722656 111.097656 67.734375 111.089844 67.746094 111.089844 C 67.808594 111.074219 67.851562 111.019531 67.851562 110.953125 C 67.851562 110.886719 67.808594 110.835938 67.75 110.816406 C 67.738281 110.8125 67.722656 110.808594 67.707031 110.808594 L 67.609375 110.808594 C 67.617188 110.261719 67.628906 109.398438 67.628906 108.375 C 67.628906 106.472656 66.179688 104.558594 66.117188 104.480469 L 66.054688 104.394531 L 66.121094 104.308594 C 66.113281 99.832031 65.769531 95.0625 65.011719 88.847656 L 64.824219 87.320312 C 64.316406 83.226562 63.792969 78.988281 63.652344 74.785156 L 63.648438 74.6875 L 63.738281 74.652344 C 64.296875 74.410156 64.652344 74.050781 64.851562 73.519531 C 65.203125 72.589844 65.074219 71.460938 64.960938 70.46875 L 64.949219 70.378906 C 64.9375 70.289062 64.929688 70.199219 64.921875 70.113281 C 64.90625 69.988281 64.894531 69.863281 64.882812 69.734375 L 64.859375 69.535156 L 64.851562 69.402344 C 64.667969 67.0625 64.441406 64.953125 64.148438 62.953125 L 64.148438 62.90625 C 64.195312 62.917969 64.242188 62.925781 64.289062 62.933594 C 64.316406 62.933594 64.339844 62.9375 64.367188 62.9375 C 64.539062 62.9375 64.710938 62.886719 64.863281 62.785156 C 65.019531 62.679688 65.136719 62.53125 65.203125 62.375 C 65.238281 62.40625 65.269531 62.433594 65.308594 62.457031 C 65.566406 62.605469 65.785156 62.628906 65.953125 62.527344 C 66.332031 62.296875 66.300781 61.515625 66.273438 60.890625 C 66.265625 60.695312 66.257812 60.527344 66.265625 60.421875 C 66.285156 60.179688 66.320312 59.945312 66.359375 59.71875 L 70.703125 59.679688 C 71.496094 59.664062 72.125 59.011719 72.113281 58.21875 C 72.101562 57.441406 71.460938 56.808594 70.660156 56.808594 "/></g><g clip-rule="nonzero" clip-path="url(#73a5a9ac66)"><path style=" stroke:none;fill-rule:nonzero;fill:#100f0d;fill-opacity:1;" d="M 65.214844 104.207031 C 64.40625 104.207031 63.257812 104.304688 62.40625 104.765625 C 62.386719 104.773438 60.007812 105.550781 58.824219 105.59375 C 58.761719 105.59375 58.699219 105.59375 58.636719 105.59375 C 58.226562 105.59375 57.859375 105.546875 57.558594 105.492188 C 57.257812 105.4375 57.027344 105.367188 56.894531 105.324219 C 56.902344 105.300781 56.90625 105.269531 56.894531 105.238281 C 55.398438 100.667969 53.757812 96.144531 52.386719 91.535156 C 51.695312 89.210938 51.058594 86.867188 50.617188 84.480469 C 50.292969 82.730469 49.992188 80.820312 50.328125 79.046875 C 51.722656 78.773438 53.046875 78.457031 54.25 78.105469 L 54.363281 78.074219 L 54.355469 77.960938 C 54.339844 77.386719 54.316406 76.796875 54.296875 76.199219 C 56.210938 76.089844 58.121094 75.878906 60.011719 75.566406 C 60.125 75.550781 60.238281 75.527344 60.351562 75.507812 C 60.726562 75.441406 61.101562 75.378906 61.472656 75.308594 C 61.523438 75.296875 61.578125 75.289062 61.632812 75.277344 C 62.253906 75.160156 62.914062 75.085938 63.492188 74.890625 C 63.65625 79.488281 64.257812 84.042969 64.820312 88.605469 C 65.460938 93.804688 65.949219 99.015625 65.957031 104.257812 C 65.839844 104.230469 65.625 104.207031 65.214844 104.207031 Z M 37.757812 79.996094 C 36.707031 79.996094 35.691406 79.96875 34.710938 79.910156 L 34.710938 71.628906 C 35.402344 71.628906 36.089844 71.632812 36.777344 71.632812 C 36.859375 71.632812 36.921875 71.566406 36.921875 71.488281 L 36.921875 70.050781 C 36.921875 69.976562 36.859375 69.910156 36.777344 69.910156 C 33.101562 69.902344 29.421875 69.894531 25.746094 69.890625 L 25.738281 63.09375 C 26.191406 61.546875 26.699219 60.039062 27.238281 58.570312 L 53.28125 58.570312 C 53.644531 65.410156 53.875 72.125 54.066406 77.859375 C 49.484375 79.179688 43.246094 79.996094 37.757812 79.996094 Z M 43.128906 104.207031 C 42.320312 104.207031 41.175781 104.304688 40.324219 104.765625 C 40.300781 104.773438 37.925781 105.550781 36.742188 105.59375 C 36.675781 105.59375 36.613281 105.59375 36.554688 105.59375 C 36.105469 105.59375 35.703125 105.539062 35.390625 105.476562 C 35.074219 105.414062 34.847656 105.339844 34.742188 105.300781 C 34.746094 105.277344 34.746094 105.253906 34.738281 105.230469 C 34.730469 105.203125 34.722656 105.171875 34.710938 105.144531 L 34.710938 80.199219 C 35.695312 80.257812 36.707031 80.285156 37.757812 80.285156 C 39.714844 80.285156 41.765625 80.179688 43.800781 79.988281 C 43.777344 80.007812 43.757812 80.042969 43.757812 80.09375 C 43.8125 88.144531 43.875 96.203125 43.875 104.257812 C 43.757812 104.230469 43.542969 104.207031 43.128906 104.207031 Z M 34.277344 71.339844 C 25.9375 71.324219 17.589844 71.308594 9.25 71.292969 C 8.195312 71.292969 7.140625 71.289062 6.089844 71.285156 L 5.542969 71.285156 L 5.542969 70.140625 C 12.390625 70.148438 19.242188 70.164062 26.089844 70.175781 C 29.421875 70.179688 32.757812 70.1875 36.089844 70.191406 C 36.269531 70.195312 36.453125 70.195312 36.632812 70.195312 L 36.632812 71.34375 C 35.847656 71.339844 35.0625 71.339844 34.277344 71.339844 Z M 34.421875 75.507812 L 7.75 75.507812 L 7.75 71.578125 C 13.09375 71.585938 18.441406 71.597656 23.78125 71.609375 C 23.667969 72.878906 23.613281 74.175781 23.628906 75.503906 L 23.914062 75.503906 C 23.898438 74.175781 23.953125 72.878906 24.070312 71.609375 C 24.746094 71.609375 25.414062 71.613281 26.089844 71.613281 C 28.867188 71.617188 31.648438 71.621094 34.421875 71.628906 Z M 34.421875 79.894531 C 30.179688 79.628906 26.617188 78.835938 23.996094 77.566406 C 23.953125 76.96875 23.929688 76.378906 23.917969 75.792969 L 34.421875 75.792969 Z M 34.421875 104.25 C 33.15625 100.265625 32.046875 96.230469 31.121094 92.160156 C 30.203125 88.113281 29.226562 83.769531 29.53125 79.585938 C 31.035156 79.871094 32.671875 80.074219 34.421875 80.183594 Z M 25.453125 64.109375 L 25.457031 69.890625 C 25.0625 69.890625 24.664062 69.886719 24.269531 69.886719 C 24.539062 67.894531 24.949219 65.972656 25.453125 64.109375 Z M 25.058594 58.570312 L 26.125 58.570312 C 25.980469 58.664062 25.804688 58.714844 25.589844 58.714844 C 25.375 58.714844 25.199219 58.664062 25.058594 58.570312 Z M 26.546875 58.570312 L 26.933594 58.570312 C 26.511719 59.722656 26.109375 60.898438 25.734375 62.097656 L 25.734375 58.992188 C 26.027344 58.96875 26.328125 58.859375 26.546875 58.570312 Z M 29.699219 52.382812 C 31.160156 48.851562 32.539062 45.515625 33.167969 42.523438 C 33.707031 39.816406 36.589844 27.371094 36.878906 26.136719 C 37.761719 26.027344 44.28125 25.183594 48.539062 23.875 C 50.171875 27.648438 50.964844 32.492188 51.347656 35.917969 C 52.261719 42.703125 52.851562 50.566406 53.265625 58.285156 L 27.34375 58.285156 C 28.105469 56.242188 28.917969 54.28125 29.699219 52.382812 Z M 33.351562 30.820312 C 31.808594 30.863281 30.253906 30.453125 28.847656 29.847656 C 27.355469 29.207031 25.808594 28.183594 25.140625 26.644531 C 25.488281 26.292969 25.832031 25.910156 26.160156 25.542969 C 26.726562 24.914062 27.308594 24.265625 27.9375 23.753906 C 29.796875 22.25 31.582031 21.316406 33.25 20.972656 C 34.027344 20.8125 34.84375 20.835938 35.636719 20.863281 C 35.804688 20.867188 35.96875 20.871094 36.136719 20.875 C 36.21875 20.875 36.308594 20.878906 36.398438 20.882812 C 36.664062 20.890625 36.953125 20.898438 37.238281 20.886719 C 37.230469 20.898438 37.21875 20.910156 37.214844 20.929688 C 36.652344 22.5625 36.617188 24.273438 36.617188 25.988281 C 36.53125 26.363281 34.675781 34.363281 33.582031 39.253906 C 33.675781 35.457031 33.753906 31.65625 33.757812 27.859375 C 33.757812 27.671875 33.46875 27.671875 33.46875 27.859375 C 33.46875 28.839844 33.460938 29.820312 33.453125 30.800781 C 33.417969 30.792969 33.382812 30.796875 33.351562 30.820312 Z M 38.242188 20.695312 C 38.269531 22.269531 41.128906 22.703125 42.230469 22.503906 C 44.058594 22.171875 46.46875 21.015625 46.714844 18.949219 C 47.050781 18.957031 47.398438 18.894531 47.726562 18.816406 C 47.648438 20.457031 48.019531 22.027344 48.445312 23.601562 C 44.292969 24.878906 37.980469 25.710938 36.90625 25.84375 C 36.90625 24.207031 36.953125 22.570312 37.492188 21.007812 C 37.511719 20.945312 37.492188 20.902344 37.460938 20.871094 C 37.734375 20.84375 38.003906 20.792969 38.242188 20.695312 Z M 38.691406 20.4375 C 38.867188 20.285156 38.945312 20.089844 38.976562 19.882812 C 39.0625 19.886719 39.152344 19.890625 39.238281 19.890625 C 39.863281 19.890625 40.441406 19.792969 41.007812 19.589844 C 41.082031 19.5625 41.121094 19.480469 41.09375 19.40625 C 41.089844 19.394531 41.085938 19.390625 41.078125 19.378906 C 41.046875 19.324219 40.976562 19.296875 40.914062 19.316406 C 40.179688 19.578125 39.433594 19.65625 38.566406 19.566406 C 37.714844 19.476562 36.851562 19.125 36.082031 18.542969 C 35.390625 18.023438 34.789062 17.28125 34.34375 16.390625 C 33.980469 15.65625 33.675781 14.980469 33.425781 14.316406 C 33.375 14.1875 33.332031 14.0625 33.289062 13.9375 C 33.390625 14.035156 33.511719 14.082031 33.621094 14.050781 C 33.835938 13.992188 33.929688 13.667969 33.835938 13.328125 C 33.742188 12.988281 33.492188 12.761719 33.277344 12.824219 C 33.148438 12.859375 33.0625 12.992188 33.035156 13.171875 C 33.023438 13.246094 33.027344 13.332031 33.042969 13.421875 C 33.027344 13.332031 33.023438 13.246094 33.035156 13.171875 C 32.902344 12.726562 32.800781 12.292969 32.71875 11.871094 C 32.867188 11.824219 33.011719 11.777344 33.164062 11.75 C 33.300781 11.722656 33.8125 11.714844 33.839844 11.515625 C 33.882812 11.230469 33.179688 11.226562 33.03125 11.230469 C 32.894531 11.234375 32.757812 11.257812 32.625 11.289062 C 32.621094 11.289062 32.621094 11.292969 32.617188 11.292969 C 32.621094 11.292969 32.621094 11.289062 32.625 11.289062 C 32.617188 11.230469 32.613281 11.175781 32.605469 11.117188 C 32.605469 11.109375 32.605469 11.101562 32.605469 11.09375 C 32.535156 9.601562 32.71875 7.835938 33.597656 6.96875 C 33.894531 6.679688 34.304688 6.460938 34.648438 6.242188 C 35.21875 5.886719 36.015625 5.558594 36.699219 5.554688 C 37.109375 5.554688 37.507812 5.671875 37.894531 5.8125 C 38.5625 6.121094 39.199219 6.691406 39.773438 7.210938 C 39.914062 7.34375 40.058594 7.472656 40.195312 7.589844 C 40.398438 7.769531 40.597656 7.953125 40.796875 8.136719 C 41.542969 8.820312 42.308594 9.523438 43.273438 9.90625 C 43.34375 9.933594 43.421875 9.957031 43.492188 9.980469 C 43.507812 9.988281 43.515625 9.988281 43.53125 9.988281 C 43.734375 10.042969 43.945312 10.074219 44.152344 10.074219 C 44.199219 10.074219 44.242188 10.066406 44.285156 10.066406 C 44.496094 10.121094 44.695312 10.238281 44.878906 10.433594 C 45.019531 10.582031 45.128906 10.757812 45.207031 10.9375 C 45.285156 11.125 45.328125 11.320312 45.332031 11.511719 C 45.332031 11.679688 45.308594 11.847656 45.246094 12 C 45.15625 12.21875 44.914062 12.433594 44.65625 12.546875 C 44.601562 12.574219 44.550781 12.589844 44.496094 12.605469 C 44.433594 12.621094 44.394531 12.6875 44.410156 12.75 C 44.425781 12.816406 44.492188 12.855469 44.554688 12.835938 C 44.621094 12.824219 44.683594 12.796875 44.746094 12.769531 C 44.929688 12.691406 45.101562 12.5625 45.238281 12.421875 C 45.417969 12.695312 46.265625 14.160156 45.644531 16.179688 C 45.609375 16.304688 45.5625 16.433594 45.511719 16.558594 C 45.5625 16.433594 45.605469 16.304688 45.644531 16.179688 C 45.558594 16.292969 45.472656 16.410156 45.378906 16.523438 C 45.371094 16.535156 45.371094 16.546875 45.363281 16.558594 C 45.347656 16.5625 45.328125 16.570312 45.316406 16.582031 C 45.226562 16.652344 45.171875 16.738281 45.136719 16.835938 C 44.96875 17.328125 45.390625 18.085938 45.488281 18.261719 C 45.734375 18.671875 46.066406 18.859375 46.433594 18.925781 C 46.222656 20.722656 44.179688 21.707031 42.621094 22.132812 C 41.75 22.367188 40.835938 22.324219 40 21.980469 C 39.402344 21.730469 38.488281 21.382812 38.53125 20.605469 C 38.53125 20.585938 38.527344 20.570312 38.519531 20.550781 C 38.578125 20.519531 38.640625 20.480469 38.691406 20.4375 Z M 33.144531 13.746094 C 33.171875 13.792969 33.199219 13.832031 33.226562 13.871094 C 33.199219 13.832031 33.171875 13.792969 33.144531 13.746094 Z M 32.070312 12.007812 C 31.929688 11.957031 31.785156 11.902344 31.605469 11.839844 C 31.664062 11.683594 31.703125 11.585938 31.800781 11.324219 C 31.964844 11.601562 32.058594 11.753906 32.152344 11.90625 C 32.125 11.941406 32.097656 11.972656 32.070312 12.007812 Z M 31.339844 14.976562 C 31.097656 14.738281 31.070312 14.5625 31.269531 14.347656 C 31.53125 14.527344 31.703125 14.6875 31.339844 14.976562 Z M 37.992188 5.332031 C 37.902344 5.378906 37.832031 5.414062 37.765625 5.449219 C 37.738281 5.4375 37.710938 5.425781 37.679688 5.417969 C 37.703125 5.195312 37.789062 5.125 37.992188 5.332031 Z M 41.605469 7.867188 C 42.054688 8.207031 42.476562 8.566406 42.871094 8.964844 C 43.066406 9.164062 43.292969 9.414062 43.550781 9.695312 C 43.496094 9.679688 43.4375 9.664062 43.378906 9.640625 C 42.464844 9.277344 41.714844 8.589844 40.992188 7.921875 C 40.789062 7.738281 40.589844 7.554688 40.382812 7.375 C 40.25 7.253906 40.109375 7.128906 39.964844 7 C 39.730469 6.785156 39.484375 6.566406 39.234375 6.359375 C 40.074219 6.773438 40.839844 7.289062 41.605469 7.867188 Z M 42.207031 4.753906 C 42.164062 4.796875 42.117188 4.839844 42.070312 4.882812 C 41.964844 4.761719 41.859375 4.636719 41.699219 4.449219 C 42.128906 4.328125 42.199219 4.503906 42.207031 4.753906 Z M 42.644531 6.355469 C 42.4375 6.296875 42.304688 6.257812 42.144531 6.210938 C 42.164062 6.082031 42.179688 5.984375 42.195312 5.886719 C 42.496094 5.84375 42.613281 5.96875 42.644531 6.355469 Z M 45.390625 7.320312 C 45.40625 7.347656 45.375 7.394531 45.351562 7.476562 C 45.222656 7.425781 45.097656 7.378906 44.898438 7.300781 C 45.160156 7.058594 45.289062 7.140625 45.390625 7.320312 Z M 45.457031 16.566406 C 45.472656 16.574219 45.488281 16.582031 45.5 16.59375 C 45.488281 16.582031 45.472656 16.574219 45.457031 16.566406 Z M 48.015625 18.753906 L 48.054688 18.746094 C 50.285156 18.246094 53.203125 18.847656 54.964844 19.617188 C 57.21875 20.597656 59.507812 22.164062 61.515625 24.015625 C 61.175781 25.582031 60.378906 27.039062 59.40625 28.292969 C 58.425781 29.5625 57.085938 30.742188 55.460938 31.011719 C 55.234375 30.769531 55 30.539062 54.761719 30.308594 C 54.757812 30.300781 54.753906 30.289062 54.75 30.277344 C 54.730469 30.210938 54.675781 30.183594 54.625 30.175781 C 53.664062 29.285156 52.597656 28.492188 51.417969 27.824219 C 51.253906 27.734375 51.113281 27.980469 51.273438 28.070312 C 52.46875 28.75 53.539062 29.550781 54.496094 30.453125 C 54.5 30.453125 54.503906 30.457031 54.507812 30.464844 C 54.929688 31.8125 55.378906 33.15625 55.855469 34.488281 C 56.410156 36.035156 57.09375 37.519531 57.601562 39.085938 C 58.453125 41.703125 59.1875 44.367188 59.898438 47.027344 C 57.566406 47.453125 55.234375 47.886719 52.910156 48.359375 C 52.570312 44.003906 52.15625 39.765625 51.628906 35.878906 C 51.566406 35.316406 51.492188 34.714844 51.40625 34.085938 C 50.960938 30.835938 50.164062 26.851562 48.757812 23.648438 C 48.316406 22.039062 47.921875 20.433594 48.015625 18.753906 Z M 60.179688 40.730469 C 60.808594 43.296875 61.023438 45.921875 61.21875 48.554688 C 61.273438 49.304688 61.324219 50.054688 61.371094 50.808594 C 61.046875 49.746094 60.714844 48.6875 60.382812 47.628906 L 60.21875 47.105469 C 60.21875 47.101562 60.21875 47.101562 60.21875 47.101562 C 59.492188 44.390625 58.738281 41.679688 57.878906 39.007812 C 57.394531 37.503906 56.738281 36.070312 56.195312 34.589844 C 55.753906 33.371094 55.34375 32.140625 54.953125 30.90625 C 57.570312 33.558594 59.265625 36.996094 60.179688 40.730469 Z M 59.375 51.128906 C 59.394531 50.832031 59.40625 50.628906 59.417969 50.375 C 59.640625 50.394531 59.808594 50.40625 59.980469 50.417969 C 60.019531 50.609375 60.046875 50.765625 60.089844 50.984375 C 59.863281 51.027344 59.660156 51.070312 59.375 51.128906 Z M 55.699219 64.136719 C 55.757812 64.132812 55.816406 64.128906 55.875 64.125 C 55.917969 64.265625 55.957031 64.410156 56.050781 64.738281 C 55.828125 64.566406 55.710938 64.515625 55.667969 64.425781 C 55.636719 64.359375 55.6875 64.238281 55.699219 64.136719 Z M 56.359375 65.4375 C 56.238281 65.976562 56.011719 65.863281 55.726562 65.703125 C 55.804688 65.261719 56.011719 65.265625 56.359375 65.4375 Z M 56.398438 60.167969 C 56.476562 60.164062 56.550781 60.160156 56.628906 60.15625 C 56.703125 60.367188 56.773438 60.582031 56.875 60.875 L 56.273438 60.875 C 56.320312 60.601562 56.359375 60.386719 56.398438 60.167969 Z M 57.675781 59.738281 C 57.71875 59.933594 57.761719 60.128906 57.808594 60.332031 C 57.695312 60.347656 57.605469 60.367188 57.605469 60.355469 C 57.554688 60.160156 57.511719 59.964844 57.464844 59.769531 C 57.539062 59.757812 57.609375 59.75 57.675781 59.738281 Z M 58.640625 70.671875 C 58.707031 70.660156 58.78125 70.648438 58.851562 70.636719 C 58.960938 70.84375 59.070312 71.054688 59.214844 71.324219 C 58.929688 71.378906 58.761719 71.414062 58.476562 71.46875 C 58.542969 71.144531 58.589844 70.90625 58.640625 70.671875 Z M 59.9375 73.351562 C 59.808594 73.804688 59.808594 73.804688 59.484375 73.5625 C 59.636719 73.492188 59.765625 73.433594 59.9375 73.351562 Z M 59.765625 68.949219 C 59.800781 69.082031 59.832031 69.21875 59.863281 69.347656 C 59.792969 69.367188 59.722656 69.378906 59.648438 69.398438 C 59.636719 69.261719 59.621094 69.121094 59.609375 68.980469 C 59.660156 68.96875 59.714844 68.960938 59.765625 68.949219 Z M 62.902344 73.558594 L 63.234375 73.558594 C 63.234375 73.601562 63.234375 73.648438 63.230469 73.695312 L 62.902344 73.695312 Z M 22.121094 60.324219 C 21.511719 60.300781 20.996094 59.914062 20.390625 59.855469 C 19.132812 59.730469 18.113281 61.140625 17.210938 61.78125 C 15.875 62.726562 14.296875 62.894531 12.84375 62.089844 C 11.546875 61.367188 10.953125 59.96875 10.953125 58.535156 C 10.953125 57.136719 11.386719 55.917969 12.535156 55.050781 C 13.910156 54.011719 15.640625 54.175781 17.03125 55.039062 C 18.023438 55.652344 18.910156 57.03125 20.183594 57.074219 C 20.761719 57.097656 21.207031 56.835938 21.746094 56.675781 C 22.984375 56.316406 23.769531 57.324219 23.820312 58.46875 C 23.777344 59.484375 23.21875 60.375 22.121094 60.324219 Z M 9.429688 57.425781 L 4.140625 60.671875 C 4.117188 60.6875 4.09375 60.691406 4.066406 60.691406 C 4.019531 60.691406 3.972656 60.667969 3.941406 60.625 C 3.902344 60.558594 3.921875 60.46875 3.992188 60.429688 L 9.28125 57.179688 C 9.347656 57.140625 9.4375 57.160156 9.476562 57.226562 C 9.519531 57.292969 9.496094 57.382812 9.429688 57.425781 Z M 51 5.582031 C 51.933594 5.769531 52.757812 6.316406 53.269531 7.125 C 53.574219 7.605469 53.609375 8.050781 53.457031 8.429688 C 53.4375 8.316406 53.410156 8.195312 53.367188 8.070312 C 52.746094 6.140625 50.722656 6.089844 49.164062 5.175781 C 49.054688 5.109375 48.949219 5.035156 48.84375 4.964844 C 49.535156 5.242188 50.257812 5.433594 51 5.582031 Z M 66.246094 104.308594 C 66.238281 99.121094 65.765625 93.972656 65.136719 88.832031 C 64.566406 84.160156 63.9375 79.492188 63.777344 74.78125 C 64.296875 74.558594 64.730469 74.199219 64.96875 73.566406 C 65.34375 72.578125 65.191406 71.398438 65.074219 70.359375 C 65.0625 70.269531 65.054688 70.183594 65.046875 70.09375 C 65.023438 69.90625 65.007812 69.714844 64.988281 69.523438 C 64.984375 69.480469 64.976562 69.4375 64.976562 69.390625 C 64.808594 67.234375 64.585938 65.074219 64.273438 62.929688 C 64.105469 62.917969 63.945312 62.855469 63.8125 62.746094 C 63.800781 62.738281 63.796875 62.726562 63.785156 62.71875 C 63.5 62.871094 63.25 62.925781 63.042969 62.925781 C 62.851562 62.925781 62.691406 62.878906 62.558594 62.816406 C 62.546875 62.820312 62.542969 62.824219 62.535156 62.824219 C 62.476562 62.832031 62.417969 62.835938 62.363281 62.835938 C 62.179688 62.835938 61.996094 62.8125 61.847656 62.792969 C 61.578125 62.761719 61.34375 62.695312 61.144531 62.585938 C 60.757812 62.375 60.453125 61.992188 60.265625 61.476562 C 60.078125 60.964844 60.023438 60.390625 60.089844 59.78125 L 58.355469 59.796875 L 58.332031 59.796875 C 57.972656 59.796875 57.648438 59.664062 57.398438 59.445312 C 57.148438 59.222656 56.972656 58.917969 56.921875 58.570312 L 53.636719 58.570312 C 53.558594 58.570312 53.496094 58.507812 53.496094 58.429688 C 53.496094 58.347656 53.558594 58.285156 53.636719 58.285156 L 56.90625 58.285156 C 56.949219 57.542969 57.554688 56.9375 58.308594 56.925781 L 58.375 56.925781 C 58.382812 56.902344 58.386719 56.882812 58.398438 56.855469 C 58.628906 56.425781 59.503906 55.941406 60.347656 55.46875 C 60.84375 55.195312 61.308594 54.9375 61.554688 54.738281 C 61.261719 54.339844 60.335938 52.945312 61.03125 52.164062 C 61.167969 52.003906 61.429688 51.910156 61.761719 51.863281 C 61.574219 48.039062 61.320312 44.175781 60.414062 40.476562 C 59.566406 37.023438 58.007812 33.820312 55.683594 31.261719 C 57.304688 30.9375 58.601562 29.75 59.605469 28.496094 C 60.59375 27.269531 61.394531 25.789062 61.757812 24.242188 C 63.523438 25.914062 65.0625 27.804688 66.144531 29.714844 C 68.585938 34.03125 68.691406 39.289062 68.59375 43.878906 C 68.546875 46.28125 67.679688 50.351562 67.105469 52.816406 C 67.203125 52.871094 67.289062 52.921875 67.363281 52.980469 C 67.9375 50.519531 68.828125 46.34375 68.882812 43.886719 C 68.976562 39.257812 68.871094 33.953125 66.394531 29.570312 C 65.277344 27.59375 63.667969 25.636719 61.824219 23.917969 C 61.820312 23.832031 61.75 23.78125 61.675781 23.78125 C 59.648438 21.914062 57.347656 20.34375 55.082031 19.355469 C 53.273438 18.566406 50.285156 17.953125 47.992188 18.464844 L 47.828125 18.503906 C 47.023438 18.6875 46.191406 18.878906 45.738281 18.117188 C 45.53125 17.761719 45.210938 17.03125 45.488281 16.808594 C 45.511719 16.792969 45.523438 16.769531 45.535156 16.75 C 45.5625 16.742188 45.589844 16.726562 45.605469 16.703125 C 45.957031 16.257812 46.265625 15.820312 46.539062 15.394531 C 47.066406 14.710938 47.597656 13.910156 47.839844 13.25 C 47.996094 13.304688 48.148438 13.347656 48.304688 13.378906 C 49.15625 13.554688 50.261719 12.96875 50.519531 12.078125 C 50.597656 11.804688 50.46875 11.621094 50.355469 11.378906 C 51.714844 11.183594 53.335938 10.40625 53.476562 9.007812 C 53.671875 8.78125 53.808594 8.503906 53.84375 8.152344 C 53.929688 7.339844 53.285156 6.507812 52.679688 6.046875 C 51.589844 5.210938 50.171875 5.15625 48.910156 4.707031 C 48.488281 4.558594 48.078125 4.328125 47.679688 4.082031 C 46.515625 3.140625 45.433594 2.15625 43.90625 1.59375 C 42.1875 0.964844 40.539062 0.5625 38.863281 0.714844 C 38.863281 0.769531 38.867188 0.820312 38.867188 0.882812 C 38.792969 0.824219 38.734375 0.78125 38.679688 0.738281 C 38.140625 0.800781 37.597656 0.917969 37.050781 1.109375 C 36.015625 1.394531 35.359375 1.902344 34.632812 2.71875 L 34.980469 3.359375 C 34.949219 3.390625 34.914062 3.421875 34.878906 3.449219 C 34.734375 3.285156 34.589844 3.121094 34.433594 2.949219 C 31.070312 2.59375 31.496094 8.535156 30.925781 10.648438 C 30.433594 12.085938 28.925781 14.410156 30.03125 16.027344 C 30.089844 16.109375 30.15625 16.191406 30.222656 16.269531 L 30.222656 16.261719 C 30.277344 16.265625 30.332031 16.269531 30.386719 16.273438 C 30.378906 16.324219 30.371094 16.371094 30.363281 16.421875 C 31.433594 17.542969 33.261719 18.058594 34.335938 16.96875 C 34.765625 17.699219 35.304688 18.316406 35.90625 18.773438 C 36.71875 19.382812 37.628906 19.753906 38.539062 19.851562 C 38.589844 19.859375 38.640625 19.859375 38.6875 19.863281 C 38.664062 20.003906 38.613281 20.128906 38.503906 20.21875 C 37.992188 20.652344 37.117188 20.621094 36.40625 20.597656 C 36.316406 20.59375 36.226562 20.589844 36.140625 20.589844 C 35.976562 20.585938 35.8125 20.582031 35.644531 20.574219 C 34.839844 20.550781 34.003906 20.523438 33.191406 20.691406 C 31.480469 21.046875 29.652344 22 27.761719 23.527344 C 27.109375 24.054688 26.519531 24.714844 25.949219 25.351562 C 25.597656 25.742188 25.238281 26.144531 24.871094 26.503906 C 24.859375 26.515625 24.84375 26.527344 24.832031 26.542969 C 23.824219 27.535156 22.941406 28.394531 22.136719 29.171875 C 18.605469 32.589844 16.664062 34.46875 12.929688 39.640625 C 11.421875 41.722656 9.519531 44.136719 8.160156 45.828125 C 8.199219 45.828125 8.234375 45.824219 8.269531 45.824219 C 8.339844 45.832031 8.410156 45.855469 8.484375 45.886719 C 9.835938 44.199219 11.6875 41.847656 13.160156 39.808594 C 16.878906 34.65625 18.820312 32.785156 22.335938 29.378906 C 23.109375 28.628906 23.964844 27.804688 24.925781 26.855469 C 25.605469 28.296875 26.964844 29.257812 28.359375 29.9375 C 29.777344 30.628906 31.40625 31.085938 32.996094 31.105469 C 28.46875 34.894531 16.144531 45.871094 11.222656 50.269531 C 11.257812 50.371094 11.289062 50.472656 11.316406 50.574219 C 16.269531 46.148438 29.132812 34.6875 33.449219 31.105469 C 33.417969 34.269531 33.34375 37.4375 33.265625 40.601562 C 33.261719 40.621094 33.265625 40.636719 33.273438 40.652344 C 33.101562 41.429688 32.964844 42.058594 32.886719 42.46875 C 32.265625 45.433594 30.890625 48.757812 29.4375 52.273438 C 28.636719 54.203125 27.808594 56.203125 27.039062 58.285156 L 26.710938 58.285156 C 26.804688 58.054688 26.863281 57.761719 26.863281 57.375 L 26.578125 57.375 C 26.578125 57.769531 26.511719 58.066406 26.386719 58.285156 L 24.792969 58.285156 C 24.667969 58.066406 24.601562 57.769531 24.601562 57.375 L 24.316406 57.375 C 24.316406 57.761719 24.375 58.054688 24.472656 58.285156 L 24.089844 58.285156 C 23.960938 56.972656 23.046875 56.109375 21.667969 56.402344 C 21.355469 56.46875 21.070312 56.628906 20.769531 56.734375 C 20.167969 56.9375 19.585938 56.648438 19.089844 56.332031 C 18.339844 55.84375 17.757812 55.152344 16.992188 54.675781 C 14.386719 53.0625 11.058594 54.75 10.6875 57.753906 C 10.628906 58.222656 10.636719 58.675781 10.695312 59.105469 L 9.820312 56.960938 C 9.523438 56.242188 8.765625 55.996094 8.105469 56.386719 C 8.097656 56.394531 8.082031 56.398438 8.070312 56.410156 L 7.863281 56.535156 L 7.5625 56.015625 C 7.476562 56.050781 7.382812 56.074219 7.292969 56.074219 C 7.210938 56.074219 7.121094 56.058594 7.035156 56.019531 C 6.675781 55.84375 6.492188 55.546875 6.476562 55.109375 C 6.464844 54.78125 6.457031 54.46875 6.476562 54.167969 C 5.945312 54.386719 5.40625 54.628906 4.851562 54.980469 C 4.761719 55.039062 4.632812 55.144531 4.484375 55.269531 C 4.484375 55.269531 4.484375 55.269531 4.480469 55.269531 L 5.933594 57.78125 L 5.6875 57.9375 L 3.210938 59.53125 C 2.546875 59.957031 2.601562 60.550781 3.332031 60.855469 L 11.71875 64.308594 C 12.445312 64.609375 12.796875 64.257812 12.5 63.527344 L 11.578125 61.269531 C 12.367188 62.289062 13.613281 62.929688 15.148438 62.914062 C 16.855469 62.902344 17.976562 61.332031 19.273438 60.492188 C 20.234375 59.871094 20.914062 60.378906 21.863281 60.582031 C 22.519531 60.71875 23.082031 60.535156 23.535156 60.066406 C 23.921875 59.671875 24.0625 59.105469 24.097656 58.574219 L 24.632812 58.574219 C 24.851562 58.859375 25.152344 58.972656 25.445312 58.996094 L 25.453125 63.050781 C 24.816406 65.238281 24.296875 67.511719 23.976562 69.886719 C 21.347656 69.882812 18.71875 69.875 16.089844 69.871094 C 12.523438 69.863281 8.960938 69.859375 5.398438 69.851562 C 5.355469 69.851562 5.328125 69.867188 5.304688 69.890625 C 5.300781 69.890625 5.300781 69.894531 5.300781 69.894531 C 5.292969 69.898438 5.292969 69.902344 5.289062 69.90625 C 5.269531 69.929688 5.257812 69.957031 5.257812 69.996094 L 5.257812 71.429688 C 5.257812 71.507812 5.320312 71.574219 5.398438 71.574219 C 6.085938 71.574219 6.777344 71.578125 7.464844 71.578125 L 7.464844 111.960938 L 7.75 111.960938 L 7.75 75.792969 L 23.632812 75.792969 C 23.644531 76.410156 23.671875 77.035156 23.714844 77.667969 L 23.71875 77.75 L 23.792969 77.789062 C 25.316406 78.535156 27.148438 79.117188 29.246094 79.53125 C 28.941406 83.617188 29.875 87.855469 30.75 91.816406 C 31.746094 96.328125 32.996094 100.796875 34.421875 105.191406 L 34.421875 105.300781 C 32.527344 105.609375 30.703125 106.78125 29.519531 108.460938 C 29.148438 108.988281 28.851562 109.929688 28.652344 110.808594 L 34.421875 110.808594 L 34.421875 111.097656 L 28.589844 111.097656 C 28.5625 111.222656 28.539062 111.351562 28.519531 111.46875 L 28.488281 111.652344 L 28.65625 111.707031 C 28.714844 111.707031 31.261719 111.761719 34.421875 111.8125 L 34.421875 111.957031 L 34.710938 111.957031 L 34.710938 111.816406 C 38.609375 111.886719 43.328125 111.957031 45.484375 111.957031 L 45.625 111.957031 L 45.628906 111.734375 C 45.628906 111.726562 45.636719 111.492188 45.644531 111.089844 C 45.632812 111.089844 45.621094 111.097656 45.609375 111.097656 L 34.710938 111.097656 L 34.710938 110.808594 L 45.609375 110.808594 C 45.625 110.808594 45.636719 110.8125 45.652344 110.820312 C 45.664062 110.21875 45.675781 109.363281 45.675781 108.375 C 45.675781 106.5 44.324219 104.648438 44.128906 104.390625 C 44.148438 104.367188 44.164062 104.34375 44.164062 104.308594 C 44.160156 96.234375 44.097656 88.164062 44.042969 80.09375 C 44.042969 80.027344 44.007812 79.992188 43.964844 79.972656 C 46.042969 79.769531 48.101562 79.476562 50.03125 79.105469 C 49.761719 80.679688 49.96875 82.324219 50.226562 83.890625 C 50.613281 86.304688 51.253906 88.675781 51.933594 91.027344 C 53.332031 95.832031 55.050781 100.527344 56.605469 105.28125 C 54.671875 105.566406 52.808594 106.753906 51.601562 108.460938 C 51.230469 108.988281 50.933594 109.933594 50.734375 110.808594 L 67.691406 110.808594 C 67.707031 110.808594 67.71875 110.8125 67.734375 110.820312 C 67.746094 110.21875 67.757812 109.363281 67.757812 108.375 C 67.757812 106.503906 66.410156 104.652344 66.214844 104.390625 C 66.230469 104.367188 66.246094 104.34375 66.246094 104.308594 "/></g><path style=" stroke:none;fill-rule:nonzero;fill:#100f0d;fill-opacity:1;" d="M 50.671875 111.097656 C 50.644531 111.222656 50.621094 111.351562 50.601562 111.46875 L 50.570312 111.652344 L 50.738281 111.707031 C 50.867188 111.710938 63.589844 111.957031 67.566406 111.957031 L 67.707031 111.957031 L 67.710938 111.734375 C 67.710938 111.726562 67.71875 111.492188 67.730469 111.089844 C 67.714844 111.089844 67.707031 111.097656 67.691406 111.097656 L 50.671875 111.097656 "/><path style=" stroke:none;fill-rule:nonzero;fill:#100f0d;fill-opacity:1;" d="M 4.417969 50.035156 C 4.40625 50.183594 4.398438 50.332031 4.390625 50.484375 C 4.332031 50.484375 4.277344 50.488281 4.222656 50.492188 C 4.203125 50.339844 4.1875 50.1875 4.167969 50.035156 Z M 9.164062 47.949219 C 9.152344 48.398438 8.84375 48.429688 8.492188 48.6875 C 8.542969 48.050781 8.75 47.902344 9.164062 47.949219 Z M 2.785156 54.949219 C 2.851562 54.835938 2.933594 54.710938 3.039062 54.578125 C 3.085938 54.523438 3.132812 54.46875 3.183594 54.410156 C 3.617188 53.917969 4.246094 53.40625 4.511719 53.242188 C 4.578125 53.203125 4.667969 53.222656 4.707031 53.289062 C 4.75 53.355469 4.730469 53.445312 4.664062 53.488281 C 4.453125 53.617188 3.847656 54.089844 3.394531 54.597656 C 3.179688 54.84375 3.03125 55.0625 2.972656 55.226562 C 2.941406 55.300781 2.933594 55.363281 2.9375 55.410156 C 2.957031 55.539062 2.992188 55.699219 3.09375 55.734375 C 3.347656 55.835938 3.945312 55.339844 4.300781 55.046875 C 4.457031 54.917969 4.59375 54.804688 4.695312 54.738281 C 5.320312 54.339844 5.921875 54.085938 6.503906 53.839844 C 6.527344 53.632812 6.566406 53.425781 6.628906 53.21875 C 6.652344 53.140625 6.734375 53.101562 6.808594 53.125 C 6.84375 53.132812 6.875 53.15625 6.890625 53.1875 C 6.910156 53.222656 6.914062 53.261719 6.902344 53.300781 C 6.734375 53.859375 6.738281 54.445312 6.765625 55.09375 C 6.777344 55.429688 6.894531 55.628906 7.15625 55.757812 C 7.535156 55.925781 7.984375 55.28125 8.128906 55.015625 C 8.773438 53.828125 9.070312 52.996094 9.25 51.882812 C 9.253906 51.847656 9.261719 51.8125 9.269531 51.773438 C 9.28125 51.695312 9.351562 51.644531 9.429688 51.652344 C 9.511719 51.664062 9.5625 51.738281 9.550781 51.816406 C 9.546875 51.847656 9.542969 51.878906 9.535156 51.910156 C 9.539062 51.910156 9.542969 51.90625 9.546875 51.90625 C 9.558594 51.910156 10.667969 52.117188 11.125 51.546875 C 11.226562 51.421875 11.167969 50.761719 10.597656 49.453125 C 9.828125 47.679688 8.753906 46.148438 8.25 46.109375 C 7.460938 46.054688 6.917969 47.453125 6.777344 48 C 6.757812 48.070312 6.691406 48.117188 6.621094 48.109375 C 6.046875 48.035156 3.609375 49.09375 2.808594 49.441406 C 2.636719 49.511719 2.511719 49.566406 2.445312 49.59375 C 1.648438 49.917969 1.023438 50.40625 0.636719 51.003906 C 0.457031 51.28125 0.257812 51.714844 0.328125 52.171875 C 0.359375 52.363281 0.429688 52.554688 0.554688 52.761719 C 0.597656 52.835938 0.652344 52.925781 0.710938 53.015625 C 0.835938 52.222656 1.59375 51.4375 2.109375 51.082031 C 2.476562 50.828125 2.792969 50.664062 3.070312 50.570312 C 3.148438 50.546875 3.230469 50.589844 3.25 50.664062 C 3.277344 50.742188 3.234375 50.820312 3.160156 50.84375 C 3.121094 50.859375 3.078125 50.875 3.039062 50.890625 C 2.8125 50.976562 2.5625 51.121094 2.269531 51.316406 C 1.699219 51.710938 0.917969 52.59375 0.980469 53.328125 C 1.007812 53.664062 1.222656 53.925781 1.605469 54.117188 C 1.664062 53.957031 1.753906 53.808594 1.859375 53.671875 C 2.066406 53.402344 2.335938 53.179688 2.53125 53.011719 L 2.597656 52.960938 C 2.824219 52.769531 3.058594 52.574219 3.300781 52.390625 C 3.382812 52.328125 3.464844 52.269531 3.546875 52.210938 C 3.640625 52.144531 3.730469 52.078125 3.820312 52.007812 L 3.859375 51.980469 C 3.921875 51.933594 4.011719 51.941406 4.0625 52.003906 C 4.109375 52.066406 4.097656 52.15625 4.039062 52.203125 L 4.011719 52.222656 C 3.957031 52.269531 3.90625 52.304688 3.855469 52.34375 C 3.808594 52.375 3.761719 52.410156 3.714844 52.441406 C 3.632812 52.503906 3.554688 52.5625 3.472656 52.621094 C 3.238281 52.800781 3.003906 52.992188 2.78125 53.179688 L 2.714844 53.230469 C 2.390625 53.503906 1.839844 53.957031 1.816406 54.457031 C 1.804688 54.746094 2.011719 54.949219 2.21875 55.015625 C 2.417969 55.085938 2.636719 55.0625 2.773438 54.953125 C 2.777344 54.953125 2.78125 54.953125 2.785156 54.949219 "/><path style=" stroke:none;fill-rule:nonzero;fill:#100f0d;fill-opacity:1;" d="M 36.671875 15.613281 C 34.753906 16.371094 34.992188 13.519531 35.113281 12.386719 C 35.132812 12.203125 34.847656 12.207031 34.828125 12.386719 C 34.6875 13.710938 34.574219 16.75 36.746094 15.890625 C 36.917969 15.824219 36.84375 15.546875 36.671875 15.613281 "/><path style=" stroke:none;fill-rule:nonzero;fill:#100f0d;fill-opacity:1;" d="M 38.855469 15.671875 C 38.722656 16.484375 37.761719 16.953125 37.003906 16.917969 C 36.816406 16.910156 36.816406 17.199219 37.003906 17.207031 C 37.878906 17.246094 38.980469 16.683594 39.128906 15.746094 C 39.160156 15.566406 38.882812 15.488281 38.855469 15.671875 "/><path style=" stroke:none;fill-rule:nonzero;fill:#100f0d;fill-opacity:1;" d="M 35.664062 10.5625 C 35.878906 10.675781 36.214844 10.441406 36.402344 10.351562 C 36.730469 10.199219 37.0625 10.0625 37.414062 9.992188 C 37.550781 9.964844 38.0625 9.957031 38.09375 9.761719 C 38.132812 9.476562 37.429688 9.472656 37.28125 9.476562 C 36.796875 9.492188 36.328125 9.675781 35.960938 9.992188 C 35.882812 10.058594 35.445312 10.449219 35.664062 10.5625 "/><path style=" stroke:none;fill-rule:nonzero;fill:#100f0d;fill-opacity:1;" d="M 37.351562 12.382812 C 37.136719 12.445312 36.886719 12.21875 36.792969 11.878906 C 36.699219 11.539062 36.792969 11.214844 37.007812 11.15625 C 37.222656 11.097656 37.472656 11.324219 37.566406 11.660156 C 37.660156 12 37.566406 12.324219 37.351562 12.382812 "/><path style=" stroke:none;fill-rule:nonzero;fill:#100f0d;fill-opacity:1;" d="M 19.445312 57.519531 C 19.292969 58.019531 19.328125 58.5625 19.445312 59.066406 C 19.488281 59.246094 19.761719 59.167969 19.722656 58.988281 C 19.613281 58.535156 19.585938 58.046875 19.722656 57.59375 C 19.773438 57.417969 19.496094 57.339844 19.445312 57.519531 "/><path style=" stroke:none;fill-rule:nonzero;fill:#100f0d;fill-opacity:1;" d="M 20.722656 57.808594 C 20.769531 57.628906 20.492188 57.554688 20.449219 57.734375 C 20.3125 58.265625 20.367188 58.800781 20.554688 59.316406 C 20.617188 59.488281 20.894531 59.414062 20.832031 59.242188 C 20.660156 58.773438 20.601562 58.296875 20.722656 57.808594 "/><path style=" stroke:none;fill-rule:nonzero;fill:#100f0d;fill-opacity:1;" d="M 22.488281 57.023438 C 22.3125 56.964844 22.238281 57.242188 22.410156 57.300781 C 22.792969 57.429688 22.851562 57.769531 22.878906 58.128906 C 22.894531 58.3125 23.183594 58.316406 23.167969 58.128906 C 23.125 57.628906 23.007812 57.195312 22.488281 57.023438 "/><path style=" stroke:none;fill-rule:nonzero;fill:#100f0d;fill-opacity:1;" d="M 12.109375 56.660156 C 11.617188 57.382812 11.460938 58.242188 11.59375 59.101562 C 11.621094 59.285156 11.898438 59.207031 11.871094 59.023438 C 11.746094 58.242188 11.910156 57.460938 12.359375 56.804688 C 12.460938 56.648438 12.214844 56.507812 12.109375 56.660156 "/><path style=" stroke:none;fill-rule:nonzero;fill:#100f0d;fill-opacity:1;" d="M 70.664062 57.097656 L 66.929688 57.128906 C 66.859375 57.550781 66.757812 57.960938 66.648438 58.378906 C 66.558594 58.71875 66.46875 59.066406 66.394531 59.433594 L 70.683594 59.394531 C 71.3125 59.378906 71.820312 58.859375 71.808594 58.222656 C 71.800781 57.601562 71.285156 57.097656 70.664062 57.097656 "/><path style=" stroke:none;fill-rule:nonzero;fill:#100f0d;fill-opacity:1;" d="M 58.351562 59.511719 L 60.128906 59.492188 C 60.15625 59.332031 60.1875 59.171875 60.230469 59.007812 C 60.328125 58.648438 60.535156 57.941406 60.703125 57.433594 C 60.078125 57.714844 58.984375 57.886719 58.539062 57.582031 C 58.449219 57.523438 58.335938 57.40625 58.324219 57.214844 L 58.3125 57.214844 C 57.683594 57.226562 57.175781 57.746094 57.1875 58.382812 C 57.199219 59.003906 57.710938 59.511719 58.332031 59.511719 L 58.332031 59.652344 L 58.351562 59.511719 "/><path style=" stroke:none;fill-rule:nonzero;fill:#100f0d;fill-opacity:1;" d="M 67.308594 53.347656 C 67.269531 53.191406 66.710938 52.835938 65.328125 52.5 C 63.449219 52.042969 61.578125 51.972656 61.246094 52.351562 C 60.609375 53.074219 61.847656 54.652344 61.859375 54.667969 C 61.902344 54.726562 61.898438 54.804688 61.847656 54.859375 C 61.621094 55.09375 61.097656 55.382812 60.488281 55.722656 C 59.753906 56.125 58.839844 56.632812 58.65625 56.980469 C 58.539062 57.238281 58.652344 57.3125 58.699219 57.34375 C 59.128906 57.636719 60.570312 57.308594 60.871094 56.996094 C 60.917969 56.949219 60.996094 56.9375 61.050781 56.976562 C 61.109375 57.011719 61.136719 57.085938 61.109375 57.148438 C 60.941406 57.578125 60.632812 58.625 60.507812 59.085938 C 60.28125 59.914062 60.292969 60.710938 60.535156 61.378906 C 60.648438 61.691406 60.871094 62.109375 61.277344 62.332031 C 61.449219 62.425781 61.644531 62.480469 61.882812 62.511719 C 61.96875 62.519531 62.074219 62.53125 62.183594 62.539062 C 61.628906 61.957031 61.460938 60.875 61.488281 60.253906 C 61.511719 59.804688 61.566406 59.453125 61.664062 59.179688 C 61.691406 59.101562 61.773438 59.0625 61.847656 59.089844 C 61.921875 59.113281 61.960938 59.199219 61.933594 59.273438 C 61.847656 59.523438 61.792969 59.847656 61.773438 60.269531 C 61.742188 60.960938 61.972656 62.121094 62.59375 62.511719 C 62.890625 62.699219 63.246094 62.683594 63.652344 62.464844 L 63.398438 62.015625 C 63.359375 61.886719 63.335938 61.753906 63.320312 61.621094 C 63.296875 61.425781 63.285156 61.234375 63.28125 61.082031 L 63.277344 61.007812 C 63.261719 60.707031 63.25 60.398438 63.25 60.097656 C 63.25 59.992188 63.25 59.890625 63.253906 59.785156 C 63.261719 59.675781 63.261719 59.5625 63.261719 59.449219 L 63.261719 59.402344 C 63.261719 59.320312 63.324219 59.257812 63.402344 59.253906 C 63.46875 59.253906 63.546875 59.316406 63.546875 59.394531 L 63.546875 59.449219 C 63.550781 59.5625 63.546875 59.679688 63.542969 59.792969 C 63.539062 59.894531 63.535156 59.996094 63.535156 60.097656 C 63.535156 60.394531 63.550781 60.699219 63.566406 60.992188 L 63.566406 61.070312 C 63.570312 61.136719 63.574219 61.207031 63.578125 61.28125 C 63.605469 61.703125 63.671875 62.253906 63.996094 62.527344 C 64.21875 62.710938 64.507812 62.667969 64.6875 62.546875 C 64.863281 62.429688 64.976562 62.238281 64.972656 62.0625 C 64.972656 62.058594 64.972656 62.054688 64.976562 62.050781 C 64.902344 61.878906 64.835938 61.667969 64.785156 61.410156 C 64.679688 60.882812 64.644531 60.246094 64.652344 59.859375 C 64.652344 59.773438 64.65625 59.699219 64.660156 59.644531 C 64.667969 59.566406 64.742188 59.511719 64.816406 59.511719 C 64.894531 59.519531 64.953125 59.59375 64.945312 59.671875 C 64.925781 59.914062 64.933594 60.683594 65.066406 61.351562 C 65.128906 61.675781 65.214844 61.925781 65.308594 62.074219 C 65.351562 62.140625 65.390625 62.183594 65.433594 62.207031 C 65.546875 62.269531 65.699219 62.335938 65.785156 62.28125 C 66.023438 62.140625 65.988281 61.363281 65.96875 60.902344 C 65.957031 60.699219 65.953125 60.523438 65.960938 60.398438 C 66.027344 59.617188 66.199219 58.949219 66.371094 58.304688 C 66.644531 57.25 66.902344 56.25 66.597656 54.964844 C 66.585938 54.914062 66.605469 54.859375 66.640625 54.824219 C 66.648438 54.8125 67.488281 54.054688 67.308594 53.347656 "/></g></svg>