<svg xmlns="http://www.w3.org/2000/svg" xmlns:xlink="http://www.w3.org/1999/xlink" width="150" zoomAndPan="magnify" viewBox="0 0 113.04 120.96" height="150" preserveAspectRatio="xMidYMid meet" version="1.0"><path fill="#ffffff" d="M 108.660156 57.5 C 105.03125 48.351562 97.460938 46.265625 89.410156 44.046875 C 85.796875 43.050781 82.0625 42.023438 78.691406 40.292969 C 78.5625 40.222656 78.429688 40.152344 78.289062 40.078125 C 77.691406 39.746094 77.195312 39.410156 76.769531 39.050781 L 76.535156 38.855469 L 76.730469 38.617188 C 77.421875 37.777344 77.945312 36.972656 78.398438 36.058594 C 83.652344 27.453125 85.984375 15.671875 79.355469 8.765625 C 75.941406 5.214844 70.351562 2.824219 65.441406 2.824219 C 63.058594 2.824219 60.941406 3.355469 59.144531 4.398438 C 57.195312 5.53125 53.414062 7.308594 51.5 7.519531 C 51.011719 7.570312 50.503906 7.597656 50.070312 7.613281 C 48.621094 7.679688 47.121094 7.75 45.855469 8.769531 C 44.328125 9.988281 43.78125 11.523438 44.3125 13.089844 C 44.644531 14.078125 45.398438 15.015625 46.429688 15.734375 L 46.628906 15.871094 L 46.546875 16.09375 C 45.910156 17.855469 46.082031 20.046875 46.234375 21.980469 C 46.257812 22.273438 46.277344 22.554688 46.296875 22.832031 L 46.347656 23.574219 C 46.46875 25.578125 46.609375 27.847656 47.703125 29.421875 L 47.859375 29.546875 L 47.867188 29.683594 C 47.898438 30.199219 47.9375 30.722656 47.992188 31.261719 C 48.132812 32.738281 48.378906 34.332031 48.742188 36.132812 C 49.183594 38.289062 50.035156 40.222656 51.203125 41.734375 C 52.179688 42.988281 53.316406 43.992188 54.582031 44.722656 L 55.492188 45.246094 L 54.445312 45.300781 C 50.714844 45.5 47.867188 46.472656 45.488281 48.367188 C 41.800781 51.304688 39.726562 55.648438 37.722656 59.851562 L 37.132812 61.085938 L 36.828125 60.660156 C 35.6875 59.050781 34.582031 57.644531 33.449219 56.367188 L 33.363281 56.273438 L 33.371094 56.144531 C 33.40625 55.574219 33.511719 52.621094 32.316406 50.4375 C 31.707031 49.332031 29.867188 47.917969 27.847656 47 L 27.667969 46.917969 L 27.644531 44.269531 L 27.878906 44.207031 C 32.984375 42.855469 35.339844 42.242188 35.753906 42.15625 C 37.398438 41.824219 37.738281 40.386719 37.738281 38.335938 C 37.738281 35.859375 36.585938 34.335938 35.753906 34.1875 C 35.078125 34.070312 19.675781 29.964844 6.859375 26.53125 L 6.847656 26.53125 L 6.8125 26.523438 C 6.5625 26.46875 6.34375 26.4375 6.140625 26.4375 C 2.894531 26.4375 0.351562 31.59375 0.351562 38.175781 C 0.351562 44.753906 2.894531 49.910156 6.140625 49.910156 C 6.351562 49.910156 6.566406 49.882812 6.777344 49.832031 L 6.835938 49.824219 C 7.003906 49.78125 22.980469 45.507812 22.980469 45.507812 L 23.003906 47.628906 L 22.527344 47.332031 C 22.140625 47.09375 21.628906 46.816406 21.105469 46.800781 L 21.070312 46.808594 L 21.03125 46.792969 L 20.996094 46.808594 C 20.679688 46.941406 20.484375 47.175781 20.40625 47.503906 C 20.300781 47.96875 20.464844 48.554688 20.820312 48.960938 L 21.066406 49.242188 L 20.742188 49.433594 C 20.484375 49.585938 20.328125 49.820312 20.277344 50.136719 C 20.203125 50.589844 20.371094 51.132812 20.707031 51.519531 L 20.957031 51.800781 L 20.632812 51.988281 C 20.261719 52.207031 20.164062 52.5625 20.148438 52.824219 C 20.121094 53.359375 20.394531 53.960938 20.804688 54.277344 L 21.179688 54.46875 L 20.890625 54.769531 C 20.71875 54.949219 20.636719 55.214844 20.660156 55.515625 C 20.691406 55.917969 20.902344 56.3125 21.214844 56.550781 C 21.804688 57 22.375 57.367188 22.921875 57.640625 L 23.089844 57.726562 L 23.097656 58.328125 C 23.113281 59.601562 24.160156 60.632812 25.472656 60.632812 C 25.503906 60.632812 25.535156 60.628906 25.570312 60.625 C 25.605469 60.617188 25.644531 60.613281 25.679688 60.609375 L 26.347656 60.554688 L 25.957031 61.101562 C 25.859375 61.234375 25.796875 61.359375 25.765625 61.46875 L 25.765625 61.738281 C 25.765625 63.113281 25.851562 64.558594 25.933594 65.808594 L 25.941406 65.953125 C 26.019531 67.257812 26.101562 68.605469 26.101562 69.914062 L 26.101562 71.09375 C 26.097656 74.949219 26.089844 78.9375 26.820312 82.707031 C 27.398438 85.710938 28.871094 91.136719 32.238281 93.734375 C 35.746094 96.460938 41.589844 96.460938 45.859375 96.460938 L 46.007812 96.488281 C 46.011719 96.484375 46.015625 96.480469 46.019531 96.476562 L 46.027344 96.464844 L 46.0625 96.429688 C 46.0625 96.429688 59.566406 101.636719 70.351562 102.359375 C 72.5625 102.507812 74.320312 102.367188 74.425781 102.417969 C 74.535156 102.464844 77.824219 103.636719 79.625 104.160156 C 82.199219 104.90625 84.675781 105.28125 86.992188 105.28125 C 91.429688 105.28125 95.257812 103.90625 98.367188 101.191406 C 99.664062 100.058594 100.894531 98.691406 102.242188 96.882812 C 106.925781 90.582031 108.625 83.796875 109.757812 77.402344 C 111.195312 69.328125 110.847656 63.003906 108.660156 57.5 " fill-opacity="1" fill-rule="nonzero"/><path fill="#100f0d" d="M 54.890625 28.835938 C 53.605469 31.46875 51.125 37.542969 56.199219 37.421875 C 56.597656 37.414062 56.597656 36.792969 56.199219 36.800781 C 51.796875 36.90625 54.359375 31.328125 55.421875 29.148438 C 55.597656 28.789062 55.0625 28.476562 54.890625 28.835938 " fill-opacity="1" fill-rule="nonzero"/><path fill="#100f0d" d="M 63.414062 25.96875 C 63.707031 25.421875 62.285156 24.890625 61.980469 24.789062 C 60.992188 24.464844 59.902344 24.492188 58.925781 24.863281 C 58.722656 24.9375 57.546875 25.410156 57.90625 25.800781 C 58.261719 26.1875 59.113281 25.960938 59.558594 25.921875 C 60.332031 25.851562 61.101562 25.820312 61.871094 25.9375 C 62.167969 25.984375 63.210938 26.347656 63.414062 25.96875 " fill-opacity="1" fill-rule="nonzero"/><path fill="#100f0d" d="M 50.824219 24.757812 C 49.753906 24.839844 48.523438 25.652344 48.96875 26.015625 C 49.390625 26.375 50.246094 26.089844 51.175781 25.992188 C 52.109375 25.824219 53.328125 26.25 53.476562 25.792969 C 53.660156 25.273438 52.046875 24.527344 50.824219 24.757812 " fill-opacity="1" fill-rule="nonzero"/><path fill="#100f0d" d="M 50.53125 29.601562 C 50.472656 30.363281 50.8125 31.007812 51.289062 31.042969 C 51.765625 31.082031 52.199219 30.496094 52.257812 29.734375 C 52.316406 28.976562 51.976562 28.332031 51.5 28.296875 C 51.023438 28.257812 50.589844 28.84375 50.53125 29.601562 " fill-opacity="1" fill-rule="nonzero"/><path fill="#100f0d" d="M 60.011719 27.746094 C 59.535156 27.707031 59.101562 28.292969 59.042969 29.054688 C 58.984375 29.8125 59.324219 30.457031 59.800781 30.492188 C 60.277344 30.53125 60.710938 29.945312 60.769531 29.1875 C 60.828125 28.425781 60.488281 27.78125 60.011719 27.746094 " fill-opacity="1" fill-rule="nonzero"/><path fill="#100f0d" d="M 60.894531 38.589844 C 61.988281 40.546875 57.824219 42.269531 56.390625 39.875 C 57.964844 40.257812 59.90625 39.894531 60.894531 38.589844 Z M 55.90625 39.070312 C 55.757812 39.007812 55.648438 39.070312 55.585938 39.171875 C 55.523438 39.242188 55.484375 39.335938 55.53125 39.453125 C 56.171875 41.40625 58.082031 42.195312 59.976562 41.46875 C 61.605469 40.847656 62.3125 39.199219 61.09375 37.816406 C 60.925781 37.625 60.6875 37.734375 60.605469 37.914062 C 60.597656 37.921875 60.59375 37.925781 60.585938 37.9375 C 59.707031 39.496094 57.421875 39.695312 55.90625 39.070312 " fill-opacity="1" fill-rule="nonzero"/><path fill="#100f0d" d="M 26.058594 61.617188 C 26.058594 61.617188 26.023438 61.355469 26.765625 60.683594 C 26.882812 60.996094 26.96875 61.316406 27.035156 61.640625 C 26.71875 61.734375 26.417969 61.777344 26.195312 61.695312 C 26.101562 61.664062 26.066406 61.628906 26.058594 61.617188 Z M 24.871094 47.527344 C 24.828125 47.296875 24.902344 47.074219 25.113281 46.839844 C 25.261719 46.652344 25.484375 46.53125 25.621094 46.5625 C 28.171875 47.082031 31.289062 49.210938 32.042969 50.59375 C 33.082031 52.472656 33.101562 55.058594 33.070312 55.933594 C 33.070312 56.054688 33.0625 56.148438 33.058594 56.199219 C 32.871094 56.679688 32.371094 57.875 32.097656 58.253906 C 31.207031 59.414062 29.527344 60.535156 28.199219 61.15625 C 28.050781 61.230469 27.84375 61.328125 27.621094 61.421875 C 27.53125 61.011719 27.398438 60.609375 27.234375 60.21875 C 27.203125 60.140625 27.171875 60.058594 27.132812 59.984375 C 27.003906 59.71875 26.691406 59.816406 26.597656 60.023438 C 26.6875 59.816406 27.003906 59.71875 27.132812 59.984375 C 27.171875 60.058594 27.203125 60.136719 27.234375 60.21875 C 27.265625 60.195312 27.300781 60.167969 27.324219 60.144531 C 27.820312 59.636719 28.085938 58.964844 28.074219 58.257812 L 28.011719 50.703125 C 28.050781 50.730469 28.097656 50.746094 28.128906 50.773438 C 28.246094 50.835938 28.390625 50.808594 28.484375 50.730469 C 28.507812 50.703125 28.53125 50.679688 28.550781 50.648438 C 28.628906 50.492188 28.574219 50.308594 28.425781 50.226562 C 28.316406 50.164062 28.167969 50.089844 27.992188 50.003906 C 27.042969 49.511719 25.058594 48.496094 24.871094 47.527344 Z M 25.070312 51.609375 C 25 51.511719 24.910156 51.425781 24.828125 51.332031 C 24.910156 51.425781 25 51.511719 25.070312 51.609375 C 25.289062 51.925781 25.429688 52.378906 25.441406 52.796875 C 25.429688 52.378906 25.289062 51.925781 25.070312 51.609375 Z M 24.960938 54.167969 C 24.890625 54.066406 24.796875 53.976562 24.71875 53.886719 C 24.796875 53.972656 24.890625 54.066406 24.957031 54.164062 C 25.050781 54.296875 25.128906 54.453125 25.1875 54.617188 C 25.128906 54.453125 25.050781 54.296875 24.960938 54.167969 Z M 24.691406 56.417969 C 24.789062 56.554688 24.867188 56.722656 24.921875 56.898438 C 24.867188 56.722656 24.789062 56.554688 24.691406 56.417969 Z M 24.019531 55.734375 C 23.734375 55.507812 23.425781 55.308594 23.148438 55.117188 C 22.617188 54.753906 21.996094 54.308594 21.328125 54.265625 C 21.273438 54.226562 21.222656 54.199219 21.175781 54.167969 C 20.730469 53.863281 19.863281 52.617188 20.847656 52.21875 C 21.816406 52.230469 23.003906 53.253906 23.714844 53.820312 C 24.042969 54.078125 24.332031 54.347656 24.570312 54.6875 C 24.710938 54.929688 24.773438 55.183594 24.75 55.464844 C 24.761719 55.941406 24.308594 55.835938 24.019531 55.734375 Z M 24.421875 57.527344 C 24.433594 57.949219 23.894531 57.703125 23.742188 57.652344 C 23.222656 57.480469 22.738281 57.15625 22.277344 56.878906 C 22.023438 56.726562 21.769531 56.566406 21.527344 56.398438 C 21.1875 56.167969 20.496094 55.1875 21.238281 54.878906 C 22.027344 54.890625 23 55.734375 23.582031 56.195312 C 23.847656 56.40625 24.085938 56.628906 24.277344 56.90625 C 24.394531 57.101562 24.441406 57.304688 24.421875 57.527344 Z M 20.957031 49.664062 C 21.929688 49.675781 23.117188 50.699219 23.828125 51.261719 C 24.15625 51.523438 24.445312 51.789062 24.679688 52.132812 C 24.824219 52.375 24.882812 52.628906 24.867188 52.90625 C 24.878906 53.496094 24.1875 53.199219 23.964844 53.125 C 23.871094 53.09375 23.789062 53.054688 23.703125 53.019531 C 23.503906 52.882812 23.308594 52.746094 23.128906 52.621094 C 22.601562 52.269531 22.015625 51.839844 21.386719 51.671875 C 21.347656 51.648438 21.316406 51.628906 21.285156 51.609375 C 20.839844 51.304688 19.976562 50.058594 20.957031 49.664062 Z M 21.070312 47.109375 C 22.039062 47.121094 23.226562 48.144531 23.945312 48.714844 C 24.265625 48.96875 24.554688 49.234375 24.792969 49.574219 C 24.941406 49.820312 24.996094 50.078125 24.976562 50.351562 C 24.988281 50.941406 24.296875 50.644531 24.074219 50.570312 C 23.988281 50.539062 23.902344 50.5 23.816406 50.464844 C 23.617188 50.328125 23.417969 50.191406 23.238281 50.066406 C 22.714844 49.710938 22.125 49.289062 21.496094 49.117188 C 21.464844 49.09375 21.429688 49.074219 21.398438 49.054688 C 20.953125 48.75 20.09375 47.503906 21.070312 47.109375 Z M 20.171875 38.578125 C 20.328125 38.449219 20.46875 38.300781 20.636719 38.199219 C 20.847656 38.070312 21.078125 37.984375 21.472656 37.804688 C 21.195312 38.636719 20.808594 38.820312 20.171875 38.578125 Z M 19.921875 35.367188 C 19.300781 35.316406 19.222656 34.90625 19.148438 34.210938 C 19.859375 34.40625 20.074219 34.703125 19.921875 35.367188 Z M 17.917969 36.246094 C 18.429688 35.621094 18.429688 35.621094 19.214844 36.183594 C 18.695312 36.210938 18.324219 36.226562 17.917969 36.246094 Z M 17.632812 43.746094 C 17.992188 43.144531 17.992188 43.144531 18.609375 43.601562 C 18.25 43.660156 17.984375 43.695312 17.632812 43.746094 Z M 10.851562 30.441406 C 10.917969 30.605469 10.984375 30.773438 11.050781 30.945312 C 10.984375 30.773438 10.917969 30.605469 10.851562 30.441406 C 10.839844 30.414062 10.824219 30.390625 10.8125 30.367188 C 11.460938 29.734375 11.488281 29.75 12.023438 30.65625 C 11.5 30.558594 11.203125 30.503906 10.851562 30.441406 Z M 6.140625 49.601562 C 3.117188 49.601562 0.664062 44.476562 0.664062 38.175781 C 0.664062 31.875 3.117188 26.75 6.140625 26.75 C 9.164062 26.75 11.625 31.875 11.625 38.175781 C 11.625 44.476562 9.164062 49.601562 6.140625 49.601562 Z M 9.726562 27.617188 C 9.625 27.742188 9.546875 27.855469 9.433594 27.996094 C 9.34375 27.878906 9.242188 27.761719 9.144531 27.648438 C 9.125 27.582031 9.101562 27.519531 9.082031 27.445312 C 9.285156 27.5 9.496094 27.554688 9.726562 27.617188 Z M 25.652344 40.527344 C 25.71875 40.605469 25.792969 40.683594 25.859375 40.761719 C 25.695312 40.9375 25.527344 41.117188 25.359375 41.289062 C 25.292969 41.207031 25.21875 41.128906 25.148438 41.054688 C 25.316406 40.878906 25.484375 40.699219 25.652344 40.527344 Z M 26.109375 42.492188 C 26.027344 42.640625 25.953125 42.796875 25.875 42.945312 C 25.785156 42.878906 25.699219 42.800781 25.621094 42.730469 C 25.714844 42.605469 25.804688 42.472656 25.90625 42.351562 C 25.972656 42.398438 26.039062 42.441406 26.109375 42.492188 Z M 31.585938 36.015625 C 32.421875 36.625 32.421875 36.625 31.546875 37.28125 C 31.066406 36.828125 31.382812 36.433594 31.585938 36.015625 Z M 33.84375 34.496094 C 33.675781 34.464844 33.5625 34.304688 33.59375 34.136719 C 33.625 33.964844 33.785156 33.851562 33.953125 33.882812 C 35.027344 34.074219 36.191406 35.832031 36.191406 38.335938 C 36.191406 40.242188 35.917969 42.066406 33.960938 42.460938 C 33.941406 42.46875 33.917969 42.46875 33.898438 42.46875 C 33.753906 42.46875 33.625 42.367188 33.59375 42.21875 C 33.5625 42.050781 33.667969 41.890625 33.835938 41.855469 C 34.882812 41.644531 35.574219 40.964844 35.574219 38.335938 C 35.574219 36.058594 34.554688 34.621094 33.84375 34.496094 Z M 63.191406 95.4375 C 63.078125 95.476562 63.023438 95.476562 63.003906 95.464844 C 62.996094 95.457031 62.84375 95.308594 62.972656 94.453125 C 63.128906 94.507812 63.277344 94.601562 63.40625 94.675781 C 63.542969 94.75 63.671875 94.832031 63.800781 94.90625 C 63.621094 95.152344 63.414062 95.359375 63.191406 95.4375 Z M 62.84375 93.78125 L 62.8125 93.78125 C 62.792969 93.78125 62.777344 93.777344 62.761719 93.777344 L 62.714844 93.777344 C 60.953125 93.640625 59.214844 94 57.445312 93.957031 C 55.839844 93.917969 52.519531 92.710938 52.445312 90.632812 C 53.0625 91.003906 53.785156 91.253906 54.417969 91.511719 C 54.78125 91.660156 54.941406 91.058594 54.578125 90.910156 C 53.847656 90.613281 53.113281 90.328125 52.457031 89.875 C 51.695312 89.359375 51.472656 88.558594 51.542969 87.699219 C 52.679688 88.449219 54.0625 88.796875 55.269531 89.390625 C 55.628906 89.566406 55.9375 89.03125 55.578125 88.851562 C 54.730469 88.429688 53.828125 88.121094 52.957031 87.734375 C 52.480469 87.523438 52.023438 87.28125 51.589844 86.992188 C 50.875 86.507812 50.972656 85.8125 51.117188 85.097656 C 52.179688 85.675781 53.296875 86.117188 54.316406 86.488281 C 54.464844 86.542969 54.621094 86.59375 54.78125 86.648438 C 55.132812 86.773438 55.503906 86.898438 55.828125 87.058594 C 55.871094 87.078125 55.917969 87.089844 55.960938 87.089844 C 56.078125 87.089844 56.191406 87.019531 56.242188 86.910156 C 56.316406 86.753906 56.253906 86.574219 56.097656 86.5 C 55.738281 86.328125 55.351562 86.191406 54.980469 86.0625 C 54.832031 86.011719 54.675781 85.960938 54.527344 85.90625 C 53.082031 85.371094 51.425781 84.71875 50.058594 83.703125 C 49.855469 83.546875 49.199219 83.007812 49.316406 82.492188 C 49.339844 82.382812 49.398438 82.339844 49.445312 82.308594 C 49.59375 82.226562 49.941406 82.183594 50.75 82.445312 C 51.734375 82.773438 52.878906 83.25 54.089844 83.753906 C 55.492188 84.34375 56.945312 84.949219 58.164062 85.308594 C 58.175781 85.316406 58.195312 85.308594 58.207031 85.308594 C 58.230469 85.316406 58.25 85.320312 58.273438 85.316406 C 58.292969 85.316406 58.304688 85.308594 58.316406 85.308594 C 58.34375 85.304688 58.367188 85.296875 58.386719 85.285156 C 58.40625 85.277344 58.417969 85.265625 58.429688 85.253906 C 58.449219 85.242188 58.464844 85.230469 58.476562 85.214844 C 58.492188 85.199219 58.503906 85.179688 58.515625 85.160156 C 58.523438 85.148438 58.535156 85.136719 58.539062 85.117188 L 58.539062 85.113281 C 58.539062 85.105469 58.546875 85.105469 58.546875 85.097656 C 58.550781 85.082031 58.546875 85.0625 58.550781 85.042969 C 58.550781 85.023438 58.558594 85.007812 58.550781 84.988281 C 58.550781 84.96875 58.546875 84.949219 58.539062 84.925781 C 58.535156 84.90625 58.535156 84.886719 58.523438 84.875 C 58.515625 84.855469 58.503906 84.839844 58.492188 84.824219 C 58.476562 84.808594 58.464844 84.796875 58.453125 84.78125 C 58.433594 84.765625 58.417969 84.757812 58.398438 84.746094 C 58.386719 84.738281 58.375 84.726562 58.355469 84.722656 L 58.210938 84.664062 C 55.3125 83.621094 54.746094 82.910156 54.664062 82.582031 C 54.644531 82.488281 54.640625 82.359375 54.804688 82.183594 C 55.023438 81.953125 55.617188 82 56.402344 82.300781 C 57.085938 82.566406 57.8125 82.816406 58.675781 83.082031 C 60.5 83.636719 61.910156 84.300781 62.980469 85.09375 C 63.660156 85.609375 64.210938 86.253906 64.5625 86.941406 L 64.625 87.097656 C 64.660156 87.183594 64.734375 87.234375 64.820312 87.265625 L 64.816406 87.269531 C 64.847656 87.277344 64.878906 87.289062 64.910156 87.289062 L 65.007812 87.289062 C 65.347656 87.5 65.5625 88.34375 65.605469 89.160156 C 65.636719 90.625 65.03125 92.554688 64.414062 93.828125 C 64.34375 93.96875 64.253906 94.167969 64.136719 94.378906 C 63.734375 94.132812 63.3125 93.859375 62.855469 93.789062 C 62.847656 93.789062 62.84375 93.789062 62.84375 93.78125 Z M 76.519531 39.023438 C 76.523438 39.019531 76.53125 39.011719 76.535156 39.007812 C 76.53125 39.011719 76.523438 39.019531 76.519531 39.023438 C 76.546875 39.039062 76.578125 39.046875 76.609375 39.046875 C 76.578125 39.046875 76.546875 39.039062 76.519531 39.023438 Z M 73.285156 13.308594 C 73.007812 13.015625 72.734375 12.730469 72.289062 12.265625 C 73.425781 12.167969 74.292969 12.15625 75.128906 12.570312 C 75.132812 12.6875 75.140625 12.804688 75.140625 12.917969 C 74.550781 13.042969 73.957031 13.167969 73.285156 13.308594 Z M 71.851562 17.898438 C 71.621094 17.84375 71.394531 17.789062 71.164062 17.730469 C 71.195312 17.601562 71.226562 17.472656 71.257812 17.339844 C 71.480469 17.433594 71.703125 17.527344 71.925781 17.613281 C 71.898438 17.710938 71.875 17.804688 71.851562 17.898438 Z M 71.863281 6.304688 C 72.117188 6.34375 72.363281 6.378906 72.613281 6.417969 C 72.582031 6.535156 72.550781 6.648438 72.519531 6.765625 C 72.289062 6.695312 72.054688 6.628906 71.824219 6.558594 C 71.835938 6.472656 71.851562 6.394531 71.863281 6.304688 Z M 68.585938 13.507812 C 68.183594 13.128906 67.96875 12.929688 67.664062 12.644531 C 67.96875 12.398438 68.183594 12.210938 68.605469 11.871094 C 68.597656 12.503906 68.59375 12.882812 68.585938 13.507812 Z M 62.664062 16.28125 C 62.578125 15.996094 62.515625 15.785156 62.433594 15.515625 C 62.992188 15.304688 63.355469 15.300781 63.480469 16.101562 C 63.203125 16.164062 62.960938 16.210938 62.664062 16.28125 Z M 62.25 11.996094 C 62.71875 11.570312 63.003906 11.9375 63.460938 12.148438 C 63.289062 12.464844 63.160156 12.6875 62.949219 13.0625 C 62.621094 12.558594 62.453125 12.304688 62.25 11.996094 Z M 61.976562 14.386719 C 61.886719 14.480469 61.710938 14.476562 61.273438 14.597656 C 61.574219 14.214844 61.664062 14.066406 61.78125 13.964844 C 61.871094 13.890625 62.007812 13.875 62.324219 13.75 C 62.15625 14.070312 62.101562 14.265625 61.976562 14.386719 Z M 59.566406 10.261719 C 59.234375 10.109375 58.941406 9.972656 58.652344 9.835938 C 58.65625 9.753906 58.664062 9.675781 58.671875 9.59375 C 59.078125 9.53125 59.484375 9.476562 60.136719 9.382812 C 59.871094 9.792969 59.738281 9.988281 59.566406 10.261719 Z M 79.71875 27.171875 C 79.875 27.570312 79.992188 27.878906 80.214844 28.460938 C 79.671875 28.175781 79.378906 28.023438 78.886719 27.765625 C 79.261719 27.5 79.4375 27.375 79.71875 27.171875 Z M 80.734375 24.195312 C 81.171875 24.828125 80.980469 25.03125 80.324219 25.03125 C 80.492188 24.679688 80.609375 24.4375 80.734375 24.195312 Z M 108.949219 57.386719 C 105.257812 48.085938 97.605469 45.984375 89.507812 43.75 C 85.902344 42.757812 82.179688 41.734375 78.835938 40.019531 C 78.707031 39.949219 78.578125 39.882812 78.441406 39.804688 C 77.941406 39.527344 77.425781 39.199219 76.96875 38.816406 C 77.691406 37.933594 78.230469 37.097656 78.664062 36.222656 C 78.09375 37.152344 77.496094 38.050781 76.859375 38.90625 C 76.796875 38.988281 76.703125 39.03125 76.609375 39.03125 C 76.703125 39.03125 76.796875 38.988281 76.859375 38.90625 C 77.496094 38.050781 78.09375 37.152344 78.664062 36.222656 C 84.109375 27.296875 86.144531 15.394531 79.578125 8.550781 C 74.699219 3.472656 65.265625 0.480469 58.992188 4.128906 C 57.0625 5.25 53.339844 7.007812 51.46875 7.210938 C 51.003906 7.261719 50.527344 7.285156 50.066406 7.304688 C 48.5625 7.371094 47.011719 7.441406 45.664062 8.527344 C 44.023438 9.835938 43.441406 11.492188 44.019531 13.191406 C 44.390625 14.28125 45.210938 15.261719 46.257812 15.988281 C 45.503906 18.078125 45.839844 20.703125 45.992188 22.855469 C 46.144531 25.074219 46.164062 27.75 47.472656 29.628906 C 47.5 29.660156 47.527344 29.675781 47.558594 29.703125 C 47.40625 26.96875 47.585938 24.484375 48.105469 22.332031 L 48.195312 21.9375 C 48.5625 20.40625 48.96875 18.699219 49.574219 17.234375 C 49.742188 17.253906 49.910156 17.261719 50.070312 17.265625 C 50.125 17.265625 50.183594 17.273438 50.238281 17.273438 C 51.796875 17.316406 53.371094 17.570312 54.890625 17.8125 C 56.535156 18.078125 58.230469 18.359375 59.9375 18.375 C 60.765625 18.382812 61.585938 18.328125 62.410156 18.226562 C 66.980469 19.46875 65.457031 25.117188 67.355469 28.363281 C 67.925781 27.929688 69.183594 27.765625 69.183594 27.765625 C 69.316406 27.75 69.445312 27.742188 69.570312 27.742188 C 70.402344 27.753906 71.171875 28.21875 71.714844 29.070312 C 72.429688 30.191406 72.511719 31.636719 71.898438 32.582031 C 71.566406 33.09375 70.769531 33.535156 70.074219 33.59375 C 70 33.597656 69.941406 33.636719 69.894531 33.683594 C 69.859375 33.734375 69.835938 33.800781 69.839844 33.863281 C 69.847656 34.007812 69.96875 34.117188 70.113281 34.105469 C 70.285156 34.09375 70.457031 34.0625 70.625 34.011719 C 70.835938 34.558594 71.050781 35.097656 71.261719 35.644531 C 71.472656 37.1875 72.769531 38.40625 74.164062 38.976562 C 74.683594 39.191406 75.125 39.316406 75.527344 39.324219 C 75.832031 39.328125 76.109375 39.261719 76.371094 39.117188 C 76.875 39.566406 77.445312 39.949219 78.015625 40.277344 C 77.988281 40.378906 77.964844 40.46875 77.957031 40.488281 C 77.574219 42.449219 76.226562 44.214844 74.824219 45.835938 C 73.226562 47.675781 71.601562 48.707031 69.710938 49.066406 C 68.183594 49.359375 66.488281 49.363281 65.082031 49.078125 C 64.015625 48.863281 62.78125 48.402344 61.925781 47.472656 C 63.101562 47.484375 64.535156 47.007812 65.445312 44.988281 C 65.445312 44.988281 65.445312 44.984375 65.445312 44.984375 C 65.625 44.90625 65.742188 44.847656 65.761719 44.835938 C 65.914062 44.761719 65.976562 44.578125 65.902344 44.421875 C 65.902344 44.414062 65.898438 44.414062 65.898438 44.414062 C 65.824219 44.265625 65.644531 44.203125 65.488281 44.277344 C 65.457031 44.292969 62.535156 45.730469 61.050781 45.898438 C 60.414062 45.964844 59.753906 45.949219 58.898438 45.835938 C 57.976562 45.71875 57.042969 45.46875 56.046875 45.085938 C 54.316406 44.414062 52.730469 43.1875 51.449219 41.542969 C 50.304688 40.074219 49.476562 38.183594 49.042969 36.074219 C 48.691406 34.34375 48.449219 32.753906 48.296875 31.226562 C 47.96875 27.921875 48.105469 24.976562 48.703125 22.476562 L 48.796875 22.078125 C 49.171875 20.503906 49.601562 18.730469 50.238281 17.273438 C 50.183594 17.273438 50.125 17.265625 50.070312 17.265625 C 49.910156 17.261719 49.742188 17.253906 49.578125 17.234375 C 48.96875 18.699219 48.5625 20.40625 48.195312 21.9375 L 48.105469 22.335938 C 47.585938 24.484375 47.40625 26.96875 47.558594 29.703125 C 47.589844 30.222656 47.628906 30.75 47.683594 31.289062 C 47.832031 32.835938 48.085938 34.441406 48.4375 36.195312 C 48.890625 38.398438 49.761719 40.378906 50.960938 41.929688 C 51.957031 43.207031 53.136719 44.246094 54.429688 44.992188 C 54.8125 45.214844 55.207031 45.402344 55.617188 45.570312 C 55.683594 45.601562 55.753906 45.636719 55.824219 45.660156 C 56.871094 46.070312 57.847656 46.324219 58.816406 46.457031 C 59.363281 46.523438 59.832031 46.5625 60.269531 46.5625 C 60.390625 46.5625 60.5 46.542969 60.609375 46.542969 C 61.242188 48.148438 62.726562 49.234375 64.957031 49.6875 C 65.691406 49.835938 66.496094 49.910156 67.316406 49.910156 C 68.160156 49.910156 69.019531 49.828125 69.828125 49.675781 C 71.863281 49.285156 73.601562 48.191406 75.289062 46.238281 C 76.746094 44.558594 78.15625 42.710938 78.5625 40.613281 C 78.570312 40.605469 78.570312 40.59375 78.574219 40.574219 C 81.976562 42.3125 85.71875 43.347656 89.339844 44.347656 C 97.289062 46.535156 104.800781 48.609375 108.375 57.613281 C 110.53125 63.066406 110.878906 69.332031 109.449219 77.34375 C 108.320312 83.710938 106.632812 90.457031 101.992188 96.699219 C 100.671875 98.476562 99.453125 99.832031 98.167969 100.953125 C 92.292969 106.089844 84.886719 105.371094 79.714844 103.863281 C 78.964844 103.640625 78.207031 103.390625 77.433594 103.117188 C 75.113281 102.28125 72.691406 101.183594 70.070312 99.78125 C 68.742188 99.0625 67.3125 98.242188 65.710938 97.269531 C 65.007812 96.839844 64.308594 96.40625 63.613281 95.964844 C 63.601562 95.960938 63.585938 95.941406 63.570312 95.933594 C 63.941406 95.742188 64.238281 95.382812 64.480469 95.015625 C 64.5 94.984375 64.519531 94.960938 64.535156 94.929688 C 64.722656 94.621094 64.871094 94.308594 64.96875 94.097656 C 65.570312 92.859375 66.261719 90.816406 66.222656 89.136719 C 66.21875 89.019531 66.207031 88.839844 66.175781 88.640625 C 66.125 88.238281 66.019531 87.722656 65.804688 87.3125 L 66.039062 87.3125 C 70.425781 87.414062 74.816406 87.671875 79.183594 88.121094 C 79.449219 88.148438 79.707031 88.175781 79.972656 88.199219 C 80 88.210938 80.027344 88.210938 80.058594 88.210938 C 83.449219 88.578125 86.828125 89.054688 90.1875 89.65625 C 90.574219 89.726562 90.742188 89.128906 90.351562 89.0625 C 87.078125 88.472656 83.78125 88 80.472656 87.636719 C 84.101562 79.738281 85.363281 70.980469 88.8125 63.015625 C 88.96875 62.652344 88.4375 62.335938 88.277344 62.699219 C 84.796875 70.75 83.546875 79.609375 79.832031 87.566406 C 74.953125 87.046875 70.050781 86.753906 65.140625 86.675781 C 65.128906 86.667969 65.117188 86.660156 65.105469 86.660156 C 64.710938 85.875 64.097656 85.160156 63.34375 84.597656 C 62.21875 83.753906 60.753906 83.066406 58.855469 82.488281 C 58.007812 82.226562 57.296875 81.984375 56.628906 81.722656 C 55.875 81.433594 54.875 81.195312 54.355469 81.753906 C 54.007812 82.128906 54.007812 82.488281 54.0625 82.722656 C 54.101562 82.871094 54.175781 83.019531 54.273438 83.164062 C 53.074219 82.660156 51.9375 82.183594 50.941406 81.855469 C 50.410156 81.679688 49.648438 81.480469 49.144531 81.769531 C 48.921875 81.890625 48.773438 82.097656 48.71875 82.351562 C 48.519531 83.183594 49.242188 83.863281 49.6875 84.199219 C 49.964844 84.402344 50.253906 84.597656 50.550781 84.777344 C 50.34375 85.804688 50.285156 86.574219 50.980469 87.261719 C 50.824219 88.253906 50.921875 89.15625 51.589844 89.9375 C 51.679688 90.035156 51.765625 90.121094 51.855469 90.203125 C 51.679688 91.902344 53.210938 93.144531 54.59375 93.832031 C 57.09375 95.078125 59.722656 94.257812 62.359375 94.371094 C 62.242188 95.152344 62.3125 95.636719 62.578125 95.898438 C 62.578125 95.898438 64.710938 97.378906 65.390625 97.796875 C 67.003906 98.773438 68.4375 99.601562 69.777344 100.328125 C 71.03125 101 72.242188 101.601562 73.421875 102.140625 C 60.578125 101.785156 47.988281 96.898438 46.34375 96.242188 L 46.355469 95.964844 C 46.335938 89.378906 46.113281 82.605469 47.597656 76.148438 L 47.597656 76.097656 C 47.597656 76.085938 47.605469 76.078125 47.605469 76.066406 C 48.257812 70.085938 49.75 64.203125 52.640625 58.90625 C 52.832031 58.558594 52.300781 58.242188 52.109375 58.59375 C 49.175781 63.964844 47.671875 69.925781 47 75.988281 C 45.496094 82.511719 45.71875 89.347656 45.738281 96.007812 C 45.675781 96.039062 45.632812 96.089844 45.601562 96.152344 C 41.378906 96.144531 35.765625 96.078125 32.425781 93.492188 C 29.019531 90.855469 27.585938 85.03125 27.121094 82.648438 C 26.398438 78.871094 26.40625 74.863281 26.410156 70.992188 L 26.410156 69.914062 C 26.410156 68.550781 26.324219 67.140625 26.238281 65.789062 C 26.167969 64.640625 26.109375 63.464844 26.089844 62.308594 C 26.207031 62.339844 26.335938 62.359375 26.464844 62.359375 C 27.160156 62.359375 27.960938 61.960938 28.511719 61.695312 C 29.757812 61.113281 31.566406 59.960938 32.59375 58.621094 C 32.851562 58.261719 33.230469 57.402344 33.457031 56.859375 C 34.652344 58.230469 35.753906 59.660156 36.792969 61.136719 C 36.773438 61.304688 36.894531 61.441406 37.039062 61.480469 C 39.246094 64.671875 41.167969 68.066406 43.058594 71.464844 C 43.25 71.8125 43.789062 71.503906 43.589844 71.15625 C 41.679688 67.710938 39.726562 64.28125 37.488281 61.058594 C 39.542969 56.777344 41.507812 52.261719 45.125 49.0625 C 48.171875 46.371094 51.777344 45.636719 55.617188 45.570312 C 55.207031 45.402344 54.8125 45.214844 54.429688 44.992188 C 51.140625 45.164062 48.054688 45.929688 45.296875 48.125 C 41.328125 51.289062 39.226562 56 37.082031 60.480469 C 36.023438 58.992188 34.898438 57.539062 33.679688 56.164062 C 33.648438 56.125 33.621094 56.089844 33.582031 56.050781 C 33.582031 56.046875 33.578125 56.046875 33.570312 56.039062 C 33.472656 55.941406 33.355469 55.933594 33.253906 55.984375 C 33.195312 56 33.144531 56.039062 33.109375 56.097656 C 33.144531 56.039062 33.195312 56 33.253906 55.984375 C 33.355469 55.933594 33.472656 55.9375 33.570312 56.039062 C 33.578125 56.042969 33.582031 56.042969 33.582031 56.050781 C 33.621094 56.089844 33.652344 56.125 33.683594 56.164062 C 33.71875 55.523438 33.8125 52.523438 32.585938 50.289062 C 31.917969 49.078125 29.964844 47.621094 27.976562 46.714844 L 27.957031 44.507812 C 27.757812 44.5625 27.5625 44.613281 27.363281 44.664062 C 27.332031 44.667969 27.300781 44.683594 27.269531 44.6875 L 23.710938 45.636719 C 23.617188 45.660156 23.519531 45.6875 23.425781 45.710938 C 23.402344 45.71875 23.371094 45.722656 23.34375 45.722656 C 23.210938 45.722656 23.085938 45.628906 23.046875 45.488281 C 23.003906 45.328125 23.105469 45.152344 23.265625 45.109375 L 27.203125 44.066406 C 27.371094 44.019531 27.535156 44.117188 27.578125 44.285156 C 27.625 44.453125 27.523438 44.621094 27.363281 44.664062 C 27.5625 44.613281 27.757812 44.5625 27.957031 44.507812 C 32.105469 43.410156 35.339844 42.5625 35.8125 42.460938 C 37.773438 42.066406 38.046875 40.242188 38.046875 38.335938 C 38.046875 35.832031 36.882812 34.074219 35.808594 33.882812 C 35.089844 33.757812 16.589844 28.816406 6.898438 26.222656 L 6.882812 26.222656 C 6.640625 26.167969 6.394531 26.128906 6.140625 26.128906 C 2.722656 26.128906 0.0429688 31.421875 0.0429688 38.175781 C 0.0429688 44.929688 2.722656 50.222656 6.140625 50.222656 C 6.382812 50.222656 6.621094 50.191406 6.851562 50.132812 C 6.871094 50.132812 6.886719 50.132812 6.898438 50.128906 C 7.054688 50.089844 15.105469 47.933594 22.675781 45.910156 L 22.691406 47.070312 C 22.917969 47.21875 23.140625 47.375 23.351562 47.511719 C 23.816406 47.828125 24.359375 48.179688 24.785156 48.59375 C 24.796875 48.609375 24.808594 48.621094 24.824219 48.632812 C 24.953125 48.769531 25.078125 48.90625 25.179688 49.054688 C 25.402344 49.371094 25.546875 49.824219 25.554688 50.246094 C 25.542969 49.824219 25.402344 49.371094 25.179688 49.054688 C 25.078125 48.90625 24.953125 48.769531 24.824219 48.632812 C 24.808594 48.621094 24.796875 48.609375 24.785156 48.597656 C 24.359375 48.179688 23.816406 47.828125 23.351562 47.511719 C 23.140625 47.375 22.917969 47.21875 22.691406 47.070312 C 22.199219 46.765625 21.667969 46.507812 21.113281 46.492188 C 21.0625 46.476562 21.007812 46.476562 20.941406 46.492188 C 20.925781 46.5 20.921875 46.507812 20.910156 46.511719 C 20.898438 46.519531 20.890625 46.519531 20.878906 46.523438 C 19.796875 46.976562 19.894531 48.375 20.585938 49.167969 C 19.699219 49.6875 19.820312 50.972656 20.476562 51.722656 C 19.46875 52.3125 19.757812 53.867188 20.636719 54.53125 C 20.644531 54.539062 20.65625 54.550781 20.667969 54.558594 C 20.09375 55.160156 20.339844 56.277344 21.027344 56.796875 C 21.550781 57.199219 22.152344 57.601562 22.78125 57.917969 L 22.789062 58.332031 C 22.808594 59.773438 23.996094 60.945312 25.429688 60.945312 C 25.429688 60.945312 25.464844 60.945312 25.472656 60.945312 C 25.550781 60.945312 25.625 60.925781 25.707031 60.917969 C 25.859375 60.703125 26.082031 60.460938 26.378906 60.195312 C 26.433594 60.144531 26.503906 60.125 26.570312 60.121094 C 26.503906 60.128906 26.433594 60.144531 26.378906 60.195312 C 26.082031 60.460938 25.859375 60.703125 25.707031 60.921875 C 25.488281 61.226562 25.402344 61.496094 25.453125 61.734375 C 25.453125 61.738281 25.453125 61.738281 25.457031 61.738281 C 25.457031 63.089844 25.539062 64.480469 25.625 65.828125 C 25.707031 67.171875 25.792969 68.570312 25.792969 69.914062 L 25.792969 70.996094 C 25.785156 74.894531 25.773438 78.933594 26.515625 82.765625 C 27.101562 85.8125 28.605469 91.320312 32.050781 93.980469 C 35.617188 96.753906 41.519531 96.773438 45.859375 96.773438 L 46 96.773438 C 47.136719 97.234375 61.085938 102.777344 74.875 102.785156 C 76.480469 103.460938 78.027344 104.015625 79.539062 104.457031 C 81.722656 105.089844 84.292969 105.59375 86.992188 105.59375 C 90.859375 105.59375 94.984375 104.554688 98.570312 101.421875 C 99.890625 100.269531 101.132812 98.886719 102.488281 97.070312 C 107.207031 90.722656 108.917969 83.894531 110.0625 77.457031 C 111.507812 69.324219 111.15625 62.949219 108.949219 57.386719 " fill-opacity="1" fill-rule="nonzero"/></svg>